# Blender 5.1.2
# www.blender.org
mtllib enemy.mtl
o Bazooka_Soldier
v 0.497400 10.630424 -1.084792
v 0.000000 10.598325 -1.214192
v 0.861600 10.718225 -0.731392
v 0.994900 10.838224 -0.248692
v 0.861600 10.958125 0.234108
v 0.497400 11.045924 0.587508
v 0.000000 11.078025 0.716908
v -0.497400 10.630424 -1.084792
v -0.861600 10.718225 -0.731392
v -0.994900 10.838224 -0.248692
v -0.861600 10.958125 0.234108
v -0.497400 11.045924 0.587508
v -0.660900 6.433100 -0.315400
v -0.660900 6.433100 0.293100
v -0.707500 6.534500 -0.011200
v 0.660900 6.433100 -0.315300
v 0.660900 6.433000 0.293200
v 0.707500 6.534500 -0.011100
v -0.452900 6.470800 0.322100
v 0.000000 6.470800 0.576400
v 0.000000 5.718800 0.891400
v 0.661900 5.897300 0.542200
v 0.805000 5.718800 0.017200
v 0.661900 5.897300 -0.546100
v -0.661900 5.897300 0.542200
v -0.805000 5.718800 0.017200
v -0.661900 5.897300 -0.546100
v 0.000000 5.718800 -0.857600
v 0.000000 6.470800 -0.542600
v 0.452900 6.470800 -0.287600
v 0.452900 6.470800 0.322100
v -0.452900 6.470800 -0.287600
v 0.000000 4.149800 1.068900
v 0.795000 4.149200 -0.618000
v 1.105900 4.149200 0.056800
v 0.000000 4.149200 -1.021100
v 0.795000 4.149200 0.730800
v -0.795000 4.149200 -0.618000
v -0.795000 4.149200 0.730800
v -1.105900 4.149200 0.056800
v 0.400500 6.617500 0.017200
v 0.275300 6.749300 0.142699
v 0.000000 6.749300 0.264199
v -0.275300 6.749300 0.142699
v 0.000000 6.749300 -0.221501
v -0.275300 6.749300 -0.100001
v 0.000000 5.193300 -1.048200
v -0.785700 5.193300 -0.720800
v 0.000000 4.337700 -1.212800
v -0.961800 4.337700 -0.823700
v 0.785700 5.193300 -0.720800
v 1.022700 5.193300 0.011600
v 0.762200 5.193300 0.759100
v 0.000000 5.193300 1.102600
v -0.762200 5.193300 0.759100
v -1.022700 5.193300 0.011600
v 0.961800 4.337700 -0.823700
v 1.296700 4.337700 0.055700
v 0.906100 4.337700 0.935100
v 0.000000 4.337700 1.333100
v -0.906100 4.337700 0.935100
v -1.296700 4.337700 0.055700
v -0.400500 6.617500 0.017200
v 0.275300 6.749300 -0.100001
v -0.610500 6.188300 -0.484400
v -0.689400 5.943500 -0.315400
v -0.764300 5.842100 -0.012400
v -0.689400 5.943500 0.293100
v -0.576600 6.192400 0.474700
v 0.610500 6.188400 -0.484400
v 0.689400 5.943500 -0.315400
v 0.764300 5.842100 -0.011100
v 0.908600 5.836300 0.306200
v 0.689400 5.943500 0.293100
v 0.576600 6.192300 0.474700
v 0.797500 1.268300 0.422300
v 0.207000 1.493000 0.003100
v 0.439000 1.238600 -0.000000
v 0.786400 1.532800 0.682200
v 1.156000 1.298000 -0.000000
v 1.391800 1.526800 0.003100
v 0.312900 1.903600 0.003100
v 0.775300 1.946800 0.568300
v 1.288700 1.903400 0.003100
v 0.797500 1.268300 -0.422300
v 0.786800 1.496000 -0.682200
v 0.776100 1.787800 -0.607100
v 0.854900 0.710200 -0.550200
v 0.312500 0.742600 -0.173200
v 0.838600 0.435400 -0.755400
v 0.297000 0.438800 -0.362900
v 0.819800 0.020900 -0.726000
v 0.299800 0.025200 -0.361100
v 1.342500 0.013100 -0.361400
v 0.116400 0.022700 0.601600
v 1.568900 0.005900 0.594600
v 0.025000 0.024400 1.274600
v 1.699600 0.004800 1.266400
v 0.222300 0.023200 1.814600
v 1.480900 0.008600 1.808600
v 0.831600 0.016500 1.983300
v 1.551200 0.465800 1.895900
v 0.855900 0.503400 2.076500
v 1.387400 0.838300 1.712300
v 0.874300 0.873000 1.865200
v 1.151200 1.041300 1.318600
v 0.882400 1.067900 1.421600
v 0.643500 1.068000 1.320900
v 0.397300 0.890300 1.717000
v 0.201800 0.536700 1.902300
v 0.025400 0.490500 1.322800
v 0.203800 0.796900 1.214100
v 0.504700 0.954700 0.881000
v 1.277800 0.914100 0.877500
v 1.570300 0.725100 1.207600
v 1.769900 0.396300 1.314400
v 0.110400 0.408200 0.575400
v 0.266600 0.716000 0.671400
v 0.486000 0.862800 0.417200
v 0.867200 0.891500 0.572700
v 1.247100 0.822800 0.413500
v 1.483700 0.652100 0.665700
v 1.314100 0.694500 -0.173400
v 1.609700 0.329400 0.568300
v 1.381200 0.381800 -0.363200
v -0.775300 1.946800 0.568300
v -0.207000 1.493000 0.003100
v -0.312900 1.903600 0.003100
v -0.786400 1.532800 0.682200
v -1.288700 1.903400 0.003100
v -1.391800 1.526800 0.003100
v -0.439000 1.238600 -0.000000
v -0.797500 1.268300 0.422300
v -1.156000 1.298000 -0.000000
v -0.797500 1.268300 -0.422300
v -0.786800 1.496000 -0.682200
v -0.776100 1.787800 -0.607100
v -0.854900 0.710200 -0.550200
v -0.312500 0.742600 -0.173200
v -0.486000 0.862800 0.417200
v -0.266600 0.716000 0.671400
v -0.504700 0.954700 0.881000
v -0.203800 0.796900 1.214100
v -0.643500 1.068000 1.320900
v -0.397300 0.890300 1.717000
v -0.882400 1.067900 1.421600
v -0.874300 0.873000 1.865200
v -1.151200 1.041300 1.318600
v -1.387400 0.838300 1.712300
v -1.277800 0.914100 0.877500
v -1.570300 0.725100 1.207600
v -1.483700 0.652100 0.665700
v -1.769900 0.396300 1.314400
v -1.609700 0.329400 0.568300
v -1.699600 0.004800 1.266400
v -1.568900 0.005900 0.594600
v -0.025000 0.024400 1.274600
v -0.116400 0.022700 0.601600
v -0.025400 0.490500 1.322800
v -0.110400 0.408200 0.575400
v -0.867200 0.891500 0.572700
v -0.297000 0.438800 -0.362900
v -0.299800 0.025200 -0.361100
v -1.342500 0.013100 -0.361400
v -1.381200 0.381800 -0.363200
v -1.314100 0.694500 -0.173400
v -1.247100 0.822800 0.413500
v -0.838600 0.435400 -0.755400
v -0.819800 0.020900 -0.726000
v -0.201800 0.536700 1.902300
v -0.855900 0.503400 2.076500
v -1.551200 0.465800 1.895900
v -0.222300 0.023200 1.814600
v -0.831600 0.016500 1.983300
v -1.480900 0.008600 1.808600
v 0.000000 3.501800 0.589300
v -0.314600 3.501800 0.598400
v 0.000000 3.304400 0.232400
v -0.631600 3.779600 0.844600
v 0.000000 3.779600 0.974100
v 1.130000 3.470600 0.011400
v 0.637100 3.779600 -0.773900
v 0.702200 3.305200 -0.573400
v 0.313600 3.504100 -0.484400
v 0.256300 3.219100 -0.236200
v 0.226800 3.325000 -0.227500
v 0.000000 3.779600 -0.903400
v 0.000000 3.501800 -0.475300
v 0.000000 3.330600 -0.155900
v 0.256200 3.217400 0.259100
v 0.356200 2.646500 0.003600
v 0.226800 3.325000 0.250300
v 0.698400 3.306000 0.568600
v 0.631600 3.779600 0.844600
v 0.314600 3.501800 0.598400
v 0.757900 2.168000 -0.517500
v 1.178600 2.675700 0.003600
v 1.254300 2.073400 0.003200
v 0.749800 2.661100 -0.499500
v 0.326500 2.072200 0.003200
v 0.749800 2.661100 0.494700
v 0.765200 2.047500 0.536100
v -0.637100 3.779600 -0.773900
v -0.226800 3.325000 -0.227500
v -0.226800 3.325000 0.250300
v -0.313600 3.504100 -0.484400
v -1.130000 3.470600 0.011900
v -0.698400 3.306000 0.568600
v -0.256200 3.217400 0.259100
v -0.256300 3.219100 -0.236200
v -0.702200 3.305200 -0.573400
v -0.356200 2.646500 0.003600
v -0.749800 2.661100 -0.499500
v -0.326900 2.072700 0.003300
v -0.757900 2.170700 -0.517300
v -1.178600 2.675700 0.003600
v -1.253200 2.073900 0.003300
v -0.765200 2.050500 0.535800
v -0.749800 2.661100 0.494700
v -1.164208 2.737980 -0.375658
v -1.379907 3.630280 -0.375658
v -1.164208 3.630280 -0.375658
v -1.379907 2.737980 -0.375658
v -1.128608 2.722180 0.002242
v -1.415607 2.722180 0.002242
v -1.164208 2.737980 0.380142
v -1.379907 2.737980 0.380142
v -1.164208 3.630280 0.380142
v -1.379907 3.630280 0.380142
v -1.128608 3.645980 0.002242
v -1.415607 3.645980 0.002242
v -1.207900 3.203400 0.005300
v -0.700800 3.311900 -0.654200
v -0.724500 3.050200 -0.636400
v -1.189100 3.500700 0.013900
v -0.724500 3.050200 0.631600
v -0.696500 3.312800 0.649300
v -0.234700 2.960800 0.137900
v -0.191800 3.211700 0.296100
v -0.234700 2.956100 -0.115900
v -0.191800 3.213600 -0.269200
v 0.000000 9.970224 -1.691192
v 0.804600 10.022224 -1.481992
v 1.393700 10.164225 -0.910292
v 1.609300 10.358225 -0.129392
v 1.393700 10.552224 0.651508
v 0.804600 10.694224 1.223108
v 0.000000 10.746224 1.432408
v 0.000000 9.182224 -1.782592
v 0.939900 9.242925 -1.538192
v 1.627900 9.408825 -0.870492
v 1.879800 9.635425 0.041708
v 1.627900 9.862024 0.953908
v 0.939900 10.027925 1.621608
v 0.000000 10.088625 1.866008
v 0.000000 8.631124 -1.647392
v 0.944000 8.692124 -1.401892
v 1.635100 8.858725 -0.731192
v 1.888100 9.086325 0.185008
v 1.635100 9.313925 1.101208
v 0.944000 9.480524 1.771908
v 0.000000 9.541525 2.017408
v 0.000000 8.511925 -1.407592
v 0.842800 8.566324 -1.188392
v 1.459800 8.715124 -0.589692
v 1.685600 8.918324 0.228308
v 1.459800 9.121525 1.046208
v 0.842800 9.270225 1.645008
v 0.000000 9.324724 1.864208
v -0.804600 10.022224 -1.481992
v -0.939900 9.242925 -1.538192
v -0.944000 8.692124 -1.401892
v -0.842800 8.566324 -1.188392
v 0.000000 9.132925 0.121008
v -1.459800 8.715124 -0.589692
v -1.685600 8.918324 0.228308
v -1.635100 8.858725 -0.731192
v -1.888100 9.086325 0.185008
v -1.627900 9.408825 -0.870492
v -1.879800 9.635425 0.041708
v -1.393700 10.164225 -0.910292
v -1.609300 10.358225 -0.129392
v -1.393700 10.552224 0.651508
v -1.627900 9.862024 0.953908
v -1.635100 9.313925 1.101208
v -1.459800 9.121525 1.046208
v -0.842800 9.270225 1.645008
v -0.944000 9.480524 1.771908
v -0.939900 10.027925 1.621608
v -0.804600 10.694224 1.223108
v -1.228000 8.504600 1.080699
v -1.193000 9.244300 1.017799
v -1.319900 8.856300 0.850699
v -0.874100 9.052900 1.430699
v -1.064400 8.251100 1.495299
v 0.000000 8.389900 1.812499
v -0.816300 7.956000 2.068399
v 0.000000 7.990600 2.278199
v -0.921900 7.502300 2.238899
v 0.001600 7.519100 2.531500
v -0.841700 7.438400 2.220000
v 0.001600 7.453800 2.487099
v -1.559000 7.801100 0.643499
v -1.500700 8.110400 0.333299
v -1.442700 9.544000 0.261699
v -0.915000 9.809300 1.304499
v -0.957700 9.362000 1.413699
v 0.000000 9.895600 1.559299
v 0.000000 9.456500 1.707699
v 0.915000 9.809300 1.304499
v 0.957700 9.362000 1.413699
v 1.193000 9.244300 1.017799
v 0.874100 9.052900 1.430699
v 0.000000 8.856100 1.740799
v 1.559000 7.801100 0.643499
v 1.228000 8.504600 1.080699
v 1.064400 8.251100 1.495299
v 1.500700 8.110400 0.333299
v 1.667900 7.390100 0.386699
v 1.301100 7.390100 -0.696701
v 1.442800 6.883700 0.590699
v 1.132800 6.874700 -0.578301
v 0.881400 6.539000 0.849200
v 0.001600 6.429700 0.338300
v 0.001600 6.443900 0.950500
v -0.881400 6.539000 0.849200
v 0.841700 7.438400 2.220000
v 0.921900 7.502300 2.238899
v 1.392300 7.398700 1.508299
v 1.474900 7.466600 1.506099
v 1.497400 7.354200 0.649199
v 1.640000 7.384300 0.513199
v 1.256600 6.925600 1.366099
v 1.331100 6.865500 1.357599
v 0.651400 6.715200 1.978199
v 0.713500 6.662200 1.966100
v 0.001600 6.654100 2.179199
v 0.001600 6.595200 2.186199
v -0.651400 6.715200 1.978199
v -0.713500 6.662200 1.966100
v -1.256600 6.925600 1.366099
v -1.331100 6.865500 1.357599
v -1.497400 7.354200 0.649199
v -1.640000 7.384300 0.513199
v -1.392300 7.398700 1.508299
v -1.474900 7.466600 1.506099
v -1.324700 7.891400 1.486299
v -1.442800 6.883700 0.590699
v -1.667900 7.390100 0.386699
v -1.301100 7.390100 -0.696701
v -1.108300 9.291500 -0.706301
v 0.001600 7.390100 -1.293901
v 0.000000 9.203200 -1.242701
v 1.108300 9.291500 -0.706301
v 1.442700 9.544000 0.261699
v 1.319900 8.856300 0.850699
v 0.001600 6.770700 -1.012000
v -1.132800 6.874700 -0.578301
v 0.816300 7.956000 2.068399
v 1.324700 7.891400 1.486299
v 0.001600 6.926100 1.367200
v 0.001500 7.355600 0.649199
v -2.547500 10.067220 1.322244
v -2.585800 10.170998 1.107791
v -2.681000 9.948621 1.083637
v -2.169600 9.989701 1.291530
v -2.242700 9.753192 1.516021
v -1.237700 9.603095 1.521663
v -1.281100 9.373109 1.781047
v 0.067300 9.365509 1.583492
v 0.067100 9.103683 1.836584
v 1.373000 9.599797 1.521778
v 1.415800 9.369610 1.781170
v 2.305800 9.984005 1.291729
v 2.378500 9.747294 1.516227
v 2.722500 10.164301 1.108025
v 2.684000 10.060525 1.322478
v 2.817200 9.941524 1.083885
v 2.400400 9.166681 1.296757
v 1.564000 8.645690 1.804648
v 1.884000 8.377639 1.501218
v 1.459600 8.133491 1.572883
v 0.066300 8.532370 1.857635
v -1.328000 8.137388 1.572746
v -1.751800 8.382335 1.501054
v -2.266200 9.172678 1.296547
v -1.431200 8.649888 1.804502
v 0.687700 11.583425 -0.852092
v 0.397100 11.513325 -1.134192
v 0.000000 11.487625 -1.237392
v -0.397100 11.513325 -1.134192
v -0.687700 11.583425 -0.852092
v -0.794100 11.679125 -0.466692
v -0.687700 11.774824 -0.081392
v -0.397100 11.844924 0.200708
v 0.000000 11.870524 0.303908
v 0.397100 11.844924 0.200708
v 0.687700 11.774824 -0.081392
v 0.794100 11.679125 -0.466692
v 0.531900 11.792524 -0.810192
v 0.307100 11.718625 -1.028592
v 0.000000 11.698825 -1.108492
v -0.307100 11.718625 -1.028592
v -0.531900 11.792524 -0.810192
v -0.614200 11.866625 -0.512092
v -0.531900 11.940624 -0.214092
v -0.307100 11.994824 0.004108
v 0.000000 11.998824 0.091808
v 0.307100 11.994824 0.004108
v 0.531900 11.940624 -0.214092
v 0.614200 11.866625 -0.512092
v 0.000000 11.996224 -0.544292
vn 0.5455 0.8358 0.0614
vn 0.2801 0.8054 0.5225
vn 0.3017 0.9457 -0.1207
vn 0.4226 0.6947 0.5821
vn 0.4047 0.8732 0.2713
vn -0.0000 0.6254 0.7803
vn -0.0000 0.9372 0.3488
vn -0.4047 0.8732 0.2713
vn -0.0000 0.9743 -0.2254
vn -0.4774 0.8190 -0.3184
vn -0.0000 0.6523 -0.7579
vn -0.3292 0.7758 -0.5383
vn -0.0000 0.2797 -0.9601
vn -0.7763 0.3111 -0.5483
vn -0.0000 0.3339 -0.9426
vn -0.7037 0.2528 -0.6640
vn -0.0000 -0.1300 -0.9915
vn -0.6156 -0.5127 -0.5985
vn -0.0000 -0.4719 -0.8816
vn -0.7309 -0.3045 -0.6107
vn 0.7923 0.2888 -0.5375
vn 0.7189 0.2688 -0.6411
vn 0.9479 0.3164 -0.0370
vn 0.9501 0.3104 -0.0303
vn 0.8209 0.3377 0.4605
vn 0.6942 0.3015 0.6536
vn 0.0606 0.3612 0.9305
vn 0.0043 0.3150 0.9491
vn -0.7871 0.3318 0.5200
vn -0.7193 0.2898 0.6314
vn -0.9508 0.3074 0.0378
vn -0.9490 0.3106 0.0538
vn 0.7022 -0.3342 -0.6287
vn 0.9611 -0.2750 0.0271
vn 0.6661 -0.2949 0.6850
vn -0.0327 -0.3499 0.9362
vn -0.7019 -0.3155 0.6385
vn -0.9658 -0.2586 0.0176
vn 0.7156 -0.4125 -0.5636
vn 0.8834 -0.4638 0.0673
vn 0.6585 -0.4145 0.6282
vn -0.0421 -0.4347 0.8996
vn -0.6963 -0.4212 0.5811
vn -0.8720 -0.4870 -0.0485
vn -0.5457 0.8357 0.0611
vn 0.4774 0.8190 -0.3184
vn 0.3293 0.7758 -0.5382
vn 0.1960 0.7085 -0.6780
vn -0.1299 0.9914 -0.0163
vn -0.0528 0.8346 -0.5483
vn -0.4225 0.6948 0.5820
vn -0.1391 0.7658 0.6278
vn -0.5361 -0.6413 0.5489
vn 0.6252 -0.3090 0.7167
vn 0.5834 -0.8037 0.1165
vn -0.3687 0.2425 0.8974
vn 0.3689 0.3552 0.8589
vn 0.2346 -0.7532 -0.6145
vn 0.2924 0.2331 -0.9275
vn -0.8397 -0.5415 -0.0411
vn -0.6026 -0.5923 0.5349
vn -0.7409 -0.2959 -0.6029
vn -0.3228 0.3738 -0.8695
vn -0.0795 -0.1426 0.9866
vn -0.8998 -0.4363 0.0078
vn -0.9974 0.0668 0.0285
vn -0.0365 -0.3078 0.9507
vn 0.9746 -0.2239 0.0071
vn 0.9945 -0.1047 0.0045
vn -0.9865 0.1638 0.0026
vn 0.1901 0.2801 0.9410
vn 0.9666 0.2562 -0.0033
vn -0.0022 -0.2828 -0.9592
vn -0.0387 -0.3458 -0.9375
vn 0.1893 0.2449 -0.9509
vn -0.0011 0.4721 -0.8816
vn -0.7817 0.4872 -0.3894
vn 0.0291 0.2798 -0.9596
vn -0.8718 0.1533 -0.4653
vn -0.2182 -0.4066 -0.8872
vn -0.5739 -0.7312 -0.3688
vn 0.4857 -0.7573 -0.4366
vn -0.7878 -0.6029 -0.1260
vn 0.7254 -0.6688 -0.1630
vn -0.6793 -0.7244 0.1173
vn 0.4808 -0.8756 0.0478
vn -0.3316 -0.8768 0.3483
vn 0.5467 -0.7060 0.4502
vn -0.0119 -0.4199 0.9075
vn 0.6703 0.1887 0.7177
vn 0.0118 0.2994 0.9540
vn 0.5201 0.7447 0.4183
vn 0.0364 0.8195 0.5719
vn 0.2205 0.9752 0.0166
vn 0.0435 0.9715 0.2329
vn -0.2117 0.9752 0.0648
vn -0.4995 0.7305 0.4657
vn -0.6872 0.1253 0.7155
vn -0.9617 0.2687 0.0549
vn -0.7262 0.6855 -0.0531
vn -0.2447 0.9515 -0.1867
vn 0.4212 0.8941 -0.1522
vn 0.8023 0.5961 -0.0321
vn 0.9963 0.0559 0.0653
vn -0.9447 0.2852 -0.1621
vn -0.7930 0.5971 -0.1211
vn -0.5823 0.8014 0.1367
vn -0.1150 0.9288 0.3522
vn 0.6704 0.7184 0.1859
vn 0.7784 0.6041 -0.1708
vn 0.8187 0.4364 -0.3733
vn 0.9509 0.2249 -0.2127
vn 0.8329 0.1862 -0.5212
vn 0.2463 0.2767 0.9289
vn 0.9604 -0.2777 0.0225
vn 0.9808 0.1592 -0.1129
vn -0.0323 -0.2938 0.9553
vn -0.9594 0.2554 0.1199
vn -0.9591 -0.2815 -0.0287
vn 0.9930 -0.1171 -0.0159
vn -0.0747 -0.1550 0.9851
vn -0.9941 0.0059 -0.1080
vn 0.1812 -0.4390 -0.8800
vn 0.0387 -0.3458 -0.9375
vn -0.1894 0.2445 -0.9510
vn -0.0386 0.4471 -0.8936
vn 0.7933 0.4961 -0.3529
vn 0.6493 0.7103 0.2718
vn 0.7290 0.6762 -0.1062
vn 0.2944 0.9402 -0.1712
vn 0.7262 0.6855 -0.0531
vn 0.1830 0.9814 -0.0578
vn 0.4799 0.7970 0.3666
vn -0.0156 0.9654 0.2602
vn -0.0306 0.7560 0.6539
vn -0.2537 0.9643 0.0765
vn -0.5201 0.7447 0.4183
vn -0.3756 0.9114 -0.1684
vn -0.7758 0.6309 0.0079
vn -0.8170 0.5458 -0.1860
vn -0.9851 0.1599 0.0637
vn -0.9741 0.0500 -0.2206
vn -0.7494 -0.6622 -0.0037
vn -0.4027 -0.9108 -0.0909
vn 0.5777 -0.8101 0.0997
vn 0.8801 -0.4536 -0.1401
vn 0.9617 0.2687 0.0549
vn 0.9543 0.2609 -0.1457
vn -0.1847 0.9185 0.3496
vn 0.8797 0.1301 -0.4574
vn 0.5230 -0.7307 -0.4388
vn -0.6829 -0.6364 -0.3587
vn -0.8245 0.1811 -0.5361
vn -0.7733 0.4824 -0.4115
vn -0.6441 0.7629 0.0556
vn 0.0809 0.3405 -0.9368
vn -0.2021 -0.4247 -0.8825
vn 0.6783 0.2595 0.6875
vn -0.0061 0.1721 0.9851
vn -0.6703 0.1887 0.7177
vn 0.4093 -0.6712 0.6180
vn -0.0647 -0.4849 0.8722
vn -0.4520 -0.8093 0.3751
vn -0.0230 -0.8109 0.5847
vn 0.2605 -0.7143 0.6496
vn 0.0075 -0.9670 0.2548
vn -0.3438 -0.4098 0.8449
vn -0.0002 -0.6063 0.7952
vn 0.9966 -0.0403 -0.0714
vn 0.3965 -0.3061 -0.8655
vn -0.1105 -0.3651 -0.9244
vn -0.2845 -0.6938 -0.6616
vn -0.8330 -0.3527 -0.4263
vn -0.7452 -0.6152 -0.2572
vn -0.0000 -0.6767 -0.7362
vn -0.0000 -0.8608 -0.5089
vn 0.0167 -0.9394 -0.3423
vn -0.8901 -0.2759 0.3629
vn -0.9735 -0.2285 0.0060
vn -0.3761 -0.8540 0.3594
vn 0.0112 -0.4085 0.9127
vn 0.3043 -0.3587 0.8824
vn -0.0708 -0.7954 0.6020
vn 0.1349 0.1399 -0.9809
vn 0.9965 0.0834 0.0034
vn 0.9868 0.1618 0.0007
vn -0.0028 0.0013 -1.0000
vn -0.9987 0.0514 0.0032
vn -0.0075 0.0070 0.9999
vn 0.1322 0.1687 0.9768
vn -0.2816 -0.3370 -0.8984
vn 0.5054 -0.8159 -0.2809
vn 0.6998 -0.6848 0.2033
vn 0.2845 -0.6938 -0.6616
vn -0.9956 -0.0511 0.0789
vn 0.0313 -0.4423 0.8963
vn 0.8226 -0.4052 0.3990
vn 0.8703 -0.3419 -0.3546
vn -0.0685 -0.3482 -0.9349
vn 0.9735 -0.2286 0.0060
vn 0.0028 0.0012 -1.0000
vn 0.9986 0.0518 0.0033
vn -0.1353 0.1408 -0.9808
vn -0.9966 0.0828 0.0033
vn -0.9865 0.1637 0.0010
vn -0.1327 0.1681 0.9768
vn 0.0076 0.0067 0.9999
vn 0.6317 -0.3175 -0.7073
vn -0.6317 0.3175 -0.7073
vn 0.3948 0.7915 -0.4666
vn -0.3947 -0.7914 -0.4668
vn 0.7058 -0.7083 0.0123
vn -0.7058 -0.7083 -0.0123
vn 0.3947 -0.7914 0.4667
vn -0.6316 -0.3175 0.7073
vn 0.6317 0.3175 0.7072
vn -0.3948 0.7915 0.4666
vn 0.7058 0.7083 -0.0123
vn -0.7058 0.7083 0.0124
vn -0.9692 0.0532 -0.2406
vn -0.1561 -0.1929 -0.9687
vn -0.0623 -0.0621 -0.9961
vn -0.9644 0.0577 0.2580
vn -0.4110 -0.0225 0.9113
vn 0.1460 -0.2820 0.9482
vn 0.7810 -0.3095 0.5424
vn 0.9013 -0.3298 0.2809
vn 0.8779 -0.2677 -0.3970
vn 0.8225 -0.3858 -0.4179
vn 0.4374 0.3399 -0.8325
vn -0.0000 0.4574 -0.8893
vn 0.0546 0.2423 -0.9687
vn 0.3927 0.3994 -0.8284
vn 0.7408 0.4178 -0.5259
vn 0.6948 0.4682 -0.5459
vn 0.8451 0.5224 -0.1137
vn 0.8115 0.5636 -0.1542
vn 0.7230 0.6255 0.2933
vn 0.7110 0.6601 0.2425
vn 0.4080 0.6997 0.5865
vn 0.4191 0.7318 0.5374
vn -0.0155 0.7254 0.6882
vn 0.0140 0.7592 0.6507
vn -0.0000 -0.0023 -1.0000
vn 0.4896 -0.0311 -0.8714
vn 0.8506 0.0555 -0.5228
vn 0.9836 0.1743 -0.0458
vn 0.8529 0.2936 0.4317
vn 0.4937 0.3813 0.7816
vn 0.0024 0.4139 0.9103
vn -0.0000 -0.5021 -0.8648
vn 0.4677 -0.5962 -0.6526
vn 0.7946 -0.5122 -0.3258
vn 0.9096 -0.3989 0.1161
vn 0.7809 -0.2862 0.5552
vn 0.4420 -0.2046 0.8734
vn -0.0163 -0.1763 0.9842
vn -0.0000 -0.9831 -0.1831
vn 0.2129 -0.9753 -0.0597
vn 0.3322 -0.9397 0.0811
vn 0.3634 -0.8942 0.2614
vn 0.2972 -0.8507 0.4335
vn 0.1502 -0.8212 0.5506
vn -0.0380 -0.8137 0.5800
vn -0.3573 0.3276 -0.8746
vn -0.3927 0.3994 -0.8284
vn -0.4896 -0.0312 -0.8714
vn -0.4677 -0.5962 -0.6526
vn -0.2129 -0.9753 -0.0597
vn -0.0000 -0.9700 0.2432
vn -0.2396 -0.9659 0.0978
vn -0.4182 -0.8815 0.2192
vn -0.7227 -0.6364 -0.2697
vn -0.9629 -0.2619 0.0651
vn -0.8594 0.0001 -0.5113
vn -0.9717 0.2293 -0.0568
vn -0.7456 0.3901 -0.5402
vn -0.7548 0.6366 -0.1581
vn -0.6896 0.4489 -0.5683
vn -0.8791 0.4463 -0.1671
vn -0.7668 0.6043 0.2166
vn -0.7110 0.6601 0.2425
vn -0.8529 0.2936 0.4317
vn -0.7809 -0.2862 0.5552
vn -0.2972 -0.8507 0.4335
vn -0.1406 -0.8725 0.4680
vn -0.4181 -0.3545 0.8364
vn -0.4963 0.3328 0.8018
vn -0.4326 0.6670 0.6066
vn -0.4415 0.7259 0.5275
vn -0.8899 0.1489 0.4312
vn -0.8698 0.0949 0.4842
vn -0.9290 0.0662 0.3640
vn -0.5552 0.0694 0.8288
vn -0.6947 0.4402 0.5688
vn -0.0000 0.5171 0.8560
vn -0.5084 0.5472 0.6649
vn 0.0001 0.5567 0.8307
vn -0.4995 -0.0194 0.8661
vn 0.0004 -0.2504 0.9681
vn -0.2858 -0.8301 0.4788
vn 0.0002 -0.8747 0.4846
vn -0.9411 0.2580 0.2185
vn -0.9906 0.1362 -0.0122
vn -0.9278 0.3571 0.1078
vn -0.5755 0.7356 0.3573
vn -0.5573 0.1162 0.8222
vn -0.0799 0.8799 0.4685
vn -0.0061 0.1667 0.9860
vn 0.4832 0.7841 0.3894
vn 0.5674 0.0578 0.8214
vn 0.8698 0.0949 0.4842
vn 0.6001 0.0692 0.7970
vn 0.0667 0.0745 0.9950
vn 0.9411 0.2580 0.2185
vn 0.8899 0.1489 0.4312
vn 0.6947 0.4402 0.5688
vn 0.9906 0.1362 -0.0122
vn 0.9978 -0.0595 -0.0308
vn 0.7854 -0.1297 -0.6053
vn 0.8187 -0.5723 -0.0469
vn 0.4860 -0.7333 -0.4755
vn 0.3299 -0.9440 0.0117
vn 0.0003 -0.9905 -0.1375
vn 0.0265 -0.9962 0.0835
vn -0.2811 -0.9594 0.0242
vn 0.2188 -0.8524 0.4749
vn 0.5385 -0.1566 0.8279
vn 0.3645 -0.9000 0.2390
vn 0.8518 -0.2976 0.4312
vn 0.6033 -0.5010 0.6205
vn 0.9382 0.0433 0.3433
vn 0.2531 0.7921 0.5554
vn 0.8312 -0.1086 0.5453
vn 0.3008 0.6776 0.6711
vn 0.4386 -0.5211 0.7322
vn 0.0685 0.5383 0.8400
vn -0.0966 -0.6263 0.7735
vn -0.2591 0.6031 0.7544
vn -0.6048 -0.4124 0.6813
vn -0.3421 0.7293 0.5925
vn -0.7995 0.1632 0.5781
vn -0.4407 0.3824 0.8121
vn -0.9452 -0.1769 0.2743
vn -0.3134 -0.9329 0.1771
vn -0.8430 -0.2426 0.4801
vn -0.8576 0.3729 0.3542
vn -0.7359 -0.6764 0.0311
vn -0.9914 -0.1112 -0.0688
vn -0.7415 -0.1379 -0.6567
vn -0.5384 0.5916 -0.6000
vn -0.0116 -0.1877 -0.9822
vn 0.0966 0.6544 -0.7499
vn 0.6355 0.5608 -0.5307
vn 0.9278 0.3571 0.1078
vn 0.9290 0.0662 0.3640
vn -0.0903 -0.6984 -0.7100
vn -0.5632 -0.7404 -0.3670
vn 0.5084 0.5472 0.6649
vn 0.8576 0.3729 0.3542
vn -0.0001 0.9139 0.4060
vn 0.0001 -0.8788 0.4773
vn -0.5360 0.3834 0.7522
vn 0.0542 0.7047 -0.7074
vn -0.9994 0.0181 -0.0288
vn 0.5293 0.7657 -0.3656
vn -0.3033 0.2489 0.9198
vn 0.3053 0.8697 -0.3879
vn 0.0104 0.4934 0.8698
vn 0.2594 0.8572 -0.4450
vn -0.0244 0.2590 0.9656
vn -0.3395 0.6361 -0.6930
vn -0.0102 0.4877 0.8729
vn -0.4660 0.8292 -0.3085
vn 0.3237 0.2674 0.9076
vn -0.2525 0.9194 -0.3015
vn 0.5893 0.4339 0.6815
vn 0.9446 -0.1360 0.2986
vn 0.6502 -0.6018 -0.4637
vn 0.2968 -0.1744 0.9389
vn 0.2021 -0.4994 -0.8425
vn 0.1010 -0.9613 -0.2563
vn -0.0425 -0.9983 0.0404
vn -0.0401 -0.9846 -0.1704
vn -0.6180 -0.6835 -0.3885
vn -0.6558 -0.5537 -0.5131
vn -0.2405 -0.1974 0.9504
vn 0.7592 0.3469 -0.5507
vn 0.4236 0.2814 -0.8611
vn -0.0121 0.2602 -0.9655
vn -0.4471 0.2913 -0.8457
vn -0.7648 0.3577 -0.5359
vn -0.8817 0.4604 -0.1033
vn -0.7576 0.5675 0.3223
vn -0.4312 0.6451 0.6309
vn 0.0157 0.6814 0.7317
vn 0.4449 0.6470 0.6193
vn 0.7686 0.5623 0.3049
vn 0.8822 0.4543 -0.1238
vn 0.4341 0.7419 -0.5111
vn 0.2164 0.7012 -0.6794
vn -0.0387 0.6913 -0.7216
vn -0.2901 0.7049 -0.6472
vn -0.4828 0.7525 -0.4478
vn -0.5452 0.8224 -0.1623
vn -0.4525 0.8864 0.0975
vn -0.2205 0.9353 0.2769
vn 0.0412 0.9442 0.3269
vn 0.2943 0.9235 0.2460
vn 0.4930 0.8696 0.0289
vn 0.5449 0.8030 -0.2413
vn -0.0000 0.9683 -0.2499
vt 0.113300 0.984100
vt 0.256500 0.941900
vt 0.317200 0.948200
vt 0.170300 0.942200
vt 0.071400 0.986700
vt 0.008900 0.942200
vt 0.011500 0.986700
vt 0.647800 0.986700
vt 0.570900 0.986700
vt 0.645000 0.942200
vt 0.472200 0.942200
vt 0.643700 0.667900
vt 0.447000 0.802000
vt 0.643600 0.768400
vt 0.474500 0.667900
vt 0.643900 0.457200
vt 0.474400 0.457200
vt 0.643700 0.432800
vt 0.490800 0.432900
vt 0.316500 0.768400
vt 0.316500 0.667900
vt 0.220900 0.802000
vt 0.184400 0.667900
vt 0.008900 0.780900
vt 0.008900 0.667900
vt 0.316500 0.457200
vt 0.199400 0.457200
vt 0.008900 0.457200
vt 0.315900 0.432900
vt 0.191300 0.432900
vt 0.008900 0.432900
vt 0.307800 0.959600
vt 0.265800 0.976000
vt 0.336600 0.976000
vt 0.384000 0.942900
vt 0.537500 0.988700
vt 0.050400 0.149700
vt 0.020900 0.148400
vt 0.020900 0.118000
vt 0.237100 0.856700
vt 0.257000 0.820300
vt 0.316500 0.810400
vt 0.343300 0.824200
vt 0.440500 0.856900
vt 0.181500 0.012200
vt 0.063600 0.044000
vt 0.064400 0.008000
vt 0.181300 0.049600
vt 0.326400 0.016400
vt 0.326300 0.048700
vt 0.064000 0.102000
vt 0.181000 0.108100
vt 0.326400 0.102000
vt 0.582100 0.044000
vt 0.472000 0.012200
vt 0.582400 0.008000
vt 0.472000 0.044400
vt 0.582200 0.102000
vt 0.472000 0.085700
vt 0.991000 0.137800
vt 0.903800 0.235000
vt 0.990600 0.234900
vt 0.914700 0.143900
vt 0.991100 0.065200
vt 0.909400 0.069600
vt 0.991000 0.030300
vt 0.909600 0.030300
vt 0.847200 0.030400
vt 0.766800 0.030400
vt 0.694100 0.030400
vt 0.618000 0.030300
vt 0.694000 0.075100
vt 0.618000 0.075300
vt 0.694500 0.148300
vt 0.620700 0.149500
vt 0.720900 0.177600
vt 0.677400 0.177600
vt 0.765100 0.071700
vt 0.766800 0.118800
vt 0.811500 0.177600
vt 0.850700 0.071800
vt 0.854400 0.134800
vt 0.847200 0.171400
vt 0.826600 0.180900
vt 0.831000 0.234900
vt 0.847900 0.165100
vt 0.915100 0.136300
vt 0.012400 0.328100
vt 0.083000 0.328100
vt 0.012400 0.300100
vt 0.154100 0.367400
vt 0.012400 0.367400
vt 0.012400 0.428100
vt 0.326300 0.323700
vt 0.461800 0.428100
vt 0.326300 0.428100
vt 0.497200 0.367400
vt 0.472100 0.300300
vt 0.569800 0.328400
vt 0.582100 0.288100
vt 0.589200 0.303100
vt 0.640100 0.428100
vt 0.640100 0.367400
vt 0.640100 0.328100
vt 0.640100 0.303900
vt 0.063800 0.287800
vt 0.064100 0.207100
vt 0.063400 0.303100
vt 0.012600 0.303900
vt 0.190800 0.428100
vt 0.178900 0.300400
vt 0.472000 0.139400
vt 0.326300 0.211200
vt 0.326300 0.126100
vt 0.472000 0.209200
vt 0.582200 0.125900
vt 0.582300 0.207100
vt 0.180300 0.209200
vt 0.064000 0.125900
vt 0.180700 0.122400
vt 0.731600 0.787300
vt 0.772300 0.987900
vt 0.731600 0.987900
vt 0.772300 0.787300
vt 0.667400 0.787300
vt 0.667400 0.987900
vt 0.024400 0.439100
vt 0.179100 0.654800
vt 0.177800 0.438900
vt 0.025300 0.654100
vt 0.335400 0.438700
vt 0.334900 0.655200
vt 0.766500 0.693700
vt 0.690000 0.588400
vt 0.690000 0.693800
vt 0.827200 0.588400
vt 0.835900 0.693500
vt 0.917800 0.588300
vt 0.856400 0.693200
vt 0.950900 0.588300
vt 0.690000 0.692600
vt 0.690000 0.431800
vt 0.848000 0.431700
vt 0.953800 0.431300
vt 0.992500 0.430800
vt 0.953800 0.430200
vt 0.848000 0.429800
vt 0.690000 0.429700
vt 0.690000 0.310400
vt 0.848600 0.310400
vt 0.954900 0.310400
vt 0.993800 0.310400
vt 0.690000 0.272700
vt 0.833000 0.272800
vt 0.927900 0.273100
vt 0.962700 0.273600
vt 0.833000 0.274300
vt 0.690000 0.274400
vt 0.689800 0.258300
vt 0.155400 0.923300
vt 0.161400 0.979800
vt 0.177500 0.950200
vt 0.121800 0.965200
vt 0.115600 0.903900
vt 0.085200 0.914500
vt 0.060600 0.881400
vt 0.040500 0.884000
vt 0.044200 0.846700
vt 0.016100 0.848000
vt 0.050100 0.840400
vt 0.024500 0.841500
vt 0.298100 0.929800
vt 0.303300 0.922600
vt 0.295200 0.926300
vt 0.306900 0.925800
vt 0.300800 0.933500
vt 0.307600 0.938500
vt 0.298900 0.937500
vt 0.295900 0.940300
vt 0.295000 0.937900
vt 0.291600 0.941300
vt 0.291000 0.937400
vt 0.294000 0.935500
vt 0.290400 0.933500
vt 0.306300 0.918300
vt 0.319000 0.918300
vt 0.303900 0.913100
vt 0.317600 0.913200
vt 0.300800 0.909600
vt 0.313200 0.909700
vt 0.299700 0.908600
vt 0.092000 0.950200
vt 0.114400 0.837900
vt 0.114600 0.844000
vt 0.199900 0.835400
vt 0.209900 0.837700
vt 0.126700 0.800000
vt 0.128800 0.798100
vt 0.072700 0.785500
vt 0.070400 0.782500
vt 0.053500 0.780900
vt 0.049300 0.777400
vt 0.116500 0.876500
vt 0.197400 0.869600
vt 0.202400 0.799500
vt 0.177600 0.773100
vt 0.167900 0.765900
vt 0.222000 0.838200
vt 0.320100 0.936500
vt 0.326000 0.918300
vt 0.326100 0.936000
vt 0.324100 0.913200
vt 0.208400 0.207700
vt 0.192700 0.207700
vt 0.200300 0.197900
vt 0.189700 0.227600
vt 0.208400 0.227700
vt 0.191100 0.229700
vt 0.197900 0.231600
vt 0.224000 0.207700
vt 0.216500 0.197900
vt 0.227000 0.227600
vt 0.225700 0.229700
vt 0.208400 0.195000
vt 0.208400 0.232300
vt 0.218800 0.231600
vt 0.424400 0.719200
vt 0.454800 0.693700
vt 0.416800 0.736500
vt 0.389000 0.693900
vt 0.391600 0.719400
vt 0.275400 0.694400
vt 0.280700 0.713800
vt 0.166600 0.694800
vt 0.166600 0.718100
vt 0.375200 0.736500
vt 0.286200 0.740600
vt 0.337900 0.736500
vt 0.285800 0.741800
vt 0.166600 0.736500
vt 0.051400 0.051200
vt 0.036800 0.149700
vt 0.036800 0.051200
vt 0.066100 0.051200
vt 0.066100 0.149700
vt 0.080700 0.051200
vt 0.080700 0.149700
vt 0.095300 0.051200
vt 0.095300 0.149700
vt 0.110000 0.051200
vt 0.110000 0.149700
vt 0.124600 0.051200
vt 0.124600 0.149700
vt 0.139200 0.051200
vt 0.139200 0.149700
vt 0.153900 0.051200
vt 0.153900 0.149700
vt 0.168500 0.051200
vt 0.168500 0.149700
vt 0.183100 0.051200
vt 0.183100 0.149700
vt 0.197700 0.051200
vt 0.197700 0.149700
vt 0.212400 0.051200
vt 0.212400 0.149700
vt 0.036800 0.175100
vt 0.051400 0.175100
vt 0.066100 0.175100
vt 0.080700 0.175100
vt 0.095300 0.175100
vt 0.110000 0.175100
vt 0.124600 0.175100
vt 0.139200 0.175100
vt 0.153900 0.175100
vt 0.168500 0.175100
vt 0.183100 0.175100
vt 0.197700 0.175100
vt 0.212400 0.175100
vt 0.124600 0.203300
s 1
usemtl Material06
f 41/1/1 17/2/2 18/3/3
f 41/1/1 31/4/4 17/2/2
f 42/5/5 31/4/4 41/1/1
f 42/5/5 20/6/6 31/4/4
f 43/7/7 20/6/6 42/5/5
f 43/7/7 44/5/8 20/6/6
f 45/8/9 44/5/8 43/7/7
f 45/8/9 46/9/10 44/5/8
f 29/10/11 46/9/10 45/8/9
f 29/10/11 32/11/12 46/9/10
f 47/12/13 27/13/14 28/14/15
f 47/12/13 48/15/16 27/13/14
f 49/16/17 48/15/16 47/12/13
f 49/16/17 50/17/18 48/15/16
f 36/18/19 50/17/18 49/16/17
f 36/18/19 38/19/20 50/17/18
f 24/13/21 47/12/13 28/14/15
f 24/13/21 51/15/22 47/12/13
f 23/20/23 51/15/22 24/13/21
f 23/20/23 52/21/24 51/15/22
f 22/22/25 52/21/24 23/20/23
f 22/22/25 53/23/26 52/21/24
f 21/24/27 53/23/26 22/22/25
f 21/24/27 54/25/28 53/23/26
f 25/22/29 54/25/28 21/24/27
f 25/22/29 55/23/30 54/25/28
f 26/20/31 55/23/30 25/22/29
f 26/20/31 56/21/32 55/23/30
f 27/13/14 56/21/32 26/20/31
f 27/13/14 48/15/16 56/21/32
f 51/15/22 49/16/17 47/12/13
f 51/15/22 57/17/33 49/16/17
f 52/21/24 57/17/33 51/15/22
f 52/21/24 58/26/34 57/17/33
f 53/23/26 58/26/34 52/21/24
f 53/23/26 59/27/35 58/26/34
f 54/25/28 59/27/35 53/23/26
f 54/25/28 60/28/36 59/27/35
f 55/23/30 60/28/36 54/25/28
f 55/23/30 61/27/37 60/28/36
f 56/21/32 61/27/37 55/23/30
f 56/21/32 62/26/38 61/27/37
f 48/15/16 62/26/38 56/21/32
f 48/15/16 50/17/18 62/26/38
f 57/17/33 36/18/19 49/16/17
f 57/17/33 34/19/39 36/18/19
f 58/26/34 34/19/39 57/17/33
f 58/26/34 35/29/40 34/19/39
f 59/27/35 35/29/40 58/26/34
f 59/27/35 37/30/41 35/29/40
f 60/28/36 37/30/41 59/27/35
f 60/28/36 33/31/42 37/30/41
f 61/27/37 33/31/42 60/28/36
f 61/27/37 39/30/43 33/31/42
f 62/26/38 39/30/43 61/27/37
f 62/26/38 40/29/44 39/30/43
f 50/17/18 40/29/44 62/26/38
f 50/17/18 38/19/20 40/29/44
f 63/32/45 44/33/8 46/34/10
f 41/32/1 64/34/46 42/33/5
f 30/11/47 18/3/3 16/35/48
f 18/3/3 30/11/47 41/36/1
f 64/9/46 41/36/1 30/11/47
f 32/11/12 63/36/45 46/9/10
f 63/36/45 32/11/12 15/3/49
f 13/35/50 15/3/49 32/11/12
f 42/5/5 45/8/9 43/7/7
f 45/8/9 42/5/5 64/9/46
f 64/9/46 29/10/11 45/8/9
f 29/10/11 64/9/46 30/11/47
f 44/5/8 19/4/51 20/6/6
f 19/4/51 44/5/8 63/1/45
f 63/1/45 14/2/52 19/4/51
f 14/2/52 63/1/45 15/3/49
f 73/37/53 74/38/54 72/39/55
f 69/40/56 19/4/51 14/2/52
f 69/40/56 20/6/6 19/4/51
f 21/24/27 20/6/6 69/40/56
f 21/24/27 75/40/57 20/6/6
f 22/22/25 75/40/57 21/24/27
f 22/22/25 74/41/54 75/40/57
f 23/20/23 74/41/54 22/22/25
f 23/20/23 72/42/55 74/41/54
f 24/13/21 72/42/55 23/20/23
f 24/13/21 71/43/58 72/42/55
f 70/44/59 71/43/58 24/13/21
f 67/42/60 25/22/29 68/41/61
f 67/42/60 26/20/31 25/22/29
f 66/43/62 26/20/31 67/42/60
f 66/43/62 27/13/14 26/20/31
f 65/44/63 27/13/14 66/43/62
f 65/44/63 28/14/15 27/13/14
f 29/10/11 28/14/15 65/44/63
f 29/10/11 70/44/59 28/14/15
f 30/11/47 70/44/59 29/10/11
f 30/11/47 16/35/48 70/44/59
f 75/40/57 31/4/4 20/6/6
f 31/4/4 75/40/57 17/2/2
f 69/40/56 25/22/29 21/24/27
f 25/22/29 69/40/56 68/41/61
f 70/44/59 24/13/21 28/14/15
f 65/44/63 32/11/12 29/10/11
f 32/11/12 65/44/63 13/35/50
f 76/45/64 77/46/65 78/47/66
f 76/45/64 79/48/67 77/46/65
f 80/49/68 79/48/67 76/45/64
f 80/49/68 81/50/69 79/48/67
f 79/48/67 82/51/70 77/46/65
f 79/48/67 83/52/71 82/51/70
f 81/50/69 83/52/71 79/48/67
f 81/50/69 84/53/72 83/52/71
f 77/54/65 85/55/73 78/56/66
f 77/54/65 86/57/74 85/55/73
f 82/58/70 86/57/74 77/54/65
f 82/58/70 87/59/75 86/57/74
f 86/57/74 80/49/68 85/55/73
f 86/57/74 81/50/69 80/49/68
f 87/59/75 81/50/69 86/57/74
f 87/59/75 84/53/72 81/50/69
f 88/60/76 78/61/66 85/62/73
f 88/60/76 89/63/77 78/61/66
f 90/64/78 89/63/77 88/60/76
f 90/64/78 91/65/79 89/63/77
f 92/66/80 91/65/79 90/64/78
f 92/66/80 93/67/81 91/65/79
f 94/67/82 93/67/81 92/66/80
f 94/67/82 95/68/83 93/67/81
f 96/68/84 95/68/83 94/67/82
f 96/68/84 97/69/85 95/68/83
f 98/69/86 97/69/85 96/68/84
f 98/69/86 99/70/87 97/69/85
f 100/70/88 99/70/87 98/69/86
f 100/70/88 101/71/89 99/70/87
f 102/72/90 101/71/89 100/70/88
f 102/72/90 103/73/91 101/71/89
f 104/74/92 103/73/91 102/72/90
f 104/74/92 105/75/93 103/73/91
f 106/76/94 105/75/93 104/74/92
f 106/76/94 107/77/95 105/75/93
f 108/76/96 107/77/95 106/76/94
f 108/76/96 105/75/93 107/77/95
f 109/74/97 105/75/93 108/76/96
f 109/74/97 103/73/91 105/75/93
f 110/72/98 103/73/91 109/74/97
f 110/72/98 101/71/89 103/73/91
f 99/70/87 101/71/89 110/72/98
f 110/72/98 97/69/85 99/70/87
f 110/72/98 111/78/99 97/69/85
f 109/74/97 111/78/99 110/72/98
f 109/74/97 112/79/100 111/78/99
f 108/76/96 112/79/100 109/74/97
f 108/76/96 113/80/101 112/79/100
f 106/76/94 113/80/101 108/76/96
f 106/76/94 114/80/102 113/80/101
f 104/74/92 114/80/102 106/76/94
f 104/74/92 115/79/103 114/80/102
f 102/72/90 115/79/103 104/74/92
f 102/72/90 116/78/104 115/79/103
f 100/70/88 116/78/104 102/72/90
f 100/70/88 98/69/86 116/78/104
f 111/78/99 95/68/83 97/69/85
f 111/78/99 117/81/105 95/68/83
f 112/79/100 117/81/105 111/78/99
f 112/79/100 118/82/106 117/81/105
f 113/80/101 118/82/106 112/79/100
f 113/80/101 119/83/107 118/82/106
f 120/84/108 119/83/107 113/80/101
f 120/84/108 78/61/66 119/83/107
f 76/85/64 78/61/66 120/84/108
f 89/63/77 119/83/107 78/61/66
f 89/63/77 118/82/106 119/83/107
f 91/65/79 118/82/106 89/63/77
f 91/65/79 117/81/105 118/82/106
f 114/80/102 120/84/108 113/80/101
f 114/80/102 121/86/109 120/84/108
f 122/82/110 121/86/109 114/80/102
f 122/82/110 123/87/111 121/86/109
f 124/81/112 123/87/111 122/82/110
f 124/81/112 125/65/113 123/87/111
f 96/68/84 125/65/113 124/81/112
f 96/68/84 94/67/82 125/65/113
f 115/79/103 122/82/110 114/80/102
f 115/79/103 124/81/112 122/82/110
f 116/78/104 124/81/112 115/79/103
f 116/78/104 96/68/84 124/81/112
f 98/69/86 96/68/84 116/78/104
f 90/64/78 94/67/82 92/66/80
f 90/64/78 125/65/113 94/67/82
f 88/60/76 125/65/113 90/64/78
f 88/60/76 123/87/111 125/65/113
f 85/62/73 123/87/111 88/60/76
f 85/62/73 80/61/68 123/87/111
f 95/68/83 91/65/79 93/67/81
f 91/65/79 95/68/83 117/81/105
f 121/86/109 76/85/64 120/84/108
f 76/85/64 121/86/109 80/61/68
f 123/87/111 80/61/68 121/86/109
f 126/52/114 127/46/115 128/51/116
f 126/52/114 129/48/117 127/46/115
f 130/53/118 129/48/117 126/52/114
f 130/53/118 131/50/119 129/48/117
f 129/48/117 132/47/120 127/46/115
f 129/48/117 133/45/121 132/47/120
f 131/50/119 133/45/121 129/48/117
f 131/50/119 134/49/122 133/45/121
f 135/55/123 127/54/115 132/56/120
f 135/55/123 136/57/124 127/54/115
f 134/49/122 136/57/124 135/55/123
f 134/49/122 131/50/119 136/57/124
f 136/57/124 128/58/116 127/54/115
f 136/57/124 137/59/125 128/58/116
f 131/50/119 137/59/125 136/57/124
f 131/50/119 130/53/118 137/59/125
f 132/61/120 138/60/126 135/62/123
f 132/61/120 139/63/127 138/60/126
f 140/83/128 139/63/127 132/61/120
f 140/83/128 141/82/129 139/63/127
f 142/80/130 141/82/129 140/83/128
f 142/80/130 143/79/131 141/82/129
f 144/76/132 143/79/131 142/80/130
f 144/76/132 145/74/133 143/79/131
f 146/77/134 145/74/133 144/76/132
f 146/77/134 147/75/135 145/74/133
f 148/76/136 147/75/135 146/77/134
f 148/76/136 149/74/137 147/75/135
f 150/80/138 149/74/137 148/76/136
f 150/80/138 151/79/139 149/74/137
f 152/82/140 151/79/139 150/80/138
f 152/82/140 153/78/141 151/79/139
f 154/81/142 153/78/141 152/82/140
f 154/81/142 155/69/143 153/78/141
f 156/68/144 155/69/143 154/81/142
f 156/68/144 157/69/145 155/69/143
f 158/68/146 157/69/145 156/68/144
f 158/68/146 159/78/147 157/69/145
f 160/81/148 159/78/147 158/68/146
f 160/81/148 143/79/131 159/78/147
f 141/82/129 143/79/131 160/81/148
f 144/76/132 148/76/136 146/77/134
f 144/76/132 150/80/138 148/76/136
f 142/80/130 150/80/138 144/76/132
f 142/80/130 161/84/149 150/80/138
f 140/83/128 161/84/149 142/80/130
f 140/83/128 133/85/121 161/84/149
f 132/61/120 133/85/121 140/83/128
f 160/81/148 139/63/127 141/82/129
f 160/81/148 162/65/150 139/63/127
f 158/68/146 162/65/150 160/81/148
f 158/68/146 163/67/151 162/65/150
f 156/68/144 163/67/151 158/68/146
f 156/68/144 164/67/152 163/67/151
f 154/81/142 164/67/152 156/68/144
f 154/81/142 165/65/153 164/67/152
f 152/82/140 165/65/153 154/81/142
f 152/82/140 166/87/154 165/65/153
f 167/86/155 166/87/154 152/82/140
f 167/86/155 134/61/122 166/87/154
f 161/84/149 134/61/122 167/86/155
f 161/84/149 133/85/121 134/61/122
f 138/60/126 134/61/122 135/62/123
f 138/60/126 166/87/154 134/61/122
f 168/64/156 166/87/154 138/60/126
f 168/64/156 165/65/153 166/87/154
f 169/66/157 165/65/153 168/64/156
f 169/66/157 164/67/152 165/65/153
f 163/67/151 164/67/152 169/66/157
f 145/74/133 159/78/147 143/79/131
f 145/74/133 170/72/158 159/78/147
f 147/75/135 170/72/158 145/74/133
f 147/75/135 171/73/159 170/72/158
f 149/74/137 171/73/159 147/75/135
f 149/74/137 172/72/160 171/73/159
f 151/79/139 172/72/160 149/74/137
f 151/79/139 153/78/141 172/72/160
f 170/72/158 157/69/145 159/78/147
f 170/72/158 173/70/161 157/69/145
f 171/73/159 173/70/161 170/72/158
f 171/73/159 174/71/162 173/70/161
f 172/72/160 174/71/162 171/73/159
f 172/72/160 175/70/163 174/71/162
f 153/78/141 175/70/163 172/72/160
f 153/78/141 155/69/143 175/70/163
f 167/86/155 150/80/138 161/84/149
f 150/80/138 167/86/155 152/82/140
f 139/63/127 168/64/156 138/60/126
f 168/64/156 139/63/127 162/65/150
f 163/67/151 168/64/156 162/65/150
f 168/64/156 163/67/151 169/66/157
f 157/69/145 175/70/163 155/69/143
f 175/70/163 157/69/145 173/70/161
f 173/70/161 174/71/162 175/70/163
f 176/88/164 177/89/165 178/90/166
f 176/88/164 179/91/167 177/89/165
f 180/92/168 179/91/167 176/88/164
f 180/92/168 33/93/42 179/91/167
f 181/94/169 34/95/39 35/96/40
f 181/94/169 182/97/170 34/95/39
f 183/98/171 182/97/170 181/94/169
f 183/98/171 184/99/172 182/97/170
f 185/100/173 184/99/172 183/98/171
f 185/100/173 186/101/174 184/99/172
f 182/97/170 36/102/19 34/95/39
f 182/97/170 187/103/175 36/102/19
f 184/99/172 187/103/175 182/97/170
f 184/99/172 188/104/176 187/103/175
f 189/105/177 188/104/176 184/99/172
f 190/106/178 185/106/173 191/107/179
f 190/106/178 186/108/174 185/106/173
f 192/108/180 186/108/174 190/106/178
f 192/108/180 189/109/177 186/108/174
f 178/90/166 189/109/177 192/108/180
f 37/110/41 181/94/169 35/96/40
f 37/110/41 193/111/181 181/94/169
f 194/91/182 193/111/181 37/110/41
f 194/91/182 195/89/183 193/111/181
f 180/92/168 195/89/183 194/91/182
f 180/92/168 176/88/164 195/89/183
f 196/112/184 197/113/185 198/114/186
f 196/112/184 199/115/187 197/113/185
f 200/116/188 199/115/187 196/112/184
f 200/116/188 191/117/179 199/115/187
f 183/98/171 191/117/179 185/100/173
f 183/98/171 199/115/187 191/117/179
f 181/94/169 199/115/187 183/98/171
f 181/94/169 197/113/185 199/115/187
f 191/107/179 193/111/181 190/106/178
f 191/107/179 201/118/189 193/111/181
f 200/119/188 201/118/189 191/107/179
f 200/119/188 202/120/190 201/118/189
f 201/118/189 181/94/169 193/111/181
f 201/118/189 197/113/185 181/94/169
f 202/120/190 197/113/185 201/118/189
f 202/120/190 198/114/186 197/113/185
f 196/112/184 82/58/70 200/116/188
f 198/114/186 84/53/72 196/112/184
f 82/51/70 202/120/190 200/119/188
f 84/53/72 198/114/186 202/120/190
f 83/52/71 202/120/190 82/51/70
f 202/120/190 83/52/71 84/53/72
f 36/102/19 203/97/191 38/95/20
f 203/97/191 36/102/19 187/103/175
f 178/90/166 204/108/192 189/109/177
f 204/108/192 178/90/166 205/108/193
f 177/89/165 205/108/193 178/90/166
f 179/91/167 33/93/42 39/110/43
f 196/112/184 87/59/75 82/58/70
f 87/59/75 196/112/184 84/53/72
f 184/99/172 186/101/174 189/105/177
f 33/93/42 194/91/182 37/110/41
f 194/91/182 33/93/42 180/92/168
f 178/90/166 195/89/183 176/88/164
f 195/89/183 178/90/166 192/108/180
f 192/108/180 193/111/181 195/89/183
f 193/111/181 192/108/180 190/106/178
f 187/103/175 206/99/194 203/97/191
f 206/99/194 187/103/175 188/104/176
f 189/105/177 206/99/194 188/104/176
f 206/99/194 189/105/177 204/101/192
f 207/94/195 39/110/43 40/96/44
f 207/94/195 179/91/167 39/110/43
f 208/111/196 179/91/167 207/94/195
f 208/111/196 177/89/165 179/91/167
f 209/106/197 177/89/165 208/111/196
f 209/106/197 205/108/193 177/89/165
f 210/106/198 205/108/193 209/106/197
f 210/106/198 204/108/192 205/108/193
f 38/95/20 207/94/195 40/96/44
f 38/95/20 211/98/199 207/94/195
f 203/97/191 211/98/199 38/95/20
f 203/97/191 206/99/194 211/98/199
f 210/100/198 206/99/194 204/101/192
f 210/100/198 211/98/199 206/99/194
f 212/117/200 211/98/199 210/100/198
f 212/117/200 213/115/201 211/98/199
f 214/116/202 213/115/201 212/117/200
f 214/116/202 215/112/203 213/115/201
f 213/115/201 207/94/195 211/98/199
f 213/115/201 216/113/204 207/94/195
f 215/112/203 216/113/204 213/115/201
f 215/112/203 217/114/205 216/113/204
f 218/120/206 216/113/204 217/114/205
f 218/120/206 219/118/207 216/113/204
f 214/119/202 219/118/207 218/120/206
f 214/119/202 212/107/200 219/118/207
f 208/111/196 212/107/200 209/106/197
f 208/111/196 219/118/207 212/107/200
f 207/94/195 219/118/207 208/111/196
f 207/94/195 216/113/204 219/118/207
f 126/52/114 218/120/206 130/53/118
f 218/120/206 126/52/114 128/51/116
f 218/120/206 128/51/116 214/119/202
f 218/120/206 217/114/205 130/53/118
f 209/106/197 212/107/200 210/106/198
f 215/112/203 130/53/118 217/114/205
f 130/53/118 215/112/203 137/59/125
f 128/58/116 137/59/125 215/112/203
f 215/112/203 214/116/202 128/58/116
f 220/121/208 221/122/209 222/123/210
f 220/121/208 223/124/211 221/122/209
f 224/125/212 223/124/211 220/121/208
f 224/125/212 225/125/213 223/124/211
f 226/121/214 225/125/213 224/125/212
f 226/121/214 227/124/215 225/125/213
f 228/123/216 227/124/215 226/121/214
f 228/123/216 229/122/217 227/124/215
f 230/126/218 229/122/217 228/123/216
f 230/126/218 231/126/219 229/122/217
f 222/123/210 231/126/219 230/126/218
f 222/123/210 221/122/209 231/126/219
f 230/126/218 220/121/208 222/123/210
f 230/126/218 224/125/212 220/121/208
f 228/123/216 224/125/212 230/126/218
f 228/123/216 226/121/214 224/125/212
f 225/125/213 221/122/209 223/124/211
f 225/125/213 231/126/219 221/122/209
f 227/124/215 231/126/219 225/125/213
f 227/124/215 229/122/217 231/126/219
f 232/127/220 233/128/221 234/129/222
f 232/127/220 235/130/223 233/128/221
f 236/129/224 235/130/223 232/127/220
f 236/129/224 237/128/225 235/130/223
f 238/131/226 237/128/225 236/129/224
f 238/131/226 239/132/227 237/128/225
f 239/132/227 238/131/226 240/131/228
f 240/131/228 241/132/229 239/132/227
f 240/131/228 233/128/221 241/132/229
f 233/128/221 240/131/228 234/129/222
f 1/133/230 242/134/231 2/135/232
f 1/133/230 243/136/233 242/134/231
f 3/137/234 243/136/233 1/133/230
f 3/137/234 244/138/235 243/136/233
f 4/139/236 244/138/235 3/137/234
f 4/139/236 245/140/237 244/138/235
f 5/137/238 245/140/237 4/139/236
f 5/137/238 246/138/239 245/140/237
f 6/133/240 246/138/239 5/137/238
f 6/133/240 247/136/241 246/138/239
f 7/141/242 247/136/241 6/133/240
f 7/141/242 248/134/243 247/136/241
f 243/136/233 249/142/244 242/134/231
f 243/136/233 250/143/245 249/142/244
f 244/138/235 250/143/245 243/136/233
f 244/138/235 251/144/246 250/143/245
f 245/140/237 251/144/246 244/138/235
f 245/140/237 252/145/247 251/144/246
f 246/138/239 252/145/247 245/140/237
f 246/138/239 253/146/248 252/145/247
f 247/136/241 253/146/248 246/138/239
f 247/136/241 254/147/249 253/146/248
f 248/134/243 254/147/249 247/136/241
f 248/134/243 255/148/250 254/147/249
f 250/143/245 256/149/251 249/142/244
f 250/143/245 257/150/252 256/149/251
f 251/144/246 257/150/252 250/143/245
f 251/144/246 258/151/253 257/150/252
f 252/145/247 258/151/253 251/144/246
f 252/145/247 259/152/254 258/151/253
f 253/146/248 259/152/254 252/145/247
f 253/146/248 260/151/255 259/152/254
f 254/147/249 260/151/255 253/146/248
f 254/147/249 261/150/256 260/151/255
f 255/148/250 261/150/256 254/147/249
f 255/148/250 262/149/257 261/150/256
f 257/150/252 263/153/258 256/149/251
f 257/150/252 264/154/259 263/153/258
f 258/151/253 264/154/259 257/150/252
f 258/151/253 265/155/260 264/154/259
f 259/152/254 265/155/260 258/151/253
f 259/152/254 266/156/261 265/155/260
f 260/151/255 266/156/261 259/152/254
f 260/151/255 267/155/262 266/156/261
f 261/150/256 267/155/262 260/151/255
f 261/150/256 268/157/263 267/155/262
f 262/149/257 268/157/263 261/150/256
f 262/149/257 269/158/264 268/157/263
f 242/134/231 8/133/265 2/135/232
f 242/134/231 270/136/266 8/133/265
f 249/142/244 270/136/266 242/134/231
f 249/142/244 271/143/267 270/136/266
f 256/149/251 271/143/267 249/142/244
f 256/149/251 272/150/268 271/143/267
f 263/153/258 272/150/268 256/149/251
f 263/153/258 273/154/269 272/150/268
f 274/159/270 273/154/269 263/153/258
f 274/159/270 275/155/271 273/154/269
f 276/156/272 275/155/271 274/159/270
f 276/156/272 277/151/273 275/155/271
f 278/152/274 277/151/273 276/156/272
f 278/152/274 279/144/275 277/151/273
f 280/145/276 279/144/275 278/152/274
f 280/145/276 281/138/277 279/144/275
f 282/140/278 281/138/277 280/145/276
f 282/140/278 9/137/279 281/138/277
f 10/139/280 9/137/279 282/140/278
f 277/151/273 273/154/269 275/155/271
f 277/151/273 272/150/268 273/154/269
f 279/144/275 272/150/268 277/151/273
f 279/144/275 271/143/267 272/150/268
f 281/138/277 271/143/267 279/144/275
f 281/138/277 270/136/266 271/143/267
f 9/137/279 270/136/266 281/138/277
f 9/137/279 8/133/265 270/136/266
f 282/140/278 11/137/281 10/139/280
f 282/140/278 283/138/282 11/137/281
f 280/145/276 283/138/282 282/140/278
f 280/145/276 284/146/283 283/138/282
f 278/152/274 284/146/283 280/145/276
f 278/152/274 285/151/284 284/146/283
f 276/156/272 285/151/284 278/152/274
f 276/156/272 286/155/285 285/151/284
f 274/159/270 286/155/285 276/156/272
f 274/159/270 287/157/286 286/155/285
f 269/158/264 287/157/286 274/159/270
f 269/158/264 288/150/287 287/157/286
f 262/149/257 288/150/287 269/158/264
f 262/149/257 289/147/288 288/150/287
f 255/148/250 289/147/288 262/149/257
f 255/148/250 290/136/289 289/147/288
f 248/134/243 290/136/289 255/148/250
f 248/134/243 12/133/290 290/136/289
f 7/141/242 12/133/290 248/134/243
f 288/150/287 286/155/285 287/157/286
f 288/150/287 285/151/284 286/155/285
f 289/147/288 285/151/284 288/150/287
f 289/147/288 284/146/283 285/151/284
f 290/136/289 284/146/283 289/147/288
f 290/136/289 283/138/282 284/146/283
f 12/133/290 283/138/282 290/136/289
f 12/133/290 11/137/281 283/138/282
f 264/154/259 274/159/270 263/153/258
f 274/159/270 264/154/259 265/155/260
f 266/156/261 274/159/270 265/155/260
f 274/159/270 266/156/261 267/155/262
f 268/157/263 274/159/270 267/155/262
f 274/159/270 268/157/263 269/158/264
usemtl Material01.001
f 291/160/291 292/161/292 293/162/293
f 291/160/291 294/163/294 292/161/292
f 295/164/295 294/163/294 291/160/291
f 295/164/295 296/165/296 294/163/294
f 297/166/297 296/165/296 295/164/295
f 297/166/297 298/167/298 296/165/296
f 299/168/299 298/167/298 297/166/297
f 299/168/299 300/169/300 298/167/298
f 301/170/301 300/169/300 299/168/299
f 301/170/301 302/171/302 300/169/300
f 291/172/291 303/173/303 295/174/295
f 291/172/291 304/175/304 303/173/303
f 293/176/293 304/175/304 291/172/291
f 293/176/293 305/177/305 304/175/304
f 292/178/292 305/177/305 293/176/293
f 292/178/292 306/179/306 305/177/305
f 307/180/307 306/179/306 292/178/292
f 307/180/307 308/181/308 306/179/306
f 309/182/309 308/181/308 307/180/307
f 309/182/309 310/179/310 308/181/308
f 311/180/311 310/179/310 309/182/309
f 311/180/311 312/178/312 310/179/310
f 313/183/313 312/178/312 311/180/311
f 294/183/294 307/180/307 292/178/292
f 294/183/294 309/182/309 307/180/307
f 314/184/314 309/182/309 294/183/294
f 314/184/314 311/180/311 309/182/309
f 313/183/313 311/180/311 314/184/314
f 315/173/315 316/172/316 317/174/317
f 315/173/315 318/175/318 316/172/316
f 319/185/319 318/175/318 315/173/315
f 319/185/319 320/186/320 318/175/318
f 321/187/321 320/186/320 319/185/319
f 321/187/321 322/188/322 320/186/320
f 323/189/323 322/188/322 321/187/321
f 323/189/323 324/190/324 322/188/322
f 325/191/325 324/190/324 323/189/323
f 325/191/325 326/189/326 324/190/324
f 296/165/296 314/192/314 294/163/294
f 296/165/296 313/163/313 314/192/314
f 317/164/317 313/163/313 296/165/296
f 317/164/317 316/160/316 313/163/313
f 327/170/327 300/169/300 302/171/302
f 327/170/327 328/168/328 300/169/300
f 329/193/329 328/168/328 327/170/327
f 329/193/329 330/194/330 328/168/328
f 331/195/331 330/194/330 329/193/329
f 331/195/331 332/196/332 330/194/330
f 333/197/333 332/196/332 331/195/331
f 333/197/333 334/198/334 332/196/332
f 335/199/335 334/198/334 333/197/333
f 335/199/335 336/200/336 334/198/334
f 337/201/337 336/200/336 335/199/335
f 337/201/337 338/202/338 336/200/336
f 339/199/339 338/202/338 337/201/337
f 339/199/339 340/200/340 338/202/338
f 341/197/341 340/200/340 339/199/339
f 341/197/341 342/198/342 340/200/340
f 343/195/343 342/198/342 341/197/341
f 343/195/343 344/196/344 342/198/342
f 345/193/345 344/196/344 343/195/343
f 345/193/345 346/194/346 344/196/344
f 301/170/301 346/194/346 345/193/345
f 301/170/301 299/168/299 346/194/346
f 297/166/297 346/194/346 299/168/299
f 297/166/297 347/203/347 346/194/346
f 295/164/295 347/203/347 297/166/297
f 295/164/295 303/204/303 347/203/347
f 348/205/348 342/198/342 344/196/344
f 348/205/348 340/200/340 342/198/342
f 326/206/326 340/200/340 348/205/348
f 326/206/326 338/202/338 340/200/340
f 325/207/325 338/202/338 326/206/326
f 325/207/325 336/200/336 338/202/338
f 323/206/323 336/200/336 325/207/325
f 323/206/323 334/198/334 336/200/336
f 321/205/321 334/198/334 323/206/323
f 321/205/321 332/196/332 334/198/334
f 319/208/319 332/196/332 321/205/321
f 319/208/319 315/204/315 332/196/332
f 304/175/304 349/185/349 303/173/303
f 304/175/304 350/186/350 349/185/349
f 351/209/351 350/186/350 304/175/304
f 351/209/351 352/210/352 350/186/350
f 353/211/353 352/210/352 351/209/351
f 353/211/353 320/186/320 352/210/352
f 354/209/354 320/186/320 353/211/353
f 354/209/354 318/175/318 320/186/320
f 355/177/355 318/175/318 354/209/354
f 355/177/355 356/176/356 318/175/318
f 312/178/312 356/176/356 355/177/355
f 308/181/308 351/209/351 306/179/306
f 308/181/308 353/211/353 351/209/351
f 310/179/310 353/211/353 308/181/308
f 310/179/310 354/209/354 353/211/353
f 355/177/355 354/209/354 310/179/310
f 322/188/322 352/210/352 320/186/320
f 322/188/322 357/212/357 352/210/352
f 324/190/324 357/212/357 322/188/322
f 324/190/324 358/188/358 357/212/357
f 326/189/326 358/188/358 324/190/324
f 326/189/326 348/187/348 358/188/358
f 328/168/328 298/167/298 300/169/300
f 328/168/328 359/166/359 298/167/298
f 330/194/330 359/166/359 328/168/328
f 330/194/330 360/203/360 359/166/359
f 332/196/332 360/203/360 330/194/330
f 332/196/332 315/204/315 360/203/360
f 317/164/317 360/203/360 315/204/315
f 317/164/317 359/166/359 360/203/360
f 296/165/296 359/166/359 317/164/317
f 296/165/296 298/167/298 359/166/359
f 361/213/361 341/214/341 339/215/339
f 361/213/361 343/216/343 341/214/341
f 362/217/362 343/216/343 361/213/361
f 362/217/362 345/218/345 343/216/343
f 301/219/301 345/218/345 362/217/362
f 333/220/333 361/213/361 335/221/335
f 333/220/333 362/217/362 361/213/361
f 331/222/331 362/217/362 333/220/333
f 331/222/331 329/223/329 362/217/362
f 312/161/312 316/160/316 356/162/356
f 316/160/316 312/161/312 313/163/313
f 347/203/347 344/196/344 346/194/346
f 344/196/344 347/203/347 303/204/303
f 349/208/349 344/196/344 303/204/303
f 344/196/344 349/208/349 348/205/348
f 318/175/318 356/176/356 316/172/316
f 305/177/305 351/209/351 304/175/304
f 351/209/351 305/177/305 306/179/306
f 312/178/312 355/177/355 310/179/310
f 357/212/357 350/186/350 352/210/352
f 350/186/350 357/212/357 358/188/358
f 358/188/358 349/185/349 350/186/350
f 349/185/349 358/188/358 348/187/348
f 337/224/337 361/213/361 339/215/339
f 361/213/361 337/224/337 335/221/335
f 362/217/362 302/225/302 301/219/301
f 302/225/302 362/217/362 327/226/327
f 329/223/329 327/226/327 362/217/362
usemtl Material07
f 363/227/363 364/228/364 365/229/365
f 363/227/363 366/230/366 364/228/364
f 367/231/367 366/230/366 363/227/363
f 367/231/367 368/232/368 366/230/366
f 369/233/369 368/232/368 367/231/367
f 369/233/369 370/234/370 368/232/368
f 371/235/371 370/234/370 369/233/369
f 371/235/371 372/232/372 370/234/370
f 373/233/373 372/232/372 371/235/371
f 373/233/373 374/230/374 372/232/372
f 375/231/375 374/230/374 373/233/373
f 375/231/375 376/228/376 374/230/374
f 377/227/377 376/228/376 375/231/375
f 377/227/377 378/229/378 376/228/376
f 375/231/375 378/229/378 377/227/377
f 375/231/375 379/236/379 378/229/378
f 380/237/380 379/236/379 375/231/375
f 380/237/380 381/238/381 379/236/379
f 382/239/382 381/238/381 380/237/380
f 382/239/382 372/232/372 381/238/381
f 383/240/383 372/232/372 382/239/382
f 383/240/383 370/234/370 372/232/372
f 384/239/384 370/234/370 383/240/383
f 384/239/384 368/232/368 370/234/370
f 385/238/385 368/232/368 384/239/384
f 385/238/385 366/230/366 368/232/368
f 386/236/386 366/230/366 385/238/385
f 386/236/386 364/228/364 366/230/366
f 365/229/365 364/228/364 386/236/386
f 374/230/374 381/238/381 372/232/372
f 374/230/374 379/236/379 381/238/381
f 376/228/376 379/236/379 374/230/374
f 376/228/376 378/229/378 379/236/379
f 386/236/386 363/227/363 365/229/365
f 386/236/386 367/231/367 363/227/363
f 385/238/385 367/231/367 386/236/386
f 385/238/385 387/237/387 367/231/367
f 384/239/384 387/237/387 385/238/385
f 384/239/384 371/235/371 387/237/387
f 383/240/383 371/235/371 384/239/384
f 383/240/383 380/237/380 371/235/371
f 382/239/382 380/237/380 383/240/383
f 387/237/387 369/233/369 367/231/367
f 369/233/369 387/237/387 371/235/371
f 380/237/380 373/233/373 371/235/371
f 373/233/373 380/237/380 375/231/375
usemtl Material04.001
f 1/241/230 388/242/388 3/243/234
f 1/241/230 389/37/389 388/242/388
f 2/244/232 389/37/389 1/241/230
f 2/244/232 390/245/390 389/37/389
f 8/246/265 390/245/390 2/244/232
f 8/246/265 391/247/391 390/245/390
f 9/248/279 391/247/391 8/246/265
f 9/248/279 392/249/392 391/247/391
f 10/250/280 392/249/392 9/248/279
f 10/250/280 393/251/393 392/249/392
f 11/252/281 393/251/393 10/250/280
f 11/252/281 394/253/394 393/251/393
f 12/254/290 394/253/394 11/252/281
f 12/254/290 395/255/395 394/253/394
f 7/256/242 395/255/395 12/254/290
f 7/256/242 396/257/396 395/255/395
f 6/258/240 396/257/396 7/256/242
f 6/258/240 397/259/397 396/257/396
f 5/260/238 397/259/397 6/258/240
f 5/260/238 398/261/398 397/259/397
f 4/262/236 398/261/398 5/260/238
f 4/262/236 399/263/399 398/261/398
f 3/264/234 399/263/399 4/262/236
f 3/264/234 388/265/388 399/263/399
f 389/37/389 400/266/400 388/242/388
f 389/37/389 401/267/401 400/266/400
f 390/245/390 401/267/401 389/37/389
f 390/245/390 402/268/402 401/267/401
f 391/247/391 402/268/402 390/245/390
f 391/247/391 403/269/403 402/268/402
f 392/249/392 403/269/403 391/247/391
f 392/249/392 404/270/404 403/269/403
f 393/251/393 404/270/404 392/249/392
f 393/251/393 405/271/405 404/270/404
f 394/253/394 405/271/405 393/251/393
f 394/253/394 406/272/406 405/271/405
f 395/255/395 406/272/406 394/253/394
f 395/255/395 407/273/407 406/272/406
f 396/257/396 407/273/407 395/255/395
f 396/257/396 408/274/408 407/273/407
f 397/259/397 408/274/408 396/257/396
f 397/259/397 409/275/409 408/274/408
f 398/261/398 409/275/409 397/259/397
f 398/261/398 410/276/410 409/275/409
f 399/263/399 410/276/410 398/261/398
f 399/263/399 411/277/411 410/276/410
f 388/265/388 411/277/411 399/263/399
f 388/265/388 400/278/400 411/277/411
f 401/267/401 412/279/412 400/266/400
f 412/279/412 401/267/401 402/268/402
f 403/269/403 412/279/412 402/268/402
f 412/279/412 403/269/403 404/270/404
f 412/279/412 411/277/411 400/278/400
f 411/277/411 412/279/412 410/276/410
f 409/275/409 410/276/410 412/279/412
f 412/279/412 408/274/408 409/275/409
f 408/274/408 412/279/412 407/273/407
f 406/272/406 407/273/407 412/279/412
f 412/279/412 405/271/405 406/272/406
f 405/271/405 412/279/412 404/270/404
o Bazooka_Soldier.001
v 0.930500 6.424200 -0.311600
v 0.930700 6.189100 -0.439400
v 0.930800 5.954100 -0.311400
v 0.930800 5.856800 -0.002500
v 0.930800 5.954200 0.306400
v 0.930700 6.189400 0.434300
v 0.930500 6.424400 0.306300
v 0.930500 6.521700 -0.002700
v 3.830200 6.650200 -0.344801
v 2.459700 6.186000 -0.518400
v 3.728100 6.075500 -0.510300
v 2.459500 6.544000 -0.337301
v 3.785100 6.657800 0.380599
v 2.484000 6.544200 0.321399
v 3.704400 6.294700 0.770000
v 2.489200 6.186200 0.502500
v 3.744200 5.746200 0.602700
v 2.484300 5.817500 0.321600
v 2.459800 5.817300 -0.337200
v 2.184300 5.837900 0.322600
v 2.184100 6.174100 0.504200
v 2.184000 6.505400 0.322500
v 2.191500 6.173900 -0.506400
v 2.191400 6.514900 -0.324401
v 2.191700 5.828200 -0.324200
v 3.744200 5.719600 -0.322200
v 4.077500 6.575800 -0.303401
v 4.006200 6.160800 -0.498300
v 4.079800 6.580900 0.386299
v 3.961700 6.223200 0.800499
v 3.961900 5.902100 0.703500
v 3.965500 5.902400 0.130000
v 3.999400 5.859200 -0.395800
v 4.516200 6.016700 1.089000
v 4.515600 5.723100 0.893100
v 4.991100 5.933800 1.102200
v 4.951100 5.710100 0.957300
v 5.057500 5.859500 0.911200
v 4.973300 5.844600 0.701900
v 4.555300 5.898000 0.547100
v 4.642700 6.211600 0.742500
v 4.556200 6.161800 0.743600
v 4.653500 6.017600 0.611000
v 5.117300 6.208300 0.796600
v 5.117600 6.006100 0.687600
v 5.852200 6.225700 0.537300
v 5.813600 6.041100 0.468400
v 5.978300 6.219100 0.065200
v 5.890300 6.027900 0.064700
v 5.852100 6.225700 -0.407800
v 5.813600 6.041200 -0.338900
v 5.117300 6.208400 -0.679000
v 5.117500 6.006200 -0.540401
v 4.654900 6.212000 -0.647000
v 4.655200 6.016600 -0.516600
v 4.654600 6.633800 -0.379001
v 4.654700 6.633800 0.481200
v 5.117000 6.615700 0.512000
v 5.813200 6.410300 0.468400
v 5.889700 6.486700 0.064700
v 5.813200 6.410300 -0.338900
v 5.117000 6.615700 -0.394401
v 5.013600 6.068200 0.847100
vn 0.1410 0.8009 -0.5820
vn -0.0274 -0.0326 -0.9991
vn 0.0484 -0.0574 -0.9972
vn -0.0907 0.8492 -0.5202
vn 0.0515 0.9291 0.3662
vn -0.1336 0.8751 0.4652
vn -0.1530 0.1937 0.9691
vn -0.1119 -0.0437 0.9928
vn 0.0813 -0.8527 0.5161
vn -0.1096 -0.8442 0.5247
vn -0.0580 -0.8956 -0.4410
vn -0.0175 -0.6974 0.7165
vn -0.0453 -0.8717 0.4880
vn -0.0031 -0.9982 0.0600
vn -0.0325 -0.1054 0.9939
vn 0.0048 0.2000 0.9798
vn -0.0548 0.7811 0.6220
vn -0.0165 0.8184 0.5745
vn 0.0031 0.9985 -0.0540
vn -0.0597 0.0795 -0.9950
vn -0.0819 0.9201 -0.3830
vn 0.0236 -0.1892 -0.9816
vn -0.0624 -0.8297 -0.5547
vn 0.0063 -0.8170 -0.5766
vn 0.2013 -0.8313 -0.5182
vn 0.0057 0.6921 -0.7218
vn -0.0147 0.7114 -0.7026
vn -0.1035 0.0681 -0.9923
vn 0.0648 0.9372 0.3428
vn -0.0235 0.4259 0.9045
vn -0.2253 -0.6519 0.7241
vn 0.3854 -0.9113 -0.1451
vn 0.1387 -0.7100 -0.6904
vn -0.2341 0.1543 0.9599
vn -0.1444 -0.9295 0.3395
vn 0.4617 0.1511 0.8741
vn 0.4085 -0.9122 0.0322
vn 0.9797 -0.2002 0.0084
vn 0.6588 -0.1047 -0.7450
vn 0.4527 -0.8272 -0.3329
vn 0.0323 0.0860 0.9958
vn 0.3846 0.8359 0.3915
vn 0.1166 -0.9316 0.3442
vn 0.0949 0.0071 0.9955
vn 0.1033 -0.8531 0.5114
vn 0.7432 -0.0302 0.6684
vn 0.5126 -0.7900 0.3364
vn 0.9993 -0.0378 -0.0075
vn 0.7741 -0.6286 -0.0748
vn 0.7387 0.0316 -0.6733
vn 0.3042 -0.8715 -0.3845
vn 0.1488 0.0318 -0.9884
vn 0.0275 -0.8849 -0.4650
vn -0.1286 -0.0789 -0.9885
vn 0.0723 -0.9306 -0.3589
vn -0.0710 0.8773 -0.4746
vn -0.0536 0.9219 0.3838
vn 0.1091 0.8561 0.5051
vn 0.4957 0.6185 0.6096
vn 0.6850 0.7270 0.0464
vn 0.6823 0.5566 -0.4739
vn 0.1612 0.8802 -0.4465
vn 0.7796 0.6001 -0.1792
vt 0.360900 0.267600
vt 0.212800 0.325300
vt 0.349900 0.334300
vt 0.212800 0.284600
vt 0.356000 0.237600
vt 0.215400 0.222200
vt 0.347300 0.198200
vt 0.216000 0.180200
vt 0.351600 0.159800
vt 0.215500 0.145700
vt 0.212800 0.091500
vt 0.047600 0.150000
vt 0.183000 0.146500
vt 0.047600 0.118900
vt 0.183000 0.179300
vt 0.047600 0.176500
vt 0.183000 0.214900
vt 0.047600 0.214800
vt 0.047600 0.253500
vt 0.183800 0.326900
vt 0.183800 0.289700
vt 0.047600 0.061500
vt 0.183800 0.092000
vt 0.183800 0.058900
vt 0.047600 0.087900
vt 0.351600 0.095500
vt 0.212800 0.057300
vt 0.349900 0.066300
vt 0.047600 0.293300
vt 0.047600 0.329600
vt 0.387600 0.277600
vt 0.379900 0.328500
vt 0.387900 0.226300
vt 0.375100 0.193800
vt 0.375200 0.171400
vt 0.375500 0.132100
vt 0.379200 0.085800
vt 0.379900 0.060500
vt 0.862000 0.834700
vt 0.868900 0.829800
vt 0.866500 0.817800
vt 0.868100 0.840700
vt 0.863500 0.858500
vt 0.868000 0.859000
vt 0.871000 0.871600
vt 0.875600 0.859700
vt 0.879400 0.824200
vt 0.886200 0.824400
vt 0.872600 0.896200
vt 0.872500 0.842100
vt 0.875600 0.897100
vt 0.870700 0.931900
vt 0.874500 0.932000
vt 0.869000 0.987800
vt 0.873900 0.964700
vt 0.879900 0.990100
vt 0.879900 0.965800
vt 0.888700 0.987800
vt 0.883600 0.964700
vt 0.899300 0.966900
vt 0.891700 0.932000
vt 0.898600 0.897300
vt 0.892200 0.897200
vt 0.886700 0.817900
vt 0.898700 0.818000
vt 0.979600 0.818000
vt 0.972300 0.897400
vt 0.975800 0.817900
vt 0.964400 0.897400
vt 0.904600 0.895400
vt 0.963400 0.969100
vt 0.909700 0.969100
vt 0.968800 0.987900
vt 0.926200 0.987900
vt 0.989400 0.989100
vt 0.989400 0.990200
vt 0.980100 0.987900
vt 0.975100 0.987900
vt 0.973000 0.969100
vt 0.883400 0.895500
vt 0.879400 0.899900
vt 0.904700 0.818000
vt 0.879200 0.922700
vt 0.883100 0.922500
vt 0.882200 0.933900
vt 0.885500 0.922500
vt 0.886400 0.905700
s 1
usemtl Material06
f 421/280/413 423/282/415 422/281/414
f 421/280/413 422/281/414 424/283/416
f 425/284/417 421/280/413 424/283/416
f 425/284/417 424/283/416 426/285/418
f 427/286/419 425/284/417 426/285/418
f 427/286/419 426/285/418 428/287/420
f 429/288/421 427/286/419 428/287/420
f 429/288/421 428/287/420 430/289/422
f 431/290/423 429/288/421 430/289/422
f 417/291/424 416/293/426 432/292/425
f 417/291/424 432/292/425 433/294/427
f 418/295/428 417/291/424 433/294/427
f 418/295/428 433/294/427 434/296/429
f 419/297/430 418/295/428 434/296/429
f 419/297/430 434/296/429 420/298/431
f 424/283/416 422/281/414 435/299/432
f 424/283/416 435/299/432 436/300/433
f 426/285/418 424/283/416 436/300/433
f 426/285/418 436/300/433 434/296/429
f 414/301/434 435/303/432 437/302/435
f 437/302/435 415/304/436 414/301/434
f 415/304/436 437/302/435 416/293/426
f 438/305/437 429/288/421 431/290/423
f 431/290/423 422/306/414 438/305/437
f 423/307/415 438/305/437 422/306/414
f 435/303/432 422/306/414 431/290/423
f 431/290/423 437/302/435 435/303/432
f 431/290/423 430/289/422 432/292/425
f 432/292/425 437/302/435 431/290/423
f 416/293/426 437/302/435 432/292/425
f 432/292/425 430/289/422 428/287/420
f 428/287/420 433/294/427 432/292/425
f 428/287/420 426/285/418 434/296/429
f 434/296/429 433/294/427 428/287/420
f 420/298/431 434/296/429 436/300/433
f 436/300/433 413/308/438 420/298/431
f 413/308/438 436/300/433 435/299/432
f 435/299/432 414/309/434 413/308/438
f 439/310/439 440/311/440 423/282/415
f 439/310/439 423/282/415 421/280/413
f 441/312/441 439/310/439 421/280/413
f 441/312/441 421/280/413 425/284/417
f 442/313/442 441/312/441 425/284/417
f 442/313/442 425/284/417 427/286/419
f 443/314/443 442/313/442 427/286/419
f 443/314/443 427/286/419 429/288/421
f 444/315/444 443/314/443 429/288/421
f 444/315/444 429/288/421 438/305/437
f 445/316/445 444/315/444 438/305/437
f 445/316/445 438/305/437 423/307/415
f 440/317/440 445/316/445 423/307/415
f 446/318/446 442/320/442 443/319/443
f 446/318/446 443/319/443 447/321/447
f 448/322/448 446/318/446 447/321/447
f 448/322/448 447/321/447 449/323/449
f 450/324/450 448/322/448 449/323/449
f 450/324/450 449/323/449 451/325/451
f 452/326/452 451/325/451 449/323/449
f 452/326/452 449/323/449 447/321/447
f 444/327/444 452/326/452 447/321/447
f 444/327/444 447/321/447 443/319/443
f 453/328/453 454/329/454 452/326/452
f 453/328/453 452/326/452 455/330/455
f 456/331/456 453/328/453 455/330/455
f 456/331/456 455/330/455 457/332/457
f 458/333/458 456/331/456 457/332/457
f 458/333/458 457/332/457 459/334/459
f 460/335/460 458/333/458 459/334/459
f 460/335/460 459/334/459 461/336/461
f 462/337/462 460/335/460 461/336/461
f 462/337/462 461/336/461 463/338/463
f 464/339/464 462/337/462 463/338/463
f 464/339/464 463/338/463 465/340/465
f 466/341/466 464/339/464 465/340/465
f 466/341/466 465/340/465 467/342/467
f 445/343/445 466/341/466 467/342/467
f 445/343/445 467/342/467 444/327/444
f 463/338/463 461/336/461 459/334/459
f 463/338/463 459/334/459 457/332/457
f 465/340/465 463/338/463 457/332/457
f 465/340/465 457/332/457 455/330/455
f 467/342/467 465/340/465 455/330/455
f 467/342/467 455/330/455 444/327/444
f 466/341/466 445/343/445 440/344/440
f 466/341/466 440/344/440 439/345/439
f 468/346/468 466/341/466 439/345/439
f 468/346/468 439/345/439 441/347/441
f 469/348/469 468/346/468 441/347/441
f 469/348/469 441/347/441 453/349/453
f 470/350/470 469/348/469 453/349/453
f 470/350/470 453/349/453 456/351/456
f 471/352/471 470/350/470 456/351/456
f 471/352/471 456/351/456 458/353/458
f 472/354/472 471/352/471 458/353/458
f 472/354/472 458/353/458 460/355/460
f 473/356/473 472/354/472 460/355/460
f 473/356/473 460/355/460 462/357/462
f 474/358/474 473/356/473 462/357/462
f 474/358/474 462/357/462 464/339/464
f 468/346/468 474/358/474 464/339/464
f 468/346/468 464/339/464 466/341/466
f 454/359/454 442/361/442 446/360/446
f 454/359/454 446/360/446 448/362/448
f 475/363/475 454/359/454 448/362/448
f 475/363/475 448/362/448 450/364/450
f 451/365/451 475/363/475 450/364/450
f 474/358/474 468/346/468 469/348/469
f 474/358/474 469/348/469 470/350/470
f 472/354/472 474/358/474 470/350/470
f 472/354/472 470/350/470 471/352/471
f 452/326/452 444/327/444 455/330/455
f 453/349/453 441/347/441 442/361/442
f 442/361/442 454/359/454 453/349/453
f 454/359/454 475/363/475 451/365/451
f 451/365/451 452/366/452 454/359/454
f 473/356/473 474/358/474 472/354/472
o Bazooka_Soldier.002
v -0.930500 6.424200 -0.311600
v -0.930700 6.189100 -0.439400
v -0.930800 5.954100 -0.311400
v -0.930800 5.856800 -0.002500
v -0.930800 5.954200 0.306400
v -0.930700 6.189400 0.434300
v -0.930500 6.424400 0.306300
v -0.930500 6.521700 -0.002700
v -3.830200 6.650200 -0.344801
v -2.459700 6.186000 -0.518400
v -3.728100 6.075500 -0.510300
v -2.459500 6.544000 -0.337301
v -3.785100 6.657800 0.380599
v -2.484000 6.544200 0.321399
v -3.704400 6.294700 0.770000
v -2.489200 6.186200 0.502500
v -3.744200 5.746200 0.602700
v -2.484300 5.817500 0.321600
v -2.459800 5.817300 -0.337200
v -2.184300 5.837900 0.322600
v -2.184100 6.174100 0.504200
v -2.184000 6.505400 0.322500
v -2.191500 6.173900 -0.506400
v -2.191400 6.514900 -0.324401
v -2.191700 5.828200 -0.324200
v -3.744200 5.719600 -0.322200
v -4.077500 6.575800 -0.303401
v -4.006200 6.160800 -0.498300
v -4.079800 6.580900 0.386299
v -3.961700 6.223200 0.800499
v -3.961900 5.902100 0.703500
v -3.965500 5.902400 0.130000
v -3.999400 5.859200 -0.395800
v -4.516200 6.016700 1.089000
v -4.515600 5.723100 0.893100
v -4.991100 5.933800 1.102200
v -4.951100 5.710100 0.957300
v -5.057500 5.859500 0.911200
v -4.973300 5.844600 0.701900
v -4.555300 5.898000 0.547100
v -4.642700 6.211600 0.742500
v -4.556200 6.161800 0.743600
v -4.653500 6.017600 0.611000
v -5.117300 6.208300 0.796600
v -5.117600 6.006100 0.687600
v -5.852200 6.225700 0.537300
v -5.813600 6.041100 0.468400
v -5.978300 6.219100 0.065200
v -5.890300 6.027900 0.064700
v -5.852100 6.225700 -0.407800
v -5.813600 6.041200 -0.338900
v -5.117300 6.208400 -0.679000
v -5.117500 6.006200 -0.540401
v -4.654900 6.212000 -0.647000
v -4.655200 6.016600 -0.516600
v -4.654600 6.633800 -0.379001
v -4.654700 6.633800 0.481200
v -5.117000 6.615700 0.512000
v -5.813200 6.410300 0.468400
v -5.889700 6.486700 0.064700
v -5.813200 6.410300 -0.338900
v -5.117000 6.615700 -0.394401
v -5.013600 6.068200 0.847100
vn -0.1410 0.8009 -0.5820
vn 0.0274 -0.0326 -0.9991
vn -0.0484 -0.0574 -0.9972
vn 0.0907 0.8492 -0.5202
vn -0.0515 0.9291 0.3662
vn 0.1336 0.8751 0.4652
vn 0.1530 0.1937 0.9691
vn 0.1119 -0.0437 0.9928
vn -0.0813 -0.8527 0.5161
vn 0.1096 -0.8442 0.5247
vn 0.0580 -0.8956 -0.4410
vn 0.0175 -0.6974 0.7165
vn 0.0453 -0.8717 0.4880
vn 0.0031 -0.9982 0.0600
vn 0.0325 -0.1054 0.9939
vn -0.0048 0.2000 0.9798
vn 0.0548 0.7811 0.6220
vn 0.0165 0.8184 0.5745
vn -0.0031 0.9985 -0.0540
vn 0.0597 0.0795 -0.9950
vn 0.0819 0.9201 -0.3830
vn -0.0236 -0.1892 -0.9816
vn 0.0624 -0.8297 -0.5547
vn -0.0063 -0.8170 -0.5766
vn -0.2013 -0.8313 -0.5182
vn -0.0057 0.6921 -0.7218
vn 0.0147 0.7114 -0.7026
vn 0.1035 0.0681 -0.9923
vn -0.0648 0.9372 0.3428
vn 0.0235 0.4259 0.9045
vn 0.2253 -0.6519 0.7241
vn -0.3854 -0.9113 -0.1451
vn -0.1387 -0.7100 -0.6904
vn 0.2341 0.1543 0.9599
vn 0.1444 -0.9295 0.3395
vn -0.4617 0.1511 0.8741
vn -0.4085 -0.9122 0.0322
vn -0.9797 -0.2002 0.0084
vn -0.6588 -0.1047 -0.7450
vn -0.4527 -0.8272 -0.3329
vn -0.0323 0.0860 0.9958
vn -0.3846 0.8359 0.3915
vn -0.1166 -0.9316 0.3442
vn -0.0949 0.0071 0.9955
vn -0.1033 -0.8531 0.5114
vn -0.7432 -0.0302 0.6684
vn -0.5126 -0.7900 0.3364
vn -0.9993 -0.0378 -0.0075
vn -0.7741 -0.6286 -0.0748
vn -0.7387 0.0316 -0.6733
vn -0.3042 -0.8715 -0.3845
vn -0.1488 0.0318 -0.9884
vn -0.0275 -0.8849 -0.4650
vn 0.1286 -0.0789 -0.9885
vn -0.0723 -0.9306 -0.3589
vn 0.0710 0.8773 -0.4746
vn 0.0536 0.9219 0.3838
vn -0.1091 0.8561 0.5051
vn -0.4957 0.6185 0.6096
vn -0.6850 0.7270 0.0464
vn -0.6823 0.5566 -0.4739
vn -0.1612 0.8802 -0.4465
vn -0.7796 0.6001 -0.1792
vt 0.360900 0.267600
vt 0.212800 0.325300
vt 0.349900 0.334300
vt 0.212800 0.284600
vt 0.356000 0.237600
vt 0.215400 0.222200
vt 0.347300 0.198200
vt 0.216000 0.180200
vt 0.351600 0.159800
vt 0.215500 0.145700
vt 0.212800 0.091500
vt 0.047600 0.150000
vt 0.183000 0.146500
vt 0.047600 0.118900
vt 0.183000 0.179300
vt 0.047600 0.176500
vt 0.183000 0.214900
vt 0.047600 0.214800
vt 0.047600 0.253500
vt 0.183800 0.326900
vt 0.183800 0.289700
vt 0.047600 0.061500
vt 0.183800 0.092000
vt 0.183800 0.058900
vt 0.047600 0.087900
vt 0.351600 0.095500
vt 0.212800 0.057300
vt 0.349900 0.066300
vt 0.047600 0.293300
vt 0.047600 0.329600
vt 0.387600 0.277600
vt 0.379900 0.328500
vt 0.387900 0.226300
vt 0.375100 0.193800
vt 0.375200 0.171400
vt 0.375500 0.132100
vt 0.379200 0.085800
vt 0.379900 0.060500
vt 0.862000 0.834700
vt 0.868900 0.829800
vt 0.866500 0.817800
vt 0.868100 0.840700
vt 0.863500 0.858500
vt 0.868000 0.859000
vt 0.871000 0.871600
vt 0.875600 0.859700
vt 0.879400 0.824200
vt 0.886200 0.824400
vt 0.872600 0.896200
vt 0.872500 0.842100
vt 0.875600 0.897100
vt 0.870700 0.931900
vt 0.874500 0.932000
vt 0.869000 0.987800
vt 0.873900 0.964700
vt 0.879900 0.990100
vt 0.879900 0.965800
vt 0.888700 0.987800
vt 0.883600 0.964700
vt 0.899300 0.966900
vt 0.891700 0.932000
vt 0.898600 0.897300
vt 0.892200 0.897200
vt 0.886700 0.817900
vt 0.898700 0.818000
vt 0.979600 0.818000
vt 0.972300 0.897400
vt 0.975800 0.817900
vt 0.964400 0.897400
vt 0.904600 0.895400
vt 0.963400 0.969100
vt 0.909700 0.969100
vt 0.968800 0.987900
vt 0.926200 0.987900
vt 0.989400 0.989100
vt 0.989400 0.990200
vt 0.980100 0.987900
vt 0.975100 0.987900
vt 0.973000 0.969100
vt 0.883400 0.895500
vt 0.879400 0.899900
vt 0.904700 0.818000
vt 0.879200 0.922700
vt 0.883100 0.922500
vt 0.882200 0.933900
vt 0.885500 0.922500
vt 0.886400 0.905700
s 1
usemtl Material06.002
f 484/367/476 485/368/477 486/369/478
f 484/367/476 487/370/479 485/368/477
f 488/371/480 487/370/479 484/367/476
f 488/371/480 489/372/481 487/370/479
f 490/373/482 489/372/481 488/371/480
f 490/373/482 491/374/483 489/372/481
f 492/375/484 491/374/483 490/373/482
f 492/375/484 493/376/485 491/374/483
f 494/377/486 493/376/485 492/375/484
f 480/378/487 495/379/488 479/380/489
f 480/378/487 496/381/490 495/379/488
f 481/382/491 496/381/490 480/378/487
f 481/382/491 497/383/492 496/381/490
f 482/384/493 497/383/492 481/382/491
f 482/384/493 483/385/494 497/383/492
f 487/370/479 498/386/495 485/368/477
f 487/370/479 499/387/496 498/386/495
f 489/372/481 499/387/496 487/370/479
f 489/372/481 497/383/492 499/387/496
f 477/388/497 500/389/498 498/390/495
f 500/389/498 477/388/497 478/391/499
f 478/391/499 479/380/489 500/389/498
f 501/392/500 494/377/486 492/375/484
f 494/377/486 501/392/500 485/393/477
f 486/394/478 485/393/477 501/392/500
f 498/390/495 494/377/486 485/393/477
f 494/377/486 498/390/495 500/389/498
f 494/377/486 495/379/488 493/376/485
f 495/379/488 494/377/486 500/389/498
f 479/380/489 495/379/488 500/389/498
f 495/379/488 491/374/483 493/376/485
f 491/374/483 495/379/488 496/381/490
f 491/374/483 497/383/492 489/372/481
f 497/383/492 491/374/483 496/381/490
f 483/385/494 499/387/496 497/383/492
f 499/387/496 483/385/494 476/395/501
f 476/395/501 498/386/495 499/387/496
f 498/386/495 476/395/501 477/396/497
f 502/397/502 486/369/478 503/398/503
f 502/397/502 484/367/476 486/369/478
f 504/399/504 484/367/476 502/397/502
f 504/399/504 488/371/480 484/367/476
f 505/400/505 488/371/480 504/399/504
f 505/400/505 490/373/482 488/371/480
f 506/401/506 490/373/482 505/400/505
f 506/401/506 492/375/484 490/373/482
f 507/402/507 492/375/484 506/401/506
f 507/402/507 501/392/500 492/375/484
f 508/403/508 501/392/500 507/402/507
f 508/403/508 486/394/478 501/392/500
f 503/404/503 486/394/478 508/403/508
f 509/405/509 506/406/506 505/407/505
f 509/405/509 510/408/510 506/406/506
f 511/409/511 510/408/510 509/405/509
f 511/409/511 512/410/512 510/408/510
f 513/411/513 512/410/512 511/409/511
f 513/411/513 514/412/514 512/410/512
f 515/413/515 512/410/512 514/412/514
f 515/413/515 510/408/510 512/410/512
f 507/414/507 510/408/510 515/413/515
f 507/414/507 506/406/506 510/408/510
f 516/415/516 515/413/515 517/416/517
f 516/415/516 518/417/518 515/413/515
f 519/418/519 518/417/518 516/415/516
f 519/418/519 520/419/520 518/417/518
f 521/420/521 520/419/520 519/418/519
f 521/420/521 522/421/522 520/419/520
f 523/422/523 522/421/522 521/420/521
f 523/422/523 524/423/524 522/421/522
f 525/424/525 524/423/524 523/422/523
f 525/424/525 526/425/526 524/423/524
f 527/426/527 526/425/526 525/424/525
f 527/426/527 528/427/528 526/425/526
f 529/428/529 528/427/528 527/426/527
f 529/428/529 530/429/530 528/427/528
f 508/430/508 530/429/530 529/428/529
f 508/430/508 507/414/507 530/429/530
f 526/425/526 522/421/522 524/423/524
f 526/425/526 520/419/520 522/421/522
f 528/427/528 520/419/520 526/425/526
f 528/427/528 518/417/518 520/419/520
f 530/429/530 518/417/518 528/427/528
f 530/429/530 507/414/507 518/417/518
f 529/428/529 503/431/503 508/430/508
f 529/428/529 502/432/502 503/431/503
f 531/433/531 502/432/502 529/428/529
f 531/433/531 504/434/504 502/432/502
f 532/435/532 504/434/504 531/433/531
f 532/435/532 516/436/516 504/434/504
f 533/437/533 516/436/516 532/435/532
f 533/437/533 519/438/519 516/436/516
f 534/439/534 519/438/519 533/437/533
f 534/439/534 521/440/521 519/438/519
f 535/441/535 521/440/521 534/439/534
f 535/441/535 523/442/523 521/440/521
f 536/443/536 523/442/523 535/441/535
f 536/443/536 525/444/525 523/442/523
f 537/445/537 525/444/525 536/443/536
f 537/445/537 527/426/527 525/444/525
f 531/433/531 527/426/527 537/445/537
f 531/433/531 529/428/529 527/426/527
f 517/446/517 509/447/509 505/448/505
f 517/446/517 511/449/511 509/447/509
f 538/450/538 511/449/511 517/446/517
f 538/450/538 513/451/513 511/449/511
f 514/452/514 513/451/513 538/450/538
f 537/445/537 532/435/532 531/433/531
f 537/445/537 533/437/533 532/435/532
f 535/441/535 533/437/533 537/445/537
f 535/441/535 534/439/534 533/437/533
f 515/413/515 518/417/518 507/414/507
f 516/436/516 505/448/505 504/434/504
f 505/448/505 516/436/516 517/446/517
f 517/446/517 514/452/514 538/450/538
f 514/452/514 517/446/517 515/453/515
f 536/443/536 535/441/535 537/445/537
o Bazooka_Soldier.003
v -0.660900 6.433100 -0.315400
v -0.660900 6.433100 0.293100
v -0.707500 6.534500 -0.011200
v -0.610500 6.188300 -0.484400
v -0.930500 6.424200 -0.311600
v -0.930700 6.189100 -0.439400
v -0.689400 5.943500 -0.315400
v -0.930800 5.954100 -0.311400
v -0.764300 5.842100 -0.012400
v -0.930800 5.856800 -0.002500
v -0.689400 5.943500 0.293100
v -0.930800 5.954200 0.306400
v -0.576600 6.192400 0.474700
v -0.930700 6.189400 0.434300
v -0.930500 6.424400 0.306300
v -0.930500 6.521700 -0.002700
vn -0.3228 0.3738 -0.8695
vn -0.0058 0.6922 -0.7217
vn -0.0528 0.8346 -0.5483
vn -0.0237 -0.1891 -0.9817
vn -0.7410 -0.2959 -0.6028
vn -0.0064 -0.8170 -0.5766
vn -0.8397 -0.5415 -0.0411
vn 0.0031 -0.9982 0.0600
vn -0.6026 -0.5923 0.5349
vn 0.0174 -0.6975 0.7164
vn -0.3687 0.2424 0.8974
vn -0.0050 0.1998 0.9798
vn -0.1391 0.7658 0.6279
vn 0.0165 0.8184 0.5744
vn -0.1298 0.9914 -0.0162
vn -0.0031 0.9985 -0.0540
vt 0.020800 0.058900
vt 0.047600 0.038800
vt 0.020900 0.037000
vt 0.047600 0.061500
vt 0.020900 0.088100
vt 0.047600 0.087900
vt 0.020900 0.118000
vt 0.047600 0.118900
vt 0.020900 0.148400
vt 0.047600 0.150000
vt 0.020800 0.179200
vt 0.047600 0.176500
vt 0.020900 0.215900
vt 0.047600 0.214800
vt 0.020900 0.265000
vt 0.047600 0.253500
vt 0.020900 0.291600
vt 0.047600 0.293300
s 1
usemtl Material06
f 542/454/539 543/455/540 539/456/541
f 542/454/539 544/457/542 543/455/540
f 545/458/543 544/457/542 542/454/539
f 545/458/543 546/459/544 544/457/542
f 547/460/545 546/459/544 545/458/543
f 547/460/545 548/461/546 546/459/544
f 549/462/547 548/461/546 547/460/545
f 549/462/547 550/463/548 548/461/546
f 551/464/549 550/463/548 549/462/547
f 551/464/549 552/465/550 550/463/548
f 540/466/551 552/465/550 551/464/549
f 540/466/551 553/467/552 552/465/550
f 541/468/553 553/467/552 540/466/551
f 541/468/553 554/469/554 553/467/552
f 539/470/541 554/469/554 541/468/553
f 539/470/541 543/471/540 554/469/554
o Bazooka_Soldier.004
v 0.660900 6.433100 -0.315400
v 0.660900 6.433100 0.293100
v 0.707500 6.534500 -0.011200
v 0.610500 6.188300 -0.484400
v 0.930500 6.424200 -0.311600
v 0.930700 6.189100 -0.439400
v 0.689400 5.943500 -0.315400
v 0.930800 5.954100 -0.311400
v 0.764300 5.842100 -0.012400
v 0.930800 5.856800 -0.002500
v 0.689400 5.943500 0.293100
v 0.930800 5.954200 0.306400
v 0.576600 6.192400 0.474700
v 0.930700 6.189400 0.434300
v 0.930500 6.424400 0.306300
v 0.930500 6.521700 -0.002700
vn 0.3228 0.3738 -0.8695
vn 0.0058 0.6922 -0.7217
vn 0.0528 0.8346 -0.5483
vn 0.0237 -0.1891 -0.9817
vn 0.7410 -0.2959 -0.6028
vn 0.0064 -0.8170 -0.5766
vn 0.8397 -0.5415 -0.0411
vn -0.0031 -0.9982 0.0600
vn 0.6026 -0.5923 0.5349
vn -0.0174 -0.6975 0.7164
vn 0.3687 0.2424 0.8974
vn 0.0050 0.1998 0.9798
vn 0.1391 0.7658 0.6279
vn -0.0165 0.8184 0.5744
vn 0.1298 0.9914 -0.0162
vn 0.0031 0.9985 -0.0540
vt 0.020800 0.058900
vt 0.047600 0.038800
vt 0.020900 0.037000
vt 0.047600 0.061500
vt 0.020900 0.088100
vt 0.047600 0.087900
vt 0.020900 0.118000
vt 0.047600 0.118900
vt 0.020900 0.148400
vt 0.047600 0.150000
vt 0.020800 0.179200
vt 0.047600 0.176500
vt 0.020900 0.215900
vt 0.047600 0.214800
vt 0.020900 0.265000
vt 0.047600 0.253500
vt 0.020900 0.291600
vt 0.047600 0.293300
s 1
usemtl Material06.003
f 558/472/555 555/474/557 559/473/556
f 558/472/555 559/473/556 560/475/558
f 561/476/559 558/472/555 560/475/558
f 561/476/559 560/475/558 562/477/560
f 563/478/561 561/476/559 562/477/560
f 563/478/561 562/477/560 564/479/562
f 565/480/563 563/478/561 564/479/562
f 565/480/563 564/479/562 566/481/564
f 567/482/565 565/480/563 566/481/564
f 567/482/565 566/481/564 568/483/566
f 556/484/567 567/482/565 568/483/566
f 556/484/567 568/483/566 569/485/568
f 557/486/569 556/484/567 569/485/568
f 557/486/569 569/485/568 570/487/570
f 555/488/557 557/486/569 570/487/570
f 555/488/557 570/487/570 559/489/556
