# Blender v2.79 (sub 0) OBJ File: ''
# www.blender.org
mtllib gun_marvin.mtl
o gun_marvin_0
v -0.266756 0.075537 0.015618
v -0.296444 0.075537 0.015618
v -0.266756 0.066409 0.018094
v -0.296444 0.066409 0.018094
v -0.296444 0.082029 0.009127
v -0.266756 0.082029 0.009127
v -0.296444 0.084504 -0.000002
v -0.266756 0.084504 -0.000002
v -0.296444 0.082029 -0.009130
v -0.266756 0.082029 -0.009130
v -0.296444 0.075537 -0.015622
v -0.266756 0.075537 -0.015622
v -0.296444 0.066409 -0.018092
v -0.266756 0.066409 -0.018092
v -0.296444 0.057280 -0.015622
v -0.266756 0.057280 -0.015622
v -0.296444 0.050789 -0.009130
v -0.266756 0.050789 -0.009130
v -0.296444 0.048313 -0.000002
v -0.266756 0.048313 -0.000002
v -0.296444 0.050789 0.009127
v -0.266756 0.050789 0.009127
v -0.296444 0.057280 0.015618
v -0.266756 0.057280 0.015618
v -0.253832 0.066409 0.008149
v -0.253832 0.074560 -0.000002
v -0.266756 0.066409 0.008149
v -0.266756 0.074560 -0.000002
v -0.253832 0.066409 -0.008147
v -0.266756 0.066409 -0.008147
v -0.253832 0.058258 -0.000002
v -0.266756 0.058258 -0.000002
v -0.168870 0.066409 0.008149
v -0.168870 0.074560 -0.000002
v -0.168870 0.066409 -0.008147
v -0.168870 0.058258 -0.000002
v -0.156735 0.066409 0.008149
v -0.156735 0.074560 -0.000002
v -0.156735 0.066409 -0.008147
v -0.156735 0.058258 -0.000002
v -0.142479 0.074925 0.014577
v -0.155054 0.074925 0.014577
v -0.142479 0.066409 0.016880
v -0.155054 0.066409 0.016880
v -0.155054 0.080981 0.008514
v -0.142479 0.080981 0.008514
v -0.155054 0.083290 -0.000002
v -0.142479 0.083290 -0.000002
v -0.155054 0.080981 -0.008518
v -0.142479 0.080981 -0.008518
v -0.155054 0.074925 -0.014575
v -0.142479 0.074925 -0.014575
v -0.155054 0.066409 -0.016878
v -0.142479 0.066409 -0.016878
v -0.155054 0.057893 -0.014575
v -0.142479 0.057893 -0.014575
v -0.155054 0.051836 -0.008518
v -0.142479 0.051836 -0.008518
v -0.155054 0.049527 -0.000002
v -0.142479 0.049527 -0.000002
v -0.155054 0.051836 0.008514
v -0.142479 0.051836 0.008514
v -0.155054 0.057893 0.014577
v -0.142479 0.057893 0.014577
v -0.231983 0.066409 -0.030629
v -0.231983 0.081722 -0.026527
v -0.229143 0.066409 -0.000002
v -0.231983 0.092934 -0.015316
v -0.231983 0.097036 -0.000002
v -0.231983 0.092934 0.015312
v -0.231983 0.081722 0.026524
v -0.231983 0.066409 0.030631
v -0.231983 0.051095 0.026524
v -0.231983 0.039883 0.015312
v -0.231983 0.035781 -0.000002
v -0.231983 0.039883 -0.015316
v -0.231983 0.051095 -0.026527
v -0.238110 0.066409 -0.044848
v -0.238110 0.088832 -0.038839
v -0.231983 0.066409 -0.030629
v -0.231983 0.081722 -0.026527
v -0.238110 0.105246 -0.022425
v -0.231983 0.092934 -0.015316
v -0.238110 0.111255 -0.000002
v -0.231983 0.097036 -0.000002
v -0.238110 0.105246 0.022421
v -0.231983 0.092934 0.015312
v -0.238110 0.088832 0.038836
v -0.231983 0.081722 0.026524
v -0.238110 0.066409 0.044845
v -0.231983 0.066409 0.030631
v -0.238110 0.043985 0.038836
v -0.231983 0.051095 0.026524
v -0.238110 0.027571 0.022421
v -0.231983 0.039883 0.015312
v -0.238110 0.021562 -0.000002
v -0.231983 0.035781 -0.000002
v -0.238110 0.027571 -0.022425
v -0.231983 0.039883 -0.015316
v -0.238110 0.043985 -0.038839
v -0.231983 0.051095 -0.026527
v -0.244236 0.066409 -0.030629
v -0.244236 0.081722 -0.026527
v -0.238110 0.066409 -0.044848
v -0.238110 0.088832 -0.038839
v -0.244236 0.092934 -0.015316
v -0.238110 0.105246 -0.022425
v -0.244236 0.097036 -0.000002
v -0.238110 0.111255 -0.000002
v -0.244236 0.092934 0.015312
v -0.238110 0.105246 0.022421
v -0.244236 0.081722 0.026524
v -0.238110 0.088832 0.038836
v -0.244236 0.066409 0.030631
v -0.238110 0.066409 0.044845
v -0.244236 0.051095 0.026524
v -0.238110 0.043985 0.038836
v -0.244236 0.039883 0.015312
v -0.238110 0.027571 0.022421
v -0.244236 0.035781 -0.000002
v -0.238110 0.021562 -0.000002
v -0.244236 0.039883 -0.015316
v -0.238110 0.027571 -0.022425
v -0.244236 0.051095 -0.026527
v -0.238110 0.043985 -0.038839
v -0.244236 0.081722 -0.026527
v -0.244236 0.066409 -0.030629
v -0.247082 0.066409 -0.000002
v -0.244236 0.092934 -0.015316
v -0.244236 0.097036 -0.000002
v -0.244236 0.092934 0.015312
v -0.244236 0.081722 0.026524
v -0.244236 0.066409 0.030631
v -0.244236 0.051095 0.026524
v -0.244236 0.039883 0.015312
v -0.244236 0.035781 -0.000002
v -0.244236 0.039883 -0.015316
v -0.244236 0.051095 -0.026527
v -0.206709 0.066409 -0.024503
v -0.206709 0.078662 -0.021222
v -0.203868 0.066409 -0.000002
v -0.206709 0.087629 -0.012250
v -0.206709 0.090910 -0.000002
v -0.206709 0.087629 0.012252
v -0.206709 0.078662 0.021219
v -0.206709 0.066409 0.024505
v -0.206709 0.054155 0.021219
v -0.206709 0.045188 0.012252
v -0.206709 0.041902 -0.000002
v -0.206709 0.045188 -0.012250
v -0.206709 0.054155 -0.021222
v -0.212836 0.066409 -0.035875
v -0.212836 0.084348 -0.031070
v -0.206709 0.066409 -0.024503
v -0.206709 0.078662 -0.021222
v -0.212836 0.097477 -0.017936
v -0.206709 0.087629 -0.012250
v -0.212836 0.102282 -0.000002
v -0.206709 0.090910 -0.000002
v -0.212836 0.097477 0.017938
v -0.206709 0.087629 0.012252
v -0.212836 0.084348 0.031072
v -0.206709 0.078662 0.021219
v -0.212836 0.066409 0.035878
v -0.206709 0.066409 0.024505
v -0.212836 0.048469 0.031072
v -0.206709 0.054155 0.021219
v -0.212836 0.035341 0.017938
v -0.206709 0.045188 0.012252
v -0.212836 0.030529 -0.000002
v -0.206709 0.041902 -0.000002
v -0.212836 0.035341 -0.017936
v -0.206709 0.045188 -0.012250
v -0.212836 0.048469 -0.031070
v -0.206709 0.054155 -0.021222
v -0.218962 0.066409 -0.024503
v -0.218962 0.078662 -0.021222
v -0.212836 0.066409 -0.035875
v -0.212836 0.084348 -0.031070
v -0.218962 0.087629 -0.012250
v -0.212836 0.097477 -0.017936
v -0.218962 0.090910 -0.000002
v -0.212836 0.102282 -0.000002
v -0.218962 0.087629 0.012252
v -0.212836 0.097477 0.017938
v -0.218962 0.078662 0.021219
v -0.212836 0.084348 0.031072
v -0.218962 0.066409 0.024505
v -0.212836 0.066409 0.035878
v -0.218962 0.054155 0.021219
v -0.212836 0.048469 0.031072
v -0.218962 0.045188 0.012252
v -0.212836 0.035341 0.017938
v -0.218962 0.041902 -0.000002
v -0.212836 0.030529 -0.000002
v -0.218962 0.045188 -0.012250
v -0.212836 0.035341 -0.017936
v -0.218962 0.054155 -0.021222
v -0.212836 0.048469 -0.031070
v -0.218962 0.078662 -0.021222
v -0.218962 0.066409 -0.024503
v -0.221803 0.066409 -0.000002
v -0.218962 0.087629 -0.012250
v -0.218962 0.090910 -0.000002
v -0.218962 0.087629 0.012252
v -0.218962 0.078662 0.021219
v -0.218962 0.066409 0.024505
v -0.218962 0.054155 0.021219
v -0.218962 0.045188 0.012252
v -0.218962 0.041902 -0.000002
v -0.218962 0.045188 -0.012250
v -0.218962 0.054155 -0.021222
v -0.181434 0.066409 -0.019606
v -0.181434 0.076208 -0.016975
v -0.178589 0.066409 -0.000002
v -0.181434 0.083387 -0.009801
v -0.181434 0.086013 -0.000002
v -0.181434 0.083387 0.009803
v -0.181434 0.076208 0.016977
v -0.181434 0.066409 0.019602
v -0.181434 0.056609 0.016977
v -0.181434 0.049430 0.009803
v -0.181434 0.046804 -0.000002
v -0.181434 0.049430 -0.009801
v -0.181434 0.056609 -0.016975
v -0.187561 0.066409 -0.028702
v -0.187561 0.080761 -0.024857
v -0.181434 0.066409 -0.019606
v -0.181434 0.076208 -0.016975
v -0.187561 0.091264 -0.014349
v -0.181434 0.083387 -0.009801
v -0.187561 0.095109 -0.000002
v -0.181434 0.086013 -0.000002
v -0.187561 0.091264 0.014351
v -0.181434 0.083387 0.009803
v -0.187561 0.080761 0.024854
v -0.181434 0.076208 0.016977
v -0.187561 0.066409 0.028698
v -0.181434 0.066409 0.019602
v -0.187561 0.052056 0.024854
v -0.181434 0.056609 0.016977
v -0.187561 0.041553 0.014351
v -0.181434 0.049430 0.009803
v -0.187561 0.037709 -0.000002
v -0.181434 0.046804 -0.000002
v -0.187561 0.041553 -0.014349
v -0.181434 0.049430 -0.009801
v -0.187561 0.052056 -0.024857
v -0.181434 0.056609 -0.016975
v -0.193688 0.066409 -0.019606
v -0.193688 0.076208 -0.016975
v -0.187561 0.066409 -0.028702
v -0.187561 0.080761 -0.024857
v -0.193688 0.083387 -0.009801
v -0.187561 0.091264 -0.014349
v -0.193688 0.086013 -0.000002
v -0.187561 0.095109 -0.000002
v -0.193688 0.083387 0.009803
v -0.187561 0.091264 0.014351
v -0.193688 0.076208 0.016977
v -0.187561 0.080761 0.024854
v -0.193688 0.066409 0.019602
v -0.187561 0.066409 0.028698
v -0.193688 0.056609 0.016977
v -0.187561 0.052056 0.024854
v -0.193688 0.049430 0.009803
v -0.187561 0.041553 0.014351
v -0.193688 0.046804 -0.000002
v -0.187561 0.037709 -0.000002
v -0.193688 0.049430 -0.009801
v -0.187561 0.041553 -0.014349
v -0.193688 0.056609 -0.016975
v -0.187561 0.052056 -0.024857
v -0.193688 0.076208 -0.016975
v -0.193688 0.066409 -0.019606
v -0.196528 0.066409 -0.000002
v -0.193688 0.083387 -0.009801
v -0.193688 0.086013 -0.000002
v -0.193688 0.083387 0.009803
v -0.193688 0.076208 0.016977
v -0.193688 0.066409 0.019602
v -0.193688 0.056609 0.016977
v -0.193688 0.049430 0.009803
v -0.193688 0.046804 -0.000002
v -0.193688 0.049430 -0.009801
v -0.193688 0.056609 -0.016975
v -0.155054 0.066409 0.016880
v -0.155054 0.074925 0.014577
v -0.156735 0.066409 0.015006
v -0.156735 0.073985 0.012955
v -0.155054 0.080981 0.008514
v -0.156735 0.079365 0.007580
v -0.155054 0.083290 -0.000002
v -0.156735 0.081416 -0.000002
v -0.155054 0.080981 -0.008518
v -0.156735 0.079365 -0.007578
v -0.155054 0.074925 -0.014575
v -0.156735 0.073985 -0.012953
v -0.155054 0.066409 -0.016878
v -0.156735 0.066409 -0.015009
v -0.155054 0.057893 -0.014575
v -0.156735 0.058832 -0.012953
v -0.155054 0.051836 -0.008518
v -0.156735 0.053452 -0.007578
v -0.155054 0.049527 -0.000002
v -0.156735 0.051401 -0.000002
v -0.155054 0.051836 0.008514
v -0.156735 0.053452 0.007580
v -0.155054 0.057893 0.014577
v -0.156735 0.058832 0.012955
v -0.300198 0.073657 0.012375
v -0.300198 0.066409 0.005529
v -0.300198 0.066409 0.014340
v -0.300198 0.071939 -0.000002
v -0.300198 0.078780 0.007247
v -0.300198 0.080751 -0.000002
v -0.300198 0.078780 -0.007245
v -0.300198 0.066409 -0.005532
v -0.300198 0.073657 -0.012373
v -0.300198 0.066409 -0.014338
v -0.300198 0.059160 -0.012373
v -0.300198 0.060878 -0.000002
v -0.300198 0.054037 -0.007245
v -0.300198 0.052067 -0.000002
v -0.300198 0.054037 0.007247
v -0.300198 0.059160 0.012375
v -0.300198 0.071939 -0.000002
v -0.268705 0.066409 -0.000002
v -0.300198 0.066409 0.005529
v -0.300198 0.066409 -0.005532
v -0.300198 0.060878 -0.000002
v -0.300198 0.073657 0.012375
v -0.300198 0.066409 0.014340
v -0.296444 0.075537 0.015618
v -0.296444 0.066409 0.018094
v -0.296444 0.082029 0.009127
v -0.300198 0.078780 0.007247
v -0.296444 0.084504 -0.000002
v -0.300198 0.080751 -0.000002
v -0.296444 0.082029 -0.009130
v -0.300198 0.078780 -0.007245
v -0.296444 0.075537 -0.015622
v -0.300198 0.073657 -0.012373
v -0.296444 0.066409 -0.018092
v -0.300198 0.066409 -0.014338
v -0.296444 0.057280 -0.015622
v -0.300198 0.059160 -0.012373
v -0.296444 0.050789 -0.009130
v -0.300198 0.054037 -0.007245
v -0.296444 0.048313 -0.000002
v -0.300198 0.052067 -0.000002
v -0.296444 0.050789 0.009127
v -0.300198 0.054037 0.007247
v -0.296444 0.057280 0.015618
v -0.300198 0.059160 0.012375
v -0.009352 0.066409 -0.029888
v -0.009352 0.077846 -0.027612
v 0.004029 0.066409 -0.011863
v -0.009352 0.087543 -0.021131
v 0.004029 0.075021 -0.008614
v -0.009352 0.094019 -0.011439
v 0.004029 0.078270 -0.000002
v -0.009352 0.096295 -0.000002
v -0.009352 0.094019 0.011435
v -0.009352 0.087543 0.021133
v 0.004029 0.075021 0.008611
v -0.009352 0.077846 0.027614
v 0.004029 0.066409 0.011865
v -0.009352 0.066409 0.029885
v -0.009352 0.054972 0.027614
v -0.009352 0.045274 0.021133
v 0.004029 0.057796 0.008611
v -0.009352 0.038799 0.011435
v 0.004029 0.054547 -0.000002
v -0.009352 0.036522 -0.000002
v -0.009352 0.038799 -0.011439
v -0.009352 0.045274 -0.021131
v 0.004029 0.057796 -0.008614
v -0.009352 0.054972 -0.027612
v -0.022459 0.079596 0.031845
v -0.022459 0.090781 0.024371
v -0.035571 0.030331 0.014942
v -0.035571 0.038799 0.027614
v -0.035571 0.051465 0.036076
v -0.035571 0.066409 0.039051
v -0.035571 0.066409 -0.039049
v -0.035571 0.081352 -0.036079
v -0.035571 0.094019 -0.027612
v -0.035571 0.102486 -0.014945
v -0.035571 0.105456 -0.000002
v -0.035571 0.102486 0.014942
v -0.071649 0.082582 -0.039049
v -0.071649 0.066409 -0.042265
v -0.071649 0.096295 -0.029888
v -0.071649 0.105456 -0.016175
v -0.071649 0.108677 -0.000002
v -0.071649 0.105456 0.016177
v -0.071649 0.096295 0.029885
v -0.035571 0.094019 0.027614
v -0.107727 0.081352 -0.036079
v -0.107727 0.066409 -0.039049
v -0.107727 0.094019 -0.027612
v -0.107727 0.102486 -0.014945
v -0.107727 0.105456 -0.000002
v -0.107727 0.102486 0.014942
v -0.089685 0.095157 0.028747
v -0.071649 0.050236 -0.039049
v -0.035571 0.051465 -0.036079
v -0.035571 0.038799 -0.027612
v -0.035571 0.030331 -0.014945
v -0.035571 0.027361 -0.000002
v -0.071649 0.024140 -0.000002
v -0.071649 0.027361 0.016177
v -0.071649 0.036522 0.029885
v -0.071649 0.050236 0.039051
v -0.071649 0.066409 0.042267
v -0.035571 0.081352 0.036076
v -0.071649 0.082582 0.039051
v -0.071649 0.027361 -0.016175
v -0.071649 0.036522 -0.029888
v -0.107727 0.066409 0.039051
v -0.089685 0.081969 0.037564
v -0.107727 0.051465 0.036076
v -0.107727 0.038799 0.027614
v -0.107727 0.030331 0.014942
v -0.107727 0.038799 -0.027612
v -0.107727 0.030331 -0.014945
v -0.107727 0.027361 -0.000002
v -0.107727 0.051465 -0.036079
v -0.133941 0.054972 0.027614
v -0.133941 0.066409 0.029885
v -0.107727 0.081352 0.036076
v -0.133941 0.077846 0.027614
v -0.107727 0.094019 0.027614
v -0.133941 0.087543 0.021133
v -0.133941 0.094019 0.011435
v -0.133941 0.096295 -0.000002
v -0.133941 0.094019 -0.011439
v -0.133941 0.087543 -0.021131
v -0.133941 0.077846 -0.027612
v -0.133941 0.066409 -0.029888
v -0.133941 0.054972 -0.027612
v -0.133941 0.045274 -0.021131
v -0.133941 0.038799 -0.011439
v -0.133941 0.036522 -0.000002
v -0.133941 0.038799 0.011435
v -0.133941 0.045274 0.021133
v -0.147322 0.055782 0.010625
v -0.147322 0.066409 0.014265
v -0.147322 0.077035 0.010625
v -0.147322 0.080670 -0.000002
v -0.147322 0.077035 -0.010628
v -0.147322 0.066409 -0.014263
v -0.147322 0.055782 -0.010628
v -0.147322 0.052147 -0.000002
v -0.072648 0.086727 0.022089
v -0.072648 0.079038 0.027227
v -0.036565 0.084681 0.019662
v -0.036565 0.077577 0.024403
v -0.090684 0.085707 0.020875
v -0.090684 0.078307 0.025815
v -0.023458 0.075499 0.020392
v -0.023458 0.081771 0.016204
v -0.089685 0.095157 0.028747
v -0.089685 0.081969 0.037564
v -0.071649 0.082582 0.039051
v -0.035571 0.081352 0.036076
v -0.022459 0.079596 0.031845
v -0.022459 0.090781 0.024371
v -0.024070 0.106551 -0.003690
v -0.024070 0.106551 0.003693
v -0.026062 0.098228 -0.004507
v -0.026062 0.098228 0.004509
v -0.017374 0.115416 0.002662
v -0.017374 0.115416 -0.002660
v -0.007972 0.120845 0.001894
v -0.007972 0.120845 -0.001892
v 0.009962 0.124099 0.001013
v 0.009962 0.124099 -0.001011
v 0.010327 0.132760 -0.000549
v 0.010327 0.132760 0.000551
v 0.009962 0.124099 -0.001011
v 0.009962 0.124099 0.001013
v -0.044275 0.127455 -0.002418
v -0.044275 0.127455 0.002420
v 0.010327 0.132760 -0.000549
v 0.010327 0.132760 0.000551
v -0.063794 0.104382 0.005980
v -0.063794 0.104382 -0.005978
v -0.063794 0.104382 -0.005978
v -0.044275 0.127455 -0.002418
v -0.026062 0.098228 -0.004507
v -0.024070 0.106551 -0.003690
v -0.017374 0.115416 -0.002660
v -0.007972 0.120845 -0.001892
v 0.010327 0.132760 -0.000549
v 0.009962 0.124099 -0.001011
v -0.044275 0.127455 0.002420
v -0.007972 0.120845 0.001894
v 0.010327 0.132760 0.000551
v 0.009962 0.124099 0.001013
v -0.017374 0.115416 0.002662
v -0.024070 0.106551 0.003693
v -0.026062 0.098228 0.004509
v -0.063794 0.104382 0.005980
v 0.004029 0.075021 -0.008614
v 0.018333 0.076315 -0.009903
v 0.004029 0.066409 -0.011863
v 0.018333 0.066409 -0.014011
v 0.018333 0.080418 -0.000002
v 0.004029 0.078270 -0.000002
v 0.018333 0.076315 0.009905
v 0.004029 0.075021 0.008611
v 0.018333 0.066409 0.014013
v 0.004029 0.066409 0.011865
v 0.018333 0.056502 0.009905
v 0.004029 0.057796 0.008611
v 0.018333 0.052394 -0.000002
v 0.004029 0.054547 -0.000002
v 0.018333 0.056502 -0.009903
v 0.004029 0.057796 -0.008614
v 0.024583 0.066409 -0.005618
v 0.019783 0.066409 -0.005999
v 0.024583 0.070377 -0.003970
v 0.019783 0.070651 -0.004238
v 0.024583 0.072025 -0.000002
v 0.019783 0.072406 -0.000002
v 0.024583 0.070377 0.003972
v 0.019783 0.070651 0.004240
v 0.024583 0.066409 0.005615
v 0.019783 0.066409 0.005996
v 0.024583 0.062435 0.003972
v 0.019783 0.062167 0.004240
v 0.024583 0.060792 -0.000002
v 0.019783 0.060411 -0.000002
v 0.024583 0.062435 -0.003970
v 0.019783 0.062167 -0.004238
v 0.019783 0.075376 -0.008969
v 0.019783 0.066409 -0.012684
v 0.018333 0.076315 -0.009903
v 0.018333 0.066409 -0.014011
v 0.018333 0.080418 -0.000002
v 0.019783 0.079091 -0.000002
v 0.018333 0.076315 0.009905
v 0.019783 0.075376 0.008965
v 0.018333 0.066409 0.014013
v 0.019783 0.066409 0.012687
v 0.018333 0.056502 0.009905
v 0.019783 0.057441 0.008965
v 0.018333 0.052394 -0.000002
v 0.019783 0.053726 -0.000002
v 0.018333 0.056502 -0.009903
v 0.019783 0.057441 -0.008969
v 0.019783 0.066409 -0.000002
v 0.026071 0.069072 -0.002665
v 0.026071 0.066409 -0.003766
v 0.024583 0.070377 -0.003970
v 0.024583 0.066409 -0.005618
v 0.024583 0.072025 -0.000002
v 0.026071 0.070178 -0.000002
v 0.024583 0.070377 0.003972
v 0.026071 0.069072 0.002662
v 0.024583 0.066409 0.005615
v 0.026071 0.066409 0.003768
v 0.024583 0.062435 0.003972
v 0.026071 0.063745 0.002662
v 0.024583 0.060792 -0.000002
v 0.026071 0.062639 -0.000002
v 0.024583 0.062435 -0.003970
v 0.026071 0.063745 -0.002665
v 0.026071 0.066409 -0.000002
v -0.038369 0.039094 0.012461
v -0.047626 0.033332 -0.000002
v -0.015774 0.009218 0.008584
v -0.022148 0.005250 -0.000002
v -0.019860 0.050622 0.012461
v -0.003021 0.017159 0.008584
v -0.010603 0.056384 -0.000002
v 0.003352 0.021127 -0.000002
v -0.003021 0.017159 -0.008582
v -0.019860 0.050622 -0.012459
v -0.038369 0.039094 -0.012459
v -0.015774 0.009218 -0.008582
v -0.010625 -0.015219 -0.000002
v -0.003811 -0.010977 0.009175
v 0.009822 -0.002488 0.009175
v 0.016636 0.001754 -0.000002
v 0.009822 -0.002488 -0.009178
v -0.003811 -0.010977 -0.009178
v 0.005688 -0.032702 0.013084
v -0.004025 -0.038753 -0.000002
v 0.025126 -0.020605 0.013084
v 0.034839 -0.014553 -0.000002
v 0.025126 -0.020604 -0.013082
v 0.005688 -0.032702 -0.013082
v -0.006104 -0.043318 -0.000002
v -0.000981 -0.051544 -0.000002
v 0.005607 -0.036160 0.016236
v 0.010606 -0.044193 0.016236
v 0.028267 -0.022054 0.016236
v 0.033266 -0.030087 0.016236
v 0.039854 -0.014703 -0.000002
v 0.044977 -0.022930 -0.000002
v 0.028267 -0.022054 -0.016234
v 0.033266 -0.030087 -0.016234
v 0.005607 -0.036160 -0.016234
v 0.010606 -0.044193 -0.016234
v 0.004029 -0.051694 -0.000002
v 0.013748 -0.045643 0.013084
v 0.033180 -0.033545 0.013084
v 0.042899 -0.027494 -0.000002
v 0.033180 -0.033545 -0.013082
v 0.013748 -0.045643 -0.013082
v 0.005688 -0.032702 -0.013082
v -0.004025 -0.038753 -0.000002
v 0.005688 -0.032702 0.013084
v 0.025126 -0.020604 -0.013082
v 0.025126 -0.020605 0.013084
v 0.034839 -0.014553 -0.000002
v 0.023466 -0.039597 -0.000002
v -0.049232 0.015613 -0.000002
v -0.043411 0.016826 0.005674
v -0.056217 0.028054 -0.000002
v -0.051267 0.030830 0.005674
v -0.037585 0.018035 -0.000002
v -0.046321 0.033606 -0.000002
v -0.051267 0.030830 -0.005672
v -0.043411 0.016826 -0.005672
v -0.044888 0.002259 0.005674
v -0.050531 0.002833 -0.000002
v -0.039244 0.001684 -0.000002
v -0.044888 0.002259 -0.005672
v -0.023458 0.081771 0.016204
v -0.022459 0.090781 0.024371
v -0.036565 0.084681 0.019662
v -0.035571 0.094019 0.027614
v -0.072648 0.086727 0.022089
v -0.071649 0.096295 0.029885
v -0.090684 0.085707 0.020875
v -0.089685 0.095157 0.028747
v -0.266756 0.066409 0.018094
v -0.266756 0.066409 -0.000002
v -0.266756 0.075537 0.015618
v -0.266756 0.057280 0.015618
v -0.266756 0.050789 0.009127
v -0.266756 0.048313 -0.000002
v -0.266756 0.050789 -0.009130
v -0.266756 0.057280 -0.015622
v -0.266756 0.066409 -0.018092
v -0.266756 0.075537 -0.015622
v -0.266756 0.082029 -0.009130
v -0.266756 0.084504 -0.000002
v -0.266756 0.082029 0.009127
v -0.156735 0.051401 -0.000002
v -0.156735 0.066409 -0.000002
v -0.156735 0.053452 -0.007578
v -0.156735 0.053452 0.007580
v -0.156735 0.058832 0.012955
v -0.156735 0.066409 0.015006
v -0.156735 0.073985 0.012955
v -0.156735 0.079365 0.007580
v -0.156735 0.081416 -0.000002
v -0.156735 0.079365 -0.007578
v -0.156735 0.073985 -0.012953
v -0.156735 0.066409 -0.015009
v -0.156735 0.058832 -0.012953
vt 0.096630 0.919486
vt 0.096630 0.919486
vt 0.096630 0.869242
vt 0.096630 0.869242
vt 0.071982 0.954562
vt 0.071982 0.954562
vt 0.062502 0.967834
vt 0.062502 0.967834
vt 0.071982 0.954562
vt 0.071982 0.954562
vt 0.096630 0.919486
vt 0.096630 0.919486
vt 0.096630 0.869242
vt 0.096630 0.869242
vt 0.096630 0.819947
vt 0.096630 0.819947
vt 0.096630 0.784871
vt 0.096630 0.784871
vt 0.096630 0.771599
vt 0.096630 0.771599
vt 0.096630 0.784871
vt 0.096630 0.784871
vt 0.096630 0.819947
vt 0.096630 0.819947
vt 0.468242 0.872087
vt 0.468242 0.977314
vt 0.544082 0.872087
vt 0.544082 0.977314
vt 0.468242 0.872087
vt 0.544082 0.872087
vt 0.468242 0.767807
vt 0.544082 0.767807
vt 0.468242 0.872087
vt 0.468242 0.977314
vt 0.468242 0.872087
vt 0.468242 0.767807
vt 0.544082 0.872087
vt 0.544082 0.977314
vt 0.544082 0.872087
vt 0.544082 0.767807
vt 0.096630 0.929914
vt 0.096630 0.929914
vt 0.156353 0.877774
vt 0.096630 0.877774
vt 0.071982 0.966886
vt 0.071982 0.966886
vt 0.062502 0.981106
vt 0.062502 0.981106
vt 0.071982 0.966886
vt 0.071982 0.966886
vt 0.096630 0.929914
vt 0.096630 0.929914
vt 0.096630 0.877774
vt 0.156353 0.877774
vt 0.096630 0.825635
vt 0.156353 0.825635
vt 0.096630 0.788663
vt 0.156353 0.788663
vt 0.096630 0.774443
vt 0.156353 0.774443
vt 0.096630 0.788663
vt 0.156353 0.788663
vt 0.096630 0.825635
vt 0.156353 0.825635
vt 0.410415 0.874931
vt 0.410415 0.910954
vt 0.410415 0.874931
vt 0.410415 0.937498
vt 0.410415 0.946978
vt 0.410415 0.937498
vt 0.410415 0.910954
vt 0.410415 0.874931
vt 0.410415 0.838907
vt 0.410415 0.813311
vt 0.410415 0.802883
vt 0.410415 0.813311
vt 0.410415 0.838907
vt 0.342160 0.874931
vt 0.342160 0.927070
vt 0.342160 0.874931
vt 0.342160 0.910954
vt 0.342160 0.965938
vt 0.342160 0.937498
vt 0.342160 0.980158
vt 0.342160 0.946978
vt 0.342160 0.965938
vt 0.342160 0.937498
vt 0.342160 0.927070
vt 0.342160 0.910954
vt 0.342160 0.874931
vt 0.342160 0.874931
vt 0.342160 0.822791
vt 0.342160 0.838907
vt 0.342160 0.783923
vt 0.342160 0.813311
vt 0.342160 0.769703
vt 0.342160 0.802883
vt 0.342160 0.783923
vt 0.342160 0.813311
vt 0.342160 0.822791
vt 0.342160 0.838907
vt 0.283384 0.874931
vt 0.283384 0.910954
vt 0.283384 0.874931
vt 0.283384 0.927070
vt 0.283384 0.937498
vt 0.283384 0.965938
vt 0.283384 0.946978
vt 0.283384 0.980158
vt 0.283384 0.937498
vt 0.283384 0.965938
vt 0.283384 0.910954
vt 0.283384 0.927070
vt 0.283384 0.874931
vt 0.283384 0.874931
vt 0.283384 0.838907
vt 0.283384 0.822791
vt 0.283384 0.813311
vt 0.283384 0.783923
vt 0.283384 0.802883
vt 0.283384 0.769703
vt 0.283384 0.813311
vt 0.283384 0.783923
vt 0.283384 0.838907
vt 0.283384 0.822791
vt 0.342160 0.910954
vt 0.342160 0.874931
vt 0.342160 0.874931
vt 0.342160 0.937498
vt 0.342160 0.946978
vt 0.342160 0.937498
vt 0.342160 0.910954
vt 0.342160 0.874931
vt 0.342160 0.838907
vt 0.342160 0.813311
vt 0.342160 0.802883
vt 0.342160 0.813311
vt 0.342160 0.838907
vt 0.410415 0.874931
vt 0.410415 0.910954
vt 0.410415 0.874931
vt 0.410415 0.936550
vt 0.410415 0.946978
vt 0.410415 0.936550
vt 0.410415 0.910954
vt 0.410415 0.874931
vt 0.410415 0.838907
vt 0.410415 0.812363
vt 0.410415 0.802883
vt 0.410415 0.812363
vt 0.410415 0.838907
vt 0.342160 0.874931
vt 0.342160 0.927070
vt 0.342160 0.874931
vt 0.342160 0.910954
vt 0.342160 0.965938
vt 0.342160 0.936550
vt 0.342160 0.980158
vt 0.342160 0.946978
vt 0.342160 0.965938
vt 0.342160 0.936550
vt 0.342160 0.927070
vt 0.342160 0.910954
vt 0.342160 0.874931
vt 0.342160 0.874931
vt 0.342160 0.821843
vt 0.342160 0.838907
vt 0.342160 0.783923
vt 0.342160 0.812363
vt 0.342160 0.769703
vt 0.342160 0.802883
vt 0.342160 0.783923
vt 0.342160 0.812363
vt 0.342160 0.821843
vt 0.342160 0.838907
vt 0.283384 0.874931
vt 0.283384 0.910954
vt 0.283384 0.874931
vt 0.283384 0.927070
vt 0.283384 0.936550
vt 0.283384 0.965938
vt 0.283384 0.946978
vt 0.283384 0.980158
vt 0.283384 0.936550
vt 0.283384 0.965938
vt 0.283384 0.910954
vt 0.283384 0.927070
vt 0.283384 0.874931
vt 0.283384 0.874931
vt 0.283384 0.838907
vt 0.283384 0.821843
vt 0.283384 0.812363
vt 0.283384 0.783923
vt 0.283384 0.802883
vt 0.283384 0.769703
vt 0.283384 0.812363
vt 0.283384 0.783923
vt 0.283384 0.838907
vt 0.283384 0.821843
vt 0.342160 0.910954
vt 0.342160 0.874931
vt 0.342160 0.874931
vt 0.342160 0.936550
vt 0.342160 0.946978
vt 0.342160 0.936550
vt 0.342160 0.910954
vt 0.342160 0.874931
vt 0.342160 0.838907
vt 0.342160 0.812363
vt 0.342160 0.802883
vt 0.342160 0.812363
vt 0.342160 0.838907
vt 0.410415 0.874931
vt 0.410415 0.910954
vt 0.410415 0.874931
vt 0.410415 0.937498
vt 0.410415 0.946978
vt 0.410415 0.937498
vt 0.410415 0.910954
vt 0.410415 0.874931
vt 0.410415 0.838907
vt 0.410415 0.813311
vt 0.410415 0.803831
vt 0.410415 0.813311
vt 0.410415 0.838907
vt 0.342160 0.874931
vt 0.342160 0.928018
vt 0.342160 0.874931
vt 0.342160 0.910954
vt 0.342160 0.965938
vt 0.342160 0.937498
vt 0.342160 0.980158
vt 0.342160 0.946978
vt 0.342160 0.965938
vt 0.342160 0.937498
vt 0.342160 0.928018
vt 0.342160 0.910954
vt 0.342160 0.874931
vt 0.342160 0.874931
vt 0.342160 0.822791
vt 0.342160 0.838907
vt 0.342160 0.783923
vt 0.342160 0.813311
vt 0.342160 0.770652
vt 0.342160 0.803831
vt 0.342160 0.783923
vt 0.342160 0.813311
vt 0.342160 0.822791
vt 0.342160 0.838907
vt 0.283384 0.874931
vt 0.283384 0.910954
vt 0.283384 0.874931
vt 0.283384 0.928018
vt 0.283384 0.937498
vt 0.283384 0.965938
vt 0.283384 0.946978
vt 0.283384 0.980158
vt 0.283384 0.937498
vt 0.283384 0.965938
vt 0.283384 0.910954
vt 0.283384 0.928018
vt 0.283384 0.874931
vt 0.283384 0.874931
vt 0.283384 0.838907
vt 0.283384 0.822791
vt 0.283384 0.813311
vt 0.283384 0.783923
vt 0.283384 0.803831
vt 0.283384 0.770652
vt 0.283384 0.813311
vt 0.283384 0.783923
vt 0.283384 0.838907
vt 0.283384 0.822791
vt 0.342160 0.910954
vt 0.342160 0.874931
vt 0.342160 0.874931
vt 0.342160 0.937498
vt 0.342160 0.946978
vt 0.342160 0.937498
vt 0.342160 0.910954
vt 0.342160 0.874931
vt 0.342160 0.838907
vt 0.342160 0.813311
vt 0.342160 0.803831
vt 0.342160 0.813311
vt 0.342160 0.838907
vt 0.032166 0.899578
vt 0.032166 0.940342
vt 0.032166 0.899578
vt 0.032166 0.936550
vt 0.032166 0.969730
vt 0.032166 0.962146
vt 0.032166 0.981106
vt 0.032166 0.971626
vt 0.032166 0.969730
vt 0.032166 0.962146
vt 0.032166 0.940342
vt 0.032166 0.936550
vt 0.032166 0.899578
vt 0.032166 0.899578
vt 0.032166 0.858815
vt 0.032166 0.862607
vt 0.032166 0.829427
vt 0.032166 0.837011
vt 0.032166 0.818051
vt 0.032166 0.827531
vt 0.032166 0.829427
vt 0.032166 0.837011
vt 0.032166 0.858815
vt 0.032166 0.862607
vt 0.062502 0.909058
vt 0.062502 0.869242
vt 0.062502 0.869242
vt 0.062502 0.899578
vt 0.062502 0.936550
vt 0.062502 0.946978
vt 0.062502 0.936550
vt 0.062502 0.869242
vt 0.062502 0.909058
vt 0.062502 0.869242
vt 0.062502 0.830375
vt 0.062502 0.839855
vt 0.062502 0.802883
vt 0.062502 0.791507
vt 0.062502 0.802883
vt 0.062502 0.830375
vt 0.156353 0.899578
vt 0.217973 0.776339
vt 0.156353 0.869242
vt 0.156353 0.869242
vt 0.156353 0.839855
vt 0.032166 0.935602
vt 0.032166 0.908110
vt 0.032166 0.942238
vt 0.032166 0.908110
vt 0.032166 0.966886
vt 0.032166 0.954562
vt 0.032166 0.975418
vt 0.032166 0.962146
vt 0.032166 0.966886
vt 0.032166 0.954562
vt 0.032166 0.942238
vt 0.032166 0.935602
vt 0.032166 0.908110
vt 0.032166 0.908110
vt 0.032166 0.873982
vt 0.032166 0.881567
vt 0.032166 0.850283
vt 0.032166 0.862607
vt 0.032166 0.840803
vt 0.032166 0.855023
vt 0.032166 0.850283
vt 0.032166 0.862607
vt 0.032166 0.873982
vt 0.032166 0.881567
vt 0.899578 0.293812
vt 0.899578 0.368703
vt 0.984897 0.293812
vt 0.899578 0.432219
vt 0.984897 0.349743
vt 0.899578 0.473930
vt 0.984897 0.371547
vt 0.899578 0.489098
vt 0.899578 0.473930
vt 0.899578 0.432219
vt 0.984897 0.349743
vt 0.899578 0.368703
vt 0.984897 0.293812
vt 0.899578 0.293812
vt 0.899578 0.218921
vt 0.899578 0.155405
vt 0.984897 0.236933
vt 0.899578 0.112746
vt 0.984897 0.216077
vt 0.899578 0.098526
vt 0.899578 0.112746
vt 0.899578 0.155405
vt 0.984897 0.236933
vt 0.899578 0.218921
vt 0.815207 0.380079
vt 0.815207 0.453074
vt 0.730836 0.057762
vt 0.730836 0.112746
vt 0.730836 0.196169
vt 0.730836 0.293812
vt 0.730836 0.293812
vt 0.730836 0.391455
vt 0.730836 0.473930
vt 0.730836 0.529862
vt 0.730836 0.548822
vt 0.730836 0.529862
vt 0.499526 0.399039
vt 0.499526 0.293812
vt 0.499526 0.489098
vt 0.499526 0.548822
vt 0.499526 0.569677
vt 0.499526 0.548822
vt 0.499526 0.489098
vt 0.730836 0.473930
vt 0.269164 0.391455
vt 0.269164 0.293812
vt 0.269164 0.473930
vt 0.269164 0.529862
vt 0.269164 0.548822
vt 0.269164 0.529862
vt 0.384819 0.481514
vt 0.499526 0.187637
vt 0.730836 0.196169
vt 0.730836 0.112746
vt 0.730836 0.057762
vt 0.730836 0.037854
vt 0.499526 0.016998
vt 0.499526 0.037854
vt 0.499526 0.098526
vt 0.499526 0.187637
vt 0.499526 0.293812
vt 0.730836 0.391455
vt 0.499526 0.399039
vt 0.499526 0.037854
vt 0.499526 0.098526
vt 0.269164 0.293812
vt 0.384819 0.395247
vt 0.269164 0.196169
vt 0.269164 0.112746
vt 0.269164 0.057762
vt 0.269164 0.112746
vt 0.269164 0.057762
vt 0.269164 0.037854
vt 0.269164 0.196169
vt 0.100422 0.218921
vt 0.100422 0.293812
vt 0.269164 0.391455
vt 0.100422 0.368703
vt 0.269164 0.473930
vt 0.100422 0.432219
vt 0.100422 0.473930
vt 0.100422 0.489098
vt 0.100422 0.473930
vt 0.100422 0.432219
vt 0.100422 0.368703
vt 0.100422 0.293812
vt 0.100422 0.218921
vt 0.100422 0.155405
vt 0.100422 0.112746
vt 0.100422 0.098526
vt 0.100422 0.112746
vt 0.100422 0.155405
vt 0.015103 0.224609
vt 0.015103 0.293812
vt 0.015103 0.363015
vt 0.015103 0.386715
vt 0.015103 0.363015
vt 0.015103 0.293812
vt 0.015103 0.224609
vt 0.015103 0.199961
vt 0.721356 0.897682
vt 0.721356 0.897682
vt 0.722304 0.897682
vt 0.722304 0.897682
vt 0.721356 0.897682
vt 0.721356 0.897682
vt 0.722304 0.897682
vt 0.722304 0.897682
vt 0.659737 0.976366
vt 0.659737 0.976366
vt 0.659737 0.976366
vt 0.659737 0.976366
vt 0.659737 0.976366
vt 0.659737 0.976366
vt 0.220817 0.822791
vt 0.220817 0.822791
vt 0.219869 0.772547
vt 0.219869 0.772547
vt 0.220817 0.875879
vt 0.220817 0.875879
vt 0.220817 0.909058
vt 0.220817 0.909058
vt 0.221765 0.928966
vt 0.221765 0.928966
vt 0.158249 0.980158
vt 0.158249 0.980158
vt 0.158249 0.928966
vt 0.158249 0.928966
vt 0.030270 0.948874
vt 0.030270 0.948874
vt 0.031218 0.980158
vt 0.031218 0.980158
vt 0.030270 0.809519
vt 0.030270 0.809519
vt 0.095682 0.809519
vt 0.095682 0.948874
vt 0.095682 0.772547
vt 0.095682 0.822791
vt 0.096630 0.875879
vt 0.096630 0.909058
vt 0.096630 0.980158
vt 0.096630 0.928966
vt 0.095682 0.948874
vt 0.096630 0.909058
vt 0.096630 0.980158
vt 0.096630 0.928966
vt 0.096630 0.875879
vt 0.095682 0.822791
vt 0.095682 0.772547
vt 0.095682 0.809519
vt 0.126017 0.952666
vt 0.062502 0.952666
vt 0.126017 0.896734
vt 0.062502 0.896734
vt 0.062502 0.975418
vt 0.126017 0.975418
vt 0.062502 0.952666
vt 0.126017 0.952666
vt 0.062502 0.896734
vt 0.126017 0.896734
vt 0.062502 0.839855
vt 0.126017 0.839855
vt 0.062502 0.817103
vt 0.126017 0.817103
vt 0.062502 0.839855
vt 0.126017 0.839855
vt 0.062502 0.896734
vt 0.126017 0.896734
vt 0.062502 0.952666
vt 0.126017 0.952666
vt 0.062502 0.975418
vt 0.126017 0.975418
vt 0.062502 0.952666
vt 0.126017 0.952666
vt 0.062502 0.896734
vt 0.126017 0.896734
vt 0.062502 0.839855
vt 0.126017 0.839855
vt 0.062502 0.817103
vt 0.126017 0.817103
vt 0.062502 0.839855
vt 0.126017 0.839855
vt 0.062502 0.956458
vt 0.062502 0.906214
vt 0.031218 0.956458
vt 0.031218 0.906214
vt 0.031218 0.976366
vt 0.062502 0.976366
vt 0.031218 0.956458
vt 0.062502 0.956458
vt 0.031218 0.906214
vt 0.062502 0.906214
vt 0.031218 0.856919
vt 0.062502 0.856919
vt 0.031218 0.837011
vt 0.062502 0.837011
vt 0.031218 0.856919
vt 0.062502 0.856919
vt 0.184793 0.906214
vt 0.054918 0.956458
vt 0.054918 0.906214
vt 0.071034 0.956458
vt 0.071034 0.906214
vt 0.071034 0.976366
vt 0.054918 0.976366
vt 0.071034 0.956458
vt 0.054918 0.956458
vt 0.071034 0.906214
vt 0.054918 0.906214
vt 0.071034 0.856919
vt 0.054918 0.856919
vt 0.071034 0.837011
vt 0.054918 0.837011
vt 0.071034 0.856919
vt 0.054918 0.856919
vt 0.031218 0.906214
vt 0.518486 0.770652
vt 0.546926 0.770652
vt 0.518486 0.884410
vt 0.546926 0.863555
vt 0.519434 0.770652
vt 0.519434 0.936550
vt 0.547874 0.770652
vt 0.547874 0.863555
vt 0.519434 0.936550
vt 0.519434 0.770652
vt 0.518486 0.770652
vt 0.518486 0.884410
vt 0.546926 0.863555
vt 0.518486 0.884410
vt 0.519434 0.936550
vt 0.547874 0.863555
vt 0.519434 0.936550
vt 0.518486 0.884410
vt 0.518486 0.770652
vt 0.546926 0.770652
vt 0.519434 0.770652
vt 0.547874 0.770652
vt 0.519434 0.770652
vt 0.518486 0.770652
vt 0.084306 0.968782
vt 0.115590 0.812363
vt 0.048282 0.968782
vt 0.115590 0.812363
vt 0.048282 0.968782
vt 0.116538 0.812363
vt 0.084306 0.968782
vt 0.116538 0.812363
vt 0.048282 0.968782
vt 0.116538 0.812363
vt 0.048282 0.968782
vt 0.115590 0.812363
vt 0.217973 0.780131
vt 0.217973 0.780131
vt 0.217973 0.780131
vt 0.217973 0.780131
vt 0.217973 0.780131
vt 0.217973 0.780131
vt 0.115590 0.811415
vt 0.115590 0.811415
vt 0.115590 0.811415
vt 0.116538 0.811415
vt 0.116538 0.811415
vt 0.116538 0.811415
vt 0.217973 0.780131
vt 0.469190 0.933706
vt 0.469190 0.825635
vt 0.469190 0.787715
vt 0.469190 0.778235
vt 0.541238 0.821843
vt 0.541238 0.768755
vt 0.469190 0.778235
vt 0.469190 0.825635
vt 0.469190 0.874931
vt 0.469190 0.977314
vt 0.541238 0.876827
vt 0.469190 0.874931
vt 0.654997 0.897682
vt 0.593377 0.976366
vt 0.654997 0.897682
vt 0.593377 0.976366
vt 0.654997 0.897682
vt 0.593377 0.976366
vt 0.654997 0.897682
vt 0.592429 0.976366
vt 0.159197 0.869242
vt 0.219869 0.772547
vt 0.159197 0.919486
vt 0.159197 0.819947
vt 0.159197 0.784871
vt 0.159197 0.771599
vt 0.159197 0.784871
vt 0.159197 0.819947
vt 0.159197 0.869242
vt 0.159197 0.919486
vt 0.159197 0.954562
vt 0.159197 0.967834
vt 0.159197 0.954562
vt 0.062502 0.785819
vt 0.160145 0.877774
vt 0.062502 0.798143
vt 0.062502 0.798143
vt 0.062502 0.831323
vt 0.062502 0.877774
vt 0.062502 0.924226
vt 0.062502 0.956458
vt 0.062502 0.969730
vt 0.062502 0.956458
vt 0.062502 0.924226
vt 0.062502 0.877774
vt 0.062502 0.831323
vn 0.0000 0.5013 0.8653
vn 0.0000 0.0000 1.0000
vn 0.0000 0.8653 0.5013
vn 0.0000 1.0000 0.0000
vn 0.0000 0.8653 -0.5013
vn 0.0000 0.5011 -0.8654
vn 0.0000 0.0000 -1.0000
vn 0.0000 -0.5011 -0.8654
vn 0.0000 -0.8653 -0.5013
vn 0.0000 -1.0000 0.0000
vn 0.0000 -0.8653 0.5013
vn 0.0000 -0.5013 0.8653
vn 0.0000 1.0000 -0.0002
vn 0.0000 -1.0000 -0.0002
vn 0.0000 0.5012 0.8653
vn 0.0000 0.8654 0.5011
vn 0.0000 0.5010 -0.8654
vn 0.0000 -0.5010 -0.8654
vn 0.0000 -0.8654 0.5011
vn 0.0000 -0.5012 0.8653
vn 0.9957 0.0000 -0.0923
vn 0.9957 0.0461 -0.0800
vn 1.0000 0.0000 0.0000
vn 0.9957 0.0800 -0.0461
vn 0.9957 0.0923 0.0000
vn 0.9957 0.0800 0.0461
vn 0.9957 0.0462 0.0800
vn 0.9957 0.0000 0.0923
vn 0.9957 -0.0462 0.0800
vn 0.9957 -0.0800 0.0461
vn 0.9957 -0.0923 0.0000
vn 0.9957 -0.0800 -0.0461
vn 0.9957 -0.0461 -0.0800
vn 0.9184 0.0000 -0.3957
vn 0.9184 0.1979 -0.3427
vn 0.9183 0.1979 -0.3427
vn 0.9183 0.3427 -0.1979
vn 0.9184 0.3427 -0.1979
vn 0.9184 0.3957 0.0000
vn 0.9184 0.3427 0.1979
vn 0.9183 0.3427 0.1979
vn 0.9183 0.1979 0.3427
vn 0.9183 0.0000 0.3958
vn 0.9183 -0.1979 0.3427
vn 0.9183 -0.3427 0.1979
vn 0.9184 -0.3427 0.1979
vn 0.9184 -0.3957 0.0000
vn 0.9184 -0.3427 -0.1979
vn 0.9183 -0.3427 -0.1979
vn 0.9183 -0.1979 -0.3427
vn 0.9184 -0.1979 -0.3427
vn -0.9184 0.0000 -0.3957
vn -0.9184 0.1979 -0.3427
vn -0.9183 0.1979 -0.3427
vn -0.9183 0.3427 -0.1979
vn -0.9184 0.3427 -0.1979
vn -0.9184 0.3957 0.0000
vn -0.9184 0.3427 0.1979
vn -0.9183 0.3427 0.1979
vn -0.9183 0.1979 0.3427
vn -0.9183 -0.0000 0.3958
vn -0.9183 -0.1979 0.3427
vn -0.9183 -0.3427 0.1979
vn -0.9184 -0.3427 0.1979
vn -0.9184 -0.3957 0.0000
vn -0.9184 -0.3427 -0.1979
vn -0.9183 -0.3427 -0.1979
vn -0.9183 -0.1979 -0.3427
vn -0.9184 -0.1979 -0.3427
vn -0.9957 0.0462 -0.0801
vn -0.9957 0.0000 -0.0925
vn -1.0000 0.0000 0.0000
vn -0.9957 0.0801 -0.0462
vn -0.9957 0.0925 0.0000
vn -0.9957 0.0801 0.0462
vn -0.9957 0.0463 0.0801
vn -0.9957 0.0000 0.0925
vn -0.9957 -0.0463 0.0801
vn -0.9957 -0.0801 0.0462
vn -0.9957 -0.0925 0.0000
vn -0.9957 -0.0801 -0.0462
vn -0.9957 -0.0462 -0.0801
vn 0.9933 0.0000 -0.1151
vn 0.9933 0.0576 -0.0997
vn 0.9933 0.0997 -0.0576
vn 0.9933 0.1151 0.0000
vn 0.9933 0.0997 0.0576
vn 0.9933 0.0576 0.0997
vn 0.9933 0.0000 0.1151
vn 0.9933 -0.0576 0.0997
vn 0.9933 -0.0997 0.0576
vn 0.9933 -0.1151 0.0000
vn 0.9933 -0.0997 -0.0576
vn 0.9933 -0.0576 -0.0997
vn 0.8804 0.0000 -0.4743
vn 0.8803 0.2372 -0.4107
vn 0.8803 0.0000 -0.4743
vn 0.8803 0.2371 -0.4107
vn 0.8803 0.4108 -0.2371
vn 0.8804 0.4743 0.0000
vn 0.8803 0.4108 0.2371
vn 0.8804 0.4108 0.2370
vn 0.8804 0.2371 0.4107
vn 0.8804 0.2371 0.4106
vn 0.8804 0.0000 0.4742
vn 0.8804 -0.2371 0.4106
vn 0.8804 -0.2372 0.4106
vn 0.8804 -0.4107 0.2372
vn 0.8803 -0.4107 0.2372
vn 0.8804 -0.4743 0.0000
vn 0.8803 -0.4107 -0.2372
vn 0.8803 -0.2372 -0.4107
vn -0.8804 0.0000 -0.4743
vn -0.8803 0.2372 -0.4107
vn -0.8803 0.4108 -0.2371
vn -0.8803 0.4107 -0.2371
vn -0.8804 0.4743 -0.0000
vn -0.8803 0.4107 0.2371
vn -0.8804 0.4107 0.2371
vn -0.8804 0.2372 0.4106
vn -0.8804 0.2371 0.4106
vn -0.8804 -0.0000 0.4742
vn -0.8804 -0.2371 0.4106
vn -0.8804 -0.4107 0.2371
vn -0.8803 -0.4107 0.2372
vn -0.8804 -0.4743 -0.0000
vn -0.8803 -0.4107 -0.2371
vn -0.8803 -0.4107 -0.2372
vn -0.8803 -0.2371 -0.4107
vn -0.8803 -0.2372 -0.4107
vn -0.9933 0.0576 -0.0997
vn -0.9933 0.0000 -0.1151
vn -0.9933 0.0997 -0.0576
vn -0.9933 0.1151 0.0000
vn -0.9933 0.0997 0.0576
vn -0.9933 0.0576 0.0997
vn -0.9933 0.0000 0.1151
vn -0.9933 -0.0576 0.0997
vn -0.9933 -0.0997 0.0576
vn -0.9933 -0.1151 0.0000
vn -0.9933 -0.0997 -0.0576
vn -0.9933 -0.0576 -0.0997
vn 0.9896 0.0000 -0.1437
vn 0.9896 0.0718 -0.1244
vn 0.9896 0.1244 -0.0718
vn 0.9896 0.1437 0.0000
vn 0.9896 0.1244 0.0718
vn 0.9896 0.0718 0.1244
vn 0.9896 0.0000 0.1437
vn 0.9896 -0.0718 0.1244
vn 0.9896 -0.1244 0.0718
vn 0.9896 -0.1437 0.0000
vn 0.9896 -0.1244 -0.0718
vn 0.9896 -0.0718 -0.1244
vn 0.8294 -0.0001 -0.5585
vn 0.8296 0.2793 -0.4835
vn 0.8295 0.2793 -0.4835
vn 0.8294 0.4837 -0.2793
vn 0.8294 0.4837 -0.2794
vn 0.8294 0.5586 0.0000
vn 0.8294 0.4838 0.2793
vn 0.8294 0.4837 0.2793
vn 0.8294 0.2792 0.4837
vn 0.8295 0.2791 0.4838
vn 0.8294 0.0000 0.5586
vn 0.8295 -0.2793 0.4837
vn 0.8294 -0.2792 0.4838
vn 0.8294 -0.4837 0.2793
vn 0.8294 -0.4837 0.2794
vn 0.8294 -0.5586 0.0000
vn 0.8294 -0.4838 -0.2792
vn 0.8294 -0.4837 -0.2793
vn 0.8296 -0.2792 -0.4836
vn 0.8296 -0.2791 -0.4837
vn -0.8294 0.0001 -0.5585
vn -0.8295 0.2791 -0.4837
vn -0.8294 0.0001 -0.5586
vn -0.8295 0.2792 -0.4836
vn -0.8294 0.4837 -0.2793
vn -0.8294 0.4838 -0.2793
vn -0.8294 0.5586 -0.0000
vn -0.8294 0.4837 0.2794
vn -0.8294 0.4837 0.2793
vn -0.8294 0.2792 0.4838
vn -0.8295 0.2793 0.4837
vn -0.8294 0.0000 0.5586
vn -0.8295 -0.2791 0.4838
vn -0.8294 -0.2792 0.4837
vn -0.8294 -0.4837 0.2793
vn -0.8294 -0.4838 0.2793
vn -0.8294 -0.5586 -0.0000
vn -0.8294 -0.4837 -0.2794
vn -0.8294 -0.4837 -0.2793
vn -0.8295 -0.2793 -0.4835
vn -0.8296 -0.2793 -0.4835
vn -0.9897 0.0717 -0.1242
vn -0.9897 0.0000 -0.1434
vn -0.9897 0.1241 -0.0717
vn -0.9897 0.1434 0.0000
vn -0.9897 0.1241 0.0717
vn -0.9897 0.0717 0.1242
vn -0.9897 0.0000 0.1434
vn -0.9897 -0.0717 0.1242
vn -0.9897 -0.1241 0.0717
vn -0.9897 -0.1434 0.0000
vn -0.9897 -0.1241 -0.0717
vn -0.9897 -0.0717 -0.1242
vn -0.7445 -0.0000 0.6676
vn -0.7444 0.3347 0.5777
vn -0.7445 -0.0001 0.6676
vn -0.7443 0.3347 0.5778
vn -0.7433 0.5788 0.3353
vn -0.7432 0.5788 0.3356
vn -0.7443 0.6677 -0.0001
vn -0.7444 0.6677 -0.0002
vn -0.7437 0.5784 -0.3351
vn -0.7437 0.5785 -0.3348
vn -0.7444 0.3345 -0.5779
vn -0.7443 0.3344 -0.5780
vn -0.7436 0.0002 -0.6686
vn -0.7436 0.0003 -0.6686
vn -0.7443 -0.3348 -0.5778
vn -0.7444 -0.3348 -0.5777
vn -0.7437 -0.5783 -0.3353
vn -0.7437 -0.5784 -0.3351
vn -0.7444 -0.6677 0.0001
vn -0.7432 -0.5790 0.3351
vn -0.7433 -0.5789 0.3351
vn -0.7443 -0.3345 0.5779
vn -0.7444 -0.3343 0.5779
vn -0.1729 -0.9849 0.0000
vn -0.1729 0.0000 -0.9849
vn -0.1729 0.0000 0.9849
vn -0.1729 0.9849 0.0000
vn -0.7067 0.3547 0.6121
vn -0.7071 0.0000 0.7071
vn -0.7066 0.3547 0.6122
vn -0.7070 0.6120 0.3544
vn -0.7072 0.7070 0.0001
vn -0.7072 0.7070 0.0002
vn -0.7072 0.6116 -0.3546
vn -0.7071 0.3543 -0.6118
vn -0.7070 0.3546 -0.6119
vn -0.7072 0.0001 -0.7070
vn -0.7070 -0.3544 -0.6120
vn -0.7071 -0.3545 -0.6117
vn -0.7072 -0.6117 -0.3544
vn -0.7072 -0.6118 -0.3543
vn -0.7072 -0.7070 -0.0001
vn -0.7072 -0.7070 -0.0002
vn -0.7070 -0.6119 0.3546
vn -0.7070 -0.6118 0.3547
vn -0.7067 -0.3547 0.6121
vn -0.7066 -0.3549 0.6121
vn 0.5757 -0.0000 -0.8177
vn 0.5851 0.3159 -0.7469
vn 0.8186 0.0190 -0.5740
vn 0.5800 0.5712 -0.5807
vn 0.8129 0.3911 -0.4316
vn 0.5754 0.7560 -0.3120
vn 0.8187 0.5739 0.0190
vn 0.5757 0.8177 0.0000
vn 0.5851 0.7469 0.3157
vn 0.5800 0.5809 0.5711
vn 0.8129 0.4317 0.3909
vn 0.5753 0.3119 0.7561
vn 0.8187 -0.0190 0.5739
vn 0.5756 0.0000 0.8177
vn 0.5850 -0.3157 0.7470
vn 0.5801 -0.5712 0.5806
vn 0.8129 -0.3912 0.4314
vn 0.5754 -0.7561 0.3119
vn 0.8187 -0.5740 -0.0190
vn 0.5757 -0.8177 0.0000
vn 0.5851 -0.7469 -0.3158
vn 0.5800 -0.5808 -0.5711
vn 0.8129 -0.4316 -0.3911
vn 0.5754 -0.3120 -0.7560
vn 0.3291 0.2995 0.8955
vn 0.3291 0.7128 0.6193
vn 0.2079 -0.9037 0.3742
vn 0.2078 -0.6916 0.6917
vn 0.2079 -0.3743 0.9037
vn 0.2079 0.0000 0.9781
vn 0.2078 0.0000 -0.9781
vn 0.2079 0.3743 -0.9037
vn 0.2079 0.6916 -0.6916
vn 0.2079 0.9037 -0.3743
vn 0.2079 0.9781 0.0000
vn 0.2079 0.9037 0.3742
vn 0.0000 0.3826 -0.9239
vn 0.0000 0.7071 -0.7071
vn 0.0000 0.9239 -0.3827
vn 0.0000 0.9238 0.3828
vn -0.0000 0.8314 0.5556
vn 0.2040 0.8140 0.5439
vn -0.2079 0.3743 -0.9037
vn -0.2079 0.0000 -0.9781
vn -0.2079 0.6916 -0.6916
vn -0.2079 0.9037 -0.3743
vn -0.2079 0.9781 0.0000
vn -0.2079 0.9037 0.3742
vn -0.0885 0.7500 0.6554
vn 0.0000 -0.3826 -0.9239
vn 0.2079 -0.3743 -0.9037
vn 0.2079 -0.6916 -0.6917
vn 0.2079 -0.9037 -0.3743
vn 0.2079 -0.9781 0.0000
vn -0.0000 -0.9238 0.3828
vn 0.0000 -0.7071 0.7071
vn 0.0000 -0.3827 0.9239
vn 0.2040 0.1911 0.9601
vn 0.0000 0.1950 0.9808
vn 0.0000 -0.9239 -0.3827
vn 0.0000 -0.7071 -0.7071
vn -0.2079 0.0000 0.9781
vn -0.0886 0.3186 0.9437
vn -0.2079 -0.3743 0.9037
vn -0.2079 -0.6916 0.6917
vn -0.2079 -0.9037 0.3742
vn -0.2079 -0.6916 -0.6916
vn -0.2079 -0.9037 -0.3743
vn -0.2079 -0.9781 0.0000
vn -0.2079 -0.3743 -0.9037
vn -0.5473 -0.3173 0.7744
vn -0.5495 0.0000 0.8354
vn -0.2079 0.3743 0.9037
vn -0.5636 0.3236 0.7600
vn -0.2078 0.6916 0.6917
vn -0.5519 0.5820 0.5972
vn -0.5473 0.7744 0.3172
vn -0.5495 0.8354 0.0000
vn -0.5636 0.7599 -0.3237
vn -0.5519 0.5974 -0.5818
vn -0.5473 0.3174 -0.7744
vn -0.5495 0.0000 -0.8354
vn -0.5636 -0.3238 -0.7599
vn -0.5519 -0.5819 -0.5973
vn -0.5473 -0.7744 -0.3173
vn -0.5495 -0.8354 -0.0000
vn -0.5636 -0.7599 0.3236
vn -0.5519 -0.5974 0.5818
vn -0.7655 -0.4818 0.4265
vn -0.7740 0.0233 0.6327
vn -0.7655 0.4268 0.4815
vn -0.7740 0.6327 -0.0233
vn -0.7654 0.4817 -0.4266
vn -0.7740 -0.0233 -0.6327
vn -0.7654 -0.4266 -0.4817
vn -0.7740 -0.6327 0.0233
vn 0.0000 0.5556 0.8314
vn 0.0011 0.9490 0.3151
vn 0.2054 0.5434 0.8140
vn 0.1450 0.9473 0.2856
vn 0.7704 0.3541 0.5302
vn 0.5988 0.7538 0.2705
vn -0.4623 0.8115 0.3574
vn -0.6100 0.4400 0.6589
vn 0.9964 -0.0468 -0.0701
vn 0.5919 0.7550 -0.2821
vn 0.0033 0.9571 -0.2896
vn 0.0208 0.9487 -0.3153
vn -0.5712 0.7874 -0.2318
vn -0.9964 0.0468 0.0701
vn 0.9096 -0.4154 0.0000
vn 0.9725 -0.2328 0.0000
vn 0.6700 -0.7423 0.0000
vn 0.3505 -0.9366 0.0000
vn 0.1785 -0.9839 0.0000
vn 0.9991 -0.0421 0.0000
vn -0.4810 0.8767 0.0000
vn -0.0967 0.9953 0.0000
vn -0.7635 0.6458 0.0000
vn 0.0560 0.1058 -0.9928
vn 0.0439 0.0962 -0.9944
vn 0.0438 0.0984 -0.9942
vn 0.0312 0.0908 -0.9954
vn 0.0310 0.0894 -0.9955
vn 0.0293 0.0718 -0.9970
vn 0.0355 0.0579 -0.9977
vn 0.0396 0.0515 -0.9979
vn 0.0439 0.0962 0.9944
vn 0.0293 0.0718 0.9970
vn 0.0355 0.0579 0.9977
vn 0.0396 0.0515 0.9979
vn 0.0310 0.0894 0.9955
vn 0.0312 0.0908 0.9954
vn 0.0438 0.0984 0.9942
vn 0.0560 0.1058 0.9928
vn -0.1343 0.6958 -0.7056
vn -0.1336 0.6970 -0.7045
vn -0.1410 0.0069 -0.9900
vn -0.1415 0.0055 -0.9899
vn -0.1416 0.9899 0.0053
vn -0.1411 0.9900 0.0067
vn -0.1338 0.7047 0.6967
vn -0.1344 0.7056 0.6957
vn -0.1416 -0.0054 0.9899
vn -0.1411 -0.0067 0.9900
vn -0.1338 -0.6969 0.7046
vn -0.1346 -0.6960 0.7053
vn -0.1419 -0.9898 -0.0056
vn -0.1413 -0.9899 -0.0069
vn -0.1337 -0.7046 -0.6968
vn -0.1343 -0.7055 -0.6959
vn 0.0791 0.0002 -0.9969
vn 0.0792 0.0000 -0.9969
vn 0.0796 0.7047 -0.7050
vn 0.0794 0.7051 -0.7046
vn 0.0794 0.9968 -0.0000
vn 0.0793 0.9968 -0.0000
vn 0.0794 0.7046 0.7051
vn 0.0796 0.7050 0.7047
vn 0.0792 0.0002 0.9969
vn 0.0791 0.0001 0.9969
vn 0.0789 -0.7049 0.7048
vn 0.0791 -0.9969 -0.0002
vn 0.0791 -0.9969 -0.0001
vn 0.0789 -0.7051 -0.7047
vn 0.8770 0.3395 -0.3399
vn 0.8771 0.0000 -0.4803
vn 0.6747 0.5221 -0.5217
vn 0.6749 0.0000 -0.7379
vn 0.6750 0.7378 -0.0001
vn 0.8771 0.4803 -0.0001
vn 0.6756 0.5213 0.5212
vn 0.8774 0.3393 0.3392
vn 0.6750 0.0001 0.7378
vn 0.8770 0.0001 0.4804
vn 0.6756 -0.5213 0.5212
vn 0.8774 -0.3393 0.3392
vn 0.6764 -0.7365 -0.0001
vn 0.8776 -0.4794 -0.0001
vn 0.6747 -0.5221 -0.5216
vn 0.8770 -0.3396 -0.3399
vn 0.9155 0.2841 -0.2847
vn 0.9160 0.0003 -0.4013
vn 0.7788 0.4434 -0.4437
vn 0.7796 0.0003 -0.6262
vn 0.7789 0.6272 -0.0001
vn 0.9156 0.4021 -0.0001
vn 0.7791 0.4429 0.4435
vn 0.9158 0.2840 0.2840
vn 0.7790 0.0002 0.6270
vn 0.9156 0.0003 0.4020
vn 0.7796 -0.4429 0.4426
vn 0.9160 -0.2839 0.2835
vn 0.7790 -0.6269 0.0001
vn 0.9156 -0.4020 0.0002
vn 0.7790 -0.4435 -0.4431
vn 0.9158 -0.2837 -0.2842
vn -0.2858 -0.3328 0.8986
vn -0.7407 -0.6719 -0.0001
vn -0.3184 -0.2578 0.9122
vn -0.8091 -0.5877 -0.0002
vn 0.4248 0.1097 0.8986
vn 0.3719 0.1719 0.9122
vn 0.9298 0.3681 -0.0001
vn 0.8844 0.4667 -0.0001
vn 0.3717 0.1720 -0.9122
vn 0.4247 0.1096 -0.8986
vn -0.2857 -0.3327 -0.8987
vn -0.3184 -0.2577 -0.9122
vn -0.9271 -0.3748 -0.0000
vn -0.4069 -0.1091 0.9069
vn 0.2775 0.3170 0.9069
vn 0.7455 0.6665 0.0000
vn 0.2774 0.3169 -0.9069
vn -0.4068 -0.1091 -0.9069
vn -0.4646 -0.0440 0.8844
vn -0.9629 -0.2700 -0.0001
vn 0.2446 0.3974 0.8844
vn 0.6673 0.7448 -0.0001
vn 0.2447 0.3973 -0.8845
vn -0.4646 -0.0442 -0.8844
vn -0.9907 -0.1361 0.0008
vn -0.5593 -0.8289 -0.0009
vn -0.5406 0.1289 0.8313
vn -0.1227 -0.5409 0.8321
vn 0.1227 0.5409 0.8321
vn 0.5408 -0.1291 0.8312
vn 0.5593 0.8289 -0.0009
vn 0.9907 0.1361 0.0008
vn 0.1228 0.5422 -0.8312
vn 0.5395 -0.1288 -0.8321
vn -0.5394 0.1286 -0.8321
vn -0.1228 -0.5422 -0.8312
vn 0.1469 -0.9891 -0.0036
vn 0.3526 -0.8580 0.3735
vn 0.6161 -0.6936 0.3731
vn 0.8227 -0.5684 0.0034
vn 0.6142 -0.6952 -0.3734
vn 0.3505 -0.8590 -0.3732
vn -0.6153 0.5388 -0.5753
vn -0.9094 0.4159 0.0046
vn -0.6180 0.5361 0.5750
vn -0.2087 0.7912 -0.5748
vn -0.2123 0.7900 0.5751
vn 0.0282 0.9996 -0.0049
vn 0.5285 -0.8489 0.0000
vn -0.9790 -0.2036 -0.0003
vn 0.1295 0.0269 0.9912
vn -0.8720 -0.4895 -0.0003
vn 0.0002 0.0001 1.0000
vn 0.9790 0.2036 -0.0002
vn 0.8721 0.4893 -0.0002
vn 0.0002 -0.0000 -1.0000
vn 0.1293 0.0270 -0.9912
vn -0.0584 -0.5743 0.8165
vn -0.8707 -0.4917 -0.0001
vn 0.7539 -0.6569 -0.0002
vn -0.0583 -0.5744 -0.8165
vn 0.0450 -0.6736 0.7377
vn 0.0370 -0.6629 0.7478
vn 0.0257 -0.6554 0.7548
vn 0.0197 -0.6476 0.7617
vn -0.0039 -0.6331 0.7740
vn -0.0016 -0.6331 0.7740
vn -0.0114 -0.6360 0.7716
vn -0.0081 -0.6395 0.7688
usemtl Pistol_Material
s 1
f 1/1/1 2/2/1 3/3/2
f 4/4/2 3/3/2 2/2/1
f 2/2/1 1/1/1 5/5/3
f 6/6/3 5/5/3 1/1/1
f 5/5/3 6/6/3 7/7/4
f 8/8/4 7/7/4 6/6/3
f 7/7/4 8/8/4 9/9/5
f 10/10/5 9/9/5 8/8/4
f 9/9/5 10/10/5 11/11/6
f 12/12/6 11/11/6 10/10/5
f 11/11/6 12/12/6 13/13/7
f 14/14/7 13/13/7 12/12/6
f 13/13/7 14/14/7 15/15/8
f 16/16/8 15/15/8 14/14/7
f 15/15/8 16/16/8 17/17/9
f 18/18/9 17/17/9 16/16/8
f 17/17/9 18/18/9 19/19/10
f 20/20/10 19/19/10 18/18/9
f 19/19/10 20/20/10 21/21/11
f 22/22/11 21/21/11 20/20/10
f 21/21/11 22/22/11 23/23/12
f 24/24/12 23/23/12 22/22/11
f 23/23/12 24/24/12 4/4/2
f 3/3/2 4/4/2 24/24/12
f 25/25/2 26/26/13 27/27/2
f 28/28/13 27/27/2 26/26/13
f 26/26/13 29/29/7 28/28/13
f 30/30/7 28/28/13 29/29/7
f 29/29/7 31/31/14 30/30/7
f 32/32/14 30/30/7 31/31/14
f 31/31/14 25/25/2 32/32/14
f 27/27/2 32/32/14 25/25/2
f 25/25/2 33/33/2 26/26/13
f 34/34/13 26/26/13 33/33/2
f 26/26/13 34/34/13 29/29/7
f 35/35/7 29/29/7 34/34/13
f 29/29/7 35/35/7 31/31/14
f 36/36/14 31/31/14 35/35/7
f 33/33/2 25/25/2 36/36/14
f 31/31/14 36/36/14 25/25/2
f 33/33/2 37/37/2 34/34/13
f 38/38/13 34/34/13 37/37/2
f 34/34/13 38/38/13 35/35/7
f 39/39/7 35/35/7 38/38/13
f 35/35/7 39/39/7 36/36/14
f 40/40/14 36/36/14 39/39/7
f 37/37/2 33/33/2 40/40/14
f 36/36/14 40/40/14 33/33/2
f 41/41/15 42/42/15 43/43/2
f 44/44/2 43/43/2 42/42/15
f 42/42/15 41/41/15 45/45/16
f 46/46/16 45/45/16 41/41/15
f 45/45/16 46/46/16 47/47/4
f 48/48/4 47/47/4 46/46/16
f 47/47/4 48/48/4 49/49/5
f 50/50/5 49/49/5 48/48/4
f 49/49/5 50/50/5 51/51/17
f 52/52/17 51/51/17 50/50/5
f 51/51/17 52/52/17 53/53/7
f 54/54/7 53/53/7 52/52/17
f 53/53/7 54/54/7 55/55/18
f 56/56/18 55/55/18 54/54/7
f 55/55/18 56/56/18 57/57/9
f 58/58/9 57/57/9 56/56/18
f 57/57/9 58/58/9 59/59/10
f 60/60/10 59/59/10 58/58/9
f 59/59/10 60/60/10 61/61/19
f 62/62/19 61/61/19 60/60/10
f 61/61/19 62/62/19 63/63/20
f 64/64/20 63/63/20 62/62/19
f 63/63/20 64/64/20 44/44/2
f 43/43/2 44/44/2 64/64/20
f 65/65/21 66/66/22 67/67/23
f 66/66/22 68/68/24 67/67/23
f 68/68/24 69/69/25 67/67/23
f 69/69/25 70/70/26 67/67/23
f 70/70/26 71/71/27 67/67/23
f 71/71/27 72/72/28 67/67/23
f 72/72/28 73/73/29 67/67/23
f 73/73/29 74/74/30 67/67/23
f 74/74/30 75/75/31 67/67/23
f 75/75/31 76/76/32 67/67/23
f 76/76/32 77/77/33 67/67/23
f 77/77/33 65/65/21 67/67/23
f 78/78/34 79/79/35 80/80/34
f 81/81/36 80/80/34 79/79/35
f 79/79/35 82/82/37 81/81/36
f 83/83/38 81/81/36 82/82/37
f 82/82/37 84/84/39 83/83/38
f 85/85/39 83/83/38 84/84/39
f 84/84/39 86/86/40 85/85/39
f 87/87/41 85/85/39 86/86/40
f 86/86/40 88/88/42 87/87/41
f 89/89/42 87/87/41 88/88/42
f 88/88/42 90/90/43 89/89/42
f 91/91/43 89/89/42 90/90/43
f 90/90/43 92/92/44 91/91/43
f 93/93/44 91/91/43 92/92/44
f 92/92/44 94/94/45 93/93/44
f 95/95/46 93/93/44 94/94/45
f 94/94/45 96/96/47 95/95/46
f 97/97/47 95/95/46 96/96/47
f 96/96/47 98/98/48 97/97/47
f 99/99/49 97/97/47 98/98/48
f 98/98/48 100/100/50 99/99/49
f 101/101/51 99/99/49 100/100/50
f 100/100/50 78/78/34 101/101/51
f 80/80/34 101/101/51 78/78/34
f 102/102/52 103/103/53 104/104/52
f 105/105/54 104/104/52 103/103/53
f 103/103/53 106/106/55 105/105/54
f 107/107/56 105/105/54 106/106/55
f 106/106/55 108/108/57 107/107/56
f 109/109/57 107/107/56 108/108/57
f 108/108/57 110/110/58 109/109/57
f 111/111/59 109/109/57 110/110/58
f 110/110/58 112/112/60 111/111/59
f 113/113/60 111/111/59 112/112/60
f 112/112/60 114/114/61 113/113/60
f 115/115/61 113/113/60 114/114/61
f 114/114/61 116/116/62 115/115/61
f 117/117/62 115/115/61 116/116/62
f 116/116/62 118/118/63 117/117/62
f 119/119/64 117/117/62 118/118/63
f 118/118/63 120/120/65 119/119/64
f 121/121/65 119/119/64 120/120/65
f 120/120/65 122/122/66 121/121/65
f 123/123/67 121/121/65 122/122/66
f 122/122/66 124/124/68 123/123/67
f 125/125/69 123/123/67 124/124/68
f 124/124/68 102/102/52 125/125/69
f 104/104/52 125/125/69 102/102/52
f 126/126/70 127/127/71 128/128/72
f 129/129/73 126/126/70 128/128/72
f 130/130/74 129/129/73 128/128/72
f 131/131/75 130/130/74 128/128/72
f 132/132/76 131/131/75 128/128/72
f 133/133/77 132/132/76 128/128/72
f 134/134/78 133/133/77 128/128/72
f 135/135/79 134/134/78 128/128/72
f 136/136/80 135/135/79 128/128/72
f 137/137/81 136/136/80 128/128/72
f 138/138/82 137/137/81 128/128/72
f 127/127/71 138/138/82 128/128/72
f 139/139/83 140/140/84 141/141/23
f 140/140/84 142/142/85 141/141/23
f 142/142/85 143/143/86 141/141/23
f 143/143/86 144/144/87 141/141/23
f 144/144/87 145/145/88 141/141/23
f 145/145/88 146/146/89 141/141/23
f 146/146/89 147/147/90 141/141/23
f 147/147/90 148/148/91 141/141/23
f 148/148/91 149/149/92 141/141/23
f 149/149/92 150/150/93 141/141/23
f 150/150/93 151/151/94 141/141/23
f 151/151/94 139/139/83 141/141/23
f 152/152/95 153/153/96 154/154/97
f 155/155/98 154/154/97 153/153/96
f 153/153/96 156/156/99 155/155/98
f 157/157/99 155/155/98 156/156/99
f 156/156/99 158/158/100 157/157/99
f 159/159/100 157/157/99 158/158/100
f 158/158/100 160/160/101 159/159/100
f 161/161/102 159/159/100 160/160/101
f 160/160/101 162/162/103 161/161/102
f 163/163/104 161/161/102 162/162/103
f 162/162/103 164/164/105 163/163/104
f 165/165/105 163/163/104 164/164/105
f 164/164/105 166/166/106 165/165/105
f 167/167/107 165/165/105 166/166/106
f 166/166/106 168/168/108 167/167/107
f 169/169/109 167/167/107 168/168/108
f 168/168/108 170/170/110 169/169/109
f 171/171/110 169/169/109 170/170/110
f 170/170/110 172/172/111 171/171/110
f 173/173/111 171/171/110 172/172/111
f 172/172/111 174/174/112 173/173/111
f 175/175/112 173/173/111 174/174/112
f 174/174/112 152/152/95 175/175/112
f 154/154/97 175/175/112 152/152/95
f 176/176/113 177/177/114 178/178/113
f 179/179/114 178/178/113 177/177/114
f 177/177/114 180/180/115 179/179/114
f 181/181/116 179/179/114 180/180/115
f 180/180/115 182/182/117 181/181/116
f 183/183/117 181/181/116 182/182/117
f 182/182/117 184/184/118 183/183/117
f 185/185/119 183/183/117 184/184/118
f 184/184/118 186/186/120 185/185/119
f 187/187/121 185/185/119 186/186/120
f 186/186/120 188/188/122 187/187/121
f 189/189/122 187/187/121 188/188/122
f 188/188/122 190/190/123 189/189/122
f 191/191/123 189/189/122 190/190/123
f 190/190/123 192/192/124 191/191/123
f 193/193/125 191/191/123 192/192/124
f 192/192/124 194/194/126 193/193/125
f 195/195/126 193/193/125 194/194/126
f 194/194/126 196/196/127 195/195/126
f 197/197/128 195/195/126 196/196/127
f 196/196/127 198/198/129 197/197/128
f 199/199/130 197/197/128 198/198/129
f 198/198/129 176/176/113 199/199/130
f 178/178/113 199/199/130 176/176/113
f 200/200/131 201/201/132 202/202/72
f 203/203/133 200/200/131 202/202/72
f 204/204/134 203/203/133 202/202/72
f 205/205/135 204/204/134 202/202/72
f 206/206/136 205/205/135 202/202/72
f 207/207/137 206/206/136 202/202/72
f 208/208/138 207/207/137 202/202/72
f 209/209/139 208/208/138 202/202/72
f 210/210/140 209/209/139 202/202/72
f 211/211/141 210/210/140 202/202/72
f 212/212/142 211/211/141 202/202/72
f 201/201/132 212/212/142 202/202/72
f 213/213/143 214/214/144 215/215/23
f 214/214/144 216/216/145 215/215/23
f 216/216/145 217/217/146 215/215/23
f 217/217/146 218/218/147 215/215/23
f 218/218/147 219/219/148 215/215/23
f 219/219/148 220/220/149 215/215/23
f 220/220/149 221/221/150 215/215/23
f 221/221/150 222/222/151 215/215/23
f 222/222/151 223/223/152 215/215/23
f 223/223/152 224/224/153 215/215/23
f 224/224/153 225/225/154 215/215/23
f 225/225/154 213/213/143 215/215/23
f 226/226/155 227/227/156 228/228/155
f 229/229/157 228/228/155 227/227/156
f 227/227/156 230/230/158 229/229/157
f 231/231/159 229/229/157 230/230/158
f 230/230/158 232/232/160 231/231/159
f 233/233/160 231/231/159 232/232/160
f 232/232/160 234/234/161 233/233/160
f 235/235/162 233/233/160 234/234/161
f 234/234/161 236/236/163 235/235/162
f 237/237/164 235/235/162 236/236/163
f 236/236/163 238/238/165 237/237/164
f 239/239/165 237/237/164 238/238/165
f 238/238/165 240/240/166 239/239/165
f 241/241/167 239/239/165 240/240/166
f 240/240/166 242/242/168 241/241/167
f 243/243/169 241/241/167 242/242/168
f 242/242/168 244/244/170 243/243/169
f 245/245/170 243/243/169 244/244/170
f 244/244/170 246/246/171 245/245/170
f 247/247/172 245/245/170 246/246/171
f 246/246/171 248/248/173 247/247/172
f 249/249/174 247/247/172 248/248/173
f 248/248/173 226/226/155 249/249/174
f 228/228/155 249/249/174 226/226/155
f 250/250/175 251/251/176 252/252/177
f 253/253/178 252/252/177 251/251/176
f 251/251/176 254/254/179 253/253/178
f 255/255/180 253/253/178 254/254/179
f 254/254/179 256/256/181 255/255/180
f 257/257/181 255/255/180 256/256/181
f 256/256/181 258/258/182 257/257/181
f 259/259/183 257/257/181 258/258/182
f 258/258/182 260/260/184 259/259/183
f 261/261/185 259/259/183 260/260/184
f 260/260/184 262/262/186 261/261/185
f 263/263/186 261/261/185 262/262/186
f 262/262/186 264/264/187 263/263/186
f 265/265/188 263/263/186 264/264/187
f 264/264/187 266/266/189 265/265/188
f 267/267/190 265/265/188 266/266/189
f 266/266/189 268/268/191 267/267/190
f 269/269/191 267/267/190 268/268/191
f 268/268/191 270/270/192 269/269/191
f 271/271/193 269/269/191 270/270/192
f 270/270/192 272/272/194 271/271/193
f 273/273/195 271/271/193 272/272/194
f 272/272/194 250/250/175 273/273/195
f 252/252/177 273/273/195 250/250/175
f 274/274/196 275/275/197 276/276/72
f 277/277/198 274/274/196 276/276/72
f 278/278/199 277/277/198 276/276/72
f 279/279/200 278/278/199 276/276/72
f 280/280/201 279/279/200 276/276/72
f 281/281/202 280/280/201 276/276/72
f 282/282/203 281/281/202 276/276/72
f 283/283/204 282/282/203 276/276/72
f 284/284/205 283/283/204 276/276/72
f 285/285/206 284/284/205 276/276/72
f 286/286/207 285/285/206 276/276/72
f 275/275/197 286/286/207 276/276/72
f 287/287/208 288/288/209 289/289/210
f 290/290/211 289/289/210 288/288/209
f 288/288/209 291/291/212 290/290/211
f 292/292/213 290/290/211 291/291/212
f 291/291/212 293/293/214 292/292/213
f 294/294/215 292/292/213 293/293/214
f 293/293/214 295/295/216 294/294/215
f 296/296/217 294/294/215 295/295/216
f 295/295/216 297/297/218 296/296/217
f 298/298/219 296/296/217 297/297/218
f 297/297/218 299/299/220 298/298/219
f 300/300/221 298/298/219 299/299/220
f 299/299/220 301/301/222 300/300/221
f 302/302/223 300/300/221 301/301/222
f 301/301/222 303/303/224 302/302/223
f 304/304/225 302/302/223 303/303/224
f 303/303/224 305/305/226 304/304/225
f 306/306/226 304/304/225 305/305/226
f 305/305/226 307/307/227 306/306/226
f 308/308/228 306/306/226 307/307/227
f 307/307/227 309/309/229 308/308/228
f 310/310/230 308/308/228 309/309/229
f 309/309/229 287/287/208 310/310/230
f 289/289/210 310/310/230 287/287/208
f 311/311/72 312/312/72 313/313/72
f 312/312/72 311/311/72 314/314/72
f 315/315/72 314/314/72 311/311/72
f 316/316/72 314/314/72 315/315/72
f 317/317/72 314/314/72 316/316/72
f 314/314/72 317/317/72 318/318/72
f 319/319/72 318/318/72 317/317/72
f 320/320/72 318/318/72 319/319/72
f 321/321/72 318/318/72 320/320/72
f 318/318/72 321/321/72 322/322/72
f 323/323/72 322/322/72 321/321/72
f 324/324/72 322/322/72 323/323/72
f 325/325/72 322/322/72 324/324/72
f 322/322/72 325/325/72 312/312/72
f 326/326/72 312/312/72 325/325/72
f 313/313/72 312/312/72 326/326/72
f 327/327/231 328/328/72 329/329/232
f 330/330/233 328/328/72 327/327/231
f 331/331/234 328/328/72 330/330/233
f 329/329/232 328/328/72 331/331/234
f 332/332/235 333/333/236 334/334/237
f 335/335/236 334/334/237 333/333/236
f 334/334/237 336/336/238 332/332/235
f 337/337/238 332/332/235 336/336/238
f 336/336/238 338/338/239 337/337/238
f 339/339/240 337/337/238 338/338/239
f 338/338/239 340/340/241 339/339/240
f 341/341/241 339/339/240 340/340/241
f 340/340/241 342/342/242 341/341/241
f 343/343/243 341/341/241 342/342/242
f 342/342/242 344/344/244 343/343/243
f 345/345/244 343/343/243 344/344/244
f 344/344/244 346/346/245 345/345/244
f 347/347/246 345/345/244 346/346/245
f 346/346/245 348/348/247 347/347/246
f 349/349/248 347/347/246 348/348/247
f 348/348/247 350/350/249 349/349/248
f 351/351/250 349/349/248 350/350/249
f 350/350/249 352/352/251 351/351/250
f 353/353/252 351/351/250 352/352/251
f 352/352/251 354/354/253 353/353/252
f 355/355/254 353/353/252 354/354/253
f 354/354/253 335/335/236 355/355/254
f 333/333/236 355/355/254 335/335/236
f 356/356/255 357/357/256 358/358/257
f 357/357/256 359/359/258 358/358/257
f 360/360/259 358/358/257 359/359/258
f 359/359/258 361/361/260 360/360/259
f 362/362/261 360/360/259 361/361/260
f 361/361/260 363/363/262 362/362/261
f 363/363/262 364/364/263 362/362/261
f 364/364/263 365/365/264 362/362/261
f 366/366/265 362/362/261 365/365/264
f 365/365/264 367/367/266 366/366/265
f 368/368/267 366/366/265 367/367/266
f 367/367/266 369/369/268 368/368/267
f 369/369/268 370/370/269 368/368/267
f 370/370/269 371/371/270 368/368/267
f 372/372/271 368/368/267 371/371/270
f 371/371/270 373/373/272 372/372/271
f 374/374/273 372/372/271 373/373/272
f 373/373/272 375/375/274 374/374/273
f 375/375/274 376/376/275 374/374/273
f 376/376/275 377/377/276 374/374/273
f 378/378/277 374/374/273 377/377/276
f 377/377/276 379/379/278 378/378/277
f 358/358/257 378/378/277 379/379/278
f 379/379/278 356/356/255 358/358/257
f 380/380/279 369/369/268 367/367/266
f 380/380/279 367/367/266 381/381/280
f 365/365/264 381/381/280 367/367/266
f 381/381/280 365/365/264 364/364/263
f 373/373/272 371/371/270 382/382/281
f 383/383/282 382/382/281 371/371/270
f 371/371/270 370/370/269 383/383/282
f 384/384/283 383/383/282 370/370/269
f 370/370/269 369/369/268 384/384/283
f 385/385/284 384/384/283 369/369/268
f 369/369/268 380/380/279 385/385/284
f 356/356/255 379/379/278 386/386/285
f 386/386/285 387/387/286 356/356/255
f 357/357/256 356/356/255 387/387/286
f 387/387/286 388/388/287 357/357/256
f 359/359/258 357/357/256 388/388/287
f 388/388/287 389/389/288 359/359/258
f 361/361/260 359/359/258 389/389/288
f 389/389/288 390/390/289 361/361/260
f 363/363/262 361/361/260 390/390/289
f 390/390/289 391/391/290 363/363/262
f 364/364/263 363/363/262 391/391/290
f 387/387/286 386/386/285 392/392/291
f 393/393/7 392/392/291 386/386/285
f 392/392/291 394/394/292 387/387/286
f 388/388/287 387/387/286 394/394/292
f 394/394/292 395/395/293 388/388/287
f 389/389/288 388/388/287 395/395/293
f 395/395/293 396/396/4 389/389/288
f 390/390/289 389/389/288 396/396/4
f 396/396/4 397/397/294 390/390/289
f 391/391/290 390/390/289 397/397/294
f 397/397/294 398/398/295 391/391/290
f 399/399/296 391/391/290 398/398/295
f 391/391/290 399/399/296 364/364/263
f 392/392/291 393/393/7 400/400/297
f 401/401/298 400/400/297 393/393/7
f 400/400/297 402/402/299 392/392/291
f 394/394/292 392/392/291 402/402/299
f 402/402/299 403/403/300 394/394/292
f 395/395/293 394/394/292 403/403/300
f 403/403/300 404/404/301 395/395/293
f 396/396/4 395/395/293 404/404/301
f 404/404/301 405/405/302 396/396/4
f 397/397/294 396/396/4 405/405/302
f 398/398/295 397/397/294 406/406/303
f 405/405/302 406/406/303 397/397/294
f 393/393/7 407/407/304 401/401/298
f 407/407/304 393/393/7 408/408/305
f 408/408/305 409/409/306 407/407/304
f 409/409/306 408/408/305 377/377/276
f 377/377/276 376/376/275 409/409/306
f 410/410/307 409/409/306 376/376/275
f 376/376/275 375/375/274 410/410/307
f 411/411/308 410/410/307 375/375/274
f 375/375/274 373/373/272 411/411/308
f 382/382/281 411/411/308 373/373/272
f 379/379/278 377/377/276 408/408/305
f 408/408/305 386/386/285 379/379/278
f 411/411/308 382/382/281 412/412/10
f 413/413/309 412/412/10 382/382/281
f 382/382/281 383/383/282 413/413/309
f 414/414/310 413/413/309 383/383/282
f 383/383/282 384/384/283 414/414/310
f 415/415/311 414/414/310 384/384/283
f 384/384/283 385/385/284 415/415/311
f 416/416/2 415/415/311 385/385/284
f 385/385/284 417/417/312 416/416/2
f 418/418/313 416/416/2 417/417/312
f 412/412/10 419/419/314 411/411/308
f 410/410/307 411/411/308 419/419/314
f 419/419/314 420/420/315 410/410/307
f 409/409/306 410/410/307 420/420/315
f 420/420/315 407/407/304 409/409/306
f 416/416/2 418/418/313 421/421/316
f 422/422/317 421/421/316 418/418/313
f 421/421/316 423/423/318 416/416/2
f 415/415/311 416/416/2 423/423/318
f 423/423/318 424/424/319 415/415/311
f 414/414/310 415/415/311 424/424/319
f 424/424/319 425/425/320 414/414/310
f 420/420/315 419/419/314 426/426/321
f 427/427/322 426/426/321 419/419/314
f 419/419/314 412/412/10 427/427/322
f 428/428/323 427/427/322 412/412/10
f 425/425/320 428/428/323 413/413/309
f 412/412/10 413/413/309 428/428/323
f 413/413/309 414/414/310 425/425/320
f 426/426/321 429/429/324 420/420/315
f 407/407/304 420/420/315 429/429/324
f 429/429/324 401/401/298 407/407/304
f 423/423/318 421/421/316 430/430/325
f 431/431/326 430/430/325 421/421/316
f 421/421/316 432/432/327 431/431/326
f 432/432/327 421/421/316 422/422/317
f 433/433/328 431/431/326 432/432/327
f 432/432/327 434/434/329 433/433/328
f 435/435/330 433/433/328 434/434/329
f 434/434/329 405/405/302 435/435/330
f 436/436/331 435/435/330 405/405/302
f 405/405/302 404/404/301 436/436/331
f 437/437/332 436/436/331 404/404/301
f 404/404/301 403/403/300 437/437/332
f 438/438/333 437/437/332 403/403/300
f 403/403/300 402/402/299 438/438/333
f 439/439/334 438/438/333 402/402/299
f 402/402/299 400/400/297 439/439/334
f 400/400/297 401/401/298 440/440/335
f 440/440/335 439/439/334 400/400/297
f 441/441/336 440/440/335 401/401/298
f 401/401/298 429/429/324 441/441/336
f 442/442/337 441/441/336 429/429/324
f 429/429/324 426/426/321 442/442/337
f 443/443/338 442/442/337 426/426/321
f 426/426/321 427/427/322 443/443/338
f 444/444/339 443/443/338 427/427/322
f 427/427/322 428/428/323 444/444/339
f 445/445/340 444/444/339 428/428/323
f 428/428/323 425/425/320 445/445/340
f 446/446/341 445/445/340 425/425/320
f 425/425/320 424/424/319 446/446/341
f 447/447/342 446/446/341 424/424/319
f 424/424/319 423/423/318 447/447/342
f 430/430/325 447/447/342 423/423/318
f 447/447/342 430/430/325 448/448/343
f 449/449/344 448/448/343 430/430/325
f 449/449/344 430/430/325 431/431/326
f 449/449/344 431/431/326 433/433/328
f 433/433/328 435/435/330 449/449/344
f 450/450/345 449/449/344 435/435/330
f 435/435/330 436/436/331 450/450/345
f 451/451/346 450/450/345 436/436/331
f 451/451/346 436/436/331 437/437/332
f 451/451/346 437/437/332 438/438/333
f 438/438/333 439/439/334 451/451/346
f 452/452/347 451/451/346 439/439/334
f 439/439/334 440/440/335 452/452/347
f 453/453/348 452/452/347 440/440/335
f 453/453/348 440/440/335 441/441/336
f 453/453/348 441/441/336 442/442/337
f 442/442/337 443/443/338 453/453/348
f 454/454/349 453/453/348 443/443/338
f 443/443/338 444/444/339 454/454/349
f 455/455/350 454/454/349 444/444/339
f 455/455/350 444/444/339 445/445/340
f 455/455/350 445/445/340 446/446/341
f 446/446/341 447/447/342 455/455/350
f 448/448/343 455/455/350 447/447/342
f 456/456/351 457/457/352 458/458/353
f 459/459/354 458/458/353 457/457/352
f 456/456/351 460/460/355 457/457/352
f 461/461/356 457/457/352 460/460/355
f 459/459/354 462/462/357 458/458/353
f 463/463/358 458/458/353 462/462/357
f 460/460/355 464/464/359 461/461/356
f 465/465/360 461/461/356 464/464/359
f 461/461/356 465/465/360 457/457/352
f 466/466/361 457/457/352 465/465/360
f 457/457/352 466/466/361 459/459/354
f 467/467/362 459/459/354 466/466/361
f 459/459/354 467/467/362 462/462/357
f 468/468/363 462/462/357 467/467/362
f 462/462/357 468/468/363 463/463/358
f 469/469/364 463/463/358 468/468/363
f 386/386/285 408/408/305 393/393/7
f 470/470/365 471/471/365 472/472/366
f 473/473/366 472/472/366 471/471/365
f 471/471/365 470/470/365 474/474/367
f 475/475/367 474/474/367 470/470/365
f 474/474/367 475/475/367 476/476/368
f 477/477/368 476/476/368 475/475/367
f 476/476/368 477/477/368 478/478/369
f 479/479/369 478/478/369 477/477/368
f 480/480/370 481/481/370 482/482/370
f 483/483/370 482/482/370 481/481/370
f 484/484/371 485/485/371 486/486/372
f 487/487/372 486/486/372 485/485/371
f 485/485/371 484/484/371 488/488/373
f 489/489/373 488/488/373 484/484/371
f 490/490/374 491/491/375 492/492/376
f 493/493/377 492/492/376 491/491/375
f 494/494/378 493/493/377 491/491/375
f 495/495/379 494/494/378 491/491/375
f 491/491/375 496/496/380 495/495/379
f 497/497/381 495/495/379 496/496/380
f 498/498/382 499/499/383 500/500/384
f 501/501/385 500/500/384 499/499/383
f 502/502/386 499/499/383 498/498/382
f 503/503/387 502/502/386 498/498/382
f 503/503/387 498/498/382 504/504/388
f 505/505/389 504/504/388 498/498/382
f 506/506/390 507/507/391 508/508/392
f 509/509/393 508/508/392 507/507/391
f 507/507/391 506/506/390 510/510/394
f 511/511/395 510/510/394 506/506/390
f 510/510/394 511/511/395 512/512/396
f 513/513/397 512/512/396 511/511/395
f 512/512/396 513/513/397 514/514/398
f 515/515/399 514/514/398 513/513/397
f 514/514/398 515/515/399 516/516/400
f 517/517/401 516/516/400 515/515/399
f 516/516/400 517/517/401 518/518/402
f 519/519/403 518/518/402 517/517/401
f 518/518/402 519/519/403 520/520/404
f 521/521/405 520/520/404 519/519/403
f 508/508/392 509/509/393 521/521/405
f 520/520/404 521/521/405 509/509/393
f 522/522/406 523/523/407 524/524/408
f 525/525/409 524/524/408 523/523/407
f 524/524/408 525/525/409 526/526/410
f 527/527/411 526/526/410 525/525/409
f 526/526/410 527/527/411 528/528/412
f 529/529/413 528/528/412 527/527/411
f 528/528/412 529/529/413 530/530/414
f 531/531/415 530/530/414 529/529/413
f 530/530/414 531/531/415 532/532/416
f 533/533/416 532/532/416 531/531/415
f 532/532/416 533/533/416 534/534/417
f 535/535/418 534/534/417 533/533/416
f 534/534/417 535/535/418 536/536/419
f 537/537/419 536/536/419 535/535/418
f 536/536/419 537/537/419 522/522/406
f 523/523/407 522/522/406 537/537/419
f 538/538/420 539/539/421 540/540/422
f 541/541/423 540/540/422 539/539/421
f 540/540/422 542/542/424 538/538/420
f 543/543/425 538/538/420 542/542/424
f 542/542/424 544/544/426 543/543/425
f 545/545/427 543/543/425 544/544/426
f 544/544/426 546/546/428 545/545/427
f 547/547/429 545/545/427 546/546/428
f 546/546/428 548/548/430 547/547/429
f 549/549/431 547/547/429 548/548/430
f 548/548/430 550/550/432 549/549/431
f 551/551/433 549/549/431 550/550/432
f 550/550/432 552/552/434 551/551/433
f 553/553/435 551/551/433 552/552/434
f 539/539/421 553/553/435 541/541/423
f 552/552/434 541/541/423 553/553/435
f 538/538/420 554/554/23 539/539/421
f 543/543/425 554/554/23 538/538/420
f 545/545/427 554/554/23 543/543/425
f 547/547/429 554/554/23 545/545/427
f 549/549/431 554/554/23 547/547/429
f 551/551/433 554/554/23 549/549/431
f 553/553/435 554/554/23 551/551/433
f 539/539/421 554/554/23 553/553/435
f 555/555/436 556/556/437 557/557/438
f 558/558/439 557/557/438 556/556/437
f 557/557/438 559/559/440 555/555/436
f 560/560/441 555/555/436 559/559/440
f 559/559/440 561/561/442 560/560/441
f 562/562/443 560/560/441 561/561/442
f 561/561/442 563/563/444 562/562/443
f 564/564/445 562/562/443 563/563/444
f 563/563/444 565/565/446 564/564/445
f 566/566/447 564/564/445 565/565/446
f 565/565/446 567/567/448 566/566/447
f 568/568/449 566/566/447 567/567/448
f 567/567/448 569/569/450 568/568/449
f 570/570/451 568/568/449 569/569/450
f 556/556/437 570/570/451 558/558/439
f 569/569/450 558/558/439 570/570/451
f 568/568/449 571/571/23 566/566/447
f 570/570/451 571/571/23 568/568/449
f 556/556/437 571/571/23 570/570/451
f 555/555/436 571/571/23 556/556/437
f 560/560/441 571/571/23 555/555/436
f 562/562/443 571/571/23 560/560/441
f 564/564/445 571/571/23 562/562/443
f 566/566/447 571/571/23 564/564/445
f 572/572/452 573/573/453 574/574/454
f 575/575/455 574/574/454 573/573/453
f 572/572/452 574/574/454 576/576/456
f 577/577/457 576/576/456 574/574/454
f 576/576/456 577/577/457 578/578/458
f 579/579/459 578/578/458 577/577/457
f 579/579/459 580/580/460 578/578/458
f 581/581/461 578/578/458 580/580/460
f 581/581/461 580/580/460 582/582/462
f 583/583/463 582/582/462 580/580/460
f 582/582/462 583/583/463 573/573/453
f 575/575/455 573/573/453 583/583/463
f 575/575/455 584/584/464 574/574/454
f 575/575/455 583/583/463 584/584/464
f 585/585/465 574/574/454 584/584/464
f 577/577/457 574/574/454 586/586/466
f 585/585/465 586/586/466 574/574/454
f 577/577/457 586/586/466 579/579/459
f 587/587/467 579/579/459 586/586/466
f 580/580/460 579/579/459 588/588/468
f 587/587/467 588/588/468 579/579/459
f 580/580/460 588/588/468 583/583/463
f 589/589/469 583/583/463 588/588/468
f 589/589/469 584/584/464 583/583/463
f 585/585/465 584/584/464 590/590/470
f 585/585/465 590/590/470 586/586/466
f 591/591/471 590/590/470 584/584/464
f 592/592/472 586/586/466 590/590/470
f 592/592/472 593/593/473 586/586/466
f 587/587/467 586/586/466 593/593/473
f 587/587/467 593/593/473 588/588/468
f 594/594/474 588/588/468 593/593/473
f 588/588/468 594/594/474 589/589/469
f 595/595/475 589/589/469 594/594/474
f 589/589/469 595/595/475 584/584/464
f 591/591/471 584/584/464 595/595/475
f 596/596/476 597/597/477 598/598/478
f 599/599/479 598/598/478 597/597/477
f 598/598/478 599/599/479 600/600/480
f 601/601/481 600/600/480 599/599/479
f 600/600/480 601/601/481 602/602/482
f 603/603/483 602/602/482 601/601/481
f 602/602/482 603/603/483 604/604/484
f 605/605/485 604/604/484 603/603/483
f 604/604/484 605/605/485 606/606/486
f 607/607/487 606/606/486 605/605/485
f 606/606/486 607/607/487 596/596/476
f 597/597/477 596/596/476 607/607/487
f 597/597/477 608/608/488 599/599/479
f 609/609/489 599/599/479 608/608/488
f 599/599/479 609/609/489 601/601/481
f 610/610/490 601/601/481 609/609/489
f 601/601/481 610/610/490 603/603/483
f 611/611/491 603/603/483 610/610/490
f 603/603/483 611/611/491 605/605/485
f 612/612/492 605/605/485 611/611/491
f 605/605/485 612/612/492 607/607/487
f 613/613/493 607/607/487 612/612/492
f 607/607/487 613/613/493 597/597/477
f 608/608/488 597/597/477 613/613/493
f 606/606/486 614/614/494 604/604/484
f 614/614/494 606/606/486 615/615/495
f 596/596/476 615/615/495 606/606/486
f 615/615/495 596/596/476 616/616/496
f 598/598/478 616/616/496 596/596/476
f 617/617/497 604/604/484 614/614/494
f 616/616/496 598/598/478 618/618/498
f 600/600/480 618/618/498 598/598/478
f 618/618/498 600/600/480 619/619/499
f 619/619/499 602/602/482 617/617/497
f 602/602/482 619/619/499 600/600/480
f 604/604/484 617/617/497 602/602/482
f 612/612/492 620/620/500 613/613/493
f 611/611/491 620/620/500 612/612/492
f 613/613/493 620/620/500 608/608/488
f 608/608/488 620/620/500 609/609/489
f 609/609/489 620/620/500 610/610/490
f 610/610/490 620/620/500 611/611/491
f 621/621/501 622/622/502 623/623/503
f 624/624/504 623/623/503 622/622/502
f 622/622/502 625/625/505 624/624/504
f 626/626/506 624/624/504 625/625/505
f 626/626/506 625/625/505 627/627/507
f 623/623/503 627/627/507 621/621/501
f 628/628/508 627/627/507 625/625/505
f 628/628/508 621/621/501 627/627/507
f 622/622/502 621/621/501 629/629/509
f 630/630/510 629/629/509 621/621/501
f 621/621/501 628/628/508 630/630/510
f 629/629/509 631/631/511 622/622/502
f 625/625/505 622/622/502 631/631/511
f 629/629/509 630/630/510 631/631/511
f 631/631/511 632/632/512 625/625/505
f 628/628/508 625/625/505 632/632/512
f 632/632/512 630/630/510 628/628/508
f 631/631/511 630/630/510 632/632/512
f 406/406/303 434/434/329 422/422/317
f 432/432/327 422/422/317 434/434/329
f 434/434/329 406/406/303 405/405/302
f 633/633/513 634/634/514 635/635/515
f 636/636/516 635/635/515 634/634/514
f 635/635/515 636/636/516 637/637/517
f 638/638/518 637/637/517 636/636/516
f 637/637/517 638/638/518 639/639/519
f 640/640/520 639/639/519 638/638/518
f 381/381/280 364/364/263 399/399/296
f 417/417/312 385/385/284 380/380/279
f 641/641/23 642/642/23 643/643/23
f 644/644/23 642/642/23 641/641/23
f 645/645/23 642/642/23 644/644/23
f 646/646/23 642/642/23 645/645/23
f 647/647/23 642/642/23 646/646/23
f 648/648/23 642/642/23 647/647/23
f 649/649/23 642/642/23 648/648/23
f 650/650/23 642/642/23 649/649/23
f 651/651/23 642/642/23 650/650/23
f 652/652/23 642/642/23 651/651/23
f 653/653/23 642/642/23 652/652/23
f 643/643/23 642/642/23 653/653/23
f 654/654/72 655/655/72 656/656/72
f 657/657/72 655/655/72 654/654/72
f 658/658/72 655/655/72 657/657/72
f 659/659/72 655/655/72 658/658/72
f 660/660/72 655/655/72 659/659/72
f 661/661/72 655/655/72 660/660/72
f 662/662/72 655/655/72 661/661/72
f 663/663/72 655/655/72 662/662/72
f 664/664/72 655/655/72 663/663/72
f 665/665/72 655/655/72 664/664/72
f 666/666/72 655/655/72 665/665/72
f 656/656/72 655/655/72 666/666/72
