# Blender 5.1.2
# www.blender.org
mtllib soldier.mtl
o Bazooka_Soldier.001
v -0.660900 6.433100 -0.315400
v -0.660900 6.433100 0.293100
v -0.707500 6.534500 -0.011200
v -0.610500 6.188300 -0.484400
v -0.930500 6.424200 -0.311600
v -0.930700 6.189100 -0.439400
v -0.689400 5.943500 -0.315400
v -0.930800 5.954100 -0.311400
v -0.764300 5.842100 -0.012400
v -0.930800 5.856800 -0.002500
v -0.689400 5.943500 0.293100
v -0.930800 5.954200 0.306400
v -0.576600 6.192400 0.474700
v -0.930700 6.189400 0.434300
v -0.930500 6.424400 0.306300
v -0.930500 6.521700 -0.002700
v -3.830200 6.650200 -0.344801
v -2.459700 6.186000 -0.518400
v -3.728100 6.075500 -0.510300
v -2.459500 6.544000 -0.337301
v -3.785100 6.657800 0.380599
v -2.484000 6.544200 0.321399
v -3.704400 6.294700 0.770000
v -2.489200 6.186200 0.502500
v -3.744200 5.746200 0.602700
v -2.484300 5.817500 0.321600
v -2.459800 5.817300 -0.337200
v -2.184300 5.837900 0.322600
v -2.184100 6.174100 0.504200
v -2.184000 6.505400 0.322500
v -2.191500 6.173900 -0.506400
v -2.191400 6.514900 -0.324401
v -2.191700 5.828200 -0.324200
v -3.744200 5.719600 -0.322200
v -4.077500 6.575800 -0.303401
v -4.006200 6.160800 -0.498300
v -4.079800 6.580900 0.386299
v -3.961700 6.223200 0.800499
v -3.961900 5.902100 0.703500
v -3.965500 5.902400 0.130000
v -3.999400 5.859200 -0.395800
v -4.516200 6.016700 1.089000
v -4.515600 5.723100 0.893100
v -4.991100 5.933800 1.102200
v -4.951100 5.710100 0.957300
v -5.057500 5.859500 0.911200
v -4.973300 5.844600 0.701900
v -4.555300 5.898000 0.547100
v -4.642700 6.211600 0.742500
v -4.556200 6.161800 0.743600
v -4.653500 6.017600 0.611000
v -5.117300 6.208300 0.796600
v -5.117600 6.006100 0.687600
v -5.852200 6.225700 0.537300
v -5.813600 6.041100 0.468400
v -5.978300 6.219100 0.065200
v -5.890300 6.027900 0.064700
v -5.852100 6.225700 -0.407800
v -5.813600 6.041200 -0.338900
v -5.117300 6.208400 -0.679000
v -5.117500 6.006200 -0.540401
v -4.654900 6.212000 -0.647000
v -4.655200 6.016600 -0.516600
v -4.654600 6.633800 -0.379001
v -4.654700 6.633800 0.481200
v -5.117000 6.615700 0.512000
v -5.813200 6.410300 0.468400
v -5.889700 6.486700 0.064700
v -5.813200 6.410300 -0.338900
v -5.117000 6.615700 -0.394401
v -5.013600 6.068200 0.847100
v 0.497400 10.630424 -1.084792
v 0.000000 10.598325 -1.214192
v 0.861600 10.718225 -0.731392
v 0.994900 10.838224 -0.248692
v 0.861600 10.958125 0.234108
v 0.497400 11.045924 0.587508
v 0.000000 11.078025 0.716908
v -0.497400 10.630424 -1.084792
v -0.861600 10.718225 -0.731392
v -0.994900 10.838224 -0.248692
v -0.861600 10.958125 0.234108
v -0.497400 11.045924 0.587508
v -0.660900 6.433100 -0.315400
v -0.660900 6.433100 0.293100
v -0.707500 6.534500 -0.011200
v 0.660900 6.433100 -0.315300
v 0.660900 6.433000 0.293200
v 0.707500 6.534500 -0.011100
v -0.452900 6.470800 0.322100
v 0.000000 6.470800 0.576400
v 0.000000 5.718800 0.891400
v 0.661900 5.897300 0.542200
v 0.805000 5.718800 0.017200
v 0.661900 5.897300 -0.546100
v -0.661900 5.897300 0.542200
v -0.805000 5.718800 0.017200
v -0.661900 5.897300 -0.546100
v 0.000000 5.718800 -0.857600
v 0.000000 6.470800 -0.542600
v 0.452900 6.470800 -0.287600
v 0.452900 6.470800 0.322100
v -0.452900 6.470800 -0.287600
v 0.000000 4.149800 1.068900
v 0.795000 4.149200 -0.618000
v 1.105900 4.149200 0.056800
v 0.000000 4.149200 -1.021100
v 0.795000 4.149200 0.730800
v -0.795000 4.149200 -0.618000
v -0.795000 4.149200 0.730800
v -1.105900 4.149200 0.056800
v 0.400500 6.617500 0.017200
v 0.275300 6.749300 0.142699
v 0.000000 6.749300 0.264199
v -0.275300 6.749300 0.142699
v 0.000000 6.749300 -0.221501
v -0.275300 6.749300 -0.100001
v 0.000000 5.193300 -1.048200
v -0.785700 5.193300 -0.720800
v 0.000000 4.337700 -1.212800
v -0.961800 4.337700 -0.823700
v 0.785700 5.193300 -0.720800
v 1.022700 5.193300 0.011600
v 0.762200 5.193300 0.759100
v 0.000000 5.193300 1.102600
v -0.762200 5.193300 0.759100
v -1.022700 5.193300 0.011600
v 0.961800 4.337700 -0.823700
v 1.296700 4.337700 0.055700
v 0.906100 4.337700 0.935100
v 0.000000 4.337700 1.333100
v -0.906100 4.337700 0.935100
v -1.296700 4.337700 0.055700
v -0.400500 6.617500 0.017200
v 0.275300 6.749300 -0.100001
v -0.610500 6.188300 -0.484400
v -0.689400 5.943500 -0.315400
v -0.764300 5.842100 -0.012400
v -0.689400 5.943500 0.293100
v -0.576600 6.192400 0.474700
v 0.610500 6.188400 -0.484400
v 0.689400 5.943500 -0.315400
v 0.857300 5.753700 -0.002800
v 0.764300 5.842100 -0.011100
v 0.908600 5.836300 0.306200
v 0.689400 5.943500 0.293100
v 0.576600 6.192300 0.474700
v 0.797500 1.268300 0.422300
v 0.207000 1.493000 0.003100
v 0.439000 1.238600 -0.000000
v 0.786400 1.532800 0.682200
v 1.156000 1.298000 -0.000000
v 1.391800 1.526800 0.003100
v 0.312900 1.903600 0.003100
v 0.775300 1.946800 0.568300
v 1.288700 1.903400 0.003100
v 0.797500 1.268300 -0.422300
v 0.786800 1.496000 -0.682200
v 0.776100 1.787800 -0.607100
v 0.854900 0.710200 -0.550200
v 0.312500 0.742600 -0.173200
v 0.838600 0.435400 -0.755400
v 0.297000 0.438800 -0.362900
v 0.819800 0.020900 -0.726000
v 0.299800 0.025200 -0.361100
v 1.342500 0.013100 -0.361400
v 0.116400 0.022700 0.601600
v 1.568900 0.005900 0.594600
v 0.025000 0.024400 1.274600
v 1.699600 0.004800 1.266400
v 0.222300 0.023200 1.814600
v 1.480900 0.008600 1.808600
v 0.831600 0.016500 1.983300
v 1.551200 0.465800 1.895900
v 0.855900 0.503400 2.076500
v 1.387400 0.838300 1.712300
v 0.874300 0.873000 1.865200
v 1.151200 1.041300 1.318600
v 0.882400 1.067900 1.421600
v 0.643500 1.068000 1.320900
v 0.397300 0.890300 1.717000
v 0.201800 0.536700 1.902300
v 0.025400 0.490500 1.322800
v 0.203800 0.796900 1.214100
v 0.504700 0.954700 0.881000
v 1.277800 0.914100 0.877500
v 1.570300 0.725100 1.207600
v 1.769900 0.396300 1.314400
v 0.110400 0.408200 0.575400
v 0.266600 0.716000 0.671400
v 0.486000 0.862800 0.417200
v 0.867200 0.891500 0.572700
v 1.247100 0.822800 0.413500
v 1.483700 0.652100 0.665700
v 1.314100 0.694500 -0.173400
v 1.609700 0.329400 0.568300
v 1.381200 0.381800 -0.363200
v -0.775300 1.946800 0.568300
v -0.207000 1.493000 0.003100
v -0.312900 1.903600 0.003100
v -0.786400 1.532800 0.682200
v -1.288700 1.903400 0.003100
v -1.391800 1.526800 0.003100
v -0.439000 1.238600 -0.000000
v -0.797500 1.268300 0.422300
v -1.156000 1.298000 -0.000000
v -0.797500 1.268300 -0.422300
v -0.786800 1.496000 -0.682200
v -0.776100 1.787800 -0.607100
v -0.854900 0.710200 -0.550200
v -0.312500 0.742600 -0.173200
v -0.486000 0.862800 0.417200
v -0.266600 0.716000 0.671400
v -0.504700 0.954700 0.881000
v -0.203800 0.796900 1.214100
v -0.643500 1.068000 1.320900
v -0.397300 0.890300 1.717000
v -0.882400 1.067900 1.421600
v -0.874300 0.873000 1.865200
v -1.151200 1.041300 1.318600
v -1.387400 0.838300 1.712300
v -1.277800 0.914100 0.877500
v -1.570300 0.725100 1.207600
v -1.483700 0.652100 0.665700
v -1.769900 0.396300 1.314400
v -1.609700 0.329400 0.568300
v -1.699600 0.004800 1.266400
v -1.568900 0.005900 0.594600
v -0.025000 0.024400 1.274600
v -0.116400 0.022700 0.601600
v -0.025400 0.490500 1.322800
v -0.110400 0.408200 0.575400
v -0.867200 0.891500 0.572700
v -0.297000 0.438800 -0.362900
v -0.299800 0.025200 -0.361100
v -1.342500 0.013100 -0.361400
v -1.381200 0.381800 -0.363200
v -1.314100 0.694500 -0.173400
v -1.247100 0.822800 0.413500
v -0.838600 0.435400 -0.755400
v -0.819800 0.020900 -0.726000
v -0.201800 0.536700 1.902300
v -0.855900 0.503400 2.076500
v -1.551200 0.465800 1.895900
v -0.222300 0.023200 1.814600
v -0.831600 0.016500 1.983300
v -1.480900 0.008600 1.808600
v 0.000000 3.501800 0.589300
v -0.314600 3.501800 0.598400
v 0.000000 3.304400 0.232400
v -0.631600 3.779600 0.844600
v 0.000000 3.779600 0.974100
v 1.130000 3.470600 0.011400
v 0.637100 3.779600 -0.773900
v 0.702200 3.305200 -0.573400
v 0.313600 3.504100 -0.484400
v 0.256300 3.219100 -0.236200
v 0.226800 3.325000 -0.227500
v 0.000000 3.779600 -0.903400
v 0.000000 3.501800 -0.475300
v 0.000000 3.330600 -0.155900
v 0.256200 3.217400 0.259100
v 0.356200 2.646500 0.003600
v 0.226800 3.325000 0.250300
v 0.698400 3.306000 0.568600
v 0.631600 3.779600 0.844600
v 0.314600 3.501800 0.598400
v 0.757900 2.168000 -0.517500
v 1.178600 2.675700 0.003600
v 1.254300 2.073400 0.003200
v 0.749800 2.661100 -0.499500
v 0.326500 2.072200 0.003200
v 0.749800 2.661100 0.494700
v 0.765200 2.047500 0.536100
v -0.637100 3.779600 -0.773900
v -0.226800 3.325000 -0.227500
v -0.226800 3.325000 0.250300
v -0.313600 3.504100 -0.484400
v -1.130000 3.470600 0.011900
v -0.698400 3.306000 0.568600
v -0.256200 3.217400 0.259100
v -0.256300 3.219100 -0.236200
v -0.702200 3.305200 -0.573400
v -0.356200 2.646500 0.003600
v -0.749800 2.661100 -0.499500
v -0.326900 2.072700 0.003300
v -0.757900 2.170700 -0.517300
v -1.178600 2.675700 0.003600
v -1.253200 2.073900 0.003300
v -0.765200 2.050500 0.535800
v -0.749800 2.661100 0.494700
v -1.164208 2.737980 -0.375658
v -1.379907 3.630280 -0.375658
v -1.164208 3.630280 -0.375658
v -1.379907 2.737980 -0.375658
v -1.128608 2.722180 0.002242
v -1.415607 2.722180 0.002242
v -1.164208 2.737980 0.380142
v -1.379907 2.737980 0.380142
v -1.164208 3.630280 0.380142
v -1.379907 3.630280 0.380142
v -1.128608 3.645980 0.002242
v -1.415607 3.645980 0.002242
v -1.207900 3.203400 0.005300
v -0.700800 3.311900 -0.654200
v -0.724500 3.050200 -0.636400
v -1.189100 3.500700 0.013900
v -0.724500 3.050200 0.631600
v -0.696500 3.312800 0.649300
v -0.234700 2.960800 0.137900
v -0.191800 3.211700 0.296100
v -0.234700 2.956100 -0.115900
v -0.191800 3.213600 -0.269200
v 0.000000 9.970224 -1.691192
v 0.804600 10.022224 -1.481992
v 1.393700 10.164225 -0.910292
v 1.609300 10.358225 -0.129392
v 1.393700 10.552224 0.651508
v 0.804600 10.694224 1.223108
v 0.000000 10.746224 1.432408
v 0.000000 9.182224 -1.782592
v 0.939900 9.242925 -1.538192
v 1.627900 9.408825 -0.870492
v 1.879800 9.635425 0.041708
v 1.627900 9.862024 0.953908
v 0.939900 10.027925 1.621608
v 0.000000 10.088625 1.866008
v 0.000000 8.631124 -1.647392
v 0.944000 8.692124 -1.401892
v 1.635100 8.858725 -0.731192
v 1.888100 9.086325 0.185008
v 1.635100 9.313925 1.101208
v 0.944000 9.480524 1.771908
v 0.000000 9.541525 2.017408
v 0.000000 8.511925 -1.407592
v 0.842800 8.566324 -1.188392
v 1.459800 8.715124 -0.589692
v 1.685600 8.918324 0.228308
v 1.459800 9.121525 1.046208
v 0.842800 9.270225 1.645008
v 0.000000 9.324724 1.864208
v -0.804600 10.022224 -1.481992
v -0.939900 9.242925 -1.538192
v -0.944000 8.692124 -1.401892
v -0.842800 8.566324 -1.188392
v 0.000000 9.132925 0.121008
v -1.459800 8.715124 -0.589692
v -1.685600 8.918324 0.228308
v -1.635100 8.858725 -0.731192
v -1.888100 9.086325 0.185008
v -1.627900 9.408825 -0.870492
v -1.879800 9.635425 0.041708
v -1.393700 10.164225 -0.910292
v -1.609300 10.358225 -0.129392
v -1.393700 10.552224 0.651508
v -1.627900 9.862024 0.953908
v -1.635100 9.313925 1.101208
v -1.459800 9.121525 1.046208
v -0.842800 9.270225 1.645008
v -0.944000 9.480524 1.771908
v -0.939900 10.027925 1.621608
v -0.804600 10.694224 1.223108
v -1.228000 8.504600 1.080699
v -1.193000 9.244300 1.017799
v -1.319900 8.856300 0.850699
v -0.874100 9.052900 1.430699
v -1.064400 8.251100 1.495299
v 0.000000 8.389900 1.812499
v -0.816300 7.956000 2.068399
v 0.000000 7.990600 2.278199
v -0.921900 7.502300 2.238899
v 0.001600 7.519100 2.531500
v -0.841700 7.438400 2.220000
v 0.001600 7.453800 2.487099
v -1.559000 7.801100 0.643499
v -1.500700 8.110400 0.333299
v -1.442700 9.544000 0.261699
v -0.915000 9.809300 1.304499
v -0.957700 9.362000 1.413699
v 0.000000 9.895600 1.559299
v 0.000000 9.456500 1.707699
v 0.915000 9.809300 1.304499
v 0.957700 9.362000 1.413699
v 1.193000 9.244300 1.017799
v 0.874100 9.052900 1.430699
v 0.000000 8.856100 1.740799
v 1.559000 7.801100 0.643499
v 1.228000 8.504600 1.080699
v 1.064400 8.251100 1.495299
v 1.500700 8.110400 0.333299
v 1.667900 7.390100 0.386699
v 1.301100 7.390100 -0.696701
v 1.442800 6.883700 0.590699
v 1.132800 6.874700 -0.578301
v 0.881400 6.539000 0.849200
v 0.001600 6.429700 0.338300
v 0.001600 6.443900 0.950500
v -0.881400 6.539000 0.849200
v 0.841700 7.438400 2.220000
v 0.921900 7.502300 2.238899
v 1.392300 7.398700 1.508299
v 1.474900 7.466600 1.506099
v 1.497400 7.354200 0.649199
v 1.640000 7.384300 0.513199
v 1.256600 6.925600 1.366099
v 1.331100 6.865500 1.357599
v 0.651400 6.715200 1.978199
v 0.713500 6.662200 1.966100
v 0.001600 6.654100 2.179199
v 0.001600 6.595200 2.186199
v -0.651400 6.715200 1.978199
v -0.713500 6.662200 1.966100
v -1.256600 6.925600 1.366099
v -1.331100 6.865500 1.357599
v -1.497400 7.354200 0.649199
v -1.640000 7.384300 0.513199
v -1.392300 7.398700 1.508299
v -1.474900 7.466600 1.506099
v -1.324700 7.891400 1.486299
v -1.442800 6.883700 0.590699
v -1.667900 7.390100 0.386699
v -1.301100 7.390100 -0.696701
v -1.108300 9.291500 -0.706301
v 0.001600 7.390100 -1.293901
v 0.000000 9.203200 -1.242701
v 1.108300 9.291500 -0.706301
v 1.442700 9.544000 0.261699
v 1.319900 8.856300 0.850699
v 0.001600 6.770700 -1.012000
v -1.132800 6.874700 -0.578301
v 0.816300 7.956000 2.068399
v 1.324700 7.891400 1.486299
v 0.001600 6.926100 1.367200
v 0.001500 7.355600 0.649199
v -2.547500 10.067220 1.322244
v -2.585800 10.170998 1.107791
v -2.681000 9.948621 1.083637
v -2.169600 9.989701 1.291530
v -2.242700 9.753192 1.516021
v -1.237700 9.603095 1.521663
v -1.281100 9.373109 1.781047
v 0.067300 9.365509 1.583492
v 0.067100 9.103683 1.836584
v 1.373000 9.599797 1.521778
v 1.415800 9.369610 1.781170
v 2.305800 9.984005 1.291729
v 2.378500 9.747294 1.516227
v 2.722500 10.164301 1.108025
v 2.684000 10.060525 1.322478
v 2.817200 9.941524 1.083885
v 2.400400 9.166681 1.296757
v 1.564000 8.645690 1.804648
v 1.884000 8.377639 1.501218
v 1.459600 8.133491 1.572883
v 0.066300 8.532370 1.857635
v -1.328000 8.137388 1.572746
v -1.751800 8.382335 1.501054
v -2.266200 9.172678 1.296547
v -1.431200 8.649888 1.804502
v 0.687700 11.583425 -0.852092
v 0.397100 11.513325 -1.134192
v 0.000000 11.487625 -1.237392
v -0.397100 11.513325 -1.134192
v -0.687700 11.583425 -0.852092
v -0.794100 11.679125 -0.466692
v -0.687700 11.774824 -0.081392
v -0.397100 11.844924 0.200708
v 0.000000 11.870524 0.303908
v 0.397100 11.844924 0.200708
v 0.687700 11.774824 -0.081392
v 0.794100 11.679125 -0.466692
v 0.531900 11.792524 -0.810192
v 0.307100 11.718625 -1.028592
v 0.000000 11.698825 -1.108492
v -0.307100 11.718625 -1.028592
v -0.531900 11.792524 -0.810192
v -0.614200 11.866625 -0.512092
v -0.531900 11.940624 -0.214092
v -0.307100 11.994824 0.004108
v 0.000000 11.998824 0.091808
v 0.307100 11.994824 0.004108
v 0.531900 11.940624 -0.214092
v 0.614200 11.866625 -0.512092
v 0.000000 11.996224 -0.544292
v 0.587318 6.485040 0.257023
v 0.655340 6.350690 -0.332549
v 0.667744 6.517851 -0.055141
v 0.518069 6.282468 0.469621
v 0.855643 6.481924 0.284770
v 0.841293 6.280915 0.460822
v 0.615094 6.008341 0.368857
v 0.855439 6.023525 0.388998
v 0.723283 5.844352 0.105981
v 0.889862 5.860453 0.111313
v 0.683116 5.873991 -0.220715
v 0.924502 5.887218 -0.209607
v 0.591601 6.073903 -0.464260
v 0.938962 6.088305 -0.385767
v 0.924716 6.345694 -0.313954
v 0.890283 6.508788 -0.036173
v 3.733707 6.778461 0.583521
v 2.351874 6.331639 0.705085
v 3.613106 6.252226 0.860337
v 2.372319 6.640712 0.450099
v 3.769989 6.624641 -0.125929
v 2.470300 6.496055 -0.185480
v 3.732920 6.182715 -0.431403
v 2.495313 6.107132 -0.280881
v 3.753157 5.685792 -0.143160
v 2.469810 5.787462 -0.024271
v 2.371819 5.932140 0.611405
v 2.171825 5.800008 -0.062542
v 2.192302 6.087715 -0.313171
v 2.172260 6.450858 -0.210702
v 2.086683 6.310824 0.666846
v 2.107309 6.603124 0.414774
v 2.106864 5.933532 0.567101
v 3.649735 5.864064 0.758878
v 3.984001 6.702650 0.586946
v 3.890898 6.339350 0.860149
v 4.063392 6.555400 -0.082182
v 3.991936 6.112375 -0.416969
v 3.980934 5.820714 -0.251661
v 3.920402 5.947713 0.304327
v 3.895263 6.022488 0.827067
v 4.574981 5.860499 -0.590064
v 4.552158 5.617468 -0.335127
v 5.048287 5.788031 -0.532566
v 4.992090 5.600958 -0.346869
v 5.092837 5.759332 -0.323755
v 4.985751 5.789017 -0.126855
v 4.553126 5.865337 -0.034391
v 4.662171 6.130040 -0.283803
v 4.576281 6.079187 -0.283259
v 4.657988 5.970174 -0.112134
v 5.139840 6.126146 -0.283641
v 5.127728 5.953068 -0.133098
v 5.841166 6.217811 0.044012
v 5.794900 6.052116 0.147544
v 5.913694 6.318605 0.516668
v 5.825976 6.130199 0.549996
v 5.735416 6.426476 0.959703
v 5.704655 6.230456 0.929710
v 4.974887 6.452040 1.146037
v 4.990354 6.224291 1.056671
v 4.518967 6.437505 1.063720
v 4.533624 6.218201 0.980799
v 4.549098 6.789596 0.710359
v 4.645356 6.599676 -0.123073
v 5.108181 6.586204 -0.098393
v 5.794914 6.412088 0.065516
v 5.825891 6.577530 0.448050
v 5.704668 6.590331 0.847704
v 5.006857 6.786326 0.779813
v 5.042279 5.975932 -0.312788
vn -0.3228 0.3738 -0.8695
vn -0.0057 0.6923 -0.7216
vn -0.0528 0.8346 -0.5483
vn -0.0236 -0.1889 -0.9817
vn -0.7410 -0.2959 -0.6028
vn -0.0063 -0.8170 -0.5766
vn -0.8397 -0.5415 -0.0411
vn 0.0031 -0.9982 0.0600
vn -0.6027 -0.5922 0.5348
vn 0.0175 -0.6976 0.7163
vn -0.3687 0.2424 0.8974
vn -0.0048 0.1997 0.9798
vn -0.1391 0.7658 0.6279
vn 0.0165 0.8184 0.5744
vn -0.1298 0.9914 -0.0162
vn -0.0031 0.9985 -0.0540
vn -0.1410 0.8009 -0.5820
vn 0.0274 -0.0326 -0.9991
vn -0.0484 -0.0574 -0.9972
vn 0.0907 0.8492 -0.5202
vn -0.0515 0.9291 0.3662
vn 0.1336 0.8751 0.4652
vn 0.1530 0.1937 0.9691
vn 0.1119 -0.0437 0.9928
vn -0.0813 -0.8527 0.5161
vn 0.1096 -0.8442 0.5247
vn 0.0580 -0.8956 -0.4410
vn 0.0453 -0.8717 0.4880
vn 0.0325 -0.1054 0.9939
vn 0.0548 0.7811 0.6220
vn 0.0597 0.0795 -0.9950
vn 0.0819 0.9200 -0.3833
vn 0.0624 -0.8297 -0.5547
vn -0.2013 -0.8313 -0.5182
vn 0.0146 0.7116 -0.7024
vn 0.1035 0.0681 -0.9923
vn -0.0648 0.9372 0.3428
vn 0.0238 0.4257 0.9046
vn 0.2253 -0.6521 0.7239
vn -0.3854 -0.9113 -0.1448
vn -0.1388 -0.7102 -0.6902
vn 0.2339 0.1546 0.9599
vn 0.1444 -0.9295 0.3395
vn -0.4617 0.1511 0.8741
vn -0.4084 -0.9122 0.0326
vn -0.9797 -0.2002 0.0084
vn -0.6586 -0.1051 -0.7451
vn -0.4527 -0.8272 -0.3329
vn -0.0323 0.0860 0.9958
vn -0.3846 0.8360 0.3913
vn -0.1166 -0.9315 0.3445
vn -0.0949 0.0071 0.9955
vn -0.1033 -0.8531 0.5114
vn -0.7432 -0.0302 0.6684
vn -0.5126 -0.7900 0.3364
vn -0.9993 -0.0378 -0.0075
vn -0.7739 -0.6289 -0.0747
vn -0.7387 0.0316 -0.6733
vn -0.3046 -0.8714 -0.3846
vn -0.1488 0.0318 -0.9884
vn -0.0275 -0.8849 -0.4650
vn 0.1286 -0.0789 -0.9885
vn -0.0722 -0.9305 -0.3592
vn 0.0710 0.8773 -0.4746
vn 0.0536 0.9219 0.3838
vn -0.1091 0.8561 0.5051
vn -0.4960 0.6186 0.6094
vn -0.6850 0.7270 0.0464
vn -0.6821 0.5568 -0.4741
vn -0.1612 0.8802 -0.4465
vn -0.7793 0.6004 -0.1792
vn 0.5455 0.8358 0.0614
vn 0.2801 0.8054 0.5225
vn 0.3017 0.9458 -0.1206
vn 0.4226 0.6947 0.5821
vn 0.4047 0.8732 0.2713
vn -0.0000 0.6254 0.7803
vn -0.0000 0.9372 0.3488
vn -0.4047 0.8732 0.2713
vn -0.0000 0.9742 -0.2256
vn -0.4774 0.8190 -0.3184
vn -0.0000 0.6523 -0.7579
vn -0.3292 0.7758 -0.5383
vn -0.0000 0.2797 -0.9601
vn -0.7763 0.3111 -0.5483
vn -0.0000 0.3339 -0.9426
vn -0.7037 0.2528 -0.6640
vn -0.0000 -0.1301 -0.9915
vn -0.6156 -0.5126 -0.5985
vn -0.0000 -0.4719 -0.8816
vn -0.7309 -0.3046 -0.6107
vn 0.7923 0.2888 -0.5375
vn 0.7189 0.2688 -0.6411
vn 0.9479 0.3164 -0.0370
vn 0.9501 0.3104 -0.0303
vn 0.8208 0.3377 0.4606
vn 0.6942 0.3015 0.6536
vn 0.0606 0.3612 0.9305
vn 0.0043 0.3150 0.9491
vn -0.7871 0.3318 0.5200
vn -0.7193 0.2898 0.6314
vn -0.9508 0.3074 0.0378
vn -0.9490 0.3106 0.0538
vn 0.7022 -0.3342 -0.6287
vn 0.9611 -0.2750 0.0271
vn 0.6661 -0.2949 0.6850
vn -0.0327 -0.3499 0.9362
vn -0.7019 -0.3155 0.6385
vn -0.9658 -0.2586 0.0176
vn 0.7156 -0.4125 -0.5636
vn 0.8834 -0.4638 0.0673
vn 0.6585 -0.4145 0.6282
vn -0.0420 -0.4348 0.8996
vn -0.6963 -0.4212 0.5811
vn -0.8721 -0.4870 -0.0484
vn -0.5458 0.8357 0.0611
vn 0.4774 0.8190 -0.3184
vn 0.3293 0.7758 -0.5382
vn 0.1960 0.7085 -0.6780
vn -0.1299 0.9914 -0.0163
vn -0.4225 0.6948 0.5820
vn -0.1391 0.7658 0.6278
vn -0.7167 -0.6916 0.0898
vn 0.5833 -0.8038 0.1166
vn 0.2346 -0.7533 -0.6144
vn -0.5361 -0.6413 0.5489
vn -0.3687 0.2425 0.8974
vn 0.3689 0.3552 0.8589
vn 0.6253 -0.3089 0.7167
vn 0.2924 0.2332 -0.9274
vn -0.6026 -0.5923 0.5348
vn -0.0795 -0.1426 0.9866
vn -0.8998 -0.4361 0.0078
vn -0.9974 0.0667 0.0285
vn -0.0365 -0.3078 0.9507
vn 0.9746 -0.2239 0.0071
vn 0.9945 -0.1047 0.0045
vn -0.9865 0.1638 0.0026
vn 0.1900 0.2801 0.9410
vn 0.9666 0.2562 -0.0033
vn -0.0022 -0.2828 -0.9592
vn -0.0387 -0.3458 -0.9375
vn 0.1892 0.2449 -0.9509
vn -0.0011 0.4721 -0.8816
vn -0.7817 0.4871 -0.3894
vn 0.0291 0.2798 -0.9596
vn -0.8718 0.1533 -0.4653
vn -0.2181 -0.4067 -0.8871
vn -0.5740 -0.7311 -0.3688
vn 0.4858 -0.7572 -0.4366
vn -0.7878 -0.6030 -0.1260
vn 0.7254 -0.6688 -0.1630
vn -0.6793 -0.7244 0.1173
vn 0.4809 -0.8755 0.0478
vn -0.3317 -0.8767 0.3484
vn 0.5467 -0.7060 0.4502
vn -0.0119 -0.4200 0.9075
vn 0.6703 0.1887 0.7177
vn 0.0118 0.2993 0.9541
vn 0.5201 0.7447 0.4183
vn 0.0364 0.8195 0.5719
vn 0.2206 0.9752 0.0166
vn 0.0435 0.9715 0.2329
vn -0.2117 0.9752 0.0648
vn -0.4995 0.7305 0.4657
vn -0.6872 0.1253 0.7155
vn -0.9617 0.2687 0.0549
vn -0.7262 0.6855 -0.0531
vn -0.2447 0.9515 -0.1867
vn 0.4212 0.8941 -0.1522
vn 0.8023 0.5961 -0.0321
vn 0.9963 0.0559 0.0653
vn -0.9447 0.2852 -0.1621
vn -0.7930 0.5971 -0.1211
vn -0.5823 0.8014 0.1367
vn -0.1149 0.9288 0.3522
vn 0.6704 0.7184 0.1858
vn 0.7784 0.6041 -0.1708
vn 0.8187 0.4364 -0.3733
vn 0.9509 0.2249 -0.2127
vn 0.8329 0.1862 -0.5212
vn 0.2462 0.2767 0.9289
vn 0.9604 -0.2777 0.0225
vn 0.9808 0.1592 -0.1129
vn -0.0323 -0.2938 0.9553
vn -0.9594 0.2554 0.1199
vn -0.9591 -0.2815 -0.0287
vn 0.9930 -0.1172 -0.0159
vn -0.0747 -0.1550 0.9851
vn -0.9941 0.0058 -0.1080
vn 0.1811 -0.4390 -0.8801
vn 0.0387 -0.3458 -0.9375
vn -0.1893 0.2445 -0.9510
vn -0.0386 0.4471 -0.8936
vn 0.7933 0.4961 -0.3529
vn 0.6493 0.7103 0.2718
vn 0.7290 0.6762 -0.1062
vn 0.2944 0.9402 -0.1712
vn 0.7262 0.6855 -0.0531
vn 0.1830 0.9814 -0.0578
vn 0.4799 0.7970 0.3666
vn -0.0156 0.9654 0.2602
vn -0.0306 0.7560 0.6539
vn -0.2537 0.9643 0.0765
vn -0.5201 0.7447 0.4183
vn -0.3756 0.9114 -0.1684
vn -0.7758 0.6309 0.0079
vn -0.8170 0.5458 -0.1860
vn -0.9851 0.1599 0.0637
vn -0.9741 0.0500 -0.2206
vn -0.7494 -0.6622 -0.0037
vn -0.4028 -0.9108 -0.0909
vn 0.5778 -0.8101 0.0997
vn 0.8801 -0.4537 -0.1401
vn 0.9617 0.2687 0.0549
vn 0.9543 0.2609 -0.1457
vn -0.1847 0.9186 0.3495
vn 0.8796 0.1301 -0.4575
vn 0.5231 -0.7306 -0.4388
vn -0.6829 -0.6364 -0.3587
vn -0.8245 0.1811 -0.5361
vn -0.7733 0.4824 -0.4115
vn -0.6441 0.7629 0.0556
vn 0.0809 0.3405 -0.9368
vn -0.2020 -0.4248 -0.8825
vn 0.6783 0.2595 0.6875
vn -0.0061 0.1721 0.9851
vn -0.6703 0.1887 0.7177
vn 0.4094 -0.6712 0.6180
vn -0.0647 -0.4850 0.8721
vn -0.4520 -0.8093 0.3752
vn -0.0230 -0.8109 0.5847
vn 0.2605 -0.7143 0.6496
vn 0.0075 -0.9670 0.2548
vn -0.3439 -0.4097 0.8449
vn -0.0002 -0.6063 0.7952
vn 0.9966 -0.0403 -0.0714
vn 0.3965 -0.3061 -0.8655
vn -0.1103 -0.3651 -0.9244
vn -0.2845 -0.6938 -0.6616
vn -0.8330 -0.3527 -0.4263
vn -0.7452 -0.6152 -0.2573
vn -0.0000 -0.6767 -0.7363
vn -0.0000 -0.8608 -0.5089
vn 0.0167 -0.9394 -0.3423
vn -0.8900 -0.2759 0.3630
vn -0.9735 -0.2285 0.0060
vn -0.3762 -0.8540 0.3594
vn 0.0113 -0.4085 0.9127
vn 0.3045 -0.3587 0.8824
vn -0.0708 -0.7954 0.6020
vn 0.1348 0.1399 -0.9810
vn 0.9965 0.0834 0.0034
vn 0.9868 0.1618 0.0007
vn -0.0028 0.0013 -1.0000
vn -0.9987 0.0514 0.0032
vn -0.0075 0.0070 0.9999
vn 0.1321 0.1687 0.9768
vn -0.2817 -0.3369 -0.8984
vn 0.5055 -0.8158 -0.2809
vn 0.6997 -0.6849 0.2034
vn 0.2845 -0.6938 -0.6616
vn -0.9956 -0.0511 0.0789
vn 0.0312 -0.4423 0.8963
vn 0.8226 -0.4052 0.3990
vn 0.8703 -0.3419 -0.3546
vn -0.0686 -0.3482 -0.9349
vn 0.9735 -0.2286 0.0060
vn 0.0028 0.0012 -1.0000
vn 0.9986 0.0518 0.0033
vn -0.1352 0.1408 -0.9808
vn -0.9966 0.0828 0.0033
vn -0.9865 0.1637 0.0010
vn -0.1325 0.1681 0.9768
vn 0.0076 0.0067 0.9999
vn 0.6316 -0.3176 -0.7072
vn -0.6316 0.3176 -0.7072
vn 0.3948 0.7914 -0.4667
vn -0.3948 -0.7913 -0.4669
vn 0.7058 -0.7083 0.0123
vn -0.7058 -0.7083 -0.0123
vn 0.3948 -0.7913 0.4668
vn -0.6316 -0.3176 0.7073
vn 0.6317 0.3176 0.7072
vn -0.3949 0.7914 0.4667
vn 0.7058 0.7083 -0.0123
vn -0.7058 0.7083 0.0124
vn -0.9692 0.0532 -0.2404
vn -0.1561 -0.1929 -0.9687
vn -0.0623 -0.0621 -0.9961
vn -0.9645 0.0577 0.2578
vn -0.4110 -0.0225 0.9113
vn 0.1459 -0.2820 0.9483
vn 0.7811 -0.3095 0.5423
vn 0.9012 -0.3299 0.2810
vn 0.8779 -0.2677 -0.3970
vn 0.8225 -0.3858 -0.4180
vn 0.4374 0.3399 -0.8325
vn -0.0000 0.4573 -0.8893
vn 0.0546 0.2423 -0.9687
vn 0.3927 0.3994 -0.8284
vn 0.7408 0.4178 -0.5259
vn 0.6948 0.4682 -0.5459
vn 0.8451 0.5224 -0.1137
vn 0.8115 0.5636 -0.1542
vn 0.7230 0.6255 0.2933
vn 0.7110 0.6601 0.2425
vn 0.4080 0.6997 0.5865
vn 0.4191 0.7318 0.5374
vn -0.0155 0.7254 0.6882
vn 0.0140 0.7592 0.6507
vn -0.0000 -0.0023 -1.0000
vn 0.4896 -0.0311 -0.8714
vn 0.8506 0.0555 -0.5228
vn 0.9836 0.1743 -0.0458
vn 0.8529 0.2936 0.4317
vn 0.4937 0.3813 0.7816
vn 0.0024 0.4139 0.9103
vn -0.0000 -0.5022 -0.8647
vn 0.4677 -0.5962 -0.6526
vn 0.7946 -0.5122 -0.3258
vn 0.9096 -0.3989 0.1161
vn 0.7809 -0.2862 0.5552
vn 0.4420 -0.2046 0.8734
vn -0.0163 -0.1763 0.9842
vn -0.0000 -0.9831 -0.1831
vn 0.2129 -0.9753 -0.0597
vn 0.3322 -0.9397 0.0811
vn 0.3634 -0.8942 0.2614
vn 0.2972 -0.8507 0.4335
vn 0.1502 -0.8212 0.5506
vn -0.0380 -0.8137 0.5800
vn -0.3573 0.3276 -0.8746
vn -0.3927 0.3994 -0.8284
vn -0.4896 -0.0312 -0.8714
vn -0.4677 -0.5962 -0.6526
vn -0.2129 -0.9753 -0.0597
vn -0.0000 -0.9700 0.2432
vn -0.2396 -0.9659 0.0978
vn -0.4182 -0.8815 0.2192
vn -0.7228 -0.6363 -0.2698
vn -0.9629 -0.2620 0.0652
vn -0.8594 0.0001 -0.5113
vn -0.9717 0.2293 -0.0568
vn -0.7456 0.3901 -0.5402
vn -0.7549 0.6365 -0.1581
vn -0.6896 0.4489 -0.5683
vn -0.8791 0.4464 -0.1671
vn -0.7668 0.6043 0.2166
vn -0.7110 0.6601 0.2425
vn -0.8529 0.2936 0.4317
vn -0.7809 -0.2862 0.5552
vn -0.2972 -0.8507 0.4335
vn -0.1406 -0.8725 0.4680
vn -0.4182 -0.3544 0.8364
vn -0.4963 0.3328 0.8018
vn -0.4326 0.6670 0.6066
vn -0.4415 0.7259 0.5275
vn -0.8899 0.1489 0.4312
vn -0.8698 0.0949 0.4842
vn -0.9290 0.0662 0.3640
vn -0.5552 0.0694 0.8288
vn -0.6947 0.4402 0.5688
vn -0.0000 0.5171 0.8560
vn -0.5084 0.5472 0.6649
vn 0.0001 0.5567 0.8307
vn -0.4996 -0.0195 0.8660
vn 0.0004 -0.2503 0.9682
vn -0.2858 -0.8301 0.4788
vn 0.0002 -0.8747 0.4846
vn -0.9411 0.2580 0.2185
vn -0.9906 0.1362 -0.0122
vn -0.9278 0.3571 0.1078
vn -0.5755 0.7356 0.3573
vn -0.5573 0.1162 0.8222
vn -0.0799 0.8799 0.4685
vn -0.0061 0.1667 0.9860
vn 0.4832 0.7841 0.3894
vn 0.5674 0.0578 0.8214
vn 0.8698 0.0949 0.4842
vn 0.6001 0.0692 0.7970
vn 0.0667 0.0745 0.9950
vn 0.9411 0.2580 0.2185
vn 0.8899 0.1489 0.4312
vn 0.6947 0.4402 0.5688
vn 0.9906 0.1362 -0.0122
vn 0.9978 -0.0595 -0.0308
vn 0.7854 -0.1297 -0.6053
vn 0.8187 -0.5723 -0.0469
vn 0.4860 -0.7333 -0.4755
vn 0.3299 -0.9440 0.0117
vn 0.0003 -0.9905 -0.1375
vn 0.0265 -0.9962 0.0835
vn -0.2811 -0.9594 0.0242
vn 0.2188 -0.8524 0.4749
vn 0.5385 -0.1566 0.8279
vn 0.3645 -0.9000 0.2390
vn 0.8518 -0.2976 0.4312
vn 0.6033 -0.5009 0.6206
vn 0.9383 0.0432 0.3432
vn 0.2531 0.7921 0.5554
vn 0.8312 -0.1086 0.5453
vn 0.3008 0.6776 0.6711
vn 0.4387 -0.5211 0.7322
vn 0.0685 0.5383 0.8400
vn -0.0966 -0.6263 0.7735
vn -0.2591 0.6031 0.7544
vn -0.6048 -0.4124 0.6813
vn -0.3421 0.7293 0.5925
vn -0.7995 0.1632 0.5781
vn -0.4407 0.3825 0.8121
vn -0.9452 -0.1769 0.2743
vn -0.3134 -0.9329 0.1771
vn -0.8430 -0.2426 0.4801
vn -0.8576 0.3729 0.3542
vn -0.7359 -0.6764 0.0311
vn -0.9914 -0.1112 -0.0688
vn -0.7415 -0.1379 -0.6567
vn -0.5384 0.5916 -0.6000
vn -0.0116 -0.1877 -0.9822
vn 0.0966 0.6543 -0.7500
vn 0.6355 0.5608 -0.5307
vn 0.9278 0.3571 0.1078
vn 0.9290 0.0662 0.3640
vn -0.0903 -0.6984 -0.7100
vn -0.5632 -0.7403 -0.3671
vn 0.5084 0.5472 0.6649
vn 0.8576 0.3729 0.3542
vn -0.0001 0.9139 0.4060
vn 0.0001 -0.8788 0.4772
vn -0.5359 0.3835 0.7522
vn 0.0542 0.7047 -0.7074
vn -0.9994 0.0181 -0.0288
vn 0.5293 0.7657 -0.3656
vn -0.3033 0.2489 0.9198
vn 0.3053 0.8697 -0.3879
vn 0.0104 0.4934 0.8698
vn 0.2594 0.8572 -0.4450
vn -0.0244 0.2590 0.9656
vn -0.3395 0.6361 -0.6929
vn -0.0102 0.4877 0.8729
vn -0.4660 0.8292 -0.3085
vn 0.3237 0.2674 0.9076
vn -0.2525 0.9194 -0.3015
vn 0.5892 0.4340 0.6815
vn 0.9446 -0.1360 0.2986
vn 0.6502 -0.6018 -0.4637
vn 0.2968 -0.1744 0.9389
vn 0.2020 -0.4993 -0.8425
vn 0.1010 -0.9613 -0.2563
vn -0.0425 -0.9983 0.0405
vn -0.0401 -0.9846 -0.1704
vn -0.6180 -0.6835 -0.3885
vn -0.6558 -0.5537 -0.5131
vn -0.2405 -0.1974 0.9504
vn 0.7592 0.3469 -0.5507
vn 0.4236 0.2814 -0.8611
vn -0.0121 0.2602 -0.9655
vn -0.4471 0.2913 -0.8457
vn -0.7648 0.3577 -0.5359
vn -0.8817 0.4604 -0.1033
vn -0.7576 0.5675 0.3223
vn -0.4312 0.6451 0.6309
vn 0.0157 0.6814 0.7317
vn 0.4449 0.6470 0.6193
vn 0.7686 0.5623 0.3049
vn 0.8822 0.4543 -0.1238
vn 0.4341 0.7419 -0.5111
vn 0.2164 0.7012 -0.6794
vn -0.0387 0.6913 -0.7216
vn -0.2901 0.7049 -0.6472
vn -0.4828 0.7525 -0.4478
vn -0.5452 0.8224 -0.1623
vn -0.4525 0.8864 0.0975
vn -0.2205 0.9353 0.2769
vn 0.0412 0.9442 0.3269
vn 0.2943 0.9235 0.2460
vn 0.4930 0.8696 0.0289
vn 0.5449 0.8030 -0.2413
vn -0.0000 0.9683 -0.2499
vn 0.2240 0.5641 0.7947
vn -0.0742 0.8345 0.5460
vn -0.0079 0.9361 0.3517
vn -0.0865 0.0331 0.9957
vn 0.6687 -0.1378 0.7307
vn -0.0591 -0.6692 0.7407
vn 0.8292 -0.4990 0.2518
vn 0.0025 -0.9866 0.1632
vn 0.6580 -0.6812 -0.3209
vn 0.0619 -0.8387 -0.5410
vn 0.4669 0.0470 -0.8830
vn 0.1146 -0.0215 -0.9932
vn 0.2092 0.6114 -0.7632
vn 0.0487 0.6707 -0.7401
vn 0.1283 0.9733 -0.1902
vn -0.0019 0.9856 -0.1691
vn 0.0759 0.9127 0.4015
vn -0.1389 0.1882 0.9723
vn -0.0635 0.1653 0.9842
vn -0.1473 0.9407 0.3056
vn 0.0932 0.8263 -0.5555
vn -0.0798 0.7473 -0.6597
vn -0.0435 -0.0287 -0.9986
vn -0.0003 -0.2644 -0.9644
vn 0.1375 -0.9434 -0.3018
vn -0.0512 -0.9416 -0.3329
vn -0.1080 -0.7773 0.6198
vn 0.0086 -0.9587 -0.2842
vn 0.0787 -0.3230 -0.9431
vn 0.0160 0.6229 -0.7821
vn -0.1705 0.2958 0.9399
vn -0.1232 0.9797 0.1581
vn -0.1249 -0.6880 0.7149
vn 0.1411 -0.6913 0.7086
vn -0.0922 0.8486 0.5209
vn -0.2137 0.2830 0.9350
vn 0.1037 0.8396 -0.5332
vn 0.0780 0.2148 -0.9735
vn -0.1437 -0.8010 -0.5811
vn 0.3658 -0.8474 0.3848
vn 0.0600 -0.5367 0.8416
vn -0.1249 -0.0668 -0.9899
vn -0.1065 -0.9846 -0.1383
vn 0.5567 -0.0347 -0.8300
vn 0.4085 -0.8869 0.2156
vn 0.9743 -0.1738 0.1433
vn 0.5711 0.0777 0.8172
vn 0.4118 -0.7223 0.5557
vn 0.1435 -0.1353 -0.9804
vn 0.4269 0.7379 -0.5228
vn 0.1533 -0.9816 -0.1142
vn 0.2056 -0.2106 -0.9557
vn 0.1589 -0.9423 -0.2948
vn 0.8132 -0.1594 -0.5597
vn 0.5461 -0.8324 -0.0945
vn 0.9921 -0.0115 0.1249
vn 0.7600 -0.5783 0.2966
vn 0.6588 0.1970 0.7261
vn 0.2587 -0.7575 0.5994
vn 0.0374 0.2527 0.9668
vn -0.0257 -0.7595 0.6500
vn -0.2384 0.1383 0.9613
vn 0.0305 -0.8262 0.5626
vn -0.1226 0.9585 0.2572
vn -0.0093 0.8129 -0.5824
vn 0.1658 0.7258 -0.6676
vn 0.5617 0.4803 -0.6736
vn 0.6867 0.7149 -0.1315
vn 0.6254 0.6638 0.4102
vn 0.1113 0.9606 0.2547
vn 0.7551 0.6435 0.1254
vt 0.020800 0.058900
vt 0.047600 0.038800
vt 0.020900 0.037000
vt 0.047600 0.061500
vt 0.020900 0.088100
vt 0.047600 0.087900
vt 0.020900 0.118000
vt 0.047600 0.118900
vt 0.020900 0.148400
vt 0.047600 0.150000
vt 0.020800 0.179200
vt 0.047600 0.176500
vt 0.020900 0.215900
vt 0.047600 0.214800
vt 0.020900 0.265000
vt 0.047600 0.253500
vt 0.020900 0.291600
vt 0.047600 0.293300
vt 0.360900 0.267600
vt 0.212800 0.325300
vt 0.349900 0.334300
vt 0.212800 0.284600
vt 0.356000 0.237600
vt 0.215400 0.222200
vt 0.347300 0.198200
vt 0.216000 0.180200
vt 0.351600 0.159800
vt 0.215500 0.145700
vt 0.212800 0.091500
vt 0.183000 0.146500
vt 0.183000 0.179300
vt 0.183000 0.214900
vt 0.183800 0.326900
vt 0.183800 0.289700
vt 0.183800 0.092000
vt 0.183800 0.058900
vt 0.351600 0.095500
vt 0.212800 0.057300
vt 0.349900 0.066300
vt 0.047600 0.329600
vt 0.387600 0.277600
vt 0.379900 0.328500
vt 0.387900 0.226300
vt 0.375100 0.193800
vt 0.375200 0.171400
vt 0.375500 0.132100
vt 0.379200 0.085800
vt 0.379900 0.060500
vt 0.862000 0.834700
vt 0.868900 0.829800
vt 0.866500 0.817800
vt 0.868100 0.840700
vt 0.863500 0.858500
vt 0.868000 0.859000
vt 0.871000 0.871600
vt 0.875600 0.859700
vt 0.879400 0.824200
vt 0.886200 0.824400
vt 0.872600 0.896200
vt 0.872500 0.842100
vt 0.875600 0.897100
vt 0.870700 0.931900
vt 0.874500 0.932000
vt 0.869000 0.987800
vt 0.873900 0.964700
vt 0.879900 0.990100
vt 0.879900 0.965800
vt 0.888700 0.987800
vt 0.883600 0.964700
vt 0.899300 0.966900
vt 0.891700 0.932000
vt 0.898600 0.897300
vt 0.892200 0.897200
vt 0.886700 0.817900
vt 0.898700 0.818000
vt 0.979600 0.818000
vt 0.972300 0.897400
vt 0.975800 0.817900
vt 0.964400 0.897400
vt 0.904600 0.895400
vt 0.963400 0.969100
vt 0.909700 0.969100
vt 0.968800 0.987900
vt 0.926200 0.987900
vt 0.989400 0.989100
vt 0.989400 0.990200
vt 0.980100 0.987900
vt 0.975100 0.987900
vt 0.973000 0.969100
vt 0.883400 0.895500
vt 0.879400 0.899900
vt 0.904700 0.818000
vt 0.879200 0.922700
vt 0.883100 0.922500
vt 0.882200 0.933900
vt 0.885500 0.922500
vt 0.886400 0.905700
vt 0.113300 0.984100
vt 0.256500 0.941900
vt 0.317200 0.948200
vt 0.170300 0.942200
vt 0.071400 0.986700
vt 0.008900 0.942200
vt 0.011500 0.986700
vt 0.647800 0.986700
vt 0.570900 0.986700
vt 0.645000 0.942200
vt 0.472200 0.942200
vt 0.643700 0.667900
vt 0.447000 0.802000
vt 0.643600 0.768400
vt 0.474500 0.667900
vt 0.643900 0.457200
vt 0.474400 0.457200
vt 0.643700 0.432800
vt 0.490800 0.432900
vt 0.316500 0.768400
vt 0.316500 0.667900
vt 0.220900 0.802000
vt 0.184400 0.667900
vt 0.008900 0.780900
vt 0.008900 0.667900
vt 0.316500 0.457200
vt 0.199400 0.457200
vt 0.008900 0.457200
vt 0.315900 0.432900
vt 0.191300 0.432900
vt 0.008900 0.432900
vt 0.307800 0.959600
vt 0.265800 0.976000
vt 0.336600 0.976000
vt 0.384000 0.942900
vt 0.537500 0.988700
vt 0.050400 0.118600
vt 0.050400 0.149700
vt 0.237100 0.856700
vt 0.257000 0.820300
vt 0.343300 0.824200
vt 0.316500 0.810400
vt 0.440500 0.856900
vt 0.181500 0.012200
vt 0.063600 0.044000
vt 0.064400 0.008000
vt 0.181300 0.049600
vt 0.326400 0.016400
vt 0.326300 0.048700
vt 0.064000 0.102000
vt 0.181000 0.108100
vt 0.326400 0.102000
vt 0.582100 0.044000
vt 0.472000 0.012200
vt 0.582400 0.008000
vt 0.472000 0.044400
vt 0.582200 0.102000
vt 0.472000 0.085700
vt 0.991000 0.137800
vt 0.903800 0.235000
vt 0.990600 0.234900
vt 0.914700 0.143900
vt 0.991100 0.065200
vt 0.909400 0.069600
vt 0.991000 0.030300
vt 0.909600 0.030300
vt 0.847200 0.030400
vt 0.766800 0.030400
vt 0.694100 0.030400
vt 0.618000 0.030300
vt 0.694000 0.075100
vt 0.618000 0.075300
vt 0.694500 0.148300
vt 0.620700 0.149500
vt 0.720900 0.177600
vt 0.677400 0.177600
vt 0.765100 0.071700
vt 0.766800 0.118800
vt 0.811500 0.177600
vt 0.850700 0.071800
vt 0.854400 0.134800
vt 0.847200 0.171400
vt 0.826600 0.180900
vt 0.831000 0.234900
vt 0.847900 0.165100
vt 0.915100 0.136300
vt 0.012400 0.328100
vt 0.083000 0.328100
vt 0.012400 0.300100
vt 0.154100 0.367400
vt 0.012400 0.367400
vt 0.012400 0.428100
vt 0.326300 0.323700
vt 0.461800 0.428100
vt 0.326300 0.428100
vt 0.497200 0.367400
vt 0.472100 0.300300
vt 0.569800 0.328400
vt 0.582100 0.288100
vt 0.589200 0.303100
vt 0.640100 0.428100
vt 0.640100 0.367400
vt 0.640100 0.328100
vt 0.640100 0.303900
vt 0.063800 0.287800
vt 0.064100 0.207100
vt 0.063400 0.303100
vt 0.012600 0.303900
vt 0.190800 0.428100
vt 0.178900 0.300400
vt 0.472000 0.139400
vt 0.326300 0.211200
vt 0.326300 0.126100
vt 0.472000 0.209200
vt 0.582200 0.125900
vt 0.582300 0.207100
vt 0.180300 0.209200
vt 0.064000 0.125900
vt 0.180700 0.122400
vt 0.731600 0.787300
vt 0.772300 0.987900
vt 0.731600 0.987900
vt 0.772300 0.787300
vt 0.667400 0.787300
vt 0.667400 0.987900
vt 0.024400 0.439100
vt 0.179100 0.654800
vt 0.177800 0.438900
vt 0.025300 0.654100
vt 0.335400 0.438700
vt 0.334900 0.655200
vt 0.766500 0.693700
vt 0.690000 0.588400
vt 0.690000 0.693800
vt 0.827200 0.588400
vt 0.835900 0.693500
vt 0.917800 0.588300
vt 0.856400 0.693200
vt 0.950900 0.588300
vt 0.690000 0.692600
vt 0.690000 0.431800
vt 0.848000 0.431700
vt 0.953800 0.431300
vt 0.992500 0.430800
vt 0.953800 0.430200
vt 0.848000 0.429800
vt 0.690000 0.429700
vt 0.690000 0.310400
vt 0.848600 0.310400
vt 0.954900 0.310400
vt 0.993800 0.310400
vt 0.690000 0.272700
vt 0.833000 0.272800
vt 0.927900 0.273100
vt 0.962700 0.273600
vt 0.833000 0.274300
vt 0.690000 0.274400
vt 0.689800 0.258300
vt 0.155400 0.923300
vt 0.161400 0.979800
vt 0.177500 0.950200
vt 0.121800 0.965200
vt 0.115600 0.903900
vt 0.085200 0.914500
vt 0.060600 0.881400
vt 0.040500 0.884000
vt 0.044200 0.846700
vt 0.016100 0.848000
vt 0.050100 0.840400
vt 0.024500 0.841500
vt 0.298100 0.929800
vt 0.303300 0.922600
vt 0.295200 0.926300
vt 0.306900 0.925800
vt 0.300800 0.933500
vt 0.307600 0.938500
vt 0.298900 0.937500
vt 0.295900 0.940300
vt 0.295000 0.937900
vt 0.291600 0.941300
vt 0.291000 0.937400
vt 0.294000 0.935500
vt 0.290400 0.933500
vt 0.306300 0.918300
vt 0.319000 0.918300
vt 0.303900 0.913100
vt 0.317600 0.913200
vt 0.300800 0.909600
vt 0.313200 0.909700
vt 0.299700 0.908600
vt 0.092000 0.950200
vt 0.114400 0.837900
vt 0.114600 0.844000
vt 0.199900 0.835400
vt 0.209900 0.837700
vt 0.126700 0.800000
vt 0.128800 0.798100
vt 0.072700 0.785500
vt 0.070400 0.782500
vt 0.053500 0.780900
vt 0.049300 0.777400
vt 0.116500 0.876500
vt 0.197400 0.869600
vt 0.202400 0.799500
vt 0.177600 0.773100
vt 0.167900 0.765900
vt 0.222000 0.838200
vt 0.320100 0.936500
vt 0.326000 0.918300
vt 0.326100 0.936000
vt 0.324100 0.913200
vt 0.208400 0.207700
vt 0.192700 0.207700
vt 0.200300 0.197900
vt 0.189700 0.227600
vt 0.208400 0.227700
vt 0.191100 0.229700
vt 0.197900 0.231600
vt 0.224000 0.207700
vt 0.216500 0.197900
vt 0.227000 0.227600
vt 0.225700 0.229700
vt 0.208400 0.195000
vt 0.208400 0.232300
vt 0.218800 0.231600
vt 0.424400 0.719200
vt 0.454800 0.693700
vt 0.416800 0.736500
vt 0.389000 0.693900
vt 0.391600 0.719400
vt 0.275400 0.694400
vt 0.280700 0.713800
vt 0.166600 0.694800
vt 0.166600 0.718100
vt 0.375200 0.736500
vt 0.286200 0.740600
vt 0.337900 0.736500
vt 0.285800 0.741800
vt 0.166600 0.736500
vt 0.051400 0.051200
vt 0.036800 0.149700
vt 0.036800 0.051200
vt 0.066100 0.051200
vt 0.066100 0.149700
vt 0.080700 0.051200
vt 0.080700 0.149700
vt 0.095300 0.051200
vt 0.095300 0.149700
vt 0.110000 0.051200
vt 0.110000 0.149700
vt 0.124600 0.051200
vt 0.124600 0.149700
vt 0.139200 0.051200
vt 0.139200 0.149700
vt 0.153900 0.051200
vt 0.153900 0.149700
vt 0.168500 0.051200
vt 0.168500 0.149700
vt 0.183100 0.051200
vt 0.183100 0.149700
vt 0.197700 0.051200
vt 0.197700 0.149700
vt 0.212400 0.051200
vt 0.212400 0.149700
vt 0.036800 0.175100
vt 0.051400 0.175100
vt 0.066100 0.175100
vt 0.080700 0.175100
vt 0.095300 0.175100
vt 0.110000 0.175100
vt 0.124600 0.175100
vt 0.139200 0.175100
vt 0.153900 0.175100
vt 0.168500 0.175100
vt 0.183100 0.175100
vt 0.197700 0.175100
vt 0.212400 0.175100
vt 0.124600 0.203300
s 1
usemtl Material06
f 4/1/1 5/2/2 1/3/3
f 4/1/1 6/4/4 5/2/2
f 7/5/5 6/4/4 4/1/1
f 7/5/5 8/6/6 6/4/4
f 9/7/7 8/6/6 7/5/5
f 9/7/7 10/8/8 8/6/6
f 11/9/9 10/8/8 9/7/7
f 11/9/9 12/10/10 10/8/8
f 13/11/11 12/10/10 11/9/9
f 13/11/11 14/12/12 12/10/10
f 2/13/13 14/12/12 13/11/11
f 2/13/13 15/14/14 14/12/12
f 3/15/15 15/14/14 2/13/13
f 3/15/15 16/16/16 15/14/14
f 1/17/3 16/16/16 3/15/15
f 1/17/3 5/18/2 16/16/16
f 17/19/17 18/20/18 19/21/19
f 17/19/17 20/22/20 18/20/18
f 21/23/21 20/22/20 17/19/17
f 21/23/21 22/24/22 20/22/20
f 23/25/23 22/24/22 21/23/21
f 23/25/23 24/26/24 22/24/22
f 25/27/25 24/26/24 23/25/23
f 25/27/25 26/28/26 24/26/24
f 27/29/27 26/28/26 25/27/25
f 12/10/10 28/30/28 10/8/8
f 12/10/10 29/31/29 28/30/28
f 14/12/12 29/31/29 12/10/10
f 14/12/12 30/32/30 29/31/29
f 15/14/14 30/32/30 14/12/12
f 15/14/14 16/16/16 30/32/30
f 20/22/20 31/33/31 18/20/18
f 20/22/20 32/34/32 31/33/31
f 22/24/22 32/34/32 20/22/20
f 22/24/22 30/32/30 32/34/32
f 6/4/4 33/35/33 31/36/31
f 33/35/33 6/4/4 8/6/6
f 8/6/6 10/8/8 33/35/33
f 34/37/34 27/29/27 25/27/25
f 27/29/27 34/37/34 18/38/18
f 19/39/19 18/38/18 34/37/34
f 31/36/31 27/29/27 18/38/18
f 27/29/27 31/36/31 33/35/33
f 27/29/27 28/30/28 26/28/26
f 28/30/28 27/29/27 33/35/33
f 10/8/8 28/30/28 33/35/33
f 28/30/28 24/26/24 26/28/26
f 24/26/24 28/30/28 29/31/29
f 24/26/24 30/32/30 22/24/22
f 30/32/30 24/26/24 29/31/29
f 16/16/16 32/34/32 30/32/30
f 32/34/32 16/16/16 5/18/2
f 5/18/2 31/33/31 32/34/32
f 31/33/31 5/18/2 6/40/4
f 35/41/35 19/21/19 36/42/36
f 35/41/35 17/19/17 19/21/19
f 37/43/37 17/19/17 35/41/35
f 37/43/37 21/23/21 17/19/17
f 38/44/38 21/23/21 37/43/37
f 38/44/38 23/25/23 21/23/21
f 39/45/39 23/25/23 38/44/38
f 39/45/39 25/27/25 23/25/23
f 40/46/40 25/27/25 39/45/39
f 40/46/40 34/37/34 25/27/25
f 41/47/41 34/37/34 40/46/40
f 41/47/41 19/39/19 34/37/34
f 36/48/36 19/39/19 41/47/41
f 42/49/42 39/50/39 38/51/38
f 42/49/42 43/52/43 39/50/39
f 44/53/44 43/52/43 42/49/42
f 44/53/44 45/54/45 43/52/43
f 46/55/46 45/54/45 44/53/44
f 46/55/46 47/56/47 45/54/45
f 48/57/48 45/54/45 47/56/47
f 48/57/48 43/52/43 45/54/45
f 40/58/40 43/52/43 48/57/48
f 40/58/40 39/50/39 43/52/43
f 49/59/49 48/57/48 50/60/50
f 49/59/49 51/61/51 48/57/48
f 52/62/52 51/61/51 49/59/49
f 52/62/52 53/63/53 51/61/51
f 54/64/54 53/63/53 52/62/52
f 54/64/54 55/65/55 53/63/53
f 56/66/56 55/65/55 54/64/54
f 56/66/56 57/67/57 55/65/55
f 58/68/58 57/67/57 56/66/56
f 58/68/58 59/69/59 57/67/57
f 60/70/60 59/69/59 58/68/58
f 60/70/60 61/71/61 59/69/59
f 62/72/62 61/71/61 60/70/60
f 62/72/62 63/73/63 61/71/61
f 41/74/41 63/73/63 62/72/62
f 41/74/41 40/58/40 63/73/63
f 59/69/59 55/65/55 57/67/57
f 59/69/59 53/63/53 55/65/55
f 61/71/61 53/63/53 59/69/59
f 61/71/61 51/61/51 53/63/53
f 63/73/63 51/61/51 61/71/61
f 63/73/63 40/58/40 51/61/51
f 62/72/62 36/75/36 41/74/41
f 62/72/62 35/76/35 36/75/36
f 64/77/64 35/76/35 62/72/62
f 64/77/64 37/78/37 35/76/35
f 65/79/65 37/78/37 64/77/64
f 65/79/65 49/80/49 37/78/37
f 66/81/66 49/80/49 65/79/65
f 66/81/66 52/82/52 49/80/49
f 67/83/67 52/82/52 66/81/66
f 67/83/67 54/84/54 52/82/52
f 68/85/68 54/84/54 67/83/67
f 68/85/68 56/86/56 54/84/54
f 69/87/69 56/86/56 68/85/68
f 69/87/69 58/88/58 56/86/56
f 70/89/70 58/88/58 69/87/69
f 70/89/70 60/70/60 58/88/58
f 64/77/64 60/70/60 70/89/70
f 64/77/64 62/72/62 60/70/60
f 50/90/50 42/91/42 38/92/38
f 50/90/50 44/93/44 42/91/42
f 71/94/71 44/93/44 50/90/50
f 71/94/71 46/95/46 44/93/44
f 47/96/47 46/95/46 71/94/71
f 70/89/70 65/79/65 64/77/64
f 70/89/70 66/81/66 65/79/65
f 68/85/68 66/81/66 70/89/70
f 68/85/68 67/83/67 66/81/66
f 48/57/48 51/61/51 40/58/40
f 49/80/49 38/92/38 37/78/37
f 38/92/38 49/80/49 50/90/50
f 50/90/50 47/96/47 71/94/71
f 47/96/47 50/90/50 48/97/48
f 69/87/69 68/85/68 70/89/70
f 112/98/72 88/99/73 89/100/74
f 112/98/72 102/101/75 88/99/73
f 113/102/76 102/101/75 112/98/72
f 113/102/76 91/103/77 102/101/75
f 114/104/78 91/103/77 113/102/76
f 114/104/78 115/102/79 91/103/77
f 116/105/80 115/102/79 114/104/78
f 116/105/80 117/106/81 115/102/79
f 100/107/82 117/106/81 116/105/80
f 100/107/82 103/108/83 117/106/81
f 118/109/84 98/110/85 99/111/86
f 118/109/84 119/112/87 98/110/85
f 120/113/88 119/112/87 118/109/84
f 120/113/88 121/114/89 119/112/87
f 107/115/90 121/114/89 120/113/88
f 107/115/90 109/116/91 121/114/89
f 95/110/92 118/109/84 99/111/86
f 95/110/92 122/112/93 118/109/84
f 94/117/94 122/112/93 95/110/92
f 94/117/94 123/118/95 122/112/93
f 93/119/96 123/118/95 94/117/94
f 93/119/96 124/120/97 123/118/95
f 92/121/98 124/120/97 93/119/96
f 92/121/98 125/122/99 124/120/97
f 96/119/100 125/122/99 92/121/98
f 96/119/100 126/120/101 125/122/99
f 97/117/102 126/120/101 96/119/100
f 97/117/102 127/118/103 126/120/101
f 98/110/85 127/118/103 97/117/102
f 98/110/85 119/112/87 127/118/103
f 122/112/93 120/113/88 118/109/84
f 122/112/93 128/114/104 120/113/88
f 123/118/95 128/114/104 122/112/93
f 123/118/95 129/123/105 128/114/104
f 124/120/97 129/123/105 123/118/95
f 124/120/97 130/124/106 129/123/105
f 125/122/99 130/124/106 124/120/97
f 125/122/99 131/125/107 130/124/106
f 126/120/101 131/125/107 125/122/99
f 126/120/101 132/124/108 131/125/107
f 127/118/103 132/124/108 126/120/101
f 127/118/103 133/123/109 132/124/108
f 119/112/87 133/123/109 127/118/103
f 119/112/87 121/114/89 133/123/109
f 128/114/104 107/115/90 120/113/88
f 128/114/104 105/116/110 107/115/90
f 129/123/105 105/116/110 128/114/104
f 129/123/105 106/126/111 105/116/110
f 130/124/106 106/126/111 129/123/105
f 130/124/106 108/127/112 106/126/111
f 131/125/107 108/127/112 130/124/106
f 131/125/107 104/128/113 108/127/112
f 132/124/108 104/128/113 131/125/107
f 132/124/108 110/127/114 104/128/113
f 133/123/109 110/127/114 132/124/108
f 133/123/109 111/126/115 110/127/114
f 121/114/89 111/126/115 133/123/109
f 121/114/89 109/116/91 111/126/115
f 134/129/116 115/130/79 117/131/81
f 112/129/72 135/131/117 113/130/76
f 101/108/118 89/100/74 87/132/119
f 89/100/74 101/108/118 112/133/72
f 135/106/117 112/133/72 101/108/118
f 103/108/83 134/133/116 117/106/81
f 134/133/116 103/108/83 86/100/120
f 84/132/3 86/100/120 103/108/83
f 113/102/76 116/105/80 114/104/78
f 116/105/80 113/102/76 135/106/117
f 135/106/117 100/107/82 116/105/80
f 100/107/82 135/106/117 101/108/118
f 115/102/79 90/101/121 91/103/77
f 90/101/121 115/102/79 134/98/116
f 134/98/116 85/99/122 90/101/121
f 85/99/122 134/98/116 86/100/120
f 143/134/123 144/7/124 142/5/125
f 145/135/126 144/7/124 143/134/123
f 140/136/127 90/101/121 85/99/122
f 140/136/127 91/103/77 90/101/121
f 92/121/98 91/103/77 140/136/127
f 92/121/98 147/136/128 91/103/77
f 93/119/96 147/136/128 92/121/98
f 93/119/96 146/137/129 147/136/128
f 94/117/94 146/137/129 93/119/96
f 95/110/92 142/138/125 144/139/124
f 141/140/130 142/138/125 95/110/92
f 138/139/7 96/119/100 139/137/131
f 138/139/7 97/117/102 96/119/100
f 137/138/5 97/117/102 138/139/7
f 137/138/5 98/110/85 97/117/102
f 136/140/1 98/110/85 137/138/5
f 136/140/1 99/111/86 98/110/85
f 100/107/82 99/111/86 136/140/1
f 100/107/82 141/140/130 99/111/86
f 101/108/118 141/140/130 100/107/82
f 101/108/118 87/132/119 141/140/130
f 147/136/128 102/101/75 91/103/77
f 102/101/75 147/136/128 88/99/73
f 140/136/127 96/119/100 92/121/98
f 96/119/100 140/136/127 139/137/131
f 141/140/130 95/110/92 99/111/86
f 136/140/1 103/108/83 100/107/82
f 103/108/83 136/140/1 84/132/3
f 148/141/132 149/142/133 150/143/134
f 148/141/132 151/144/135 149/142/133
f 152/145/136 151/144/135 148/141/132
f 152/145/136 153/146/137 151/144/135
f 151/144/135 154/147/138 149/142/133
f 151/144/135 155/148/139 154/147/138
f 153/146/137 155/148/139 151/144/135
f 153/146/137 156/149/140 155/148/139
f 149/150/133 157/151/141 150/152/134
f 149/150/133 158/153/142 157/151/141
f 154/154/138 158/153/142 149/150/133
f 154/154/138 159/155/143 158/153/142
f 158/153/142 152/145/136 157/151/141
f 158/153/142 153/146/137 152/145/136
f 159/155/143 153/146/137 158/153/142
f 159/155/143 156/149/140 153/146/137
f 160/156/144 150/157/134 157/158/141
f 160/156/144 161/159/145 150/157/134
f 162/160/146 161/159/145 160/156/144
f 162/160/146 163/161/147 161/159/145
f 164/162/148 163/161/147 162/160/146
f 164/162/148 165/163/149 163/161/147
f 166/163/150 165/163/149 164/162/148
f 166/163/150 167/164/151 165/163/149
f 168/164/152 167/164/151 166/163/150
f 168/164/152 169/165/153 167/164/151
f 170/165/154 169/165/153 168/164/152
f 170/165/154 171/166/155 169/165/153
f 172/166/156 171/166/155 170/165/154
f 172/166/156 173/167/157 171/166/155
f 174/168/158 173/167/157 172/166/156
f 174/168/158 175/169/159 173/167/157
f 176/170/160 175/169/159 174/168/158
f 176/170/160 177/171/161 175/169/159
f 178/172/162 177/171/161 176/170/160
f 178/172/162 179/173/163 177/171/161
f 180/172/164 179/173/163 178/172/162
f 180/172/164 177/171/161 179/173/163
f 181/170/165 177/171/161 180/172/164
f 181/170/165 175/169/159 177/171/161
f 182/168/166 175/169/159 181/170/165
f 182/168/166 173/167/157 175/169/159
f 171/166/155 173/167/157 182/168/166
f 182/168/166 169/165/153 171/166/155
f 182/168/166 183/174/167 169/165/153
f 181/170/165 183/174/167 182/168/166
f 181/170/165 184/175/168 183/174/167
f 180/172/164 184/175/168 181/170/165
f 180/172/164 185/176/169 184/175/168
f 178/172/162 185/176/169 180/172/164
f 178/172/162 186/176/170 185/176/169
f 176/170/160 186/176/170 178/172/162
f 176/170/160 187/175/171 186/176/170
f 174/168/158 187/175/171 176/170/160
f 174/168/158 188/174/172 187/175/171
f 172/166/156 188/174/172 174/168/158
f 172/166/156 170/165/154 188/174/172
f 183/174/167 167/164/151 169/165/153
f 183/174/167 189/177/173 167/164/151
f 184/175/168 189/177/173 183/174/167
f 184/175/168 190/178/174 189/177/173
f 185/176/169 190/178/174 184/175/168
f 185/176/169 191/179/175 190/178/174
f 192/180/176 191/179/175 185/176/169
f 192/180/176 150/157/134 191/179/175
f 148/181/132 150/157/134 192/180/176
f 161/159/145 191/179/175 150/157/134
f 161/159/145 190/178/174 191/179/175
f 163/161/147 190/178/174 161/159/145
f 163/161/147 189/177/173 190/178/174
f 186/176/170 192/180/176 185/176/169
f 186/176/170 193/182/177 192/180/176
f 194/178/178 193/182/177 186/176/170
f 194/178/178 195/183/179 193/182/177
f 196/177/180 195/183/179 194/178/178
f 196/177/180 197/161/181 195/183/179
f 168/164/152 197/161/181 196/177/180
f 168/164/152 166/163/150 197/161/181
f 187/175/171 194/178/178 186/176/170
f 187/175/171 196/177/180 194/178/178
f 188/174/172 196/177/180 187/175/171
f 188/174/172 168/164/152 196/177/180
f 170/165/154 168/164/152 188/174/172
f 162/160/146 166/163/150 164/162/148
f 162/160/146 197/161/181 166/163/150
f 160/156/144 197/161/181 162/160/146
f 160/156/144 195/183/179 197/161/181
f 157/158/141 195/183/179 160/156/144
f 157/158/141 152/157/136 195/183/179
f 167/164/151 163/161/147 165/163/149
f 163/161/147 167/164/151 189/177/173
f 193/182/177 148/181/132 192/180/176
f 148/181/132 193/182/177 152/157/136
f 195/183/179 152/157/136 193/182/177
f 198/148/182 199/142/183 200/147/184
f 198/148/182 201/144/185 199/142/183
f 202/149/186 201/144/185 198/148/182
f 202/149/186 203/146/187 201/144/185
f 201/144/185 204/143/188 199/142/183
f 201/144/185 205/141/189 204/143/188
f 203/146/187 205/141/189 201/144/185
f 203/146/187 206/145/190 205/141/189
f 207/151/191 199/150/183 204/152/188
f 207/151/191 208/153/192 199/150/183
f 206/145/190 208/153/192 207/151/191
f 206/145/190 203/146/187 208/153/192
f 208/153/192 200/154/184 199/150/183
f 208/153/192 209/155/193 200/154/184
f 203/146/187 209/155/193 208/153/192
f 203/146/187 202/149/186 209/155/193
f 204/157/188 210/156/194 207/158/191
f 204/157/188 211/159/195 210/156/194
f 212/179/196 211/159/195 204/157/188
f 212/179/196 213/178/197 211/159/195
f 214/176/198 213/178/197 212/179/196
f 214/176/198 215/175/199 213/178/197
f 216/172/200 215/175/199 214/176/198
f 216/172/200 217/170/201 215/175/199
f 218/173/202 217/170/201 216/172/200
f 218/173/202 219/171/203 217/170/201
f 220/172/204 219/171/203 218/173/202
f 220/172/204 221/170/205 219/171/203
f 222/176/206 221/170/205 220/172/204
f 222/176/206 223/175/207 221/170/205
f 224/178/208 223/175/207 222/176/206
f 224/178/208 225/174/209 223/175/207
f 226/177/210 225/174/209 224/178/208
f 226/177/210 227/165/211 225/174/209
f 228/164/212 227/165/211 226/177/210
f 228/164/212 229/165/213 227/165/211
f 230/164/214 229/165/213 228/164/212
f 230/164/214 231/174/215 229/165/213
f 232/177/216 231/174/215 230/164/214
f 232/177/216 215/175/199 231/174/215
f 213/178/197 215/175/199 232/177/216
f 216/172/200 220/172/204 218/173/202
f 216/172/200 222/176/206 220/172/204
f 214/176/198 222/176/206 216/172/200
f 214/176/198 233/180/217 222/176/206
f 212/179/196 233/180/217 214/176/198
f 212/179/196 205/181/189 233/180/217
f 204/157/188 205/181/189 212/179/196
f 232/177/216 211/159/195 213/178/197
f 232/177/216 234/161/218 211/159/195
f 230/164/214 234/161/218 232/177/216
f 230/164/214 235/163/219 234/161/218
f 228/164/212 235/163/219 230/164/214
f 228/164/212 236/163/220 235/163/219
f 226/177/210 236/163/220 228/164/212
f 226/177/210 237/161/221 236/163/220
f 224/178/208 237/161/221 226/177/210
f 224/178/208 238/183/222 237/161/221
f 239/182/223 238/183/222 224/178/208
f 239/182/223 206/157/190 238/183/222
f 233/180/217 206/157/190 239/182/223
f 233/180/217 205/181/189 206/157/190
f 210/156/194 206/157/190 207/158/191
f 210/156/194 238/183/222 206/157/190
f 240/160/224 238/183/222 210/156/194
f 240/160/224 237/161/221 238/183/222
f 241/162/225 237/161/221 240/160/224
f 241/162/225 236/163/220 237/161/221
f 235/163/219 236/163/220 241/162/225
f 217/170/201 231/174/215 215/175/199
f 217/170/201 242/168/226 231/174/215
f 219/171/203 242/168/226 217/170/201
f 219/171/203 243/169/227 242/168/226
f 221/170/205 243/169/227 219/171/203
f 221/170/205 244/168/228 243/169/227
f 223/175/207 244/168/228 221/170/205
f 223/175/207 225/174/209 244/168/228
f 242/168/226 229/165/213 231/174/215
f 242/168/226 245/166/229 229/165/213
f 243/169/227 245/166/229 242/168/226
f 243/169/227 246/167/230 245/166/229
f 244/168/228 246/167/230 243/169/227
f 244/168/228 247/166/231 246/167/230
f 225/174/209 247/166/231 244/168/228
f 225/174/209 227/165/211 247/166/231
f 239/182/223 222/176/206 233/180/217
f 222/176/206 239/182/223 224/178/208
f 211/159/195 240/160/224 210/156/194
f 240/160/224 211/159/195 234/161/218
f 235/163/219 240/160/224 234/161/218
f 240/160/224 235/163/219 241/162/225
f 229/165/213 247/166/231 227/165/211
f 247/166/231 229/165/213 245/166/229
f 245/166/229 246/167/230 247/166/231
f 248/184/232 249/185/233 250/186/234
f 248/184/232 251/187/235 249/185/233
f 252/188/236 251/187/235 248/184/232
f 252/188/236 104/189/113 251/187/235
f 253/190/237 105/191/110 106/192/111
f 253/190/237 254/193/238 105/191/110
f 255/194/239 254/193/238 253/190/237
f 255/194/239 256/195/240 254/193/238
f 257/196/241 256/195/240 255/194/239
f 257/196/241 258/197/242 256/195/240
f 254/193/238 107/198/90 105/191/110
f 254/193/238 259/199/243 107/198/90
f 256/195/240 259/199/243 254/193/238
f 256/195/240 260/200/244 259/199/243
f 261/201/245 260/200/244 256/195/240
f 262/202/246 257/202/241 263/203/247
f 262/202/246 258/204/242 257/202/241
f 264/204/248 258/204/242 262/202/246
f 264/204/248 261/205/245 258/204/242
f 250/186/234 261/205/245 264/204/248
f 108/206/112 253/190/237 106/192/111
f 108/206/112 265/207/249 253/190/237
f 266/187/250 265/207/249 108/206/112
f 266/187/250 267/185/251 265/207/249
f 252/188/236 267/185/251 266/187/250
f 252/188/236 248/184/232 267/185/251
f 268/208/252 269/209/253 270/210/254
f 268/208/252 271/211/255 269/209/253
f 272/212/256 271/211/255 268/208/252
f 272/212/256 263/213/247 271/211/255
f 255/194/239 263/213/247 257/196/241
f 255/194/239 271/211/255 263/213/247
f 253/190/237 271/211/255 255/194/239
f 253/190/237 269/209/253 271/211/255
f 263/203/247 265/207/249 262/202/246
f 263/203/247 273/214/257 265/207/249
f 272/215/256 273/214/257 263/203/247
f 272/215/256 274/216/258 273/214/257
f 273/214/257 253/190/237 265/207/249
f 273/214/257 269/209/253 253/190/237
f 274/216/258 269/209/253 273/214/257
f 274/216/258 270/210/254 269/209/253
f 268/208/252 154/154/138 272/212/256
f 270/210/254 156/149/140 268/208/252
f 154/147/138 274/216/258 272/215/256
f 156/149/140 270/210/254 274/216/258
f 155/148/139 274/216/258 154/147/138
f 274/216/258 155/148/139 156/149/140
f 107/198/90 275/193/259 109/191/91
f 275/193/259 107/198/90 259/199/243
f 250/186/234 276/204/260 261/205/245
f 276/204/260 250/186/234 277/204/261
f 249/185/233 277/204/261 250/186/234
f 251/187/235 104/189/113 110/206/114
f 268/208/252 159/155/143 154/154/138
f 159/155/143 268/208/252 156/149/140
f 256/195/240 258/197/242 261/201/245
f 104/189/113 266/187/250 108/206/112
f 266/187/250 104/189/113 252/188/236
f 250/186/234 267/185/251 248/184/232
f 267/185/251 250/186/234 264/204/248
f 264/204/248 265/207/249 267/185/251
f 265/207/249 264/204/248 262/202/246
f 259/199/243 278/195/262 275/193/259
f 278/195/262 259/199/243 260/200/244
f 261/201/245 278/195/262 260/200/244
f 278/195/262 261/201/245 276/197/260
f 279/190/263 110/206/114 111/192/115
f 279/190/263 251/187/235 110/206/114
f 280/207/264 251/187/235 279/190/263
f 280/207/264 249/185/233 251/187/235
f 281/202/265 249/185/233 280/207/264
f 281/202/265 277/204/261 249/185/233
f 282/202/266 277/204/261 281/202/265
f 282/202/266 276/204/260 277/204/261
f 109/191/91 279/190/263 111/192/115
f 109/191/91 283/194/267 279/190/263
f 275/193/259 283/194/267 109/191/91
f 275/193/259 278/195/262 283/194/267
f 282/196/266 278/195/262 276/197/260
f 282/196/266 283/194/267 278/195/262
f 284/213/268 283/194/267 282/196/266
f 284/213/268 285/211/269 283/194/267
f 286/212/270 285/211/269 284/213/268
f 286/212/270 287/208/271 285/211/269
f 285/211/269 279/190/263 283/194/267
f 285/211/269 288/209/272 279/190/263
f 287/208/271 288/209/272 285/211/269
f 287/208/271 289/210/273 288/209/272
f 290/216/274 288/209/272 289/210/273
f 290/216/274 291/214/275 288/209/272
f 286/215/270 291/214/275 290/216/274
f 286/215/270 284/203/268 291/214/275
f 280/207/264 284/203/268 281/202/265
f 280/207/264 291/214/275 284/203/268
f 279/190/263 291/214/275 280/207/264
f 279/190/263 288/209/272 291/214/275
f 198/148/182 290/216/274 202/149/186
f 290/216/274 198/148/182 200/147/184
f 290/216/274 200/147/184 286/215/270
f 290/216/274 289/210/273 202/149/186
f 281/202/265 284/203/268 282/202/266
f 287/208/271 202/149/186 289/210/273
f 202/149/186 287/208/271 209/155/193
f 200/154/184 209/155/193 287/208/271
f 287/208/271 286/212/270 200/154/184
f 292/217/276 293/218/277 294/219/278
f 292/217/276 295/220/279 293/218/277
f 296/221/280 295/220/279 292/217/276
f 296/221/280 297/221/281 295/220/279
f 298/217/282 297/221/281 296/221/280
f 298/217/282 299/220/283 297/221/281
f 300/219/284 299/220/283 298/217/282
f 300/219/284 301/218/285 299/220/283
f 302/222/286 301/218/285 300/219/284
f 302/222/286 303/222/287 301/218/285
f 294/219/278 303/222/287 302/222/286
f 294/219/278 293/218/277 303/222/287
f 302/222/286 292/217/276 294/219/278
f 302/222/286 296/221/280 292/217/276
f 300/219/284 296/221/280 302/222/286
f 300/219/284 298/217/282 296/221/280
f 297/221/281 293/218/277 295/220/279
f 297/221/281 303/222/287 293/218/277
f 299/220/283 303/222/287 297/221/281
f 299/220/283 301/218/285 303/222/287
f 304/223/288 305/224/289 306/225/290
f 304/223/288 307/226/291 305/224/289
f 308/225/292 307/226/291 304/223/288
f 308/225/292 309/224/293 307/226/291
f 310/227/294 309/224/293 308/225/292
f 310/227/294 311/228/295 309/224/293
f 311/228/295 310/227/294 312/227/296
f 312/227/296 313/228/297 311/228/295
f 312/227/296 305/224/289 313/228/297
f 305/224/289 312/227/296 306/225/290
f 72/229/298 314/230/299 73/231/300
f 72/229/298 315/232/301 314/230/299
f 74/233/302 315/232/301 72/229/298
f 74/233/302 316/234/303 315/232/301
f 75/235/304 316/234/303 74/233/302
f 75/235/304 317/236/305 316/234/303
f 76/233/306 317/236/305 75/235/304
f 76/233/306 318/234/307 317/236/305
f 77/229/308 318/234/307 76/233/306
f 77/229/308 319/232/309 318/234/307
f 78/237/310 319/232/309 77/229/308
f 78/237/310 320/230/311 319/232/309
f 315/232/301 321/238/312 314/230/299
f 315/232/301 322/239/313 321/238/312
f 316/234/303 322/239/313 315/232/301
f 316/234/303 323/240/314 322/239/313
f 317/236/305 323/240/314 316/234/303
f 317/236/305 324/241/315 323/240/314
f 318/234/307 324/241/315 317/236/305
f 318/234/307 325/242/316 324/241/315
f 319/232/309 325/242/316 318/234/307
f 319/232/309 326/243/317 325/242/316
f 320/230/311 326/243/317 319/232/309
f 320/230/311 327/244/318 326/243/317
f 322/239/313 328/245/319 321/238/312
f 322/239/313 329/246/320 328/245/319
f 323/240/314 329/246/320 322/239/313
f 323/240/314 330/247/321 329/246/320
f 324/241/315 330/247/321 323/240/314
f 324/241/315 331/248/322 330/247/321
f 325/242/316 331/248/322 324/241/315
f 325/242/316 332/247/323 331/248/322
f 326/243/317 332/247/323 325/242/316
f 326/243/317 333/246/324 332/247/323
f 327/244/318 333/246/324 326/243/317
f 327/244/318 334/245/325 333/246/324
f 329/246/320 335/249/326 328/245/319
f 329/246/320 336/250/327 335/249/326
f 330/247/321 336/250/327 329/246/320
f 330/247/321 337/251/328 336/250/327
f 331/248/322 337/251/328 330/247/321
f 331/248/322 338/252/329 337/251/328
f 332/247/323 338/252/329 331/248/322
f 332/247/323 339/251/330 338/252/329
f 333/246/324 339/251/330 332/247/323
f 333/246/324 340/253/331 339/251/330
f 334/245/325 340/253/331 333/246/324
f 334/245/325 341/254/332 340/253/331
f 314/230/299 79/229/333 73/231/300
f 314/230/299 342/232/334 79/229/333
f 321/238/312 342/232/334 314/230/299
f 321/238/312 343/239/335 342/232/334
f 328/245/319 343/239/335 321/238/312
f 328/245/319 344/246/336 343/239/335
f 335/249/326 344/246/336 328/245/319
f 335/249/326 345/250/337 344/246/336
f 346/255/338 345/250/337 335/249/326
f 346/255/338 347/251/339 345/250/337
f 348/252/340 347/251/339 346/255/338
f 348/252/340 349/247/341 347/251/339
f 350/248/342 349/247/341 348/252/340
f 350/248/342 351/240/343 349/247/341
f 352/241/344 351/240/343 350/248/342
f 352/241/344 353/234/345 351/240/343
f 354/236/346 353/234/345 352/241/344
f 354/236/346 80/233/347 353/234/345
f 81/235/348 80/233/347 354/236/346
f 349/247/341 345/250/337 347/251/339
f 349/247/341 344/246/336 345/250/337
f 351/240/343 344/246/336 349/247/341
f 351/240/343 343/239/335 344/246/336
f 353/234/345 343/239/335 351/240/343
f 353/234/345 342/232/334 343/239/335
f 80/233/347 342/232/334 353/234/345
f 80/233/347 79/229/333 342/232/334
f 354/236/346 82/233/349 81/235/348
f 354/236/346 355/234/350 82/233/349
f 352/241/344 355/234/350 354/236/346
f 352/241/344 356/242/351 355/234/350
f 350/248/342 356/242/351 352/241/344
f 350/248/342 357/247/352 356/242/351
f 348/252/340 357/247/352 350/248/342
f 348/252/340 358/251/353 357/247/352
f 346/255/338 358/251/353 348/252/340
f 346/255/338 359/253/354 358/251/353
f 341/254/332 359/253/354 346/255/338
f 341/254/332 360/246/355 359/253/354
f 334/245/325 360/246/355 341/254/332
f 334/245/325 361/243/356 360/246/355
f 327/244/318 361/243/356 334/245/325
f 327/244/318 362/232/357 361/243/356
f 320/230/311 362/232/357 327/244/318
f 320/230/311 83/229/358 362/232/357
f 78/237/310 83/229/358 320/230/311
f 360/246/355 358/251/353 359/253/354
f 360/246/355 357/247/352 358/251/353
f 361/243/356 357/247/352 360/246/355
f 361/243/356 356/242/351 357/247/352
f 362/232/357 356/242/351 361/243/356
f 362/232/357 355/234/350 356/242/351
f 83/229/358 355/234/350 362/232/357
f 83/229/358 82/233/349 355/234/350
f 336/250/327 346/255/338 335/249/326
f 346/255/338 336/250/327 337/251/328
f 338/252/329 346/255/338 337/251/328
f 346/255/338 338/252/329 339/251/330
f 340/253/331 346/255/338 339/251/330
f 346/255/338 340/253/331 341/254/332
usemtl Material01
f 363/256/359 364/257/360 365/258/361
f 363/256/359 366/259/362 364/257/360
f 367/260/363 366/259/362 363/256/359
f 367/260/363 368/261/364 366/259/362
f 369/262/365 368/261/364 367/260/363
f 369/262/365 370/263/366 368/261/364
f 371/264/367 370/263/366 369/262/365
f 371/264/367 372/265/368 370/263/366
f 373/266/369 372/265/368 371/264/367
f 373/266/369 374/267/370 372/265/368
f 363/268/359 375/269/371 367/270/363
f 363/268/359 376/271/372 375/269/371
f 365/272/361 376/271/372 363/268/359
f 365/272/361 377/273/373 376/271/372
f 364/274/360 377/273/373 365/272/361
f 364/274/360 378/275/374 377/273/373
f 379/276/375 378/275/374 364/274/360
f 379/276/375 380/277/376 378/275/374
f 381/278/377 380/277/376 379/276/375
f 381/278/377 382/275/378 380/277/376
f 383/276/379 382/275/378 381/278/377
f 383/276/379 384/274/380 382/275/378
f 385/279/381 384/274/380 383/276/379
f 366/279/362 379/276/375 364/274/360
f 366/279/362 381/278/377 379/276/375
f 386/280/382 381/278/377 366/279/362
f 386/280/382 383/276/379 381/278/377
f 385/279/381 383/276/379 386/280/382
f 387/269/383 388/268/384 389/270/385
f 387/269/383 390/271/386 388/268/384
f 391/281/387 390/271/386 387/269/383
f 391/281/387 392/282/388 390/271/386
f 393/283/389 392/282/388 391/281/387
f 393/283/389 394/284/390 392/282/388
f 395/285/391 394/284/390 393/283/389
f 395/285/391 396/286/392 394/284/390
f 397/287/393 396/286/392 395/285/391
f 397/287/393 398/285/394 396/286/392
f 368/261/364 386/288/382 366/259/362
f 368/261/364 385/259/381 386/288/382
f 389/260/385 385/259/381 368/261/364
f 389/260/385 388/256/384 385/259/381
f 399/266/395 372/265/368 374/267/370
f 399/266/395 400/264/396 372/265/368
f 401/289/397 400/264/396 399/266/395
f 401/289/397 402/290/398 400/264/396
f 403/291/399 402/290/398 401/289/397
f 403/291/399 404/292/400 402/290/398
f 405/293/401 404/292/400 403/291/399
f 405/293/401 406/294/402 404/292/400
f 407/295/403 406/294/402 405/293/401
f 407/295/403 408/296/404 406/294/402
f 409/297/405 408/296/404 407/295/403
f 409/297/405 410/298/406 408/296/404
f 411/295/407 410/298/406 409/297/405
f 411/295/407 412/296/408 410/298/406
f 413/293/409 412/296/408 411/295/407
f 413/293/409 414/294/410 412/296/408
f 415/291/411 414/294/410 413/293/409
f 415/291/411 416/292/412 414/294/410
f 417/289/413 416/292/412 415/291/411
f 417/289/413 418/290/414 416/292/412
f 373/266/369 418/290/414 417/289/413
f 373/266/369 371/264/367 418/290/414
f 369/262/365 418/290/414 371/264/367
f 369/262/365 419/299/415 418/290/414
f 367/260/363 419/299/415 369/262/365
f 367/260/363 375/300/371 419/299/415
f 420/301/416 414/294/410 416/292/412
f 420/301/416 412/296/408 414/294/410
f 398/302/394 412/296/408 420/301/416
f 398/302/394 410/298/406 412/296/408
f 397/303/393 410/298/406 398/302/394
f 397/303/393 408/296/404 410/298/406
f 395/302/391 408/296/404 397/303/393
f 395/302/391 406/294/402 408/296/404
f 393/301/389 406/294/402 395/302/391
f 393/301/389 404/292/400 406/294/402
f 391/304/387 404/292/400 393/301/389
f 391/304/387 387/300/383 404/292/400
f 376/271/372 421/281/417 375/269/371
f 376/271/372 422/282/418 421/281/417
f 423/305/419 422/282/418 376/271/372
f 423/305/419 424/306/420 422/282/418
f 425/307/421 424/306/420 423/305/419
f 425/307/421 392/282/388 424/306/420
f 426/305/422 392/282/388 425/307/421
f 426/305/422 390/271/386 392/282/388
f 427/273/423 390/271/386 426/305/422
f 427/273/423 428/272/424 390/271/386
f 384/274/380 428/272/424 427/273/423
f 380/277/376 423/305/419 378/275/374
f 380/277/376 425/307/421 423/305/419
f 382/275/378 425/307/421 380/277/376
f 382/275/378 426/305/422 425/307/421
f 427/273/423 426/305/422 382/275/378
f 394/284/390 424/306/420 392/282/388
f 394/284/390 429/308/425 424/306/420
f 396/286/392 429/308/425 394/284/390
f 396/286/392 430/284/426 429/308/425
f 398/285/394 430/284/426 396/286/392
f 398/285/394 420/283/416 430/284/426
f 400/264/396 370/263/366 372/265/368
f 400/264/396 431/262/427 370/263/366
f 402/290/398 431/262/427 400/264/396
f 402/290/398 432/299/428 431/262/427
f 404/292/400 432/299/428 402/290/398
f 404/292/400 387/300/383 432/299/428
f 389/260/385 432/299/428 387/300/383
f 389/260/385 431/262/427 432/299/428
f 368/261/364 431/262/427 389/260/385
f 368/261/364 370/263/366 431/262/427
f 433/309/429 413/310/409 411/311/407
f 433/309/429 415/312/411 413/310/409
f 434/313/430 415/312/411 433/309/429
f 434/313/430 417/314/413 415/312/411
f 373/315/369 417/314/413 434/313/430
f 405/316/401 433/309/429 407/317/403
f 405/316/401 434/313/430 433/309/429
f 403/318/399 434/313/430 405/316/401
f 403/318/399 401/319/397 434/313/430
f 384/257/380 388/256/384 428/258/424
f 388/256/384 384/257/380 385/259/381
f 419/299/415 416/292/412 418/290/414
f 416/292/412 419/299/415 375/300/371
f 421/304/417 416/292/412 375/300/371
f 416/292/412 421/304/417 420/301/416
f 390/271/386 428/272/424 388/268/384
f 377/273/373 423/305/419 376/271/372
f 423/305/419 377/273/373 378/275/374
f 384/274/380 427/273/423 382/275/378
f 429/308/425 422/282/418 424/306/420
f 422/282/418 429/308/425 430/284/426
f 430/284/426 421/281/417 422/282/418
f 421/281/417 430/284/426 420/283/416
f 409/320/405 433/309/429 411/311/407
f 433/309/429 409/320/405 407/317/403
f 434/313/430 374/321/370 373/315/369
f 374/321/370 434/313/430 399/322/395
f 401/319/397 399/322/395 434/313/430
usemtl Material07
f 435/323/431 436/324/432 437/325/433
f 435/323/431 438/326/434 436/324/432
f 439/327/435 438/326/434 435/323/431
f 439/327/435 440/328/436 438/326/434
f 441/329/437 440/328/436 439/327/435
f 441/329/437 442/330/438 440/328/436
f 443/331/439 442/330/438 441/329/437
f 443/331/439 444/328/440 442/330/438
f 445/329/441 444/328/440 443/331/439
f 445/329/441 446/326/442 444/328/440
f 447/327/443 446/326/442 445/329/441
f 447/327/443 448/324/444 446/326/442
f 449/323/445 448/324/444 447/327/443
f 449/323/445 450/325/446 448/324/444
f 447/327/443 450/325/446 449/323/445
f 447/327/443 451/332/447 450/325/446
f 452/333/448 451/332/447 447/327/443
f 452/333/448 453/334/449 451/332/447
f 454/335/450 453/334/449 452/333/448
f 454/335/450 444/328/440 453/334/449
f 455/336/451 444/328/440 454/335/450
f 455/336/451 442/330/438 444/328/440
f 456/335/452 442/330/438 455/336/451
f 456/335/452 440/328/436 442/330/438
f 457/334/453 440/328/436 456/335/452
f 457/334/453 438/326/434 440/328/436
f 458/332/454 438/326/434 457/334/453
f 458/332/454 436/324/432 438/326/434
f 437/325/433 436/324/432 458/332/454
f 446/326/442 453/334/449 444/328/440
f 446/326/442 451/332/447 453/334/449
f 448/324/444 451/332/447 446/326/442
f 448/324/444 450/325/446 451/332/447
f 458/332/454 435/323/431 437/325/433
f 458/332/454 439/327/435 435/323/431
f 457/334/453 439/327/435 458/332/454
f 457/334/453 459/333/455 439/327/435
f 456/335/452 459/333/455 457/334/453
f 456/335/452 443/331/439 459/333/455
f 455/336/451 443/331/439 456/335/452
f 455/336/451 452/333/448 443/331/439
f 454/335/450 452/333/448 455/336/451
f 459/333/455 441/329/437 439/327/435
f 441/329/437 459/333/455 443/331/439
f 452/333/448 445/329/441 443/331/439
f 445/329/441 452/333/448 447/327/443
usemtl Material04
f 72/337/298 460/338/456 74/339/302
f 72/337/298 461/135/457 460/338/456
f 73/340/300 461/135/457 72/337/298
f 73/340/300 462/341/458 461/135/457
f 79/342/333 462/341/458 73/340/300
f 79/342/333 463/343/459 462/341/458
f 80/344/347 463/343/459 79/342/333
f 80/344/347 464/345/460 463/343/459
f 81/346/348 464/345/460 80/344/347
f 81/346/348 465/347/461 464/345/460
f 82/348/349 465/347/461 81/346/348
f 82/348/349 466/349/462 465/347/461
f 83/350/358 466/349/462 82/348/349
f 83/350/358 467/351/463 466/349/462
f 78/352/310 467/351/463 83/350/358
f 78/352/310 468/353/464 467/351/463
f 77/354/308 468/353/464 78/352/310
f 77/354/308 469/355/465 468/353/464
f 76/356/306 469/355/465 77/354/308
f 76/356/306 470/357/466 469/355/465
f 75/358/304 470/357/466 76/356/306
f 75/358/304 471/359/467 470/357/466
f 74/360/302 471/359/467 75/358/304
f 74/360/302 460/361/456 471/359/467
f 461/135/457 472/362/468 460/338/456
f 461/135/457 473/363/469 472/362/468
f 462/341/458 473/363/469 461/135/457
f 462/341/458 474/364/470 473/363/469
f 463/343/459 474/364/470 462/341/458
f 463/343/459 475/365/471 474/364/470
f 464/345/460 475/365/471 463/343/459
f 464/345/460 476/366/472 475/365/471
f 465/347/461 476/366/472 464/345/460
f 465/347/461 477/367/473 476/366/472
f 466/349/462 477/367/473 465/347/461
f 466/349/462 478/368/474 477/367/473
f 467/351/463 478/368/474 466/349/462
f 467/351/463 479/369/475 478/368/474
f 468/353/464 479/369/475 467/351/463
f 468/353/464 480/370/476 479/369/475
f 469/355/465 480/370/476 468/353/464
f 469/355/465 481/371/477 480/370/476
f 470/357/466 481/371/477 469/355/465
f 470/357/466 482/372/478 481/371/477
f 471/359/467 482/372/478 470/357/466
f 471/359/467 483/373/479 482/372/478
f 460/361/456 483/373/479 471/359/467
f 460/361/456 472/374/468 483/373/479
f 473/363/469 484/375/480 472/362/468
f 484/375/480 473/363/469 474/364/470
f 475/365/471 484/375/480 474/364/470
f 484/375/480 475/365/471 476/366/472
f 484/375/480 483/373/479 472/374/468
f 483/373/479 484/375/480 482/372/478
f 481/371/477 482/372/478 484/375/480
f 484/375/480 480/370/476 481/371/477
f 480/370/476 484/375/480 479/369/475
f 478/368/474 479/369/475 484/375/480
f 484/375/480 477/367/473 478/368/474
f 477/367/473 484/375/480 476/366/472
usemtl Material06.001
f 488/1/481 489/2/482 485/3/483
f 488/1/481 490/4/484 489/2/482
f 491/5/485 490/4/484 488/1/481
f 491/5/485 492/6/486 490/4/484
f 493/7/487 492/6/486 491/5/485
f 493/7/487 494/8/488 492/6/486
f 495/9/489 494/8/488 493/7/487
f 495/9/489 496/10/490 494/8/488
f 497/11/491 496/10/490 495/9/489
f 497/11/491 498/12/492 496/10/490
f 486/13/493 498/12/492 497/11/491
f 486/13/493 499/14/494 498/12/492
f 487/15/495 499/14/494 486/13/493
f 487/15/495 500/16/496 499/14/494
f 485/17/483 500/16/496 487/15/495
f 485/17/483 489/18/482 500/16/496
f 501/19/497 502/20/498 503/21/499
f 501/19/497 504/22/500 502/20/498
f 505/23/501 504/22/500 501/19/497
f 505/23/501 506/24/502 504/22/500
f 507/25/503 506/24/502 505/23/501
f 507/25/503 508/26/504 506/24/502
f 509/27/505 508/26/504 507/25/503
f 509/27/505 510/28/506 508/26/504
f 511/29/507 510/28/506 509/27/505
f 496/10/490 512/30/508 494/8/488
f 496/10/490 513/31/509 512/30/508
f 498/12/492 513/31/509 496/10/490
f 498/12/492 514/32/510 513/31/509
f 499/14/494 514/32/510 498/12/492
f 499/14/494 500/16/496 514/32/510
f 504/22/500 515/33/511 502/20/498
f 504/22/500 516/34/512 515/33/511
f 506/24/502 516/34/512 504/22/500
f 506/24/502 514/32/510 516/34/512
f 490/4/484 517/35/513 515/36/511
f 517/35/513 490/4/484 492/6/486
f 492/6/486 494/8/488 517/35/513
f 518/37/514 511/29/507 509/27/505
f 511/29/507 518/37/514 502/38/498
f 503/39/499 502/38/498 518/37/514
f 515/36/511 511/29/507 502/38/498
f 511/29/507 515/36/511 517/35/513
f 511/29/507 512/30/508 510/28/506
f 512/30/508 511/29/507 517/35/513
f 494/8/488 512/30/508 517/35/513
f 512/30/508 508/26/504 510/28/506
f 508/26/504 512/30/508 513/31/509
f 508/26/504 514/32/510 506/24/502
f 514/32/510 508/26/504 513/31/509
f 500/16/496 516/34/512 514/32/510
f 516/34/512 500/16/496 489/18/482
f 489/18/482 515/33/511 516/34/512
f 515/33/511 489/18/482 490/40/484
f 519/41/515 503/21/499 520/42/516
f 519/41/515 501/19/497 503/21/499
f 521/43/517 501/19/497 519/41/515
f 521/43/517 505/23/501 501/19/497
f 522/44/518 505/23/501 521/43/517
f 522/44/518 507/25/503 505/23/501
f 523/45/519 507/25/503 522/44/518
f 523/45/519 509/27/505 507/25/503
f 524/46/520 509/27/505 523/45/519
f 524/46/520 518/37/514 509/27/505
f 525/47/521 518/37/514 524/46/520
f 525/47/521 503/39/499 518/37/514
f 520/48/516 503/39/499 525/47/521
f 526/49/522 523/50/519 522/51/518
f 526/49/522 527/52/523 523/50/519
f 528/53/524 527/52/523 526/49/522
f 528/53/524 529/54/525 527/52/523
f 530/55/526 529/54/525 528/53/524
f 530/55/526 531/56/527 529/54/525
f 532/57/528 529/54/525 531/56/527
f 532/57/528 527/52/523 529/54/525
f 524/58/520 527/52/523 532/57/528
f 524/58/520 523/50/519 527/52/523
f 533/59/529 532/57/528 534/60/530
f 533/59/529 535/61/531 532/57/528
f 536/62/532 535/61/531 533/59/529
f 536/62/532 537/63/533 535/61/531
f 538/64/534 537/63/533 536/62/532
f 538/64/534 539/65/535 537/63/533
f 540/66/536 539/65/535 538/64/534
f 540/66/536 541/67/537 539/65/535
f 542/68/538 541/67/537 540/66/536
f 542/68/538 543/69/539 541/67/537
f 544/70/540 543/69/539 542/68/538
f 544/70/540 545/71/541 543/69/539
f 546/72/542 545/71/541 544/70/540
f 546/72/542 547/73/543 545/71/541
f 525/74/521 547/73/543 546/72/542
f 525/74/521 524/58/520 547/73/543
f 543/69/539 539/65/535 541/67/537
f 543/69/539 537/63/533 539/65/535
f 545/71/541 537/63/533 543/69/539
f 545/71/541 535/61/531 537/63/533
f 547/73/543 535/61/531 545/71/541
f 547/73/543 524/58/520 535/61/531
f 546/72/542 520/75/516 525/74/521
f 546/72/542 519/76/515 520/75/516
f 548/77/544 519/76/515 546/72/542
f 548/77/544 521/78/517 519/76/515
f 549/79/545 521/78/517 548/77/544
f 549/79/545 533/80/529 521/78/517
f 550/81/546 533/80/529 549/79/545
f 550/81/546 536/82/532 533/80/529
f 551/83/547 536/82/532 550/81/546
f 551/83/547 538/84/534 536/82/532
f 552/85/548 538/84/534 551/83/547
f 552/85/548 540/86/536 538/84/534
f 553/87/549 540/86/536 552/85/548
f 553/87/549 542/88/538 540/86/536
f 554/89/550 542/88/538 553/87/549
f 554/89/550 544/70/540 542/88/538
f 548/77/544 544/70/540 554/89/550
f 548/77/544 546/72/542 544/70/540
f 534/90/530 526/91/522 522/92/518
f 534/90/530 528/93/524 526/91/522
f 555/94/551 528/93/524 534/90/530
f 555/94/551 530/95/526 528/93/524
f 531/96/527 530/95/526 555/94/551
f 554/89/550 549/79/545 548/77/544
f 554/89/550 550/81/546 549/79/545
f 552/85/548 550/81/546 554/89/550
f 552/85/548 551/83/547 550/81/546
f 532/57/528 535/61/531 524/58/520
f 533/80/529 522/92/518 521/78/517
f 522/92/518 533/80/529 534/90/530
f 534/90/530 531/96/527 555/94/551
f 531/96/527 534/90/530 532/97/528
f 553/87/549 552/85/548 554/89/550
