# Blender 3.6.2
# www.blender.org
mtllib skullarmor.mtl
o Sub-Model_0
v 0.044000 0.092000 -0.035000
v 0.088000 0.136000 0.000000
v 0.074000 0.127000 -0.061000
v 0.026000 0.092000 -0.057000
v -0.026000 0.092000 -0.058000
v 0.000000 0.083000 -0.053000
v 0.000000 0.118000 -0.092000
v -0.026000 0.118000 -0.092000
v -0.044000 0.092000 -0.035000
v -0.074000 0.127000 -0.061000
v -0.088000 0.136000 0.000000
v -0.042000 0.101000 0.085000
v 0.000000 0.057000 0.000000
v 0.079000 0.120000 0.055000
v 0.000000 0.096000 0.101000
v 0.070000 -0.131000 0.088000
v 0.000000 -0.153000 0.088000
v 0.000000 -0.088000 0.083000
v 0.000000 -0.092000 -0.094000
v 0.013000 -0.088000 -0.094000
v 0.000000 -0.057000 0.000000
v -0.083000 -0.096000 0.092000
v -0.131000 -0.092000 0.066000
v 0.333000 0.188000 0.053000
v 0.267000 0.123000 0.026000
v 0.258000 0.131000 0.017000
v 0.333000 0.188000 -0.053000
v 0.249000 0.140000 -0.026000
v 0.258000 0.131000 -0.017000
v 0.249000 0.140000 0.026000
v 0.258000 0.131000 -0.035000
v 0.269000 0.119000 -0.024000
v 0.267000 0.123000 -0.026000
v 0.258000 0.131000 0.035000
v 0.153000 0.109000 0.044000
v 0.180000 0.151000 0.024000
v 0.180000 0.151000 -0.024000
v 0.269000 0.119000 0.024000
v 0.202000 -0.002000 -0.024000
v 0.198000 0.116000 -0.073000
v 0.233000 0.155000 -0.024000
v 0.269000 0.119000 -0.049000
v 0.153000 0.074000 -0.057000
v 0.171000 0.044000 -0.048000
v 0.185000 0.033000 -0.073000
v 0.258000 0.069000 -0.073000
v 0.250000 0.120000 -0.073000
v 0.202000 -0.002000 0.024000
v 0.198000 0.116000 0.073000
v 0.250000 0.120000 0.073000
v 0.233000 0.155000 0.024000
v 0.269000 0.119000 0.049000
v 0.153000 0.074000 0.057000
v 0.185000 0.033000 0.073000
v 0.288000 -0.014000 -0.039000
v 0.322000 -0.001000 -0.014000
v 0.284000 0.009000 0.000000
v 0.210000 0.017000 0.000000
v 0.322000 -0.001000 0.014000
v 0.286000 0.013000 0.043000
v 0.317000 0.025000 -0.014000
v 0.300000 0.058000 0.016000
v 0.286000 0.013000 -0.043000
v 0.288000 -0.014000 0.039000
v 0.317000 0.025000 0.014000
v 0.287000 0.084000 -0.041000
v 0.278000 0.101000 -0.065000
v 0.267000 0.101000 -0.044000
v 0.266000 0.052000 -0.049000
v 0.278000 0.101000 -0.016000
v 0.280000 0.068000 -0.029000
v 0.287000 0.084000 0.041000
v 0.267000 0.101000 0.044000
v 0.280000 0.068000 0.029000
v 0.278000 0.101000 0.016000
v 0.258000 0.069000 0.073000
v 0.278000 0.101000 0.065000
v 0.266000 0.052000 0.049000
v 0.300000 0.058000 -0.016000
v 0.301000 0.091000 0.000000
v 0.280000 0.066000 0.000000
v 0.074000 -0.083000 0.096000
v 0.009000 -0.079000 0.092000
v 0.061000 -0.092000 0.096000
v 0.066000 -0.123000 0.101000
v 0.070000 -0.101000 0.105000
v 0.057000 -0.114000 0.092000
v 0.118000 0.118000 0.061000
v 0.127000 0.136000 0.000000
v 0.162000 0.048000 0.088000
v 0.153000 0.031000 0.044000
v 0.149000 0.057000 0.079000
v 0.171000 0.044000 0.048000
v 0.083000 0.044000 0.109000
v 0.088000 0.053000 0.123000
v 0.162000 -0.013000 0.000000
v 0.179000 0.000000 0.000000
v 0.162000 0.009000 0.092000
v 0.149000 -0.004000 0.083000
v 0.088000 0.013000 0.127000
v 0.083000 0.022000 0.114000
v 0.083000 0.004000 0.114000
v 0.153000 -0.035000 0.083000
v 0.140000 -0.048000 0.074000
v 0.079000 -0.031000 0.118000
v 0.131000 -0.092000 0.066000
v 0.083000 -0.096000 0.092000
v 0.131000 -0.070000 0.066000
v 0.140000 -0.081000 0.074000
v 0.079000 -0.074000 0.109000
v 0.050000 0.105000 0.083000
v 0.057000 0.088000 0.083000
v 0.072000 0.116000 0.061000
v 0.053000 0.105000 0.079000
v 0.042000 0.101000 0.085000
v 0.070000 0.136000 0.059000
v 0.074000 0.120000 0.059000
v 0.044000 0.123000 0.079000
v 0.153000 0.057000 0.053000
v 0.096000 0.074000 0.092000
v 0.136000 0.127000 0.000000
v 0.158000 0.123000 0.000000
v 0.083000 0.105000 0.057000
v 0.083000 0.061000 0.109000
v 0.127000 0.109000 0.057000
v 0.105000 0.105000 0.057000
v 0.114000 0.127000 0.000000
v 0.162000 0.013000 0.000000
v 0.149000 0.017000 0.083000
v 0.149000 0.035000 0.079000
v 0.000000 -0.013000 0.109000
v 0.074000 -0.022000 0.105000
v 0.153000 -0.031000 0.000000
v 0.140000 -0.026000 0.074000
v 0.147000 -0.074000 0.000000
v 0.153000 -0.057000 0.000000
v 0.074000 -0.039000 0.105000
v 0.074000 -0.066000 0.096000
v 0.000000 -0.053000 0.101000
v 0.000000 -0.096000 0.092000
v 0.000000 -0.079000 0.101000
v 0.000000 -0.035000 0.109000
v 0.009000 -0.035000 0.101000
v 0.009000 0.009000 0.109000
v 0.000000 0.009000 0.118000
v 0.000000 0.026000 0.109000
v 0.000000 0.048000 0.114000
v 0.009000 0.048000 0.105000
v 0.013000 -0.070000 -0.101000
v 0.000000 -0.079000 -0.096000
v 0.000000 -0.035000 -0.109000
v 0.000000 0.009000 -0.118000
v 0.000000 0.048000 -0.114000
v 0.044000 0.118000 -0.083000
v 0.039000 0.096000 -0.092000
v 0.092000 0.127000 0.000000
v 0.026000 0.118000 -0.092000
v 0.035000 0.118000 -0.090000
v 0.028000 0.149000 -0.081000
v 0.118000 0.118000 -0.061000
v 0.096000 0.074000 -0.092000
v 0.105000 0.105000 -0.057000
v 0.088000 0.053000 -0.123000
v 0.162000 0.048000 -0.088000
v 0.149000 0.035000 -0.079000
v 0.149000 0.057000 -0.079000
v 0.013000 0.022000 -0.118000
v 0.088000 0.013000 -0.127000
v 0.162000 0.009000 -0.092000
v 0.149000 0.017000 -0.083000
v 0.079000 -0.031000 -0.118000
v 0.013000 -0.044000 -0.109000
v 0.013000 -0.026000 -0.109000
v 0.153000 -0.035000 -0.083000
v 0.140000 -0.048000 -0.074000
v 0.171000 -0.044000 0.000000
v 0.140000 -0.026000 -0.074000
v 0.079000 -0.074000 -0.109000
v 0.140000 -0.081000 -0.074000
v 0.131000 -0.092000 -0.066000
v 0.074000 -0.083000 -0.096000
v 0.074000 -0.066000 -0.096000
v 0.147000 -0.101000 0.000000
v 0.162000 -0.088000 0.000000
v 0.079000 0.114000 -0.061000
v 0.057000 0.088000 -0.101000
v 0.013000 0.057000 -0.109000
v 0.083000 0.061000 -0.109000
v 0.153000 0.057000 -0.053000
v 0.127000 0.109000 -0.057000
v 0.153000 0.109000 -0.044000
v 0.083000 0.022000 -0.114000
v 0.013000 0.039000 -0.114000
v 0.083000 0.044000 -0.109000
v 0.153000 0.031000 -0.044000
v 0.149000 -0.004000 -0.083000
v 0.083000 0.004000 -0.114000
v 0.074000 -0.022000 -0.105000
v 0.013000 0.000000 -0.114000
v 0.074000 -0.039000 -0.105000
v 0.131000 -0.070000 -0.066000
v -0.280000 0.066000 0.000000
v -0.301000 0.091000 0.000000
v -0.278000 0.101000 -0.016000
v -0.322000 -0.001000 0.014000
v -0.322000 -0.001000 -0.014000
v -0.284000 0.009000 0.000000
v -0.210000 0.017000 0.000000
v -0.158000 0.123000 0.000000
v -0.180000 0.151000 0.024000
v -0.269000 0.119000 0.049000
v -0.267000 0.123000 0.026000
v -0.269000 0.119000 -0.024000
v -0.269000 0.119000 0.024000
v -0.258000 0.131000 -0.017000
v -0.258000 0.131000 0.017000
v -0.249000 0.140000 0.026000
v -0.267000 0.123000 -0.026000
v -0.249000 0.140000 -0.026000
v -0.258000 0.131000 -0.035000
v -0.333000 0.188000 -0.053000
v -0.333000 0.188000 0.053000
v -0.258000 0.069000 -0.073000
v -0.202000 -0.002000 -0.024000
v -0.233000 0.155000 -0.024000
v -0.269000 0.119000 -0.049000
v -0.250000 0.120000 -0.073000
v -0.180000 0.151000 -0.024000
v -0.171000 0.044000 -0.048000
v -0.153000 0.074000 -0.057000
v -0.185000 0.033000 -0.073000
v -0.198000 0.116000 -0.073000
v -0.162000 0.013000 0.000000
v -0.258000 0.069000 0.073000
v -0.202000 -0.002000 0.024000
v -0.250000 0.120000 0.073000
v -0.233000 0.155000 0.024000
v -0.258000 0.131000 0.035000
v -0.153000 0.074000 0.057000
v -0.185000 0.033000 0.073000
v -0.198000 0.116000 0.073000
v -0.278000 0.101000 0.065000
v -0.286000 0.013000 -0.043000
v -0.317000 0.025000 -0.014000
v -0.317000 0.025000 0.014000
v -0.288000 -0.014000 -0.039000
v -0.286000 0.013000 0.043000
v -0.288000 -0.014000 0.039000
v -0.300000 0.058000 -0.016000
v -0.266000 0.052000 -0.049000
v -0.280000 0.068000 -0.029000
v -0.278000 0.101000 -0.065000
v -0.267000 0.101000 -0.044000
v -0.287000 0.084000 -0.041000
v -0.287000 0.084000 0.041000
v -0.280000 0.068000 0.029000
v -0.300000 0.058000 0.016000
v -0.266000 0.052000 0.049000
v -0.267000 0.101000 0.044000
v -0.278000 0.101000 0.016000
v -0.057000 0.088000 0.083000
v -0.053000 0.105000 0.079000
v -0.079000 0.120000 0.055000
v -0.083000 0.105000 0.057000
v -0.044000 0.123000 0.079000
v -0.050000 0.105000 0.083000
v -0.072000 0.116000 0.061000
v -0.074000 0.120000 0.059000
v -0.070000 0.136000 0.059000
v -0.074000 -0.083000 0.096000
v -0.061000 -0.092000 0.096000
v -0.070000 -0.101000 0.105000
v -0.066000 -0.123000 0.101000
v -0.070000 -0.131000 0.088000
v -0.057000 -0.114000 0.092000
v -0.118000 0.118000 0.061000
v -0.114000 0.127000 0.000000
v -0.127000 0.136000 0.000000
v -0.088000 0.053000 0.123000
v -0.162000 0.048000 0.088000
v -0.149000 0.035000 0.079000
v -0.171000 0.044000 0.048000
v -0.149000 0.057000 0.079000
v -0.153000 0.057000 0.053000
v -0.009000 0.009000 0.109000
v -0.088000 0.013000 0.127000
v -0.083000 0.004000 0.114000
v -0.083000 0.022000 0.114000
v -0.162000 0.009000 0.092000
v -0.162000 -0.013000 0.000000
v -0.149000 -0.004000 0.083000
v -0.179000 0.000000 0.000000
v -0.009000 -0.035000 0.101000
v -0.079000 -0.031000 0.118000
v -0.140000 -0.048000 0.074000
v -0.153000 -0.035000 0.083000
v -0.153000 -0.031000 0.000000
v -0.171000 -0.044000 0.000000
v -0.153000 -0.057000 0.000000
v -0.162000 -0.088000 0.000000
v -0.147000 -0.101000 0.000000
v -0.147000 -0.074000 0.000000
v -0.140000 -0.081000 0.074000
v -0.074000 -0.066000 0.096000
v -0.079000 -0.074000 0.109000
v -0.009000 -0.079000 0.092000
v 0.000000 0.074000 0.105000
v -0.083000 0.061000 0.109000
v -0.105000 0.105000 0.057000
v -0.096000 0.074000 0.092000
v -0.153000 0.109000 0.044000
v -0.127000 0.109000 0.057000
v -0.153000 0.031000 0.044000
v -0.149000 0.017000 0.083000
v -0.083000 0.044000 0.109000
v -0.140000 -0.026000 0.074000
v -0.074000 -0.022000 0.105000
v -0.131000 -0.070000 0.066000
v -0.074000 -0.039000 0.105000
v -0.009000 0.048000 0.105000
v -0.035000 0.118000 -0.090000
v -0.044000 0.118000 -0.083000
v -0.028000 0.149000 -0.081000
v -0.013000 -0.070000 -0.101000
v -0.013000 -0.044000 -0.109000
v -0.105000 0.105000 -0.057000
v -0.118000 0.118000 -0.061000
v -0.153000 0.031000 -0.044000
v -0.162000 0.048000 -0.088000
v -0.153000 0.057000 -0.053000
v -0.149000 0.057000 -0.079000
v -0.083000 0.061000 -0.109000
v -0.088000 0.053000 -0.123000
v -0.013000 0.057000 -0.109000
v -0.088000 0.013000 -0.127000
v -0.162000 0.009000 -0.092000
v -0.013000 0.022000 -0.118000
v -0.083000 0.022000 -0.114000
v -0.153000 -0.035000 -0.083000
v -0.079000 -0.031000 -0.118000
v -0.074000 -0.022000 -0.105000
v -0.013000 -0.026000 -0.109000
v -0.074000 -0.039000 -0.105000
v -0.131000 -0.092000 -0.066000
v -0.131000 -0.070000 -0.066000
v -0.074000 -0.083000 -0.096000
v -0.140000 -0.081000 -0.074000
v -0.013000 -0.088000 -0.094000
v -0.079000 -0.074000 -0.109000
v -0.153000 0.109000 -0.044000
v -0.127000 0.109000 -0.057000
v -0.136000 0.127000 0.000000
v -0.092000 0.127000 0.000000
v -0.079000 0.114000 -0.061000
v -0.096000 0.074000 -0.092000
v -0.057000 0.088000 -0.101000
v -0.039000 0.096000 -0.092000
v 0.000000 0.092000 -0.096000
v -0.149000 0.035000 -0.079000
v -0.083000 0.044000 -0.109000
v -0.149000 0.017000 -0.083000
v -0.013000 0.039000 -0.114000
v -0.149000 -0.004000 -0.083000
v -0.083000 0.004000 -0.114000
v -0.140000 -0.026000 -0.074000
v -0.013000 0.000000 -0.114000
v -0.074000 -0.066000 -0.096000
v -0.140000 -0.048000 -0.074000
vn -0.6661 0.7401 -0.0926
vn -0.7290 0.6819 0.0588
vn -0.5119 0.7551 0.4096
vn -0.4138 0.8481 0.3310
vn -0.5107 0.7539 0.4133
vn -0.2873 0.7663 0.5747
vn -0.0000 0.7474 0.6644
vn -0.1643 0.7891 0.5919
vn -0.2183 0.8728 0.4365
vn 0.1963 0.8770 0.4385
vn 0.1270 0.7818 0.6104
vn 0.2942 0.7534 0.5881
vn 0.4234 0.8480 0.3187
vn 0.6661 0.7401 -0.0926
vn 0.5242 0.7547 0.3946
vn 0.5154 0.7449 0.4236
vn 0.7290 0.6819 0.0588
vn 0.6656 0.7395 0.1006
vn 0.5953 0.8004 -0.0713
vn 0.5650 0.8160 -0.1221
vn 0.4695 0.8574 -0.2109
vn 0.2263 0.9071 -0.3550
vn -0.6656 0.7395 0.1006
vn -0.5953 0.8004 -0.0713
vn -0.5650 0.8160 -0.1221
vn -0.4695 0.8574 -0.2109
vn -0.2263 0.9071 -0.3550
vn -0.2264 0.9070 -0.3551
vn 0.1128 0.0816 -0.9903
vn 0.0207 -0.0664 -0.9976
vn 0.0208 -0.0664 -0.9976
vn -0.0208 -0.0664 -0.9976
vn -0.0207 -0.0664 -0.9976
vn -0.1128 0.0816 -0.9903
vn 0.2981 -0.8946 0.3328
vn 0.0789 -0.9446 0.3186
vn -0.2066 -0.9727 0.1057
vn -0.2854 -0.9565 -0.0608
vn -0.2854 -0.9565 0.0608
vn -0.2855 -0.9564 0.0608
vn -0.0901 -0.9424 -0.3223
vn -0.0623 -0.9365 -0.3450
vn 0.0623 -0.9365 -0.3450
vn 0.0901 -0.9424 -0.3223
vn 0.2854 -0.9565 0.0608
vn 0.2854 -0.9565 -0.0608
vn 0.2855 -0.9564 -0.0608
vn -0.2981 -0.8946 0.3328
vn -0.0789 -0.9446 0.3186
vn 0.2065 -0.9727 0.1057
vn 0.2066 -0.9727 0.1057
vn 0.5568 -0.2387 -0.7956
vn 0.2387 -0.5568 0.7956
vn -0.1269 0.6350 -0.7620
vn -0.4614 0.3527 0.8141
vn 0.2387 -0.5568 -0.7956
vn -0.4614 0.3527 -0.8141
vn -0.1269 0.6350 0.7620
vn 0.5568 -0.2387 0.7956
vn 0.6822 0.7312 -0.0000
vn 0.7071 0.7071 -0.0000
vn 0.7731 0.6140 -0.1592
vn 0.7395 0.6731 -0.0000
vn 0.7731 0.6140 0.1592
vn 0.6778 0.7332 -0.0554
vn 0.8233 0.5676 -0.0000
vn 0.7219 0.6913 -0.0305
vn 0.6778 0.7332 0.0554
vn 0.7219 0.6913 0.0305
vn -0.8125 0.5757 0.0915
vn -0.8125 0.5757 -0.0915
vn -0.7788 0.6272 -0.0000
vn -0.0830 0.9965 -0.0000
vn 0.8944 0.4472 -0.0000
vn 0.3491 -0.6985 -0.6247
vn 0.3491 -0.6984 -0.6247
vn -0.3628 -0.8144 -0.4529
vn -0.4671 -0.8492 -0.2464
vn -0.5566 0.2917 -0.7778
vn -0.4968 0.6118 -0.6155
vn -0.0667 0.8001 -0.5962
vn -0.0666 0.8001 -0.5962
vn 0.6564 0.7433 -0.1294
vn 0.5264 0.7693 -0.3621
vn 0.5935 0.6872 -0.4189
vn 0.0606 -0.2422 -0.9683
vn -0.8149 -0.5317 -0.2309
vn -0.5783 0.5796 -0.5742
vn -0.3943 0.0623 -0.9169
vn -0.0000 -0.0000 -1.0000
vn 0.3098 0.0442 -0.9498
vn 0.6564 0.7433 0.1294
vn 0.5935 0.6872 0.4189
vn 0.3491 -0.6985 0.6247
vn -0.3628 -0.8144 0.4529
vn -0.4671 -0.8492 0.2464
vn -0.5557 0.3037 0.7740
vn -0.4968 0.6118 0.6155
vn -0.0667 0.8001 0.5962
vn -0.0666 0.8001 0.5962
vn 0.5264 0.7693 0.3621
vn 0.0352 -0.2737 0.9612
vn -0.8135 -0.5346 0.2290
vn -0.5783 0.5796 0.5742
vn -0.3822 0.0603 0.9221
vn -0.3821 0.0603 0.9221
vn -0.0000 -0.0000 1.0000
vn 0.3098 0.0442 0.9498
vn -0.0359 -0.8696 0.4924
vn -0.1020 -0.8681 0.4858
vn 0.0024 -0.7817 0.6237
vn 0.0717 -0.7902 0.6086
vn 0.0717 -0.7902 -0.6086
vn 0.0024 -0.7817 -0.6237
vn -0.1020 -0.8681 -0.4858
vn -0.0359 -0.8696 -0.4924
vn -0.2515 -0.9679 -0.0000
vn -0.1709 -0.2310 -0.9578
vn -0.1709 -0.2310 0.9578
vn 0.6253 0.1980 0.7549
vn 0.6252 0.1980 0.7549
vn 0.6252 0.1981 -0.7549
vn 0.6253 0.1980 -0.7549
vn 0.6252 0.1980 -0.7549
vn 0.6423 0.2847 0.7116
vn 0.6423 0.2846 -0.7116
vn 0.8912 0.4536 -0.0000
vn 0.9829 0.1843 -0.0000
vn 0.5679 0.1064 -0.8162
vn 0.6871 -0.0422 -0.7254
vn -0.1899 -0.1440 -0.9712
vn -0.1899 -0.1440 0.9712
vn 0.5679 0.1064 0.8162
vn 0.6871 -0.0422 0.7254
vn 0.6399 0.7146 -0.2825
vn 0.5754 0.7485 0.3296
vn 0.8859 0.0108 0.4638
vn 0.9048 -0.2234 -0.3626
vn 0.9048 -0.2234 -0.3625
vn 0.6326 0.3162 -0.7070
vn 0.7700 -0.3555 -0.5298
vn 0.9165 -0.0874 0.3904
vn 0.8476 -0.4844 -0.2166
vn 0.6399 0.7146 0.2825
vn 0.8859 0.0108 -0.4638
vn 0.5754 0.7485 -0.3296
vn 0.9048 -0.2234 0.3625
vn 0.9048 -0.2234 0.3626
vn 0.9165 -0.0874 -0.3904
vn 0.7700 -0.3555 0.5298
vn 0.8476 -0.4844 0.2166
vn 0.6326 0.3162 0.7070
vn 0.4646 -0.4033 0.7883
vn 0.4646 -0.4033 -0.7883
vn 0.3974 0.9176 -0.0000
vn 0.6326 0.3161 0.7070
vn 0.6326 0.3161 -0.7070
vn 0.4007 0.9162 -0.0000
vn -0.0603 0.0903 0.9941
vn 0.2403 -0.7689 0.5926
vn -0.3706 0.4448 0.8154
vn -0.7071 -0.0000 0.7071
vn 0.8499 -0.2615 0.4575
vn 0.7187 -0.3449 0.6037
vn -0.3245 0.4866 0.8111
vn 0.6594 0.1977 0.7253
vn -0.0237 -0.0766 0.9968
vn -0.0569 -0.1848 0.9811
vn -0.0737 0.0369 0.9966
vn 0.6082 0.2281 0.7603
vn -0.7184 0.6025 0.3476
vn 0.6722 0.6722 0.3103
vn 0.7452 0.6055 0.2795
vn -0.7235 0.6742 0.1479
vn -0.5479 0.8218 0.1565
vn 0.5518 -0.8065 0.2122
vn 0.6362 -0.7517 0.1736
vn 0.5419 0.8400 0.0271
vn 0.6130 0.7834 0.1023
vn 0.2676 -0.7053 0.6565
vn 0.1299 -0.8444 0.5197
vn 0.2705 0.8402 0.4700
vn 0.2671 0.8516 0.4510
vn -0.0815 -0.8165 0.5716
vn -0.1741 0.7916 0.5858
vn 0.5894 -0.7859 0.1870
vn 0.6333 -0.7529 0.1792
vn 0.5436 0.8390 0.0237
vn 0.5992 0.7989 0.0525
vn 0.5871 -0.7829 0.2060
vn 0.6235 -0.7561 0.1990
vn 0.5425 0.8397 0.0259
vn 0.5989 0.7986 0.0588
vn -0.0925 -0.8140 0.5735
vn -0.1960 0.7844 0.5884
vn 0.4770 0.0251 0.8785
vn 0.6301 -0.7351 0.2502
vn 0.6503 -0.7182 0.2475
vn 0.7109 0.6875 0.1484
vn 0.7109 0.6874 0.1485
vn 0.6475 0.7554 0.1008
vn 0.2808 -0.7263 0.6274
vn 0.1470 -0.8449 0.5144
vn 0.3406 0.8308 0.4402
vn 0.3615 0.7414 0.5654
vn -0.1961 0.7844 0.5884
vn 0.5090 0.1704 0.8437
vn 0.2053 0.0769 0.9757
vn 0.8638 0.4319 0.2593
vn 0.9190 0.2993 0.2566
vn 0.6767 0.2900 0.6767
vn 0.5488 0.3294 0.7683
vn 0.5634 0.2460 0.7887
vn 0.8479 0.3181 0.4241
vn 0.3093 0.2063 0.9283
vn 0.3094 0.2063 0.9283
vn 0.3225 0.1855 0.9282
vn -0.4365 -0.2183 -0.8728
vn -0.6457 -0.1555 -0.7476
vn 0.6931 0.1980 0.6931
vn 0.5331 0.1523 0.8322
vn 0.8165 0.4082 0.4083
vn 0.8165 0.4083 0.4083
vn 0.1006 0.2766 0.9557
vn 0.9853 -0.0466 0.1643
vn 0.4392 0.5291 0.7261
vn -0.0000 0.7526 0.6584
vn 0.4800 0.3738 0.7937
vn 0.1563 0.9371 0.3123
vn 0.1870 0.9356 0.2994
vn 0.3435 0.6892 0.6380
vn 0.0850 0.7654 0.6379
vn 0.1270 0.7620 0.6350
vn -0.1543 0.6172 0.7715
vn 0.3343 0.1113 0.9359
vn 0.4219 0.3311 0.8440
vn -0.0000 0.9334 0.3590
vn 0.9817 0.1189 0.1487
vn 0.9923 0.0300 0.1204
vn 0.4246 0.2195 0.8784
vn 0.4355 0.1765 0.8827
vn -0.0413 0.1960 0.9797
vn -0.0539 -0.0271 0.9982
vn -0.0449 0.2131 0.9760
vn -0.0574 0.0229 0.9981
vn 0.0178 -0.3215 0.9467
vn 0.0115 -0.3674 0.9300
vn 0.3242 -0.4602 0.8265
vn 0.3652 -0.4016 0.8398
vn 0.8848 -0.4277 0.1848
vn 0.8797 -0.4397 0.1811
vn 0.8677 -0.4397 0.2317
vn 0.9170 -0.3438 0.2024
vn 0.4375 -0.2844 0.8530
vn -0.0000 -0.3162 0.9487
vn -0.0644 0.0322 0.9974
vn 0.6667 -0.3332 0.6667
vn 0.7071 -0.0000 0.7071
vn 0.6804 -0.2722 0.6804
vn 0.6667 0.3332 0.6667
vn 0.7001 -0.1401 0.7001
vn 0.6882 0.2295 0.6882
vn 0.0547 -0.1641 -0.9849
vn -0.1047 -0.3145 -0.9435
vn -0.0779 -0.3500 -0.9335
vn -0.0779 -0.3501 -0.9335
vn -0.1882 -0.2822 -0.9407
vn 0.1089 -0.1633 -0.9805
vn 0.1924 -0.1924 -0.9623
vn -0.2356 0.2356 -0.9429
vn 0.0735 0.1101 -0.9912
vn 0.1597 0.2395 -0.9577
vn 0.0618 0.3706 -0.9267
vn 0.5884 0.1960 -0.7844
vn 0.5232 0.2241 -0.8222
vn 0.5513 0.1839 -0.8138
vn 0.9156 0.3052 -0.2617
vn 0.8666 0.4333 -0.2475
vn 0.2400 0.1441 -0.9600
vn 0.1035 0.0620 -0.9927
vn -0.0000 0.1643 -0.9864
vn 0.5649 0.3364 -0.7534
vn 0.2305 0.3128 -0.9214
vn 0.7452 0.6055 -0.2795
vn 0.6722 0.6722 -0.3103
vn 0.6082 0.2281 -0.7603
vn 0.6082 0.2280 -0.7604
vn -0.7184 0.6025 -0.3476
vn -0.7235 0.6742 -0.1479
vn -0.5479 0.8218 -0.1565
vn -0.5479 0.8218 -0.1566
vn 0.0859 -0.8419 -0.5327
vn -0.1550 0.2395 -0.9584
vn -0.0515 0.8230 -0.5657
vn 0.2676 -0.7053 -0.6565
vn 0.1299 -0.8444 -0.5197
vn 0.2705 0.8402 -0.4700
vn 0.2671 0.8516 -0.4510
vn 0.5518 -0.8065 -0.2122
vn 0.6362 -0.7517 -0.1736
vn 0.5419 0.8400 -0.0271
vn 0.6130 0.7834 -0.1023
vn 0.0525 -0.8389 -0.5418
vn -0.1372 -0.1943 -0.9713
vn 0.0342 0.8368 -0.5465
vn 0.6333 -0.7529 -0.1792
vn 0.6332 -0.7529 -0.1792
vn 0.5894 -0.7859 -0.1870
vn 0.5436 0.8390 -0.0237
vn 0.5992 0.7989 -0.0525
vn 0.0979 -0.8428 -0.5293
vn -0.1321 -0.0000 -0.9912
vn -0.0193 0.8289 -0.5591
vn 0.6235 -0.7561 -0.1990
vn 0.5871 -0.7829 -0.2060
vn 0.5425 0.8397 -0.0259
vn 0.5989 0.7986 -0.0588
vn 0.0403 -0.8376 -0.5448
vn -0.1467 -0.3474 -0.9262
vn 0.2808 -0.7263 -0.6274
vn 0.1470 -0.8449 -0.5144
vn 0.3406 0.8308 -0.4402
vn 0.3615 0.7414 -0.5654
vn 0.6503 -0.7182 -0.2475
vn 0.6301 -0.7351 -0.2502
vn 0.7109 0.6875 -0.1484
vn 0.7109 0.6874 -0.1485
vn 0.6475 0.7554 -0.1008
vn 0.3445 0.9001 -0.2666
vn -0.0000 0.9334 -0.3590
vn -0.0000 0.9334 -0.3589
vn 0.3332 0.6667 -0.6667
vn 0.3587 0.5977 -0.7171
vn 0.3665 0.6672 -0.6484
vn 0.1043 0.7998 -0.5911
vn -0.1770 0.4959 -0.8502
vn -0.0188 0.2993 -0.9540
vn 0.4392 0.5291 -0.7261
vn 0.3435 0.6892 -0.6380
vn 0.9853 -0.0466 -0.1643
vn 0.4800 0.3738 -0.7937
vn 0.4219 0.3311 -0.8440
vn 0.1563 0.9371 -0.3123
vn 0.1870 0.9356 -0.2994
vn 0.0606 0.2422 -0.9683
vn 0.0491 0.1958 -0.9794
vn 0.4258 0.1775 -0.8872
vn 0.4365 0.2183 -0.8728
vn 0.9923 0.0300 -0.1204
vn 0.9817 0.1189 -0.1487
vn 0.8797 -0.4397 -0.1811
vn 0.8848 -0.4277 -0.1848
vn 0.3242 -0.4602 -0.8265
vn 0.3652 -0.4016 -0.8398
vn 0.0200 -0.3222 -0.9465
vn 0.0820 -0.1638 -0.9831
vn 0.0901 -0.3149 -0.9448
vn 0.4375 -0.2844 -0.8530
vn 0.8677 -0.4397 -0.2317
vn 0.9170 -0.3438 -0.2024
vn -0.3974 0.9176 -0.0000
vn -0.6326 0.3161 0.7070
vn -0.4646 -0.4033 -0.7883
vn -0.4646 -0.4033 0.7883
vn -0.6326 0.3161 -0.7070
vn -0.4007 0.9162 -0.0000
vn 0.0359 -0.8696 -0.4924
vn 0.2515 -0.9679 -0.0000
vn 0.0359 -0.8696 0.4924
vn 0.1020 -0.8681 -0.4858
vn -0.0024 -0.7817 -0.6237
vn -0.0717 -0.7902 -0.6086
vn 0.1020 -0.8681 0.4858
vn -0.0024 -0.7817 0.6237
vn -0.0717 -0.7902 0.6086
vn 0.8125 0.5757 0.0915
vn 0.8125 0.5757 -0.0915
vn 0.7788 0.6272 -0.0000
vn 0.0830 0.9965 -0.0000
vn -0.6778 0.7332 0.0554
vn -0.7219 0.6913 0.0305
vn -0.8233 0.5676 -0.0000
vn -0.7731 0.6140 -0.1592
vn -0.7395 0.6731 -0.0000
vn -0.7071 0.7071 -0.0000
vn -0.6822 0.7312 -0.0000
vn -0.6778 0.7332 -0.0554
vn -0.8944 0.4472 -0.0000
vn -0.7731 0.6140 0.1592
vn -0.7219 0.6913 -0.0305
vn 0.1269 0.6350 0.7620
vn 0.4614 0.3527 -0.8141
vn -0.2387 -0.5568 -0.7956
vn -0.5568 -0.2387 0.7956
vn -0.2387 -0.5568 0.7956
vn 0.4614 0.3527 0.8141
vn 0.1269 0.6350 -0.7620
vn -0.5568 -0.2387 -0.7956
vn -0.3491 -0.6985 -0.6247
vn 0.3628 -0.8144 -0.4529
vn 0.4671 -0.8492 -0.2464
vn -0.5935 0.6872 -0.4189
vn -0.6564 0.7433 -0.1294
vn -0.5264 0.7693 -0.3621
vn 0.0666 0.8001 -0.5962
vn 0.0667 0.8001 -0.5962
vn 0.4968 0.6118 -0.6155
vn 0.5566 0.2917 -0.7778
vn 0.5783 0.5796 -0.5742
vn -0.0606 -0.2422 -0.9683
vn 0.8149 -0.5317 -0.2309
vn 0.3943 0.0623 -0.9169
vn -0.3098 0.0442 -0.9498
vn 0.4671 -0.8492 0.2464
vn 0.3628 -0.8144 0.4529
vn -0.3491 -0.6985 0.6247
vn 0.5557 0.3037 0.7740
vn 0.4968 0.6118 0.6155
vn 0.0667 0.8001 0.5962
vn 0.0666 0.8001 0.5962
vn -0.5264 0.7693 0.3621
vn -0.6564 0.7433 0.1294
vn -0.5935 0.6872 0.4189
vn 0.5783 0.5796 0.5742
vn -0.0352 -0.2737 0.9612
vn 0.8135 -0.5346 0.2290
vn 0.3822 0.0603 0.9221
vn 0.3821 0.0603 0.9222
vn -0.3098 0.0442 0.9498
vn 0.1709 -0.2310 -0.9578
vn -0.6253 0.1980 -0.7549
vn -0.6252 0.1980 -0.7549
vn -0.6423 0.2847 -0.7116
vn -0.6423 0.2846 -0.7116
vn -0.8912 0.4536 -0.0000
vn -0.6423 0.2847 0.7116
vn -0.6252 0.1981 0.7549
vn -0.6253 0.1980 0.7549
vn -0.6252 0.1980 0.7549
vn 0.1709 -0.2310 0.9578
vn 0.1899 -0.1440 -0.9712
vn -0.6871 -0.0422 -0.7254
vn -0.5679 0.1064 -0.8162
vn -0.9829 0.1843 -0.0000
vn -0.5679 0.1064 0.8162
vn -0.6871 -0.0422 0.7254
vn 0.1899 -0.1440 0.9712
vn -0.9165 -0.0874 0.3904
vn -0.6326 0.3162 -0.7070
vn -0.8476 -0.4844 -0.2166
vn -0.7700 -0.3555 -0.5298
vn -0.8859 0.0108 0.4638
vn -0.5754 0.7485 0.3296
vn -0.6399 0.7146 -0.2825
vn -0.9048 -0.2234 -0.3625
vn -0.9048 -0.2234 -0.3626
vn -0.9165 -0.0874 -0.3904
vn -0.6326 0.3162 0.7070
vn -0.8476 -0.4844 0.2166
vn -0.7700 -0.3555 0.5298
vn -0.9048 -0.2234 0.3625
vn -0.9048 -0.2234 0.3626
vn -0.6399 0.7146 0.2825
vn -0.5754 0.7485 -0.3296
vn -0.8859 0.0108 -0.4638
vn -0.3094 0.2063 0.9283
vn -0.3093 0.2063 0.9283
vn -0.3225 0.1855 0.9282
vn -0.2053 0.0769 0.9757
vn -0.8479 0.3181 0.4241
vn -0.5488 0.3294 0.7683
vn -0.5634 0.2460 0.7887
vn -0.5090 0.1704 0.8437
vn -0.6767 0.2900 0.6767
vn -0.9190 0.2993 0.2566
vn -0.8638 0.4319 0.2593
vn -0.1006 0.2766 0.9557
vn 0.6457 -0.1555 -0.7476
vn 0.4365 -0.2183 -0.8728
vn -0.8165 0.4082 0.4083
vn -0.8165 0.4083 0.4083
vn -0.5331 0.1523 0.8322
vn -0.6931 0.1980 0.6931
vn 0.0603 0.0903 0.9941
vn 0.3245 0.4866 0.8111
vn -0.6594 0.1977 0.7253
vn -0.8499 -0.2615 0.4575
vn -0.7187 -0.3449 0.6037
vn 0.3706 0.4448 0.8154
vn -0.2403 -0.7689 0.5926
vn 0.0737 0.0369 0.9966
vn 0.0569 -0.1848 0.9811
vn 0.0237 -0.0766 0.9968
vn -0.7452 0.6055 0.2795
vn -0.6722 0.6722 0.3103
vn -0.6082 0.2281 0.7603
vn -0.6082 0.2280 0.7604
vn 0.7184 0.6025 0.3476
vn 0.7235 0.6742 0.1479
vn 0.5479 0.8218 0.1565
vn 0.5479 0.8218 0.1566
vn 0.1741 0.7916 0.5858
vn 0.0815 -0.8165 0.5716
vn -0.1299 -0.8444 0.5197
vn -0.2676 -0.7053 0.6565
vn -0.2705 0.8402 0.4700
vn -0.2671 0.8516 0.4510
vn -0.6362 -0.7517 0.1736
vn -0.5518 -0.8065 0.2122
vn -0.5419 0.8400 0.0271
vn -0.6130 0.7834 0.1023
vn -0.5894 -0.7859 0.1870
vn -0.6333 -0.7529 0.1792
vn -0.5436 0.8390 0.0237
vn -0.5992 0.7989 0.0525
vn 0.1960 0.7844 0.5884
vn 0.0925 -0.8140 0.5735
vn -0.5425 0.8397 0.0259
vn -0.5989 0.7986 0.0588
vn -0.6235 -0.7561 0.1990
vn -0.5871 -0.7829 0.2060
vn -0.4770 0.0251 0.8785
vn -0.6301 -0.7351 0.2502
vn -0.6503 -0.7182 0.2475
vn -0.6475 0.7554 0.1008
vn -0.7109 0.6875 0.1484
vn -0.7109 0.6874 0.1485
vn -0.3615 0.7414 0.5654
vn -0.3406 0.8308 0.4402
vn -0.2808 -0.7263 0.6274
vn -0.1470 -0.8449 0.5144
vn 0.1961 0.7844 0.5884
vn -0.3343 0.1113 0.9359
vn 0.1543 0.6172 0.7715
vn -0.1270 0.7620 0.6350
vn -0.0850 0.7654 0.6379
vn -0.0000 0.9334 0.3589
vn -0.9853 -0.0466 0.1643
vn -0.3435 0.6892 0.6380
vn -0.4392 0.5291 0.7261
vn -0.4219 0.3311 0.8440
vn -0.4800 0.3738 0.7937
vn -0.1563 0.9371 0.3123
vn -0.1870 0.9356 0.2994
vn -0.9817 0.1189 0.1487
vn -0.9923 0.0300 0.1204
vn -0.4246 0.2195 0.8784
vn -0.4355 0.1765 0.8827
vn 0.0539 -0.0271 0.9982
vn 0.0413 0.1960 0.9797
vn 0.0449 0.2131 0.9760
vn -0.8797 -0.4397 0.1811
vn -0.8848 -0.4277 0.1848
vn -0.3242 -0.4602 0.8265
vn -0.3652 -0.4016 0.8398
vn -0.0115 -0.3674 0.9300
vn -0.0178 -0.3215 0.9467
vn 0.0574 0.0229 0.9981
vn -0.9170 -0.3438 0.2024
vn -0.8677 -0.4397 0.2317
vn -0.4375 -0.2844 0.8530
vn 0.0644 0.0322 0.9974
vn -0.6667 -0.3332 0.6667
vn -0.6804 -0.2722 0.6804
vn -0.6667 0.3332 0.6667
vn -0.7001 -0.1401 0.7001
vn -0.6882 0.2295 0.6882
vn -0.1035 0.0620 -0.9927
vn -0.2400 0.1441 -0.9600
vn -0.5884 0.1960 -0.7844
vn -0.5232 0.2241 -0.8222
vn -0.5513 0.1839 -0.8138
vn -0.9156 0.3052 -0.2617
vn -0.8666 0.4333 -0.2475
vn -0.2305 0.3128 -0.9214
vn -0.5649 0.3364 -0.7534
vn -0.0547 -0.1641 -0.9849
vn 0.0779 -0.3501 -0.9335
vn 0.0779 -0.3500 -0.9335
vn 0.1047 -0.3145 -0.9435
vn 0.1882 -0.2822 -0.9407
vn -0.1089 -0.1633 -0.9805
vn -0.1924 -0.1924 -0.9623
vn -0.0735 0.1101 -0.9912
vn 0.2356 0.2356 -0.9429
vn -0.1597 0.2395 -0.9577
vn -0.0618 0.3706 -0.9267
vn 0.7184 0.6025 -0.3476
vn -0.6082 0.2281 -0.7603
vn 0.5479 0.8218 -0.1565
vn 0.7235 0.6742 -0.1479
vn -0.7452 0.6055 -0.2795
vn -0.6722 0.6722 -0.3103
vn -0.6362 -0.7517 -0.1736
vn -0.5518 -0.8065 -0.2122
vn -0.5419 0.8400 -0.0271
vn -0.6130 0.7834 -0.1023
vn -0.1299 -0.8444 -0.5197
vn -0.2676 -0.7053 -0.6565
vn -0.2671 0.8516 -0.4510
vn -0.2705 0.8402 -0.4700
vn 0.1550 0.2395 -0.9584
vn -0.0859 -0.8419 -0.5327
vn 0.0515 0.8230 -0.5657
vn -0.6333 -0.7529 -0.1792
vn -0.5894 -0.7859 -0.1870
vn -0.5992 0.7989 -0.0525
vn -0.5436 0.8390 -0.0237
vn -0.0525 -0.8389 -0.5418
vn 0.1372 -0.1943 -0.9713
vn -0.0342 0.8368 -0.5465
vn -0.6235 -0.7561 -0.1990
vn -0.5871 -0.7829 -0.2060
vn -0.5425 0.8397 -0.0259
vn -0.5989 0.7986 -0.0588
vn 0.0193 0.8289 -0.5591
vn -0.0979 -0.8428 -0.5293
vn 0.1321 -0.0000 -0.9912
vn -0.6503 -0.7182 -0.2475
vn -0.6301 -0.7351 -0.2502
vn -0.7109 0.6874 -0.1485
vn -0.7109 0.6875 -0.1484
vn -0.6475 0.7554 -0.1008
vn -0.1470 -0.8449 -0.5144
vn -0.2808 -0.7263 -0.6274
vn -0.3615 0.7414 -0.5654
vn -0.3406 0.8308 -0.4402
vn -0.0403 -0.8376 -0.5448
vn 0.1467 -0.3474 -0.9262
vn -0.4800 0.3738 -0.7937
vn -0.4392 0.5291 -0.7261
vn -0.3435 0.6892 -0.6380
vn -0.9853 -0.0466 -0.1643
vn -0.4219 0.3311 -0.8440
vn -0.1563 0.9371 -0.3123
vn -0.1870 0.9356 -0.2994
vn -0.3445 0.9001 -0.2666
vn -0.3332 0.6667 -0.6667
vn -0.3665 0.6672 -0.6484
vn -0.3587 0.5977 -0.7171
vn 0.0188 0.2993 -0.9540
vn -0.1043 0.7998 -0.5911
vn 0.1770 0.4959 -0.8502
vn -0.9817 0.1189 -0.1487
vn -0.9923 0.0300 -0.1204
vn -0.4365 0.2183 -0.8728
vn -0.4258 0.1775 -0.8872
vn -0.0491 0.1958 -0.9794
vn -0.0606 0.2422 -0.9683
vn -0.8797 -0.4397 -0.1811
vn -0.8848 -0.4277 -0.1848
vn -0.3652 -0.4016 -0.8398
vn -0.3242 -0.4602 -0.8265
vn -0.0200 -0.3222 -0.9465
vn -0.0820 -0.1638 -0.9831
vn -0.0901 -0.3149 -0.9448
vn -0.4375 -0.2844 -0.8530
vn -0.8677 -0.4397 -0.2317
vn -0.9170 -0.3438 -0.2024
s 0
usemtl purple
f 1//1 13//1 2//1
f 2//2 3//2 1//2
f 1//3 3//3 4//3
f 4//4 13//4 1//4
f 3//5 154//5 4//5
f 4//6 154//6 157//6
f 7//7 6//7 157//7
f 157//8 6//8 4//8
f 4//9 6//9 13//9
f 13//10 6//10 5//10
f 8//11 5//11 6//11
f 6//7 7//7 8//7
f 8//12 322//12 5//12
f 9//13 13//13 5//13
f 11//14 13//14 9//14
f 10//15 9//15 5//15
f 5//16 322//16 10//16
f 9//17 10//17 11//17
f 11//18 263//18 13//18
f 13//19 263//19 267//19
f 267//20 262//20 13//20
f 13//21 262//21 12//21
f 12//22 15//22 13//22
f 2//23 13//23 14//23
f 14//24 13//24 113//24
f 113//25 13//25 114//25
f 114//26 13//26 115//26
f 115//27 13//27 15//28
f 19//35 20//35 21//35
f 21//36 20//36 181//36
f 21//37 181//37 180//37
f 180//38 183//38 21//38
f 21//39 183//40 106//39
f 106//41 107//41 21//41
f 21//42 107//42 18//42
f 18//43 22//43 21//43
f 21//44 22//44 23//44
f 23//45 301//45 21//45
f 21//46 301//47 344//46
f 19//48 21//48 348//48
f 346//49 348//49 21//49
f 21//50 344//50 346//51
f 44//86 189//86 43//86
f 55//109 56//109 57//109
f 57//110 58//110 55//110
f 39//111 55//111 58//111
f 58//112 128//112 39//112
f 48//113 128//113 58//113
f 64//114 48//114 58//114
f 58//115 57//115 64//115
f 64//116 57//116 59//116
f 59//117 57//117 56//117
f 82//159 83//159 84//159
f 140//167 17//167 87//167
f 87//168 84//168 140//168
f 140//169 84//169 83//169
f 106//196 82//196 107//196
f 120//226 124//226 53//226
f 126//227 123//227 120//227
f 53//228 125//228 120//228
f 121//229 125//229 35//229
f 121//230 35//230 122//230
f 124//231 92//231 53//231
f 120//232 123//232 124//232
f 124//233 123//233 112//233
f 148//234 124//234 112//234
f 148//235 112//235 307//235
f 125//236 53//236 35//236
f 156//237 123//237 126//237
f 126//237 127//237 156//237
f 128//238 91//238 129//238
f 129//239 91//239 130//239
f 101//240 129//240 130//240
f 130//241 94//241 101//241
f 101//242 94//242 146//242
f 144//243 101//243 146//243
f 146//244 94//244 148//244
f 131//245 102//245 144//245
f 132//246 102//246 131//246
f 131//247 143//247 132//247
f 134//248 99//248 102//248
f 102//249 132//249 134//249
f 134//250 96//250 99//250
f 133//251 96//251 134//251
f 104//252 108//252 135//252
f 135//253 136//253 104//253
f 137//254 138//254 108//254
f 108//248 104//248 137//248
f 83//255 138//255 139//255
f 139//255 138//255 137//255
f 137//256 143//256 139//256
f 162//329 185//329 156//329
f 156//330 127//330 162//331
f 161//332 185//332 162//332
f 161//333 188//333 186//333
f 161//334 186//334 185//334
f 185//335 186//335 155//335
f 358//273 155//273 187//273
f 187//336 155//336 186//336
f 187//337 186//337 188//337
f 188//338 161//338 43//338
f 166//339 188//339 43//339
f 189//340 166//340 43//340
f 43//341 161//341 190//341
f 191//342 43//342 190//342
f 190//343 121//343 191//343
f 191//344 121//344 122//344
f 167//345 193//345 192//345
f 192//346 193//346 194//346
f 170//347 192//347 194//347
f 194//348 165//348 170//348
f 170//349 165//349 195//349
f 128//350 170//350 195//350
f 133//351 177//351 96//351
f 96//352 177//352 196//352
f 197//353 196//353 177//353
f 177//354 198//354 197//354
f 199//355 197//355 198//355
f 198//356 173//356 199//356
f 200//357 182//357 149//357
f 149//357 172//357 200//357
f 201//358 182//358 200//358
f 200//353 175//353 201//353
f 201//359 175//359 135//359
f 135//360 175//360 136//360
f 257//363 203//363 202//363
f 248//367 205//367 207//367
f 207//368 205//368 206//368
f 206//369 246//369 207//369
f 207//370 208//370 248//370
f 248//371 208//371 235//371
f 233//372 235//372 208//372
f 208//373 207//373 246//373
f 246//374 224//374 208//374
f 208//375 224//375 233//375
f 271//484 306//484 270//484
f 140//491 306//491 271//491
f 271//492 275//492 140//492
f 140//493 275//493 17//493
f 270//522 23//522 22//522
f 307//533 261//533 320//533
f 320//534 261//534 308//534
f 308//535 261//535 264//535
f 264//227 309//227 310//227
f 310//536 308//536 264//536
f 264//237 353//237 309//237
f 309//537 353//237 277//237
f 239//538 284//538 283//538
f 283//539 308//539 239//539
f 239//540 308//540 310//540
f 312//541 311//541 239//541
f 239//542 310//542 312//542
f 312//543 352//543 311//543
f 311//544 352//544 209//544
f 233//545 314//545 313//545
f 281//546 313//546 314//546
f 314//547 288//547 281//547
f 281//548 288//548 315//548
f 285//549 146//549 288//549
f 288//550 146//550 315//550
f 315//551 146//551 320//551
f 297//552 316//552 290//552
f 290//553 316//553 291//553
f 287//554 291//554 316//554
f 316//555 317//555 287//555
f 293//556 131//556 317//556
f 317//557 131//557 287//557
f 287//558 131//558 285//558
f 295//559 299//559 302//559
f 302//560 318//560 295//560
f 319//554 295//554 318//554
f 318//561 304//561 319//561
f 306//255 139//255 304//255
f 304//255 139//255 319//255
f 319//562 139//562 293//562
f 230//630 351//630 355//630
f 355//631 332//631 230//631
f 230//632 332//632 331//632
f 331//633 330//633 230//633
f 230//634 350//634 351//634
f 352//635 351//635 350//635
f 350//636 209//636 352//636
f 354//637 326//637 353//637
f 353//330 326//330 277//330
f 355//638 326//638 354//638
f 354//639 356//639 355//639
f 355//640 356//640 332//640
f 334//641 332//641 356//641
f 356//642 354//642 357//642
f 334//643 356//643 357//643
f 357//587 358//587 334//587
f 233//644 328//644 361//644
f 328//645 359//645 361//645
f 361//646 359//646 360//646
f 360//647 338//647 361//647
f 360//648 362//648 338//648
f 338//649 362//649 337//649
f 297//650 290//650 365//650
f 365//651 290//651 363//651
f 364//652 341//652 365//652
f 365//653 363//653 364//653
f 364//654 366//654 341//654
f 341//655 366//655 342//655
f 343//656 325//656 324//656
f 324//656 367//656 343//656
f 343//657 367//657 345//657
f 368//653 343//653 345//653
f 345//658 302//658 368//658
f 368//659 302//659 299//659
usemtl black
f 66//135 68//135 70//135
f 68//136 66//136 67//136
f 68//137 67//137 42//137
f 70//138 68//139 42//139
f 72//144 75//144 73//144
f 73//145 52//145 77//145
f 73//146 77//146 72//146
f 73//147 75//148 52//147
f 81//153 79//153 80//153
f 62//154 81//154 80//154
f 79//155 81//155 62//155
f 202//361 249//361 257//361
f 202//364 203//364 249//364
f 253//452 226//452 252//452
f 252//453 254//453 253//453
f 253//454 254//454 204//454
f 253//455 204//456 226//455
f 211//461 260//462 259//461
f 259//463 260//463 255//463
f 255//464 242//464 259//464
f 259//465 242//465 211//465
usemtl bone
f 18//29 107//29 16//29
f 16//30 17//31 18//31
f 18//32 17//32 274//33
f 274//34 22//34 18//34
f 25//52 26//52 24//52
f 24//53 34//53 25//53
f 30//54 24//54 26//54
f 34//55 24//55 30//55
f 27//56 33//56 31//56
f 31//57 28//57 27//57
f 27//58 28//58 29//58
f 29//59 33//59 27//59
f 28//60 41//60 51//60
f 51//60 30//60 28//60
f 29//61 28//61 30//61
f 30//61 26//61 29//61
f 25//62 38//62 26//62
f 26//63 38//63 29//63
f 29//63 38//63 32//63
f 33//64 29//64 32//64
f 41//65 28//65 31//65
f 32//66 42//66 33//66
f 33//67 42//67 31//67
f 30//68 51//68 34//68
f 38//66 25//66 52//66
f 52//69 25//69 34//69
f 35//70 36//70 122//70
f 122//71 37//71 191//71
f 36//72 37//72 122//72
f 51//73 41//73 37//73
f 51//73 37//73 36//73
f 75//74 70//74 32//74
f 75//74 32//74 38//74
f 69//75 39//75 46//75
f 39//76 45//75 46//75
f 45//77 39//77 195//77
f 195//78 39//78 128//78
f 40//79 43//79 191//79
f 40//80 191//80 37//80
f 47//81 40//81 37//81
f 47//82 37//82 41//82
f 31//83 42//83 41//83
f 42//84 47//84 41//84
f 67//85 47//85 42//85
f 45//87 44//87 43//87
f 195//88 44//88 45//88
f 45//89 43//89 40//89
f 46//90 45//90 40//90
f 46//90 40//90 47//90
f 67//91 46//91 47//91
f 52//92 34//92 51//92
f 77//93 52//93 50//93
f 48//94 78//94 76//94
f 48//94 76//94 54//94
f 48//95 54//95 91//95
f 128//96 48//96 91//96
f 35//97 53//97 49//97
f 35//98 49//98 36//98
f 36//99 49//99 50//99
f 36//100 50//100 51//100
f 51//101 50//101 52//101
f 119//102 93//102 53//102
f 54//103 53//103 93//103
f 54//104 93//104 91//104
f 53//105 54//105 49//106
f 54//107 76//107 49//107
f 49//107 76//107 50//107
f 50//108 76//108 77//108
f 63//118 39//118 69//118
f 48//119 60//119 78//119
f 60//120 65//121 78//121
f 61//122 63//123 69//124
f 65//125 62//125 78//125
f 61//126 69//126 79//126
f 65//127 61//127 62//127
f 61//127 79//127 62//127
f 59//128 56//128 65//128
f 56//128 61//128 65//128
f 56//129 55//129 61//129
f 55//130 63//130 61//130
f 63//131 55//131 39//131
f 64//132 60//132 48//132
f 64//133 59//133 65//133
f 64//134 65//134 60//134
f 70//74 42//74 32//74
f 79//140 69//140 71//140
f 69//141 46//141 67//141
f 69//141 67//141 66//141
f 71//142 66//142 70//142
f 79//140 71//140 70//140
f 71//143 69//143 66//143
f 52//74 75//74 38//74
f 74//149 75//149 72//149
f 76//150 78//150 77//150
f 77//150 78//150 72//150
f 72//151 78//151 74//151
f 78//152 62//152 74//152
f 74//152 62//152 75//152
f 62//156 80//156 75//156
f 79//157 70//157 80//157
f 80//158 70//158 75//158
f 16//160 85//160 17//160
f 17//161 85//161 87//161
f 85//162 86//162 84//162
f 84//162 87//162 85//162
f 86//163 85//163 16//163
f 16//164 107//164 86//164
f 82//165 84//165 86//165
f 86//166 107//166 82//166
f 120//170 125//170 88//170
f 88//171 126//171 120//171
f 121//172 89//172 125//172
f 125//173 89//173 88//173
f 88//174 127//174 126//174
f 88//175 89//175 127//175
f 91//176 93//176 90//176
f 90//177 130//177 91//177
f 93//178 92//178 90//178
f 93//179 119//179 92//179
f 90//180 95//180 130//180
f 130//181 95//181 94//181
f 124//182 95//182 90//182
f 90//183 92//183 124//183
f 148//184 94//184 95//184
f 95//185 124//185 148//185
f 96//186 97//186 98//186
f 98//187 99//187 96//187
f 97//188 129//188 98//188
f 97//189 128//189 129//189
f 98//180 100//180 99//180
f 99//181 100//181 102//181
f 101//182 100//182 98//182
f 98//183 129//183 101//183
f 144//184 102//184 100//184
f 100//185 101//185 144//185
f 136//190 176//190 103//190
f 103//191 104//191 136//191
f 176//192 134//192 103//192
f 176//193 133//193 134//193
f 103//180 105//180 104//180
f 104//181 105//181 137//181
f 132//182 105//182 103//182
f 103//183 134//183 132//183
f 143//194 137//194 105//194
f 105//195 132//195 143//195
f 183//197 184//197 109//197
f 109//198 106//198 183//198
f 184//199 108//200 109//200
f 184//201 135//201 108//201
f 109//202 110//202 106//202
f 106//203 110//203 82//203
f 138//204 110//204 109//204
f 109//205 108//205 138//205
f 83//194 82//194 110//194
f 110//206 138//206 83//195
f 123//207 117//207 113//207
f 112//208 111//208 115//208
f 156//209 2//209 14//209
f 123//210 156//210 14//210
f 14//211 117//211 123//211
f 114//212 112//212 123//212
f 123//213 113//213 114//213
f 114//214 111//214 112//214
f 112//215 115//216 307//216
f 307//217 115//217 15//217
f 114//218 115//218 118//218
f 14//219 113//219 116//219
f 117//220 14//220 116//220
f 117//221 116//221 113//221
f 114//222 118//223 111//222
f 111//224 118//224 115//224
f 119//225 53//225 92//225
f 140//257 83//257 141//257
f 141//258 83//258 139//258
f 139//257 143//257 142//257
f 142//258 143//258 131//258
f 131//259 144//259 145//259
f 145//260 144//260 146//260
f 146//261 148//261 147//261
f 147//262 148//262 307//262
f 20//263 19//263 150//263
f 150//264 172//264 149//264
f 149//265 20//266 150//266
f 150//267 151//267 172//267
f 172//90 151//90 173//90
f 199//268 173//268 151//268
f 151//269 152//269 199//269
f 199//269 152//269 167//269
f 193//270 167//270 152//270
f 152//271 153//271 193//271
f 193//272 153//272 187//272
f 187//273 153//273 358//273
f 154//274 155//274 158//274
f 3//275 155//275 154//275
f 155//276 3//276 185//276
f 156//277 185//277 3//277
f 3//278 2//278 156//278
f 157//279 158//279 155//279
f 155//280 358//280 157//280
f 157//281 358//281 7//281
f 154//282 158//282 159//282
f 157//283 159//283 158//283
f 190//284 160//284 89//284
f 89//285 121//285 190//285
f 190//286 161//286 160//287
f 160//288 161//288 162//288
f 162//289 127//289 160//289
f 160//290 127//291 89//290
f 194//292 193//292 163//292
f 163//293 193//293 187//293
f 187//294 188//294 163//294
f 163//295 164//295 165//295
f 165//296 194//296 163//296
f 163//297 188//297 164//297
f 164//298 188//298 166//298
f 164//299 44//299 195//299
f 195//300 165//300 164//300
f 164//301 166//301 44//301
f 44//302 166//302 189//302
f 168//303 197//303 199//303
f 199//304 167//304 168//304
f 168//305 167//305 192//305
f 168//295 169//295 196//295
f 196//296 197//296 168//296
f 168//297 192//297 169//297
f 169//298 192//298 170//298
f 196//306 169//307 96//306
f 96//308 169//308 97//308
f 97//309 169//309 170//309
f 170//310 128//310 97//310
f 171//311 200//311 172//311
f 172//312 173//312 171//312
f 171//313 173//313 198//313
f 171//295 174//295 175//295
f 175//296 200//296 171//296
f 171//297 198//297 174//297
f 174//298 198//298 177//298
f 175//314 174//314 136//314
f 136//315 174//315 176//315
f 176//316 174//316 177//316
f 177//317 133//317 176//317
f 178//318 181//318 20//318
f 20//319 149//319 178//319
f 178//313 149//313 182//313
f 178//320 179//320 180//320
f 180//321 181//321 178//321
f 178//322 182//322 179//322
f 179//323 182//323 201//323
f 180//324 179//324 183//324
f 183//325 179//325 184//325
f 184//326 179//327 201//327
f 201//328 135//328 184//328
f 260//362 203//362 257//362
f 249//365 203//365 204//365
f 204//366 203//366 260//366
f 209//376 210//376 311//376
f 350//377 228//377 209//377
f 209//378 228//378 210//378
f 210//379 228//379 237//379
f 237//379 228//379 225//379
f 237//380 217//380 238//380
f 211//381 238//381 212//381
f 214//382 211//382 212//382
f 216//383 214//383 212//383
f 213//384 214//384 215//384
f 215//384 214//384 216//384
f 216//385 217//385 215//385
f 215//385 217//385 219//385
f 219//386 217//386 237//386
f 237//386 225//386 219//386
f 219//387 225//387 220//387
f 213//388 204//388 260//388
f 260//388 214//388 213//388
f 213//389 215//389 218//389
f 226//382 213//382 218//382
f 218//390 220//390 226//390
f 221//391 215//391 219//391
f 219//392 220//392 221//392
f 221//393 220//393 218//393
f 218//394 215//394 221//394
f 222//395 212//395 238//395
f 238//396 217//396 222//396
f 222//397 217//397 216//397
f 216//398 212//398 222//398
f 250//399 223//399 224//399
f 224//399 223//399 231//399
f 231//400 328//400 224//400
f 224//401 328//401 233//401
f 227//402 252//402 226//402
f 220//403 225//403 226//403
f 226//404 225//404 227//404
f 227//405 225//405 228//405
f 232//406 227//406 228//406
f 228//407 350//407 232//407
f 232//408 350//408 230//408
f 231//409 229//409 328//409
f 230//410 330//410 229//410
f 229//411 231//411 230//411
f 232//412 230//412 231//412
f 231//90 223//90 232//90
f 232//90 223//90 227//90
f 227//413 223//413 252//413
f 233//414 313//414 235//414
f 235//415 313//415 240//415
f 240//416 234//416 235//416
f 235//416 234//416 258//416
f 241//417 239//417 311//417
f 311//418 210//418 241//418
f 241//419 210//419 236//419
f 236//420 210//420 237//420
f 211//421 236//421 237//421
f 237//422 238//422 211//422
f 236//423 211//423 242//423
f 240//424 313//424 282//424
f 284//425 239//425 282//425
f 282//426 239//426 240//426
f 240//427 239//428 241//427
f 234//107 240//107 241//107
f 241//107 236//107 234//107
f 234//429 236//429 242//429
f 250//430 224//430 243//430
f 243//431 244//432 250//432
f 250//433 244//433 249//434
f 257//435 249//435 244//435
f 244//435 245//435 257//435
f 258//436 257//436 245//436
f 245//437 247//438 258//439
f 258//440 247//440 235//440
f 224//441 246//441 243//441
f 244//442 243//442 246//442
f 246//443 206//443 244//443
f 244//444 206//444 245//444
f 245//444 206//444 205//444
f 205//445 248//445 245//445
f 245//446 248//446 247//446
f 247//447 248//447 235//447
f 204//388 213//388 226//388
f 254//448 251//448 204//448
f 204//449 251//449 249//449
f 249//449 251//449 250//449
f 250//450 251//450 254//450
f 254//451 252//451 250//451
f 250//451 252//451 223//451
f 260//388 211//388 214//388
f 255//457 260//457 256//457
f 256//458 260//458 257//458
f 257//458 258//458 256//458
f 256//459 258//459 255//459
f 242//460 255//460 258//460
f 258//460 234//460 242//460
f 12//466 261//467 307//466
f 307//468 15//468 12//468
f 12//469 266//469 261//469
f 261//470 266//470 262//470
f 264//471 261//471 262//471
f 262//472 267//472 264//472
f 264//473 267//473 268//473
f 268//474 263//474 264//474
f 264//475 263//475 353//475
f 353//476 263//476 11//476
f 12//477 265//477 266//477
f 267//478 263//478 269//478
f 12//479 262//479 265//479
f 266//480 265//481 262//480
f 267//482 269//482 268//482
f 268//483 269//483 263//483
f 272//485 271//485 270//485
f 270//486 22//486 272//486
f 272//258 273//258 271//258
f 271//258 273//258 275//258
f 274//487 273//487 272//487
f 272//488 22//488 274//488
f 17//489 275//489 273//489
f 273//490 274//490 17//490
f 312//494 276//494 278//494
f 278//495 352//495 312//495
f 312//496 310//496 276//497
f 276//498 310//498 309//498
f 309//499 277//499 276//499
f 276//500 277//501 278//500
f 308//502 279//502 320//502
f 320//503 279//503 315//503
f 315//504 279//504 281//504
f 281//505 279//505 280//505
f 280//506 279//506 308//506
f 308//507 283//507 280//507
f 281//508 280//508 313//508
f 313//509 280//509 282//509
f 282//510 280//510 283//510
f 283//511 284//511 282//511
f 287//503 285//503 286//503
f 286//502 285//502 288//502
f 286//505 289//505 291//505
f 291//504 287//504 286//504
f 286//506 288//506 289//506
f 289//507 288//507 314//507
f 289//512 292//512 290//512
f 290//513 291//513 289//513
f 289//514 314//514 292//514
f 292//515 314//515 233//515
f 317//516 294//516 293//516
f 293//517 294//517 319//517
f 319//504 294//504 295//504
f 295//505 294//505 296//505
f 296//506 294//506 317//506
f 317//507 316//507 296//507
f 298//518 296//518 316//518
f 316//519 297//519 298//519
f 299//520 295//520 296//520
f 296//521 298//521 299//521
f 303//523 300//523 301//523
f 301//524 23//524 303//524
f 318//525 302//525 300//525
f 300//526 303//527 318//527
f 318//528 303//528 304//528
f 304//529 303//529 305//529
f 305//530 303//530 23//530
f 23//531 270//531 305//531
f 306//516 304//532 305//532
f 305//517 270//517 306//517
f 140//563 141//563 306//563
f 306//162 141//162 139//162
f 139//563 142//563 293//563
f 293//162 142//162 131//162
f 131//564 145//564 285//564
f 285//565 145//565 146//565
f 146//566 147//566 320//566
f 320//567 147//567 307//567
f 358//281 8//281 7//281
f 358//568 357//568 8//568
f 8//569 357//569 321//569
f 321//570 357//570 322//570
f 322//571 357//571 10//571
f 10//572 357//572 354//572
f 354//573 353//573 10//573
f 10//574 353//574 11//574
f 323//575 8//575 321//575
f 321//576 322//576 323//576
f 150//577 19//577 348//577
f 150//578 348//578 324//579
f 324//580 325//580 150//580
f 150//581 325//581 151//581
f 151//90 325//90 342//90
f 342//582 366//582 151//582
f 151//583 366//583 152//583
f 152//583 366//583 337//583
f 362//584 153//584 152//584
f 152//585 337//585 362//585
f 362//586 334//586 153//586
f 153//587 334//587 358//587
f 327//588 326//588 355//588
f 355//589 351//589 327//589
f 327//590 278//590 277//590
f 277//591 326//591 327//591
f 327//592 351//592 278//592
f 278//593 351//593 352//593
f 359//594 328//594 329//594
f 329//595 328//595 229//595
f 331//596 329//596 229//596
f 229//597 330//597 331//597
f 333//598 360//598 359//598
f 359//599 329//599 333//599
f 332//600 329//600 331//600
f 329//601 332//601 333//601
f 333//602 334//602 362//602
f 362//603 360//603 333//603
f 333//604 332//604 334//604
f 363//605 290//605 336//605
f 336//606 290//606 292//606
f 233//607 361//607 292//607
f 292//608 361//608 336//608
f 336//600 361//600 338//600
f 338//601 335//601 336//601
f 336//599 335//599 363//599
f 363//598 335//598 364//598
f 364//609 335//609 366//609
f 337//610 366//610 335//610
f 335//611 338//611 337//611
f 339//612 368//612 299//612
f 299//613 298//613 339//613
f 365//614 339//614 298//614
f 298//615 297//615 365//615
f 343//598 368//598 340//598
f 340//599 368//599 339//599
f 365//600 341//600 339//600
f 339//601 341//601 340//601
f 340//616 341//616 342//616
f 325//617 343//617 340//617
f 340//618 342//618 325//618
f 347//619 344//619 301//619
f 301//620 300//620 347//620
f 345//621 347//621 300//622
f 300//623 302//623 345//623
f 346//624 344//624 349//624
f 349//625 344//625 347//625
f 345//626 367//626 347//626
f 347//627 367//627 349//627
f 349//616 367//616 324//616
f 348//628 346//628 349//628
f 349//629 324//629 348//629
