# Blender v3.4.1 OBJ File: ''
# www.blender.org
mtllib SM_Pickup_Armor.mtl
o SM_Pickup_Armor
v 0.071793 0.376681 0.095465
v 0.064224 0.367661 0.095811
v 0.155146 0.310890 0.054028
v 0.160161 0.317880 0.062252
v 0.159988 0.316224 0.047173
v 0.163830 0.325879 0.049379
v 0.160161 0.317880 0.062252
v 0.155146 0.310890 0.054028
v -0.071793 0.376681 0.095465
v -0.160161 0.317880 0.062252
v -0.155146 0.310890 0.054028
v -0.064224 0.367661 0.095811
v -0.159988 0.316224 0.047173
v -0.155146 0.310890 0.054028
v -0.160161 0.317880 0.062252
v -0.163830 0.325879 0.049379
v 0.198069 0.426720 0.025189
v 0.173384 0.357936 0.043590
v 0.197762 0.421350 0.022242
v 0.207890 0.461614 -0.008325
v 0.207202 0.455177 -0.009459
v 0.209727 0.481400 -0.048308
v 0.208949 0.472875 -0.048064
v 0.185951 0.426720 0.025189
v 0.173384 0.357936 0.043590
v 0.198069 0.426720 0.025189
v 0.190211 0.461614 -0.008325
v 0.207890 0.461614 -0.008325
v 0.191227 0.481400 -0.048308
v 0.209727 0.481400 -0.048308
v -0.192005 0.489926 -0.048552
v -0.114354 0.487070 -0.045159
v -0.111333 0.492109 -0.085488
v -0.188983 0.489926 -0.095829
v -0.090045 0.487678 -0.117231
v -0.176955 0.452896 -0.134241
v -0.056723 0.489270 -0.127147
v -0.066370 0.428576 -0.161940
v 0.000000 0.492041 -0.136018
v -0.168724 0.387775 -0.153410
v 0.000000 0.428653 -0.171267
v -0.066370 0.380318 -0.168624
v -0.165469 0.322978 -0.142329
v 0.000000 0.375491 -0.177951
v -0.066370 0.312158 -0.162230
v 0.000000 0.312235 -0.171558
v -0.182026 0.265651 -0.107580
v -0.066276 0.268205 -0.150649
v 0.000000 0.268809 -0.159976
v -0.065049 0.194960 -0.146890
v 0.000000 0.195275 -0.155434
v -0.143059 0.187225 -0.101794
v -0.065253 0.091908 -0.143391
v 0.000000 0.091992 -0.151962
v 0.000000 0.053191 -0.157467
v -0.067397 0.053191 -0.148615
v -0.148434 0.053191 -0.106724
v -0.143659 0.089842 -0.103457
v -0.182174 0.053191 -0.033813
v -0.176050 0.090875 -0.034860
v -0.152830 0.053191 0.037926
v -0.174594 0.191095 -0.038890
v -0.201524 0.246973 -0.043373
v -0.148868 0.091679 0.034871
v -0.109816 0.053191 0.083406
v -0.150873 0.194103 0.031375
v -0.188146 0.277259 0.020502
v -0.106793 0.092577 0.086429
v -0.107751 0.197468 0.094693
v -0.045202 0.092721 0.106922
v -0.045988 0.053191 0.104404
v 0.000000 0.053191 0.111846
v -0.046919 0.198008 0.115566
v 0.000000 0.093129 0.112908
v -0.104931 0.285922 0.096888
v -0.155146 0.310890 0.054028
v -0.064224 0.367661 0.095811
v -0.046991 0.357595 0.105193
v -0.047259 0.288508 0.115456
v -0.024090 0.350009 0.110536
v 0.000000 0.199538 0.119288
v 0.000000 0.289162 0.116523
v 0.000000 0.347736 0.111357
v 0.024090 0.350009 0.110536
v 0.047259 0.288508 0.115456
v 0.046991 0.357595 0.105193
v 0.046919 0.198008 0.115566
v 0.104931 0.285922 0.096888
v 0.064224 0.367661 0.095811
v 0.155146 0.310890 0.054028
v 0.188146 0.277259 0.020502
v 0.107751 0.197468 0.094693
v 0.150873 0.194103 0.031375
v 0.201524 0.246973 -0.043373
v 0.106793 0.092577 0.086429
v 0.045202 0.092721 0.106922
v 0.045988 0.053191 0.104404
v 0.109816 0.053191 0.083406
v 0.148868 0.091679 0.034871
v 0.152830 0.053191 0.037926
v 0.174594 0.191095 -0.038890
v 0.182026 0.265651 -0.107580
v 0.176050 0.090875 -0.034860
v 0.182174 0.053191 -0.033813
v 0.143059 0.187225 -0.101794
v 0.143659 0.089842 -0.103457
v 0.148434 0.053191 -0.106724
v 0.066276 0.268205 -0.150649
v 0.065253 0.091908 -0.143391
v 0.067397 0.053191 -0.148615
v 0.065049 0.194960 -0.146890
v 0.000000 0.091992 -0.151962
v 0.000000 0.053191 -0.157467
v 0.000000 0.195275 -0.155434
v 0.000000 0.268809 -0.159976
v 0.000000 0.312235 -0.171558
v 0.066370 0.312158 -0.162230
v 0.000000 0.375491 -0.177951
v 0.165469 0.322978 -0.142329
v 0.066370 0.380318 -0.168624
v 0.000000 0.428653 -0.171267
v 0.168724 0.387775 -0.153410
v 0.066370 0.428576 -0.161940
v 0.000000 0.492041 -0.136018
v 0.176955 0.452896 -0.134241
v 0.056723 0.489270 -0.127147
v 0.090045 0.487678 -0.117231
v 0.188983 0.489926 -0.095829
v 0.111333 0.492109 -0.085488
v 0.192005 0.489926 -0.048552
v 0.114354 0.487070 -0.045159
v -0.114354 0.487070 -0.045159
v -0.192005 0.489926 -0.048552
v -0.190898 0.468052 -0.007191
v -0.111727 0.474741 -0.011054
v -0.186258 0.432089 0.028136
v -0.102336 0.443793 0.031209
v -0.171590 0.356229 0.057528
v -0.085796 0.401488 0.075014
v -0.160161 0.317880 0.062252
v -0.071793 0.376681 0.095465
v -0.155146 0.310890 0.054028
v -0.159988 0.316224 0.047173
v -0.184961 0.291922 0.016248
v -0.188146 0.277259 0.020502
v -0.195501 0.267628 -0.043735
v -0.201524 0.246973 -0.043373
v -0.179675 0.282219 -0.097408
v -0.182026 0.265651 -0.107580
v -0.168267 0.330140 -0.126456
v -0.165469 0.322978 -0.142329
v -0.169856 0.386041 -0.144565
v -0.168724 0.387775 -0.153410
v -0.177412 0.448339 -0.129302
v -0.176955 0.452896 -0.134241
v -0.188453 0.481913 -0.093573
v -0.188983 0.489926 -0.095829
v -0.191227 0.481400 -0.048308
v -0.192005 0.489926 -0.048552
v -0.168267 0.330140 -0.126456
v -0.182135 0.384307 -0.135719
v -0.181003 0.386041 -0.144565
v -0.198430 0.443783 -0.124364
v -0.197973 0.448339 -0.129302
v -0.206424 0.473901 -0.091318
v -0.206954 0.481913 -0.093573
v -0.208949 0.472875 -0.048064
v -0.209727 0.481400 -0.048308
v -0.209727 0.481400 -0.048308
v -0.208949 0.472875 -0.048064
v -0.207202 0.455177 -0.009459
v -0.207890 0.461614 -0.008325
v -0.197762 0.421350 0.022242
v -0.198069 0.426720 0.025189
v -0.173384 0.357936 0.043590
v -0.163830 0.325879 0.049379
v -0.160161 0.317880 0.062252
v -0.171590 0.356229 0.057528
v -0.173384 0.357936 0.043590
v -0.186258 0.432089 0.028136
v -0.185951 0.426720 0.025189
v -0.190898 0.468052 -0.007191
v -0.190211 0.461614 -0.008325
v -0.192005 0.489926 -0.048552
v -0.191227 0.481400 -0.048308
v -0.168267 0.330140 -0.126456
v -0.181003 0.386041 -0.144565
v -0.169856 0.386041 -0.144565
v -0.197973 0.448339 -0.129302
v -0.177412 0.448339 -0.129302
v -0.206954 0.481913 -0.093573
v -0.188453 0.481913 -0.093573
v -0.209727 0.481400 -0.048308
v -0.191227 0.481400 -0.048308
v -0.191227 0.481400 -0.048308
v -0.209727 0.481400 -0.048308
v -0.207890 0.461614 -0.008325
v -0.190211 0.461614 -0.008325
v -0.198069 0.426720 0.025189
v -0.185951 0.426720 0.025189
v -0.173384 0.357936 0.043590
v 0.000000 0.053191 -0.157467
v 0.000000 0.047133 -0.146433
v -0.061538 0.047133 -0.138579
v -0.067397 0.053191 -0.148615
v -0.135531 0.047133 -0.101413
v -0.148434 0.053191 -0.106724
v -0.166337 0.047133 -0.036727
v -0.182174 0.053191 -0.033813
v -0.139544 0.047133 0.026920
v -0.152830 0.053191 0.037926
v -0.100269 0.047133 0.067270
v -0.109816 0.053191 0.083406
v -0.041990 0.047133 0.085900
v -0.045988 0.053191 0.104404
v 0.000000 0.047133 0.092502
v 0.000000 0.053191 0.111846
v 0.045988 0.053191 0.104404
v 0.041990 0.047133 0.085900
v 0.109816 0.053191 0.083406
v 0.100269 0.047133 0.067270
v 0.152830 0.053191 0.037926
v 0.139544 0.047133 0.026920
v 0.182174 0.053191 -0.033813
v 0.166337 0.047133 -0.036727
v 0.148434 0.053191 -0.106724
v 0.135531 0.047133 -0.101413
v 0.067397 0.053191 -0.148615
v 0.061538 0.047133 -0.138579
v 0.000000 0.053191 -0.157467
v 0.000000 0.047133 -0.146433
v 0.190898 0.468052 -0.007191
v 0.192005 0.489926 -0.048552
v 0.114354 0.487070 -0.045159
v 0.111727 0.474741 -0.011054
v 0.186258 0.432089 0.028136
v 0.102336 0.443793 0.031209
v 0.171590 0.356229 0.057528
v 0.085796 0.401488 0.075014
v 0.160161 0.317880 0.062252
v 0.071793 0.376681 0.095465
v 0.184961 0.291922 0.016248
v 0.159988 0.316224 0.047173
v 0.155146 0.310890 0.054028
v 0.188146 0.277259 0.020502
v 0.195501 0.267628 -0.043735
v 0.201524 0.246973 -0.043373
v 0.179675 0.282219 -0.097408
v 0.182026 0.265651 -0.107580
v 0.168267 0.330140 -0.126456
v 0.165469 0.322978 -0.142329
v 0.169856 0.386041 -0.144565
v 0.168724 0.387775 -0.153410
v 0.177412 0.448339 -0.129302
v 0.176955 0.452896 -0.134241
v 0.188453 0.481913 -0.093573
v 0.188983 0.489926 -0.095829
v 0.191227 0.481400 -0.048308
v 0.192005 0.489926 -0.048552
v 0.168267 0.330140 -0.126456
v 0.181003 0.386041 -0.144565
v 0.182135 0.384307 -0.135719
v 0.198430 0.443783 -0.124364
v 0.197973 0.448339 -0.129302
v 0.206424 0.473901 -0.091318
v 0.206954 0.481913 -0.093573
v 0.208949 0.472875 -0.048064
v 0.209727 0.481400 -0.048308
v 0.171590 0.356229 0.057528
v 0.160161 0.317880 0.062252
v 0.163830 0.325879 0.049379
v 0.173384 0.357936 0.043590
v 0.186258 0.432089 0.028136
v 0.185951 0.426720 0.025189
v 0.190898 0.468052 -0.007191
v 0.190211 0.461614 -0.008325
v 0.192005 0.489926 -0.048552
v 0.191227 0.481400 -0.048308
v 0.168267 0.330140 -0.126456
v 0.169856 0.386041 -0.144565
v 0.181003 0.386041 -0.144565
v 0.197973 0.448339 -0.129302
v 0.177412 0.448339 -0.129302
v 0.206954 0.481913 -0.093573
v 0.188453 0.481913 -0.093573
v 0.209727 0.481400 -0.048308
v 0.191227 0.481400 -0.048308
v 0.111727 0.474741 -0.011054
v 0.114354 0.487070 -0.045159
v 0.087761 0.447346 -0.045868
v 0.102336 0.443793 0.031209
v 0.111333 0.492109 -0.085488
v 0.073399 0.398968 0.032431
v 0.085796 0.401488 0.075014
v 0.071793 0.376681 0.095465
v 0.057261 0.450338 -0.104355
v 0.090045 0.487678 -0.117231
v 0.056723 0.489270 -0.127147
v 0.047600 0.355796 0.068100
v 0.064224 0.367661 0.095811
v 0.046991 0.357595 0.105193
v 0.024090 0.350009 0.110536
v 0.000000 0.453121 -0.115146
v 0.000000 0.492041 -0.136018
v 0.000000 0.341703 0.077453
v 0.000000 0.347736 0.111357
v -0.024090 0.350009 0.110536
v -0.046991 0.357595 0.105193
v -0.057261 0.450338 -0.104355
v -0.056723 0.489270 -0.127147
v -0.090045 0.487678 -0.117231
v -0.047600 0.355796 0.068100
v -0.064224 0.367661 0.095811
v -0.071793 0.376681 0.095465
v -0.085796 0.401488 0.075014
v 0.000000 0.352089 0.027566
v -0.073399 0.398968 0.032431
v -0.102336 0.443793 0.031209
v -0.111727 0.474741 -0.011054
v -0.024496 0.359341 0.022752
v 0.024496 0.359341 0.022752
v 0.000000 0.374604 -0.017808
v 0.037773 0.381559 0.004396
v 0.045164 0.406456 -0.035899
v 0.029468 0.407995 -0.065998
v 0.000000 0.409428 -0.071551
v -0.029468 0.407995 -0.065998
v -0.045164 0.406456 -0.035899
v -0.037773 0.381559 0.004396
v -0.087761 0.447346 -0.045868
v -0.111333 0.492109 -0.085488
v -0.114354 0.487070 -0.045159
v 0.173384 0.357936 0.043590
v 0.163830 0.325879 0.049379
v 0.121339 0.323525 0.043726
v 0.159988 0.316224 0.047173
v 0.132243 0.358574 0.039273
v 0.197762 0.421350 0.022242
v 0.143244 0.295845 0.013291
v 0.184961 0.291922 0.016248
v 0.155408 0.418833 0.018987
v 0.207202 0.455177 -0.009459
v 0.104307 0.340112 0.013214
v 0.164379 0.450976 -0.011136
v 0.208949 0.472875 -0.048064
v 0.111382 0.362854 0.010325
v 0.126414 0.401955 -0.002838
v 0.118521 0.322151 -0.006534
v 0.101181 0.370857 -0.041436
v 0.125020 0.307172 -0.043518
v 0.132235 0.422812 -0.022384
v 0.166039 0.467794 -0.047821
v 0.206424 0.473901 -0.091318
v 0.133312 0.433724 -0.046188
v 0.163639 0.468769 -0.088922
v 0.198430 0.443783 -0.124364
v 0.131755 0.434357 -0.072857
v 0.156043 0.440150 -0.120324
v 0.182135 0.384307 -0.135719
v 0.126826 0.415787 -0.093233
v 0.140558 0.383633 -0.131114
v 0.168267 0.330140 -0.126456
v 0.116778 0.379114 -0.100234
v 0.127380 0.332162 -0.122311
v 0.179675 0.282219 -0.097408
v 0.108228 0.345716 -0.094523
v 0.138221 0.286625 -0.094709
v 0.195501 0.267628 -0.043735
v 0.115262 0.316168 -0.076612
v 0.153259 0.272760 -0.043707
v -0.121339 0.323525 0.043726
v -0.163830 0.325879 0.049379
v -0.173384 0.357936 0.043590
v -0.159988 0.316224 0.047173
v -0.132243 0.358574 0.039273
v -0.197762 0.421350 0.022242
v -0.143244 0.295845 0.013291
v -0.184961 0.291922 0.016248
v -0.155408 0.418833 0.018987
v -0.207202 0.455177 -0.009459
v -0.153259 0.272760 -0.043707
v -0.195501 0.267628 -0.043735
v -0.164379 0.450976 -0.011136
v -0.208949 0.472875 -0.048064
v -0.138221 0.286625 -0.094709
v -0.179675 0.282219 -0.097408
v -0.166039 0.467794 -0.047821
v -0.206424 0.473901 -0.091318
v -0.127380 0.332162 -0.122311
v -0.168267 0.330140 -0.126456
v -0.163639 0.468769 -0.088922
v -0.198430 0.443783 -0.124364
v -0.140558 0.383633 -0.131114
v -0.182135 0.384307 -0.135719
v -0.156043 0.440150 -0.120324
v -0.116778 0.379114 -0.100234
v -0.126826 0.415787 -0.093233
v -0.131755 0.434357 -0.072857
v -0.133312 0.433724 -0.046188
v -0.101181 0.370857 -0.041436
v -0.132235 0.422812 -0.022384
v -0.108228 0.345716 -0.094523
v -0.126414 0.401955 -0.002838
v -0.115262 0.316168 -0.076612
v -0.111382 0.362854 0.010325
v -0.125020 0.307172 -0.043518
v -0.104307 0.340112 0.013214
v -0.118521 0.322151 -0.006534
vt 0.559570 0.757935
vt 0.553711 0.749756
vt 0.629883 0.707031
vt 0.630371 0.715332
vt 0.636719 0.710693
vt 0.640137 0.718994
vt 0.630371 0.715332
vt 0.629883 0.707031
vt 0.442139 0.757935
vt 0.371094 0.715332
vt 0.371826 0.707031
vt 0.447754 0.749756
vt 0.364746 0.710693
vt 0.371826 0.707031
vt 0.371094 0.715332
vt 0.361572 0.718994
vt 0.667969 0.792603
vt 0.647461 0.743652
vt 0.669922 0.788940
vt 0.683105 0.821411
vt 0.685547 0.817749
vt 0.696289 0.848633
vt 0.699707 0.843872
vt 0.659668 0.793701
vt 0.647461 0.743652
vt 0.667969 0.792603
vt 0.671875 0.825317
vt 0.683105 0.821411
vt 0.684082 0.853516
vt 0.696289 0.848633
vt 0.215088 0.860962
vt 0.166016 0.870605
vt 0.154419 0.845337
vt 0.208740 0.832031
vt 0.133423 0.820923
vt 0.202515 0.796631
vt 0.106079 0.810913
vt 0.123535 0.758179
vt 0.062134 0.800049
vt 0.205200 0.747070
vt 0.073181 0.744629
vt 0.132324 0.721924
vt 0.216919 0.701416
vt 0.083862 0.704102
vt 0.147583 0.672119
vt 0.098633 0.657471
vt 0.247681 0.663574
vt 0.159302 0.639160
vt 0.109985 0.625000
vt 0.174805 0.584717
vt 0.126343 0.571533
vt 0.245117 0.597168
vt 0.195435 0.508057
vt 0.146729 0.495117
vt 0.153809 0.465332
vt 0.203247 0.479492
vt 0.267334 0.496094
vt 0.260254 0.522217
vt 0.320068 0.506836
vt 0.315186 0.533203
vt 0.373047 0.512207
vt 0.301270 0.610107
vt 0.294434 0.656006
vt 0.369873 0.540283
vt 0.416992 0.516357
vt 0.360107 0.617432
vt 0.337402 0.681641
vt 0.418701 0.544678
vt 0.418213 0.622070
vt 0.466309 0.545898
vt 0.465820 0.516357
vt 0.500488 0.517334
vt 0.465332 0.623291
vt 0.500488 0.546387
vt 0.420166 0.687012
vt 0.371826 0.707031
vt 0.447754 0.749756
vt 0.463135 0.741699
vt 0.464600 0.689453
vt 0.481689 0.735840
vt 0.500488 0.624512
vt 0.500488 0.690186
vt 0.500488 0.735107
vt 0.520020 0.735840
vt 0.537109 0.689453
vt 0.538574 0.741699
vt 0.536133 0.623291
vt 0.581055 0.687012
vt 0.553711 0.749756
vt 0.629883 0.707031
vt 0.664062 0.681641
vt 0.583496 0.622070
vt 0.641602 0.617432
vt 0.707031 0.656006
vt 0.583008 0.544678
vt 0.535156 0.545898
vt 0.535645 0.516357
vt 0.584473 0.516357
vt 0.631836 0.540283
vt 0.628418 0.512207
vt 0.700195 0.610107
vt 0.753906 0.663574
vt 0.686523 0.533203
vt 0.681152 0.506836
vt 0.756348 0.597168
vt 0.741211 0.522217
vt 0.734375 0.496094
vt 0.842285 0.639160
vt 0.806152 0.508057
vt 0.798340 0.479492
vt 0.826660 0.584717
vt 0.854980 0.495117
vt 0.847656 0.465332
vt 0.875488 0.571533
vt 0.891602 0.625000
vt 0.902832 0.657471
vt 0.854004 0.672119
vt 0.917969 0.704102
vt 0.784668 0.701416
vt 0.869141 0.721924
vt 0.928711 0.744629
vt 0.796387 0.747070
vt 0.877930 0.758179
vt 0.939453 0.800049
vt 0.799316 0.796631
vt 0.895508 0.810913
vt 0.868164 0.820923
vt 0.792969 0.832031
vt 0.847168 0.845337
vt 0.786621 0.860962
vt 0.835449 0.870605
vt 0.371338 0.872681
vt 0.321045 0.858032
vt 0.332520 0.828735
vt 0.382812 0.850586
vt 0.344482 0.797119
vt 0.400879 0.817261
vt 0.363770 0.742676
vt 0.425049 0.779053
vt 0.371094 0.715332
vt 0.442139 0.757935
vt 0.371826 0.707031
vt 0.364746 0.710693
vt 0.334961 0.692383
vt 0.337402 0.681641
vt 0.292480 0.670898
vt 0.294434 0.656006
vt 0.252930 0.676270
vt 0.247681 0.663574
vt 0.227905 0.707520
vt 0.216919 0.701416
vt 0.211792 0.747314
vt 0.205200 0.747070
vt 0.207153 0.795288
vt 0.202515 0.796631
vt 0.213501 0.830200
vt 0.208740 0.832031
vt 0.220947 0.859985
vt 0.215088 0.860962
vt 0.227905 0.707520
vt 0.225952 0.749023
vt 0.219360 0.749756
vt 0.226196 0.795776
vt 0.221680 0.797363
vt 0.230835 0.827881
vt 0.225708 0.829590
vt 0.239136 0.856445
vt 0.233398 0.857788
vt 0.305420 0.848633
vt 0.301758 0.843872
vt 0.315918 0.817749
vt 0.318359 0.821411
vt 0.331543 0.788940
vt 0.333496 0.792603
vt 0.353760 0.743652
vt 0.361572 0.718994
vt 0.371094 0.715332
vt 0.363770 0.742676
vt 0.353760 0.743652
vt 0.344482 0.797119
vt 0.341797 0.793701
vt 0.332520 0.828735
vt 0.329590 0.825317
vt 0.321045 0.858032
vt 0.317139 0.853516
vt 0.227905 0.707520
vt 0.219360 0.749756
vt 0.211792 0.747314
vt 0.221680 0.797363
vt 0.207153 0.795288
vt 0.225708 0.829590
vt 0.213501 0.830200
vt 0.233398 0.857788
vt 0.220947 0.859985
vt 0.317139 0.853516
vt 0.305420 0.848633
vt 0.318359 0.821411
vt 0.329590 0.825317
vt 0.333496 0.792603
vt 0.341797 0.793701
vt 0.353760 0.743652
vt 0.153809 0.465332
vt 0.157593 0.456055
vt 0.203979 0.469727
vt 0.203247 0.479492
vt 0.265625 0.485352
vt 0.267334 0.496094
vt 0.319580 0.495605
vt 0.320068 0.506836
vt 0.372314 0.499023
vt 0.373047 0.512207
vt 0.417236 0.501709
vt 0.416992 0.516357
vt 0.465576 0.501221
vt 0.465820 0.516357
vt 0.500488 0.501953
vt 0.500488 0.517334
vt 0.535645 0.516357
vt 0.536133 0.501221
vt 0.584473 0.516357
vt 0.584473 0.501709
vt 0.628418 0.512207
vt 0.629395 0.499023
vt 0.681152 0.506836
vt 0.682129 0.495605
vt 0.734375 0.496094
vt 0.735840 0.485352
vt 0.798340 0.479492
vt 0.797363 0.469727
vt 0.847656 0.465332
vt 0.844238 0.456055
vt 0.668945 0.828735
vt 0.680664 0.858032
vt 0.630371 0.872681
vt 0.618652 0.850586
vt 0.657227 0.797119
vt 0.600586 0.817261
vt 0.637695 0.742676
vt 0.576660 0.779053
vt 0.630371 0.715332
vt 0.559570 0.757935
vt 0.666504 0.692383
vt 0.636719 0.710693
vt 0.629883 0.707031
vt 0.664062 0.681641
vt 0.708984 0.670898
vt 0.707031 0.656006
vt 0.748535 0.676270
vt 0.753906 0.663574
vt 0.773438 0.707520
vt 0.784668 0.701416
vt 0.790039 0.747314
vt 0.796387 0.747070
vt 0.794434 0.795288
vt 0.799316 0.796631
vt 0.788086 0.830200
vt 0.792969 0.832031
vt 0.780762 0.859985
vt 0.786621 0.860962
vt 0.773438 0.707520
vt 0.782227 0.749756
vt 0.775879 0.749023
vt 0.775391 0.795776
vt 0.779785 0.797363
vt 0.770996 0.827881
vt 0.775879 0.829590
vt 0.762695 0.856445
vt 0.768066 0.857788
vt 0.637695 0.742676
vt 0.630371 0.715332
vt 0.640137 0.718994
vt 0.647461 0.743652
vt 0.657227 0.797119
vt 0.659668 0.793701
vt 0.668945 0.828735
vt 0.671875 0.825317
vt 0.680664 0.858032
vt 0.684082 0.853516
vt 0.773438 0.707520
vt 0.790039 0.747314
vt 0.782227 0.749756
vt 0.779785 0.797363
vt 0.794434 0.795288
vt 0.775879 0.829590
vt 0.788086 0.830200
vt 0.768066 0.857788
vt 0.780762 0.859985
vt 0.486084 0.304688
vt 0.482422 0.346680
vt 0.433838 0.325195
vt 0.471680 0.245605
vt 0.465332 0.389648
vt 0.416748 0.223633
vt 0.440430 0.181152
vt 0.416260 0.150879
vt 0.387939 0.380859
vt 0.431396 0.416992
vt 0.392578 0.430664
vt 0.376709 0.171875
vt 0.403320 0.146973
vt 0.382080 0.132324
vt 0.354980 0.123535
vt 0.326172 0.392578
vt 0.326172 0.441895
vt 0.326172 0.158203
vt 0.326172 0.121094
vt 0.297119 0.123535
vt 0.270020 0.132324
vt 0.264160 0.380859
vt 0.259766 0.430664
vt 0.220947 0.416992
vt 0.275391 0.171875
vt 0.248779 0.146973
vt 0.236084 0.150879
vt 0.211670 0.181152
vt 0.326172 0.209473
vt 0.235474 0.223633
vt 0.180542 0.245605
vt 0.166138 0.304688
vt 0.301514 0.216309
vt 0.350586 0.216309
vt 0.326172 0.260254
vt 0.368896 0.243164
vt 0.377441 0.292969
vt 0.356201 0.321289
vt 0.326172 0.326660
vt 0.295898 0.321289
vt 0.274902 0.292969
vt 0.283203 0.243164
vt 0.218506 0.325195
vt 0.187012 0.389648
vt 0.169800 0.346680
vt 0.531250 0.260254
vt 0.521484 0.210449
vt 0.531250 0.206543
vt 0.525391 0.195312
vt 0.539062 0.261230
vt 0.568359 0.358398
vt 0.583984 0.163574
vt 0.578613 0.157715
vt 0.574219 0.354492
vt 0.623535 0.411133
vt 0.583984 0.232422
vt 0.625977 0.404785
vt 0.689941 0.438477
vt 0.588867 0.267578
vt 0.611816 0.328613
vt 0.618164 0.204590
vt 0.678711 0.280273
vt 0.682129 0.181152
vt 0.645508 0.360840
vt 0.689453 0.430664
vt 0.765137 0.440430
vt 0.687012 0.377930
vt 0.760742 0.432129
vt 0.822266 0.393555
vt 0.732910 0.378906
vt 0.815430 0.387695
vt 0.841797 0.301270
vt 0.768066 0.350098
vt 0.833984 0.299805
vt 0.825684 0.216797
vt 0.780273 0.292969
vt 0.818848 0.220215
vt 0.775391 0.142578
vt 0.770508 0.241211
vt 0.770996 0.149414
vt 0.682617 0.119629
vt 0.739746 0.195312
vt 0.682617 0.127930
vt 0.531250 0.206543
vt 0.521484 0.210449
vt 0.531250 0.260254
vt 0.525391 0.195312
vt 0.539062 0.261230
vt 0.568359 0.358398
vt 0.583984 0.163574
vt 0.578613 0.157715
vt 0.574219 0.354492
vt 0.623535 0.411133
vt 0.682617 0.127930
vt 0.682617 0.119629
vt 0.625977 0.404785
vt 0.689941 0.438477
vt 0.770996 0.149414
vt 0.775391 0.142578
vt 0.689453 0.430664
vt 0.765137 0.440430
vt 0.818848 0.220215
vt 0.825684 0.216797
vt 0.760742 0.432129
vt 0.822266 0.393555
vt 0.833984 0.299805
vt 0.841797 0.301270
vt 0.815430 0.387695
vt 0.780273 0.292969
vt 0.768066 0.350098
vt 0.732910 0.378906
vt 0.687012 0.377930
vt 0.678711 0.280273
vt 0.645508 0.360840
vt 0.770508 0.241211
vt 0.611816 0.328613
vt 0.739746 0.195312
vt 0.588867 0.267578
vt 0.682129 0.181152
vt 0.583984 0.232422
vt 0.618164 0.204590
vn 0.0550 -0.4869 0.8717
vn 0.0549 -0.4869 0.8717
vn 0.8637 -0.5025 0.0393
vn -0.0706 -0.4864 0.8709
vn -0.8676 -0.4957 0.0387
vn -0.8676 -0.4958 0.0387
vn 0.9694 -0.1655 0.1813
vn 0.9106 -0.2455 0.3326
vn 0.9491 -0.1977 0.2452
vn 0.9922 -0.1181 0.0394
vn 0.9888 -0.1266 0.0791
vn 0.9936 -0.1025 -0.0473
vn 0.9939 -0.1026 -0.0394
vn -0.0079 0.5307 0.8475
vn -0.0079 0.2537 0.9672
vn -0.0079 0.5782 0.8159
vn -0.0079 0.8094 0.5872
vn -0.0079 0.8222 0.5692
vn -0.0079 0.9750 0.2220
vn -0.0159 0.9749 0.2220
vn -0.0158 0.9714 0.2369
vn -0.0712 0.9486 -0.3083
vn -0.0629 0.9593 -0.2752
vn -0.1250 0.6405 -0.7577
vn -0.1490 0.5099 -0.8472
vn -0.1402 0.5220 -0.8414
vn -0.1561 0.3357 -0.9290
vn -0.0079 0.4936 -0.8697
vn -0.1794 0.0390 -0.9830
vn -0.0078 0.3279 -0.9447
vn -0.1707 0.0078 -0.9853
vn -0.2326 -0.2559 -0.9383
vn -0.0078 -0.0078 -0.9999
vn -0.2015 -0.2248 -0.9533
vn -0.0078 -0.1707 -0.9853
vn -0.5248 -0.3241 -0.7871
vn -0.2784 -0.2165 -0.9357
vn -0.0078 -0.1403 -0.9901
vn -0.3245 -0.0773 -0.9427
vn -0.0078 -0.0546 -0.9985
vn -0.6444 -0.1320 -0.7532
vn -0.3348 0.0156 -0.9422
vn -0.0078 0.0078 -0.9999
vn -0.0078 0.1327 -0.9911
vn -0.3275 0.1325 -0.9355
vn -0.7002 0.1400 -0.7001
vn -0.6990 0.0311 -0.7145
vn -0.9885 0.1479 -0.0312
vn -0.9978 0.0467 -0.0468
vn -0.8599 0.1016 0.5003
vn -0.9801 -0.1945 -0.0389
vn -0.9035 -0.4284 -0.0156
vn -0.8781 0.0157 0.4782
vn -0.5745 0.0000 0.8185
vn -0.8503 -0.1092 0.5149
vn -0.8117 -0.2263 0.5385
vn -0.5968 -0.0471 0.8010
vn -0.5960 -0.0706 0.7999
vn -0.2437 -0.0786 0.9667
vn -0.2533 -0.0554 0.9658
vn -0.0079 -0.0555 0.9984
vn -0.2292 -0.0474 0.9722
vn -0.0079 -0.0712 0.9974
vn -0.5509 0.0236 0.8342
vn -0.6040 0.0863 0.7923
vn -0.5128 0.2525 0.8205
vn -0.4033 0.1977 0.8935
vn -0.2051 0.0394 0.9780
vn -0.1659 0.1106 0.9799
vn -0.0079 -0.0397 0.9992
vn -0.0079 0.0317 0.9995
vn -0.0079 0.0791 0.9968
vn 0.1505 0.1109 0.9824
vn 0.1899 0.0396 0.9810
vn 0.3899 0.1989 0.8991
vn 0.2141 -0.0476 0.9756
vn 0.5398 0.0238 0.8415
vn 0.5011 0.2545 0.8271
vn 0.5939 0.0871 0.7998
vn 0.8062 -0.2292 0.5454
vn 0.5857 -0.0712 0.8074
vn 0.8459 -0.1107 0.5218
vn 0.9006 -0.4345 -0.0158
vn 0.5866 -0.0476 0.8085
vn 0.2288 -0.0789 0.9703
vn 0.2384 -0.0555 0.9696
vn 0.5638 0.0000 0.8259
vn 0.8744 0.0159 0.4849
vn 0.8557 0.1030 0.5071
vn 0.9795 -0.1975 -0.0395
vn 0.5134 -0.3267 -0.7935
vn 0.9977 0.0475 -0.0475
vn 0.9882 0.1502 -0.0316
vn 0.6353 -0.1333 -0.7607
vn 0.6909 0.0314 -0.7223
vn 0.6921 0.1416 -0.7078
vn 0.2640 -0.2175 -0.9397
vn 0.3209 0.0156 -0.9470
vn 0.3134 0.1332 -0.9402
vn 0.3106 -0.0777 -0.9474
vn -0.0077 -0.1707 -0.9853
vn 0.1866 -0.2255 -0.9562
vn 0.2179 -0.2568 -0.9416
vn 0.1556 0.0078 -0.9878
vn 0.1643 0.0391 -0.9856
vn 0.1408 0.3364 -0.9311
vn -0.0078 0.4936 -0.8697
vn 0.1336 0.5110 -0.8491
vn 0.1249 0.5230 -0.8431
vn 0.1096 0.6417 -0.7591
vn 0.0472 0.9602 -0.2755
vn 0.0554 0.9496 -0.3086
vn -0.0000 0.9751 0.2219
vn -0.0000 0.9715 0.2370
vn -0.0158 0.9749 0.2220
vn -0.0634 0.8242 0.5627
vn -0.1982 0.5868 0.7851
vn -0.2052 0.5681 0.7969
vn -0.3248 0.3485 0.8792
vn -0.3239 0.3555 0.8768
vn -0.3938 0.1969 0.8979
vn -0.8225 0.2193 0.5248
vn -0.9356 0.2417 0.2573
vn -0.9529 0.2499 0.1718
vn -0.9634 0.2564 -0.0777
vn -0.9628 0.2562 -0.0854
vn -0.9596 0.2028 -0.1950
vn -0.9580 0.2103 -0.1947
vn -0.9851 0.0543 -0.1629
vn -0.9854 -0.0853 -0.1474
vn -0.9800 -0.1011 -0.1711
vn -0.9779 -0.1086 -0.1785
vn -0.9843 -0.1085 -0.1395
vn -0.9863 -0.1087 -0.1242
vn -0.9938 -0.1009 -0.0466
vn -0.9934 -0.1009 -0.0543
vn -0.9438 -0.2785 -0.1779
vn -0.9492 -0.2412 -0.2023
vn -0.9509 -0.2338 -0.2027
vn -0.9645 -0.1789 -0.1944
vn -0.9690 -0.1628 -0.1860
vn -0.9880 -0.1011 -0.1167
vn -0.9889 -0.1012 -0.1090
vn -0.9941 -0.1010 -0.0388
vn -0.9891 -0.1246 0.0779
vn -0.9925 -0.1163 0.0388
vn -0.9506 -0.1948 0.2416
vn -0.9703 -0.1630 0.1785
vn -0.9132 -0.2420 0.3278
vn -0.9562 -0.2799 0.0855
vn -0.9708 -0.2175 0.1010
vn -0.9755 -0.1951 0.1015
vn -0.9887 -0.1324 0.0701
vn -0.9858 -0.1397 0.0931
vn -0.9948 -0.1010 -0.0155
vn -0.9949 -0.1011 -0.0000
vn -0.0078 -0.3115 -0.9502
vn -0.0078 0.1250 -0.9921
vn -0.0078 0.0856 -0.9963
vn -0.0078 0.5237 -0.8519
vn -0.0078 0.4596 -0.8881
vn -0.0079 0.9290 -0.3700
vn -0.0079 0.9051 -0.4250
vn -0.0080 0.5250 0.8511
vn -0.0078 -0.8716 -0.4902
vn -0.1474 -0.8768 -0.4578
vn -0.1706 -0.8766 -0.4499
vn -0.2865 -0.8983 -0.3330
vn -0.3252 -0.9060 -0.2710
vn -0.3577 -0.9333 -0.0311
vn -0.3486 -0.9373 0.0077
vn -0.2885 -0.9434 0.1637
vn -0.2881 -0.9422 0.1713
vn -0.1718 -0.9529 0.2499
vn -0.1639 -0.9523 0.2576
vn -0.0860 -0.9534 0.2892
vn -0.0078 -0.9576 0.2880
vn -0.0078 -0.9576 0.2881
vn 0.0704 -0.9546 0.2895
vn 0.1487 -0.9546 0.2582
vn 0.1566 -0.9553 0.2506
vn 0.2737 -0.9463 0.1721
vn 0.2741 -0.9475 0.1644
vn 0.3349 -0.9422 0.0078
vn 0.3441 -0.9384 -0.0313
vn 0.3112 -0.9105 -0.2724
vn 0.2722 -0.9022 -0.3344
vn 0.1555 -0.8788 -0.4511
vn 0.1322 -0.8787 -0.4588
vn -0.0078 -0.8715 -0.4902
vn 0.0476 0.8250 0.5632
vn 0.0000 0.9751 0.2220
vn 0.1829 0.5886 0.7875
vn 0.1900 0.5699 0.7994
vn 0.3105 0.3503 0.8837
vn 0.3096 0.3572 0.8812
vn 0.3804 0.1981 0.9034
vn 0.9336 0.2453 0.2611
vn 0.8173 0.2222 0.5317
vn 0.8173 0.2222 0.5316
vn 0.9514 0.2537 0.1744
vn 0.9623 0.2603 -0.0789
vn 0.9617 0.2601 -0.0867
vn 0.9583 0.2059 -0.1980
vn 0.9567 0.2135 -0.1977
vn 0.9847 0.0552 -0.1654
vn 0.9849 -0.0867 -0.1497
vn 0.9794 -0.1026 -0.1738
vn 0.9772 -0.1103 -0.1813
vn 0.9838 -0.1102 -0.1417
vn 0.9858 -0.1104 -0.1262
vn 0.9932 -0.1025 -0.0552
vn 0.9421 -0.2826 -0.1805
vn 0.9494 -0.2374 -0.2057
vn 0.9476 -0.2448 -0.2053
vn 0.9634 -0.1816 -0.1974
vn 0.9680 -0.1653 -0.1889
vn 0.9876 -0.1027 -0.1185
vn 0.9885 -0.1028 -0.1107
vn 0.9699 -0.2208 0.1025
vn 0.9549 -0.2841 0.0868
vn 0.9748 -0.1981 0.1030
vn 0.9884 -0.1344 0.0712
vn 0.9854 -0.1419 0.0946
vn 0.9946 -0.1026 -0.0158
vn 0.9947 -0.1026 0.0000
vn -0.0080 0.9290 -0.3700
vn -0.8395 0.5178 0.1648
vn -0.8315 0.5412 0.1255
vn -0.7127 0.6423 0.2820
vn -0.8384 0.5171 0.1724
vn -0.6848 0.6533 0.3227
vn -0.7306 0.6284 0.2671
vn -0.7857 0.5892 0.1886
vn -0.7753 0.6030 0.1879
vn -0.4173 0.6771 0.6062
vn -0.6156 0.6629 0.4262
vn -0.1581 0.4822 0.8617
vn -0.5365 0.8205 0.1972
vn -0.6366 0.7702 0.0393
vn -0.3464 0.9369 -0.0472
vn -0.2846 0.9566 -0.0633
vn -0.0080 0.5962 0.8028
vn -0.0079 0.4850 0.8745
vn -0.0079 0.9962 0.0870
vn -0.0079 0.9835 -0.1810
vn 0.2700 0.9608 -0.0635
vn 0.3325 0.9419 -0.0475
vn 0.4041 0.6815 0.6101
vn 0.1426 0.4834 0.8637
vn 0.6056 0.6694 0.4303
vn 0.5251 0.8275 0.1989
vn 0.6271 0.7779 0.0397
vn 0.7689 0.6104 0.1903
vn 0.7795 0.5966 0.1909
vn -0.0079 0.9692 0.2463
vn 0.7231 0.6357 0.2702
vn 0.8336 0.5240 0.1747
vn 0.8347 0.5247 0.1669
vn 0.4438 0.8321 0.3328
vn -0.4564 0.8262 0.3305
vn -0.0079 0.8797 0.4755
vn -0.5908 0.7168 0.3702
vn -0.5973 0.7309 0.3301
vn -0.3787 0.7652 0.5207
vn -0.0079 0.7381 0.6746
vn 0.3650 0.7697 0.5237
vn 0.5871 0.7378 0.3332
vn 0.5804 0.7235 0.3737
vn 0.7049 0.6495 0.2851
vn 0.6763 0.6604 0.3262
vn 0.8265 0.5484 0.1272
vn 0.0931 -0.3102 -0.9461
vn 0.1090 -0.1634 -0.9805
vn 0.5972 0.3929 -0.6993
vn 0.1494 0.7628 -0.6291
vn 0.3827 -0.3592 -0.8512
vn 0.0855 -0.5364 -0.8396
vn 0.4165 0.8408 -0.3458
vn 0.1181 0.8974 -0.4251
vn 0.3191 -0.5293 -0.7861
vn 0.0928 -0.8200 -0.5647
vn 0.9383 0.2366 -0.2523
vn 0.3433 -0.7803 -0.5228
vn 0.1008 -0.9692 -0.2249
vn 0.7772 -0.4082 -0.4789
vn 0.7425 -0.5002 -0.4455
vn 0.8190 0.5725 -0.0398
vn 0.9944 -0.1026 -0.0237
vn 0.8222 0.5613 -0.0949
vn 0.7380 -0.5888 -0.3297
vn 0.3738 -0.9034 -0.2103
vn 0.1249 -0.9443 0.3044
vn 0.7609 -0.6276 -0.1647
vn 0.4071 -0.8689 0.2818
vn 0.1180 -0.5270 0.8416
vn 0.8014 -0.5893 0.1021
vn 0.4092 -0.4878 0.7711
vn 0.1031 -0.0872 0.9908
vn 0.8292 -0.4107 0.3791
vn 0.4212 -0.1272 0.8980
vn 0.1030 0.3406 0.9346
vn 0.8557 -0.2377 0.4596
vn 0.4857 0.3026 0.8201
vn 0.1190 0.8486 0.5155
vn 0.9211 0.1112 0.3732
vn 0.4440 0.7690 0.4598
vn 0.1106 0.9877 -0.1106
vn 0.8764 0.4737 0.0868
vn 0.3708 0.9230 -0.1026
vn -0.6071 0.3892 -0.6928
vn -0.1243 -0.1631 -0.9787
vn -0.1084 -0.3097 -0.9446
vn -0.1647 0.7609 -0.6276
vn -0.3959 -0.3571 -0.8461
vn -0.1009 -0.5356 -0.8384
vn -0.4294 0.8353 -0.3435
vn -0.1336 0.8956 -0.4242
vn -0.3330 -0.5266 -0.7822
vn -0.1081 -0.8188 -0.5639
vn -0.3843 0.9176 -0.1020
vn -0.1262 0.9858 -0.1104
vn -0.3570 -0.7760 -0.5199
vn -0.1161 -0.9675 -0.2245
vn -0.4566 0.7636 0.4566
vn -0.1345 0.8469 0.5145
vn -0.3871 -0.8980 -0.2090
vn -0.1402 -0.9424 0.3037
vn -0.4977 0.3002 0.8137
vn -0.1186 0.3400 0.9329
vn -0.4199 -0.8633 0.2800
vn -0.1335 -0.5260 0.8400
vn -0.4341 -0.1263 0.8919
vn -0.1187 -0.0870 0.9891
vn -0.4221 -0.4847 0.7661
vn -0.8599 -0.2345 0.4534
vn -0.8341 -0.4053 0.3741
vn -0.8070 -0.5819 0.1009
vn -0.7674 -0.6201 -0.1628
vn -0.9946 -0.1010 -0.0233
vn -0.7450 -0.5820 -0.3259
vn -0.9234 0.1096 0.3678
vn -0.7494 -0.4944 -0.4404
vn -0.8800 0.4672 0.0857
vn -0.7833 -0.4033 -0.4731
vn -0.8272 0.5541 -0.0936
vn -0.9401 0.2331 -0.2486
vn -0.8241 0.5651 -0.0392
usemtl M_Pickup_Armor
s 1
f 1/1/1 2/2/1 3/3/2
f 3/3/2 4/4/1 1/1/1
f 5/5/3 6/6/3 7/7/3
f 7/7/3 8/8/3 5/5/3
f 9/9/4 10/10/4 11/11/4
f 11/11/4 12/12/4 9/9/4
f 13/13/5 14/14/6 15/15/6
f 15/15/6 16/16/6 13/13/5
f 17/17/7 18/18/8 19/19/9
f 20/20/10 17/17/7 19/19/9
f 19/19/9 21/21/11 20/20/10
f 22/22/12 20/20/10 21/21/11
f 21/21/11 23/23/13 22/22/12
f 24/24/14 25/25/15 26/26/16
f 27/27/17 24/24/14 26/26/16
f 26/26/16 28/28/18 27/27/17
f 29/29/19 27/27/17 28/28/18
f 28/28/18 30/30/19 29/29/19
f 31/31/20 32/32/21 33/33/22
f 33/33/22 34/34/23 31/31/20
f 34/34/23 33/33/22 35/35/24
f 35/35/24 36/36/25 34/34/23
f 36/36/25 35/35/24 37/37/26
f 37/37/26 38/38/27 36/36/25
f 38/38/27 37/37/26 39/39/28
f 40/40/29 36/36/25 38/38/27
f 39/39/28 41/41/30 38/38/27
f 38/38/27 42/42/31 40/40/29
f 42/42/31 38/38/27 41/41/30
f 43/43/32 40/40/29 42/42/31
f 41/41/30 44/44/33 42/42/31
f 42/42/31 45/45/34 43/43/32
f 45/45/34 42/42/31 44/44/33
f 44/44/33 46/46/35 45/45/34
f 47/47/36 43/43/32 45/45/34
f 48/48/37 45/45/34 46/46/35
f 45/45/34 48/48/37 47/47/36
f 46/46/35 49/49/38 48/48/37
f 50/50/39 48/48/37 49/49/38
f 49/49/38 51/51/40 50/50/39
f 52/52/41 47/47/36 48/48/37
f 48/48/37 50/50/39 52/52/41
f 53/53/42 50/50/39 51/51/40
f 51/51/40 54/54/43 53/53/42
f 54/54/43 55/55/44 56/56/45
f 56/56/45 53/53/42 54/54/43
f 53/53/42 56/56/45 57/57/46
f 50/50/39 53/53/42 58/58/47
f 57/57/46 58/58/47 53/53/42
f 58/58/47 52/52/41 50/50/39
f 58/58/47 57/57/46 59/59/48
f 59/59/48 60/60/49 58/58/47
f 52/52/41 58/58/47 60/60/49
f 60/60/49 59/59/48 61/61/50
f 47/47/36 52/52/41 62/62/51
f 60/60/49 62/62/51 52/52/41
f 62/62/51 63/63/52 47/47/36
f 61/61/50 64/64/53 60/60/49
f 62/62/51 60/60/49 64/64/53
f 64/64/53 61/61/50 65/65/54
f 63/63/52 62/62/51 66/66/55
f 64/64/53 66/66/55 62/62/51
f 66/66/55 67/67/56 63/63/52
f 65/65/54 68/68/57 64/64/53
f 66/66/55 64/64/53 68/68/57
f 67/67/56 66/66/55 69/69/58
f 68/68/57 69/69/58 66/66/55
f 70/70/59 68/68/57 65/65/54
f 65/65/54 71/71/60 70/70/59
f 70/70/59 71/71/60 72/72/61
f 68/68/57 70/70/59 73/73/62
f 73/73/62 69/69/58 68/68/57
f 72/72/61 74/74/63 70/70/59
f 73/73/62 70/70/59 74/74/63
f 69/69/58 75/75/64 67/67/56
f 75/75/64 76/76/65 67/67/56
f 77/77/66 76/76/65 75/75/64
f 75/75/64 78/78/67 77/77/66
f 79/79/68 75/75/64 69/69/58
f 78/78/67 75/75/64 79/79/68
f 69/69/58 73/73/62 79/79/68
f 79/79/68 80/80/69 78/78/67
f 79/79/68 73/73/62 81/81/70
f 74/74/63 81/81/70 73/73/62
f 80/80/69 79/79/68 82/82/71
f 81/81/70 82/82/71 79/79/68
f 82/82/71 83/83/72 80/80/69
f 84/84/73 83/83/72 82/82/71
f 82/82/71 85/85/74 84/84/73
f 85/85/74 82/82/71 81/81/70
f 86/86/75 84/84/73 85/85/74
f 87/87/76 81/81/70 74/74/63
f 81/81/70 87/87/76 85/85/74
f 85/85/74 88/88/77 86/86/75
f 89/89/78 86/86/75 88/88/77
f 88/88/77 90/90/79 89/89/78
f 88/88/77 91/91/80 90/90/79
f 92/92/81 88/88/77 85/85/74
f 91/91/80 88/88/77 92/92/81
f 85/85/74 87/87/76 92/92/81
f 92/92/81 93/93/82 91/91/80
f 94/94/83 91/91/80 93/93/82
f 95/95/84 92/92/81 87/87/76
f 93/93/82 92/92/81 95/95/84
f 74/74/63 96/96/85 87/87/76
f 87/87/76 96/96/85 95/95/84
f 96/96/85 74/74/63 72/72/61
f 72/72/61 97/97/86 96/96/85
f 96/96/85 97/97/86 98/98/87
f 98/98/87 95/95/84 96/96/85
f 99/99/88 95/95/84 98/98/87
f 95/95/84 99/99/88 93/93/82
f 98/98/87 100/100/89 99/99/88
f 93/93/82 101/101/90 94/94/83
f 101/101/90 93/93/82 99/99/88
f 102/102/91 94/94/83 101/101/90
f 103/103/92 99/99/88 100/100/89
f 99/99/88 103/103/92 101/101/90
f 100/100/89 104/104/93 103/103/92
f 105/105/94 101/101/90 103/103/92
f 101/101/90 105/105/94 102/102/91
f 106/106/95 103/103/92 104/104/93
f 103/103/92 106/106/95 105/105/94
f 104/104/93 107/107/96 106/106/95
f 108/108/97 102/102/91 105/105/94
f 109/109/98 106/106/95 107/107/96
f 107/107/96 110/110/99 109/109/98
f 111/111/100 105/105/94 106/106/95
f 106/106/95 109/109/98 111/111/100
f 105/105/94 111/111/100 108/108/97
f 112/112/43 109/109/98 110/110/99
f 110/110/99 113/113/44 112/112/43
f 109/109/98 112/112/43 114/114/40
f 114/114/40 111/111/100 109/109/98
f 111/111/100 114/114/40 115/115/38
f 115/115/38 108/108/97 111/111/100
f 108/108/97 115/115/38 116/116/101
f 116/116/101 117/117/102 108/108/97
f 102/102/91 108/108/97 117/117/102
f 117/117/102 116/116/101 118/118/33
f 117/117/102 119/119/103 102/102/91
f 118/118/33 120/120/104 117/117/102
f 119/119/103 117/117/102 120/120/104
f 120/120/104 118/118/33 121/121/30
f 120/120/104 122/122/105 119/119/103
f 121/121/30 123/123/106 120/120/104
f 122/122/105 120/120/104 123/123/106
f 123/123/106 121/121/30 124/124/107
f 123/123/106 125/125/108 122/122/105
f 124/124/107 126/126/109 123/123/106
f 125/125/108 123/123/106 126/126/109
f 126/126/109 127/127/110 125/125/108
f 128/128/111 125/125/108 127/127/110
f 127/127/110 129/129/112 128/128/111
f 130/130/113 128/128/111 129/129/112
f 129/129/112 131/131/114 130/130/113
f 132/132/21 133/133/115 134/134/116
f 134/134/116 135/135/116 132/132/21
f 135/135/116 134/134/116 136/136/117
f 136/136/117 137/137/118 135/135/116
f 137/137/118 136/136/117 138/138/119
f 138/138/119 139/139/120 137/137/118
f 139/139/120 138/138/119 140/140/121
f 140/140/121 141/141/121 139/139/120
f 142/142/122 143/143/122 144/144/123
f 144/144/123 145/145/124 142/142/122
f 145/145/124 144/144/123 146/146/125
f 146/146/125 147/147/126 145/145/124
f 147/147/126 146/146/125 148/148/127
f 148/148/127 149/149/128 147/147/126
f 149/149/128 148/148/127 150/150/129
f 150/150/129 151/151/129 149/149/128
f 151/151/129 150/150/129 152/152/130
f 152/152/130 153/153/130 151/151/129
f 153/153/130 152/152/130 154/154/131
f 154/154/131 155/155/132 153/153/130
f 155/155/132 154/154/131 156/156/133
f 156/156/133 157/157/134 155/155/132
f 157/157/134 156/156/133 158/158/135
f 158/158/135 159/159/136 157/157/134
f 160/160/137 161/161/138 162/162/139
f 162/162/139 161/161/138 163/163/140
f 163/163/140 164/164/141 162/162/139
f 164/164/141 163/163/140 165/165/142
f 165/165/142 166/166/143 164/164/141
f 166/166/143 165/165/142 167/167/144
f 167/167/144 168/168/135 166/166/143
f 169/169/135 170/170/144 171/171/145
f 171/171/145 172/172/146 169/169/135
f 172/172/146 171/171/145 173/173/147
f 173/173/147 174/174/148 172/172/146
f 174/174/148 173/173/147 175/175/149
f 176/176/150 177/177/150 178/178/151
f 178/178/151 179/179/152 176/176/150
f 179/179/152 178/178/151 180/180/153
f 180/180/153 181/181/154 179/179/152
f 181/181/154 180/180/153 182/182/155
f 182/182/155 183/183/156 181/181/154
f 183/183/156 182/182/155 184/184/136
f 184/184/136 185/185/135 183/183/156
f 186/186/157 187/187/158 188/188/159
f 188/188/159 187/187/158 189/189/160
f 189/189/160 190/190/161 188/188/159
f 190/190/161 189/189/160 191/191/162
f 191/191/162 192/192/163 190/190/161
f 192/192/163 191/191/162 193/193/19
f 193/193/19 194/194/19 192/192/163
f 195/195/19 196/196/19 197/197/18
f 197/197/18 198/198/17 195/195/19
f 198/198/17 197/197/18 199/199/16
f 199/199/16 200/200/164 198/198/17
f 200/200/164 199/199/16 201/201/15
f 202/202/165 203/203/165 204/204/166
f 204/204/166 205/205/167 202/202/165
f 205/205/167 204/204/166 206/206/168
f 206/206/168 207/207/169 205/205/167
f 207/207/169 206/206/168 208/208/170
f 208/208/170 209/209/171 207/207/169
f 209/209/171 208/208/170 210/210/172
f 210/210/172 211/211/173 209/209/171
f 211/211/173 210/210/172 212/212/174
f 212/212/174 213/213/175 211/211/173
f 213/213/175 212/212/174 214/214/176
f 214/214/176 215/215/176 213/213/175
f 215/215/176 214/214/176 216/216/177
f 216/216/177 217/217/178 215/215/176
f 218/218/179 217/217/178 216/216/177
f 216/216/177 219/219/179 218/218/179
f 220/220/180 218/218/179 219/219/179
f 219/219/179 221/221/181 220/220/180
f 222/222/182 220/220/180 221/221/181
f 221/221/181 223/223/183 222/222/182
f 224/224/184 222/222/182 223/223/183
f 223/223/183 225/225/185 224/224/184
f 226/226/186 224/224/184 225/225/185
f 225/225/185 227/227/187 226/226/186
f 228/228/188 226/226/186 227/227/187
f 227/227/187 229/229/189 228/228/188
f 230/230/165 228/228/188 229/229/189
f 229/229/189 231/231/190 230/230/165
f 232/232/191 233/233/192 234/234/114
f 234/234/114 235/235/191 232/232/191
f 236/236/193 232/232/191 235/235/191
f 235/235/191 237/237/194 236/236/193
f 238/238/195 236/236/193 237/237/194
f 237/237/194 239/239/196 238/238/195
f 240/240/197 238/238/195 239/239/196
f 239/239/196 241/241/197 240/240/197
f 242/242/198 243/243/199 244/244/200
f 244/244/200 245/245/201 242/242/198
f 246/246/202 242/242/198 245/245/201
f 245/245/201 247/247/203 246/246/202
f 248/248/204 246/246/202 247/247/203
f 247/247/203 249/249/205 248/248/204
f 250/250/206 248/248/204 249/249/205
f 249/249/205 251/251/206 250/250/206
f 252/252/207 250/250/206 251/251/206
f 251/251/206 253/253/207 252/252/207
f 254/254/208 252/252/207 253/253/207
f 253/253/207 255/255/209 254/254/208
f 256/256/210 254/254/208 255/255/209
f 255/255/209 257/257/211 256/256/210
f 258/258/12 256/256/210 257/257/211
f 257/257/211 259/259/212 258/258/12
f 260/260/213 261/261/214 262/262/215
f 263/263/216 262/262/215 261/261/214
f 261/261/214 264/264/217 263/263/216
f 265/265/218 263/263/216 264/264/217
f 264/264/217 266/266/219 265/265/218
f 267/267/13 265/265/218 266/266/219
f 266/266/219 268/268/12 267/267/13
f 269/269/220 270/270/221 271/271/221
f 271/271/221 272/272/222 269/269/220
f 273/273/223 269/269/220 272/272/222
f 272/272/222 274/274/224 273/273/223
f 275/275/225 273/273/223 274/274/224
f 274/274/224 276/276/226 275/275/225
f 277/277/212 275/275/225 276/276/226
f 276/276/226 278/278/12 277/277/212
f 279/279/157 280/280/159 281/281/158
f 282/282/160 281/281/158 280/280/159
f 280/280/159 283/283/161 282/282/160
f 284/284/227 282/282/160 283/283/161
f 283/283/161 285/285/163 284/284/227
f 286/286/19 284/284/227 285/285/163
f 285/285/163 287/287/19 286/286/19
f 288/288/228 289/289/229 290/290/230
f 291/291/231 288/288/228 290/290/230
f 289/289/229 292/292/232 290/290/230
f 290/290/230 293/293/233 291/291/231
f 294/294/234 291/291/231 293/293/233
f 295/295/235 294/294/234 293/293/233
f 296/296/236 290/290/230 292/292/232
f 292/292/232 297/297/237 296/296/236
f 297/297/237 298/298/238 296/296/236
f 293/293/233 299/299/239 295/295/235
f 300/300/240 295/295/235 299/299/239
f 301/301/241 300/300/240 299/299/239
f 302/302/242 301/301/241 299/299/239
f 303/303/243 296/296/236 298/298/238
f 298/298/238 304/304/244 303/303/243
f 299/299/239 305/305/245 302/302/242
f 306/306/246 302/302/242 305/305/245
f 307/307/247 306/306/246 305/305/245
f 308/308/248 307/307/247 305/305/245
f 309/309/249 303/303/243 304/304/244
f 304/304/244 310/310/250 309/309/249
f 310/310/250 311/311/251 309/309/249
f 305/305/245 312/312/252 308/308/248
f 313/313/253 308/308/248 312/312/252
f 314/314/254 313/313/253 312/312/252
f 315/315/255 314/314/254 312/312/252
f 312/312/252 305/305/245 316/316/256
f 312/312/252 317/317/257 315/315/255
f 318/318/258 315/315/255 317/317/257
f 319/319/259 318/318/258 317/317/257
f 316/316/256 320/320/260 312/312/252
f 317/317/257 312/312/252 320/320/260
f 321/321/261 316/316/256 305/305/245
f 305/305/245 299/299/239 321/321/261
f 320/320/260 316/316/256 322/322/262
f 316/316/256 321/321/261 322/322/262
f 323/323/263 321/321/261 299/299/239
f 321/321/261 323/323/263 322/322/262
f 299/299/239 293/293/233 323/323/263
f 324/324/264 323/323/263 293/293/233
f 323/323/263 324/324/264 322/322/262
f 293/293/233 290/290/230 324/324/264
f 325/325/265 324/324/264 290/290/230
f 324/324/264 325/325/265 322/322/262
f 290/290/230 296/296/236 325/325/265
f 326/326/266 325/325/265 296/296/236
f 325/325/265 326/326/266 322/322/262
f 296/296/236 303/303/243 326/326/266
f 327/327/267 326/326/266 303/303/243
f 326/326/266 327/327/267 322/322/262
f 303/303/243 309/309/249 327/327/267
f 327/327/267 328/328/268 322/322/262
f 328/328/268 327/327/267 309/309/249
f 328/328/268 329/329/269 322/322/262
f 329/329/269 320/320/260 322/322/262
f 320/320/260 329/329/269 317/317/257
f 309/309/249 330/330/270 328/328/268
f 329/329/269 328/328/268 330/330/270
f 330/330/270 317/317/257 329/329/269
f 330/330/270 309/309/249 311/311/251
f 317/317/257 330/330/270 319/319/259
f 311/311/251 331/331/271 330/330/270
f 332/332/272 319/319/259 330/330/270
f 331/331/271 332/332/272 330/330/270
f 333/333/273 334/334/274 335/335/275
f 334/334/274 336/336/276 335/335/275
f 335/335/275 337/337/277 333/333/273
f 338/338/278 333/333/273 337/337/277
f 339/339/279 335/335/275 336/336/276
f 336/336/276 340/340/280 339/339/279
f 337/337/277 341/341/281 338/338/278
f 342/342/282 338/338/278 341/341/281
f 337/337/277 335/335/275 343/343/283
f 341/341/281 344/344/284 342/342/282
f 345/345/285 342/342/282 344/344/284
f 341/341/281 337/337/277 346/346/286
f 343/343/283 346/346/286 337/337/277
f 346/346/286 347/347/287 341/341/281
f 344/344/284 341/341/281 347/347/287
f 348/348/288 343/343/283 335/335/275
f 335/335/275 339/339/279 348/348/288
f 346/346/286 343/343/283 349/349/289
f 343/343/283 348/348/288 349/349/289
f 347/347/287 346/346/286 349/349/289
f 350/350/290 348/348/288 339/339/279
f 348/348/288 350/350/290 349/349/289
f 347/347/287 351/351/291 344/344/284
f 351/351/291 347/347/287 349/349/289
f 344/344/284 352/352/292 345/345/285
f 352/352/292 344/344/284 351/351/291
f 353/353/293 345/345/285 352/352/292
f 351/351/291 354/354/294 352/352/292
f 354/354/294 351/351/291 349/349/289
f 352/352/292 355/355/295 353/353/293
f 355/355/295 352/352/292 354/354/294
f 356/356/296 353/353/293 355/355/295
f 354/354/294 357/357/297 355/355/295
f 357/357/297 354/354/294 349/349/289
f 355/355/295 358/358/298 356/356/296
f 358/358/298 355/355/295 357/357/297
f 359/359/299 356/356/296 358/358/298
f 357/357/297 360/360/300 358/358/298
f 360/360/300 357/357/297 349/349/289
f 358/358/298 361/361/301 359/359/299
f 361/361/301 358/358/298 360/360/300
f 362/362/302 359/359/299 361/361/301
f 360/360/300 363/363/303 361/361/301
f 363/363/303 360/360/300 349/349/289
f 361/361/301 364/364/304 362/362/302
f 364/364/304 361/361/301 363/363/303
f 365/365/305 362/362/302 364/364/304
f 366/366/306 363/363/303 349/349/289
f 363/363/303 366/366/306 364/364/304
f 364/364/304 367/367/307 365/365/305
f 367/367/307 364/364/304 366/366/306
f 368/368/308 365/365/305 367/367/307
f 369/369/309 366/366/306 349/349/289
f 366/366/306 369/369/309 367/367/307
f 350/350/290 369/369/309 349/349/289
f 367/367/307 370/370/310 368/368/308
f 370/370/310 367/367/307 369/369/309
f 369/369/309 350/350/290 370/370/310
f 340/340/280 368/368/308 370/370/310
f 339/339/279 370/370/310 350/350/290
f 370/370/310 339/339/279 340/340/280
f 371/371/311 372/372/312 373/373/313
f 372/372/312 371/371/311 374/374/314
f 373/373/313 375/375/315 371/371/311
f 375/375/315 373/373/313 376/376/316
f 374/374/314 371/371/311 377/377/317
f 377/377/317 378/378/318 374/374/314
f 376/376/316 379/379/319 375/375/315
f 379/379/319 376/376/316 380/380/320
f 378/378/318 377/377/317 381/381/321
f 381/381/321 382/382/322 378/378/318
f 380/380/320 383/383/323 379/379/319
f 383/383/323 380/380/320 384/384/324
f 382/382/322 381/381/321 385/385/325
f 385/385/325 386/386/326 382/382/322
f 384/384/324 387/387/327 383/383/323
f 387/387/327 384/384/324 388/388/328
f 386/386/326 385/385/325 389/389/329
f 389/389/329 390/390/330 386/386/326
f 388/388/328 391/391/331 387/387/327
f 391/391/331 388/388/328 392/392/332
f 390/390/330 389/389/329 393/393/333
f 393/393/333 394/394/334 390/390/330
f 395/395/335 392/392/332 394/394/334
f 394/394/334 393/393/333 395/395/335
f 392/392/332 395/395/335 391/391/331
f 396/396/336 393/393/333 389/389/329
f 397/397/337 395/395/335 393/393/333
f 393/393/333 396/396/336 397/397/337
f 398/398/338 391/391/331 395/395/335
f 395/395/335 397/397/337 398/398/338
f 391/391/331 398/398/338 399/399/339
f 399/399/339 387/387/327 391/391/331
f 397/397/337 400/400/340 398/398/338
f 398/398/338 400/400/340 399/399/339
f 396/396/336 400/400/340 397/397/337
f 387/387/327 399/399/339 401/401/341
f 399/399/339 400/400/340 401/401/341
f 401/401/341 383/383/323 387/387/327
f 389/389/329 402/402/342 396/396/336
f 402/402/342 400/400/340 396/396/336
f 402/402/342 389/389/329 385/385/325
f 383/383/323 401/401/341 403/403/343
f 401/401/341 400/400/340 403/403/343
f 403/403/343 379/379/319 383/383/323
f 385/385/325 404/404/344 402/402/342
f 404/404/344 400/400/340 402/402/342
f 404/404/344 385/385/325 381/381/321
f 379/379/319 403/403/343 405/405/345
f 403/403/343 400/400/340 405/405/345
f 405/405/345 375/375/315 379/379/319
f 381/381/321 406/406/346 404/404/344
f 406/406/346 400/400/340 404/404/344
f 406/406/346 381/381/321 377/377/317
f 375/375/315 405/405/345 407/407/347
f 405/405/345 400/400/340 407/407/347
f 407/407/347 371/371/311 375/375/315
f 408/408/348 400/400/340 406/406/346
f 407/407/347 400/400/340 408/408/348
f 377/377/317 408/408/348 406/406/346
f 371/371/311 407/407/347 408/408/348
f 408/408/348 377/377/317 371/371/311
